<svg id="Layer_1" data-name="Layer 1" xmlns="http://www.w3.org/2000/svg" viewBox="0 0 500 500"><defs><style>.cls-1{fill:#eee;stroke:#bcbcbc;stroke-width:2px;}.cls-2{fill:#e00000;}</style></defs><title>state_AL</title><path class="cls-1" d="M367.81,294.51l-.24-.13-.23,0-.34-.73-.5-.41-2.57-1.49-1-1-.19-1.16,1.17-1.27-.29-.71.23-.62.35-.7.09-.82-.07-.84-.45-.93-.56-.91-.41-1-.25-2-.22-.82-.62-1-3.69-4.8.3-.83-.41-.5-.64-.42-.32-.61.12-1.11,0-.8-.54-1.3-.32-2.22-.44-.73-.49-.64-.21-.63.45-.59-.31-.43-1.07-1.18-.33-.4-.27-.45-.18-.49,0-.57.15-1.82-1.74-4.58.14-.58q-2.28-12.94-4.5-25.9c-1.46-8.5-3-17-4.42-25.49q-2.29-13.36-4.6-26.72-2.13-12.49-4.28-25-2.25-13-4.46-26.08c-.17-1-.34-2.11-.54-3.15l-25.7-.31L277,119.27q-13.35-.15-26.7-.31t-26.9-.31l-26.9-.31c-1.71,0-3.42,0-5.13,0,.51,1.44,1,2.89,1.54,4.33l1.3,1.88,1.74,1.21.9.13-.06,1c-.93,8.66-1.89,17.31-2.83,26l-3,27q-1.46,13.23-2.91,26.44l-2.91,26.33c-1,8.73-2,17.46-2.92,26.19-.92,8.27-1.86,16.54-2.77,24.81-1,9.07-2.05,18.13-3.06,27.2-.31,2.69-.58,5.39-.91,8.08q.63,13,1.24,26L178,371.69q.63,13.14,1.27,26.28.36,7.26.69,14.52l1.34-.36,1.2-.62h1.06l1,1.43h.33l.11-.35.11-.21.1-.25.07-.46,1.4.76,3.31.71,1.55.6-.46,1.3.09.59.55.18.89.12,0,0,1.11,0,.12.22.09.38.25.17.6-.39.33-.76.54-4.5-.09-2.59.11-1.1.5-2.1.11-1,.11-.54.51-.7.11-.48-.05-1.13.07-.55.18-.44.58-.69.39-.63.22-.82.08-1.25.26-1,.51-.67.29-.61-.33-.87.73-.49.38-.77,0-.88-.4-.87.76.14.33.54.06.79v.91l.14.7.4.21h.57l.68.12,1.15.63.62.78,1.62,4.72.28,1.25-.17.9-.52.74-.58,1.11-.44,1.19-.09,1,.19.38.38.53.36.65.16.76.05.73.16.66.26.62.43.54.41.39.48.32.52.22.62.13.81,0,.06-.11-.1-.3.72-.86.19-.31h.22l.49.48.08.47-.46,1.38-.14.67.39.75,2.53,2.39.65,2.08-1.5,1-2.47.66-2,.65-2.11-.38-1.13-1-.4.16-.31.45-.47.27-2,.49-1.19.55-.65.61h1.71l4.72-.81H213l7.08-.95,3.45-1.44,1.38-2.33-.48.28-.55.17-.57.06-.61,0,.35-1-.22-.66-.36-.67-.09-1h.32l.24.4.94.87.3.5.05.39.24.23.83.15,1.24-.28.63-.74.48-.77.79-.37,1.34-.31.65-.8.38-1,.57-1,2.3-2.19.08-.58h.39l-.58-.35-.48-.37-.41-.44-.38-.54v-.4l.38.23,0-.06-1-3-.12-1,.07-.27.2-.54.92-1.65.42-1.62.35-2.16,0-.92-.06-.62-.19-.22-.43-.39-4.31-2.65-.76-.6-.76-1.06-1.1-2-.3-.46L223,385l-.62-.77-.53-.84-.22-.51-.08-.48,0-.39.08-.38.21-.63,1.11-2.41.08-.3-.1-2.91.35-.87H276.9l19,0h66.15l.16-.27.33-.39.18-.51-.09-.64-.51-.67-.68-2.93-1.3-2.61-1.46-2-1.07-.55-.62-.81-.08-1,.28-2.23-.11-.63-.49-1.21-.09-.49.17-.64.68-1,.26-.55.31-4.8.38-2.28,1.13-1.51L359,345l.3-1.29.6-1.17.31-1.49-.11-.86-.47-1.25-.11-.47,0-1.72-.11-.78-.48-1.17L357,332.3l-.43-1-1.48-7-.36-1.27.34-1.34.05-.38.08-.32.27-.82.43-2.11,1-2.4,1.51-2.48.22-.3.46-.93.07-.23.18-1.57L359,308.7l.17-1.43.54-1.1.12-.83,0-1.55.1-.54.86-2.06.36-.58.36-.24.74-.11.88-.28.89-.41.63-.49-.85-.55L364,298l.81-.21,1,.41.48-.29.41-.48.15-.61-.3-.8.46,0,.48-.18.38-.35.14-.5-.11-.46M195.24,419.71l-.38.37-.51.31-.8.15h-3l-4.94.8-.76.49,11.81-.49.36-.07.7-.28v-.45l-2-1.15-.5.32"/><g id="UtNVxE.tif"><path class="cls-2" d="M245.32,310.29q5-15.3,10-30.63L229.2,260.73l0-.07h32.22l10-30.66h.07l10,30.67H313.6l0,.07-6.48,4.71-6.52,4.74-6.5,4.72-6.5,4.73q5,15.35,10,30.65l0,0-26.1-18.94-26.07,18.94Z"/></g></svg>