<svg id="Layer_1" data-name="Layer 1" xmlns="http://www.w3.org/2000/svg" viewBox="0 0 500 500"><defs><style>.cls-1{fill:#eee;stroke:#bcbcbc;stroke-width:2px;}.cls-2{fill:#e00000;}</style></defs><title>state_AR</title><path class="cls-1" d="M399.84,173.75l-1.07-1.83.1-.51-.1,0h-.33c-8.52.26-17,.46-25.55.71q-5.91.18-11.83.33l-.37-.1-.08-.3,0-.31.19-.68,2.06-4,.55-.72,1-1.64.68-.77.4-.58.22-.26.28-.21.31-.14,1.16-.27.33-.14.31-.17.25-.2.23-.3.16-.34.13-.38.09-.39.08-.64.09-.36.14-.34.21-.31.24-.26.58-.4.31-.15.74-.21,1.32-.55,1.82-1,.28-.23.21-.27.17-.34.14-.36.21-1.43.13-.33.21-.26.27-.18,1.48-.47.31-.15.27-.23.24-.23.23-.31.13-.31.14-.35.07-.36,0-.38-.28-2.13,0-.45.38-1.7,0-.45v-.41l-.09-.39-.12-.33-.17-.31-.22-.28-.26-.25-.28-.22L376.06,142l-.24-.28-.16-.3-.08-.38-.05-.39-.08-1.16,0-.33-.11-.26-.2-.2-.3-.17-.23-.23-.16-.24-.58-1.61-.29-.59-.13-.15-.07-.17H113.91q1.75,13.49,3.52,27,1.6,12.36,3.21,24.71,1.85,13.91,3.67,27.81l0,.24q-.28,14-.59,28-.25,12.48-.53,25-.28,12.7-.55,25.4-.3,14.35-.61,28.72l-.33,15.26,1,.24.57,1.27.43,1.45,1.07,1,1.41.41,1.46-.23v.43l-.72.73.41.67,1.06.22,1.24-.62,1.17.65.6-.6.41-1.12.61-.82,1,0,2.82,1.45.8-.36.75-.68.88-.32,2,1.15,1.13.31,1.2-.07,1.07-.55,1.68,1.27.88.43.55.23c.06,8.94.18,17.88.25,26.82,0,3.61.07,7.23.11,10.84l26.71,0c8.53,0,17.05,0,25.57,0q13.91,0,27.82,0l24.86,0q14.19,0,28.39,0l24.45,0h8.75l.81,0,.31-7.22.5-.87,1.13-.47,1.22-.35.76-.46.36-1.22-.14-1.2-.65-2.31-.05-3.45-.31-.84-.77-.64-1.83-.67-.61-.12-.83-1.34.64-1.5,2.16-2.83.31-1.32.2-2.05,0-2-.07-1.25-2-2-1.15-.94L313,346l-.95-.51-.88-1.16-.25-1.13.91-.53h1.39l1.29-.22,1-.69.51-1.46-.24-1.73-.93-.94-2.41-1.18-1.14-1.19.17-.64.89-.47,1.07-.78,2.27-3.07.53-.5.38-.26,1.23-1.22.57-.43.67-.14,1.56-.07.59-.26.74-1.48-.36-1.32-.66-1.11-.36-2.39,1.1-1.57.85-1.7-.95-1.91-.81-.46-.77-.31-.59-.49-.22-1,.48-.49,3.13-.68,3.25-1.68,1.32-.22,1.38,0,1.15-.14.94-.55.74-1.24-.14-2.7-4.2-2.07-.06-2,.78-.74,2.88-1.79.93-.34.74-.58,2.25-5.14L335,293l.38-.11.77,0,.94.43.57.12.26-.31.19-.71.81-1.3.21-.57-.11-.88-.52-1.32-.19-1,0-.63.26-.37.73.55.48.26.65.06,2.44-.28,1.33-.5,2.13-1.16,1.87-2.05.46-2.06,0-2.43.61-5.95-1-4.84.5-3,1-2.47.84-1.41.72-.23,1.12.7,1.31.07,1.24-.38.53-.61.84-.93-.3-1.31-.66-1.39-.24-1.22.67-.91,6.5-2.56L365,250.5l2-2.41.07-3L365.25,243c-.22-.4-.45-.79-.67-1.18l.65-.54,1.1-.22,1.38-.56,2.14-1.19.87-.92.61-1.08.38-1.22.12-1.37.6-1.23,1.4,0,1.6.4,1.18.08,1.2-1.75.06-2.89-.59-3-1.15-3.52-.24-1.42-.07-3.26.26-1.64.7-1.14,3.11-2.58.9-1,.7-1.17.29-1.17,0-1.83.28-1.19.7-.73,1.41-.41,1.44-.19,1.33-.38.59-.89-.76-1.72-.92-1.32-.25-.84.37-.66,1-.81,1-1.14,0-.92-1.63-2.14-.88-1.64.05-1.27.83-1,8.9-3.9,3.66-3-.53-1.31-1.55-1.11-1.53-.75.57-1.32.86-.91,1.1-.53,1.27-.16,1.71,1.36.88.24.4-1.36-.77-2.18-1.54-1.58"/><g id="UtNVxE.tif"><path class="cls-2" d="M255.32,289.29q5-15.3,9.95-30.63L239.2,239.73l0-.07h32.22l10-30.66h.07l10,30.67H323.6l0,.07-6.48,4.71-6.52,4.74-6.5,4.72-6.5,4.73q5,15.35,10,30.65l0,0-26.1-18.94-26.07,18.94Z"/></g></svg>