<svg id="Layer_1" data-name="Layer 1" xmlns="http://www.w3.org/2000/svg" viewBox="0 0 500 500"><defs><style>.cls-1{fill:#eee;stroke:#bcbcbc;stroke-width:2px;}.cls-2{fill:#e00000;}</style></defs><title>state_CA</title><path class="cls-1" d="M242.18,406.54l-.91-.36-.14-.14-.46-.31-.28.23-.32.14-.36,0-.4-.18.33,1,.7.74.95.46,1.06.16.94-.32-.25-.71ZM240,380.85l.3-.39,0-.52-.1-.05-.77-.6-.22-.11-.33,0-.43.25-1.12,1-.23.09-.32.07-2.51-1.14-.58-.06-1.22.07-.5-.11-1.56-.84-.77,0-.23,0-.19.13-.29.24-.18.24.17.1.48.1.39.27.32.38.3.43-.38.89.72.68,1.18.44,1,.13,6.35-1.3Zm14.87,18v0l-.18.11-.31.07-.08.08.06.13.12.29.1.18h0l0,0,.29-.59v-.28ZM226,381.33l-.34-.79,0-.89-.44.38-.51.21-1.72.1-.34.13-.32.18-.44.17h-.62l-1.21-.24-.54.25.54.5.66.76.55.81.23.64.26.35.62.43.7.28.51-.1.3-.24h.28l.33.08.47.05.3-.08,1.51-1,.37-.38.2-.53.06-.84-.83.22Zm-8.18-1.61-.27-.18-.31-.14-.34-.14-.2-.25-.18-.3-.3-.26-.12.65-.39.23-.87.07-.54.39-.07.36.23.1.38-.39.83.37.76.14,1.77,0-.16-.35Zm26.53,1.17-.4-.07-.25-.14-.34-.1-.29,0-.07.08.08.11.48.23.27,0,.4.05.39-.1,0-.1ZM396,370.31v-.46l-.92-.61-.34-.37-.27-.24-.5-.26-2.4-1.75-.43-.51L391,366l-.57-.37-.14-.12-.23-.25-.11-.1-.12,0-.14,0h-.37l-.19-.06-.15-.16-.11-.23-.09-.41,0-.33v0l.15-.52.13-.51-.29-.35,0,0-.14-.71-.31-.34-.38-.3-.35-.57,0-.23,0-.83,0-.28-.09-.15-.13-.15L385.41,355l-.78-.12-.61-.38-.36-.66-.06-1-.11-.43-.23-.56-.32-.48-.41-.21-.45-.16-.2-.42c-.11-1.44-.24-2.89-.33-4.34-6.52-6.08-13.07-12.14-19.5-18.32s-12.62-12.15-18.92-18.24-12.68-12.27-19-18.44l-1-1q-9.76-9.12-19.52-18.26-9.21-8.62-18.38-17.29l-4.31-4.08q-10.08-8.88-20.15-17.77t-20-17.77Q233.82,209,227,202.87c-.07-8.85,0-17.7,0-26.56q0-12.36,0-24.72V124q0-13.62,0-27.25V89.73H105.53l.33.69.12.4,0,.42-.13,3.55-.21.66-.7,1.47-.79,1v.24l1,.4,1.45,1.06,1.15,1.28.09,1.09,0,.59.39.93.33.85.24.37.11.21,0,1,0,.37.18.37.24.29.28.23.3.16-.39.67.17,1.21.47,2.32-.08,1.15-.57,2.2-.25,2-.64,2.59-.53,1.33-.34,1.43-.46.56-.07.63,0,.7.13.48,0,.53.93,1.5.29.8,0,.88-1.73,5.64-1.26,2-.31.82.53-.29.48-.66,1.29-2.32.16-.12,1.17.14.32-.14.27.22.12,0-.46.86-.54.31-.63.13-.76.28-.39.49-.75,1.51-.32.32-.05,1.51-.27.73-.66-.31-.41-.39v-.13l.17-.76.1-.29-.87,1.16-.49.91-.39,1.17.05.11.12.17.05.16-.13.07-.11,0-.09.09-.07.13-.07.42-.8,1.5-.23.56-.54,2-.06.63-.14.57-.27.62-.18.61.09.51.43.79.86,2.27.19.95-.34,1.74.09.89.46.41.42.21,3.83,3.45,1.58,1,.55.51,1.12,1.66.07.26.08.85.13.32.22.13.7.24.28.14.9.87,4.12,6.07.16.62.14,1.64.28.86.22.47.18.2.33.13.17.31.12.38.17.34.18.6-.08,2.61.81,2.17-.11.35-.42.35-.32.81-.34,1.65-.28,2.57-.44,1.3.54,1.32,0,.68.26.26.22.5.31,1,.34,1.68.28.78.48.34,1.08,2.54,0,.39,0,1.24.06.38.28.74.07.39-.12.93-.31.47-.39.37-.38.64.12,1.1.81,1.24,2,2.21,1.53,1.25.25.37.26.54.61.57,1.1.78.89.9,4.86,6.54,1,.88,3.48,1.82.86.92.74,2.16.71.72,0,1.83.34.55,0-.23,0-.76,1.67,1.15.52.59.12.29.14.69.12.3.8,1,1.36,2.22,1.16,1.37.45.77.2.87-.52-.73-.72-.67-.66-.75-.29-1-.3-.6-1.5-1.55-.57-.48.87,2.15.08,1-.95,3.59-.8,1.44-.18.56.77.06.21-.06.22-.13,0-.09v-.11l.33-.48.16-.32.23-.31.4-.31-.2-.12-.12-.15-.29-.48.24-.09.2-.14.18-.21.17-.3.51,1.11.81.69,1.84.93.16.13.39.3.31.43.27,1,.34.3.69.36.37.32.72,1,.36.19.31-.25.14-.48-.11-.56,1.61,1.34.85.93,1,.7.41.39.52.38.68.21.65-.06.4-.39,0-.65-.34-.51-.19-.44.39-.41.24.56.37.2.27-.18-.07-.58-.33-.51-.89-.75-.37-.47.18-.09.25-.27.16-.14-.29-.37,0-.4.28-.33.83-.29-.28-.33-.77-.51-.22-.71,0-2.08-.15-1,1.12,0,.75-.18.56-.52.51-1,3.06,1.74.5.63.13.33.32.28.41.18.93.19,1.46.65h.57l.38-.08.32-.23,1-.95.17-.24.13-.31.2-.73.08-.23.3-.24.5-.28.55-.21.42,0,.5.37,0,.48-.53,1.17,1.31.4,1.44.1-.22.43-.14.16-.23.15.36.13.48,0,.5-.14.43-.19,0-.39.34,0,1,.17.39,0,1.09-.22.59-.32.61-.75.87-1.45h.18l-.13.86-.27.68-.4.55-.56.43-.3.1-.33.06-.32.11-.24.25-.1.33,0,.32.15.22.22.1,1.29-.21.67-.26.29-.39,0-.5.07-.26.41-.49.2-.12.18,0,.19.12.22.07.14-.07.22-.32.14-.09h.66l.51.13.41.25,2,1.67.5.18.31.27.49.61.39.61v.27l-.48-.21-.59-.47-.53-.59-.27-.49-.5.1-.66-.3-1-.79-.13-.25-.05-.3L181,236l-.3-.18-.3,0-.25.17-.19.18-.16.1-.65,0-.31.1-.13.31,0,.3-.06.38-.09.31-.11.13-.27,0-.3.13-.23.2-.1.25.15.08.86.28-.59.3-.6-.07-1.17-.46-3.5-.36-1.39-.47-3.51-.43-.65.2-1.33.87-.68.19-.57-.19-1.09-.87-.62-.2-.65.11-.44.3-1.35,1.38-.3.15-.39.05-.3-.08-.29-.13h-.22l-.22.83-.35.57-.45.44-.46.13.76,1.24,1.15.54,1,.69.27,1.74-.4,1.36v.79l.52.35.6.09,1.49.56.55.33-1.18.5.17.05.42.22-.18.53.25.1.74-.13.36.23.18.29.55,1.41,1.22,4.19.38.76.45.53h.7l.19,0,.13.16.18.3,0,.17,0,.26,0,.21.12.1.22,0,.46.23-.41.36-.58.15-.63-.05-.56-.23-.33-.44-.31-.63-.33-.47-.4,0-.31-.24-.31-.33-.31-.19-.62.28-.16-.27-.12-.42-.14-.31-.41-.26-.31,0-.21-.16-.07-.64L162,255l-.95.16-.31,0-.49-.7-.21-.2-.23-.08-.51,0L159,254l-.36-.35-.07-.26,0-.31-.23-.44v-.36l.18-2.3.08-.33.2-.2.45-.17h-.46l-.14-.18v-.29l0-.28-.39-1.49-.28-.38-.61-.11-1.23,0-.6.14-.43.31-.48,1.43.18,1.57.38,1.55.12,1.41-.18.65-.5,1.08-.11.86.18,1.61.34.32.36.06h.37l.33.12.43.65.3,1.56.34.66.39.58.27.74.17.79.08.73L157.9,265l-.29,1.42,0,1.34.66,1.33.87.72.37.46.16.69.3.42,1.84,1.42,1.63,2.12.89.89,2.21,1.34.56.24.64.09.67-.15.63-.24.56,0,.48.43,1-.61.85-.08.78.44.79,1,1.67,3.2.69,1-.59,2.2.25.13.24.06.25-.06.26-.13.11.25,0,.24,0,.23-.1.26-.68-.21-.43,0-.22.36-.16,1.73-.24.73-.34.67-.41.55-.58.32-.47-.27-.46-.45-.57-.2-.46.26-.39.59-.52,1.34.48.16.37.28.34.18.28.27.12.47-.13.32-.55.08-.13.31.1.63.71,1.7.3,1.52.07,1.53.05.3.36,1,.09.43,0,.26.06.21.21.33.3.25.32.13.25.22.1.5.13.35.31.36.36.27.87.24,2.75,1.86.85.92,1.45,2.44.48,1.29.34.64.45.27.68.09.58.25.46.38.36.47.29.55.25.67.18.76.07.79.17.71.41.52,1,.88.69,1,.38.45,1,.55.34.81.3,1.53,1.1,2.16.62.1,1.66.88,1,.18.84.9.86,1.69,1,1.16.82,1.1.8.76.83.57,1.95.31.73.34.34.43.19.51.26,1,.21.39.57.76.22.51-.46.29-.42.07-.17-.23.26-.59-.21-.22-.79,2.28,0,1.26.08.57.28.55.75.67,1.72.7.75.55.13-.17.49-.17.6-.1.46.06.24.18.54.56.25.13.51.18.23.17.26,1.08.14,1.22-.08,1.36-.19,1.38-.88,2.2-.1.81.13.3.85.75.22.27.17.27.13.31.07.38,0,.81-.44,1.38-.11.8.36.52.31.62.22.66-.09.91-.25.63-.25.48-.19.56-.29,1.11-.26.57.18.39.36.36.74.23.86.24.68,0L212,363l.84,1.16.67,1.35,1.24.05,2.72-.6,4.29-.27,1.39.12,1.21.49,1.47-.44,1.68.59,3,1.49.54-.11.64-.26.63-.16.46.19.38.32.66.39.71.32.52.06.34-.24.24-.32.27-.28,1.43-.33.63.19.7,0,.35,0,.32.14.65.57,1.84.84,1,.3,3.47,3.1.39.17h.69l.31.06.29.18.11.3v.37l.09.32.38.2-.15.41.09.46.25.49.31.43.11.23.09.43.1.17.14.1.28.06.17.1,1.28,1.17.76.41.91,0-.42-.1-.25-.08-.19,0-.14-.31,1,.18,2.4,1.47,2.88.83,1.43.16,1.13.48.52.49.52-.31.58-.25,4.18-.49.41,0,.29.14.22,0,.32-.14.44-.25.72.15.86.58.9.8,1.1,1.72.67,1.59.58,1.28.18.62.06.52,0,1.13-.24.47-.4.47-.14.57.58.76.2.11.3.1.32,0,.27-.14.32-.07.29.3.28.4.29.2.29.07.33.15.33.09.32-.08.15-.21,0-.28v-.31l.19-1,.16-.2.38-.08.22-.09.26-.14.26-.06.71.52.46,0,.59-.1.77.06.55.24,3.91,3.91,1,.8,3.42,1.75,1.39,1.11,1.18,1.54.58.33,1.28.78.47.35,1.67,1.77,2.67,1.87,4.17,5.68L304.5,413l.56,1.74.07.63.25.42.75,3.46v.55l-.28.68-.33.36-.23.36,0,.73L306,423l.09.49,0,.71-.22,1.51.06.35.29.61.12.43.14-.3.14-1.08.29-.39.38-.18h.19l.51.12.5.26.64.29.32.29.47.67.4.78.11.6-.22.29-.35-.07-.22-.45-.42-.68-.31-.63-.35-.31-.06-.45-.54-.22h-.42l-.28.38-.22.34h.82l.64.44.47.79.51,1,.09.85-.09.8.17,1,.22.25h0l26.46-2.36,26.45-2.36c5.32-.48,10.65-1,16-1.43l0,0,.11-.43,1.09-.8,3,.61,1.22-.28.28-.51,0-.61,0-.63.1-.59.37-.45,1.07-.74.33-.45.08-.74-.46-2.18,0-.43.07-.32v-.34l-.12-.43-.8-1.17-1-.54-2.61-.19-1.14-.45-.86-1.21.09-1.19.44-1.28.15-1.48-.29-2-.2-.47-.9-1-.06-.51.27-1,.35-.37.11-.29-.17-.37-.23-.28-.3-.43-.13-.4.27-.18,1.41-.1.71-.21.52-.39,1.06-2,.28-.84.29-.35.57-.58.39-.5.09-.24.11-.45-.16-.75v-.46l.26-.2.08-.16,0-.39,0-.74.14-.84.32-.5.33-.39.19-.5-.31-.63-.12-.38.15-.17.1-.19,0-.4,0-.4-.1-.18L385,388l-.11-.83v-.88l-.05-.53.52-.42.24-.32,0-.31-.57-.66-.23-.38-.1-.41.18-.76.45-.48,1.14-.75.48-.47.45-.57.33-.66.24-1.47.3-.65.46-.48,1.05-.34,2.93-2.09.57-.15.91-1.18,1-1,.91-.7.25-.47ZM274,401.64l-2.47-1-.47-.11-1.91-1.18-.77-.2-.68.1-.24.47.33.45.67.37.74.25.55.08.76.2.27.49.06,1.44.16.76.26.6.41.39.64.15.28-.08.72-.35.28-.06.4.09,1,.61.57.09.46-.18.12-.47-1.7-2.52Zm-1.29,18.51-1.08-1.4-1.38-1.05-.58-.62-.42-.91-.17-.24-.19-.34-.16-.37-.07-.33-.13-.29-.32-.09-.39-.06-.36-.17,0,.79.44.9.54.84.51,1.28,1.09,1.53.52,1.2.63.54.72.42.54.24h.3l.2-.08.18-.11.21-.06h.78l.36-.05.33-.19-1.34-1ZM140.57,250.3l-.15.19.06.1,0,.07,0-.07v0l0,.07.11-.35,0,0Zm16.32-6.15,0,.11h-.13l-.07.17,0,.29h0l.19.09.22-.06.16-.44h0Zm1.59,1.46.11.45h0l.35.4v-.12h0l-.18-.09.06-.6h0v0Z"/><g id="UtNVxE.tif"><path class="cls-2" d="M181.32,276.29q5-15.3,10-30.63L165.2,226.73l0-.07h32.22l10-30.66h.07l10,30.67H249.6l0,.07-6.48,4.71-6.52,4.74-6.5,4.72-6.5,4.73q5,15.35,10,30.65l-.05,0-26.1-18.94-26.07,18.94Z"/></g></svg>