<svg id="Layer_1" data-name="Layer 1" xmlns="http://www.w3.org/2000/svg" viewBox="0 0 500 500"><defs><style>.cls-1{fill:#eee;stroke:#bcbcbc;stroke-width:2px;}.cls-2{fill:#e00000;}</style></defs><title>state_DE</title><path class="cls-1" d="M311.13,367.33,310.5,363l.83-7.14v-1.64l-.94-2-.91.24-.52,1.13.48,1.6-1.26,2.11-2.76,3.41-1,.06-1.11-1.38-1-1.73-.87-1-3.46.26-5.29,3.65-2.17-.44.79-.51.75-.73.63-1,.54-1.22h-2.71l2.36-2.86,9.18-2.48,3-2.9-2.33,0-1.94-.79-1.62-1.26L297.73,345l.44-.16.35,0,.2-.26.86-.09.72.3,1.89.24-2.57-6.05L300,338h6.4l1.76,2.5.48,8,1-2.45.38-3.89-1.6-18.27-1.07-2.12-2.21-.3-3.74.15-5.08-1.34L292.57,317l-6.77-9.35-7.21-6-1.08-1.7-.11-4.28-.39-3.3-.83-2.86L272,280.39l-2-3.09L266.32,275l-.27-2.21.51-3.93-.32-1.65-1-2.45-.47-1.77-.32-3.8,1.14-10.93-.51-4.23c-1.28-3.53-2.61-7-3.94-10.53l-4-5.05-1.06-.71-2.29-.09-.79-.45-.32-1.06-5.2-11.08-1.88-2.69-1.78-1.9-2.24-3-1.27-3.64,1.11-3.78,1.86-3.07.89-3.12-.19-3.12-1.26-3.05-1.14-1.49-3.83-3.85-.36-1.53L238,179l.79-1.94.39-1.83.75-1.17,4.73-1.79.75-.68,6-7.61,1.73-3,1.45-7,1.87-2.17,4.72-3.25,1.22-1.62c-.76-.71-1.55-1.39-2.32-2.09l-3.87-2.45-4.88-1.64-6.35-.92L239,140l-3,.5-4.26,1.28L229.27,143l-3,1.92-2.36,2.41c-3.08,5-6.17,10.08-9.22,15.14l-.25.27-1,0q.6,12.81,1.19,25.61.62,13.14,1.23,26.26l1.26,26.69q.62,13.47,1.26,27t1.29,27.14q.65,13.68,1.29,27.35.64,13.45,1.27,26.92c.36,7.37.65,14.74,1,22.11l.55,8,26.5,0c8.54,0,17.09,0,25.63.05q13.8,0,27.59,0H307l-.16-1.26,1.22,0,1,.2.79.42.63.61h1.86l.83-4.09-.75-4.17Z"/><g id="UtNVxE.tif"><path class="cls-2" d="M235.32,295.29q5-15.3,10-30.63L219.2,245.73l0-.07h32.22l10-30.66h.07l10,30.67H303.6l0,.07-6.48,4.71-6.52,4.74-6.5,4.72-6.5,4.73q5,15.35,10,30.65l0,0-26.1-18.94-26.07,18.94Z"/></g></svg>