<svg id="Layer_1" data-name="Layer 1" xmlns="http://www.w3.org/2000/svg" viewBox="0 0 500 500"><defs><style>.cls-1{fill:#eee;stroke:#bcbcbc;stroke-width:2px;}.cls-2{fill:#e00000;}</style></defs><title>state_FL</title><path class="cls-1" d="M325.16,401.12h-.31l-.16.15.12.31.13.16.37.25.32.42.08-.22-.2-.66Zm-3.88,2.17.11.14.29.19.16-.36-.29-.17Zm1.88-51.57-.47.31v.22l1.08.43.31-.07.29-.32-.15-.31-.47-.1-.23.07-.17.09-.1-.2Zm-.38,48.33-1.21-.95-.29-.05-.12-.07-.12-.16,2.7,4.18.06,1.33.9-.68-.6-1.76Zm-1.23-48.51.45.54.14.14.15.07v-.13l.11-.13.15-.2.24-.17.42-.05.27-.13-.11-.28-.29-.22-.28-.14-.73-.58-.28-.28-.71-.35-.45.39,0,.44.06.27v1l.27,0,.32-.31Zm-1.45-.76.12-.3-.12-.31L320,350l-.08-.38-.29-.69-.38-.31-.64.12-.18.1-.36.08-.55.27-.12.5.19.26.12.12v.18l.05,0,.07-.3,0-.18v-.21l.21-.16.19.15.12.16.64,0,.22.32.13.25.17.26.28.28Zm.22,51.36-.3,0-.09.14h.14l-.05.08-.27.22.05.31.47.41.09.19h.22l.09-.44-.11-.5Zm7.45.41-.51.62.07.08.39-.21.33-.32-.07-.18Zm23.91-19.32.57.34-.15-.27Zm-1.36-1.51.22.35.07-.36Zm1.33.71-.17-.11-.06.45.12-.06.16,0Zm-17.77,18.14-.83.38h1.31l.45.27.21.66.21-.6.26-.42.36-.3,1-.39.11-.13,0-.31-.88.13Zm15.67-12.79,0,.29.28-.23ZM318.91,402l-.14-.15-.3-.24-.31-.15-.25,0-.19-.12-.14,0-.17.47,0,.59.16.38.1.1.11.08.19.05.17-.11.21-.06.25.08.23.24.17.32.12-.19-.07-.82Zm31.06-8.2-.35.18-.25.25-.1.28.19,0,.63-.41.3-.22.47-.54-.06-.21Zm-3,1.62-.25.24-.11-.07v-.32l.07-.43-1.82,1.3-.41.49,1.49-.11.67-.18.35-.31.21-.28,0-.13v-.2Zm-9.77,4.91,3-1.29.59-.54.51-.09.17-.09.16-.15v-.28l-1.28.28Zm11.15-14.18.28.45v-.23l-.14-.38ZM310,348.44l.11.22.11.3.24.12.53.07.21-.25.5-.87-.15-.47-.52-.19-.51.08-.41,0-.39,0-.09.41.08.27.09.11Zm-22.15-35.9-.05-1.09-.26-.23-.13-.07h-.2l.52,2.13.35.92.55,1-.15-1ZM192,167.49l-1,.61-1.62.86-.32.39,2.28-.49.92-.51.4-.92-.29-.1Zm80.09,112.75-1-1.82-.4-.34-.68-.33.18.57.49.78.29.35.34.71,1.73,2,.71.55-.15-.7Zm15.19,28.31-.21-1-.44-1.05-.2-.31-.12,0-.24.28.39.84.13,2.21.34,1,.3-1ZM255.45,198.89l-.21-.28-.29-.21-.3.26,0,.65.35.19.52-.25.29-.11-.13-.07Zm-68.79-27.74-.54.18-.19.08-.15.22-.17.21-.32.09-.43.07-.1.17,0,.21-.13.19-8.68,4.18-1.8.45-.91.06-1.11-.68-.66-.16,1.06.73.9.28,2.38,0,.87-.26,2.48-1.44L180,175l4.06-1.74,2.42-1.9.93-.37v-.19l.33-.32.23-.1V170l-.52.27Zm174.85,88.44,1.17,3.4.76,1.33.09.4.08.56.36.92.21,1.38.29.64.37.59.36.77,1.68,6.91.52,1.45.06.59.12.25.56.45.12.22.16.66,2.48,5.46.43,1.78.83,1,.59,1.3-.18-1.06-6.95-18.73-.14-.73-.07-.94-.18-.95-.58-1.71L363,262.63l-.83-1.87-.32-1.87-.12-.17-.1-.09-.07-.14v-.22l-.31.09-.11.09-.14.15ZM107.72,139.46l-1.41.36-.27-.32-1,.41-4.38.59-1.78-.06-.63.08-1.12.43-.37.16-1,.32-2.91,0-2.38.84-4.72.8-3.31.07-.75.28,2.25.29,27.7-3.53.45.2.46.08.4-.08.35-.2-3.9-.51Zm64,35,.23-.23-.09-.51-.07-.05-.52,0-.53-.2-1-.15-.59.5-.76.06-1.68-.25.42.36.82.33.43.24.28.32.28.43.31.39.36.16.87.32H171l.21-.47.09-.43.22-.42Zm122.9,147.84-.78.07-1.35-.3-.8-.34-.62-.49-.49-.7-.34-.94-.11-.5-.16-.44-.22-.36-.36-.28.18,1.4.39,1.42.29.68.37.49.45.37,2.47,1.44.62.14.7-.23,1-.87.77-.17-1.7-.92Zm17.14,83.56-1.11.3-.48,0-.38-.33h-.26l-.19.27-.09.25,0,.23.23.22v.28l-.41.46-.18.14,3.1-.88-.18-.76Zm-3.26,1.26-.17-.16-.22-.13h-.25l-.83.73-.32.15-.43,0-.43-.14-.35.09-.17.7,1.23-.17.61-.18.39-.27.17-.27.13-.33.17.26,0,0v-.14l0-.1.1.23.11.19.14.12.23.06-.06-.34Zm44.52-22.63.18-.12-.11-.26-.19.12Zm-36.78,17.43-.13,0H316l-.07-.07,0-.22h-.25l-.28.94.41,0,.28.11.06.17-.22.26v.33l.74-.06.43.24.13.44-.19.6h-.25l-.22-.53-.53-.35-1.21-.34.24.31.26.22.6.38-.3.39-.14.08-.09.14-.25.18-.9.44-.4-.25-.47.18-.8.68v.3l2.91-.83,1.4-.58,1-.73V404l-1.4-1.63Zm.31-54.26-.27-.32-.51-.05-.11.38.1.27.19.2.26.14.05.39-.09.69.12.18.37-.78.12-.35-.09-.29-.21-.23-.08-.13,0,0Zm-23.87-35.36-.79-.82-.82-.3h-.55l.53,1.32.76,1.45.55,1.39-.17,1.13.53.88.61,2.23.54.92.55.2,0-.8-.29-2.32-.32-.67-.63-1-.48-1,.4-1.63Zm.21,93.7-.51-.15-.46.11-.11.13.23,0h.22l.28.16.34.19.32.63.05.25.11-.44-.08-.48Zm-.37,1.84,0,.12.41-.12.21-.17-.2,0Zm41.61-34.47.33.26.39.24.11-.44.09-.2,0-.19-.11-.34-.34-.06-.46.11-.16,0,.08-.1-.24-.07-.24.24Zm-64-162.65.29.07.14-.1,0-.09-.14,0-.14-.1-.21-.09h-.23l-.15.1.08.07.13,0ZM265,201.05v-.22l-.19-.12h-.19l-.22.1-.07.34.14.17.27-.08Zm4.31,14.68.08.26.16.16,0,.18-.16.24,0,.12.19.05H270l.34-.29V216l-.26-.35-.33-.17-.29,0ZM268,212.07l-.08.25.19.11v-.12Zm-.49,3.22-.14.07,0,.15.13-.06Zm3.56,11.48.12-.07,0-.1-.17-.31-.36,0,.21.14.13.2v.08Zm-2.29-8.13.17,0,.16-.1,0-.09-.2-.05-.21.16Zm-.28-7-.12,0,0,.22.17-.16.11.09,0,.1.28-.3-.17-.15-.17,0,.11.12,0,.05Zm-.5,2.44.08.13.34-.18h.17l.11.06.17.06L269,214l-.14-.09-.36-.11-.34.08Zm1.59-2.22.49-.1.39,0,.16,0,0-.09-.16-.15-.2-.09h-.2l-.26.06-.26.17Zm84.81,13.75-.68-1.38-.57,0-.51.22-.9.67-.86.52-.24.32-.26.76-.87,0-.31,1.26.1,1.51.37.73.35,3.72.2.86.59,1,1.45,4.41.61,1.26-.07-.68-.3-.75-.36-.91-.08-.54,0-.43.19-.83.25-5.65.35-1.75,1.27-2.88Zm-83-14.49-.4-.17-.26.11.42.29-.05.22.06.22V212l.09.23.29.22.1-.14,0-.14-.07-.11v-.63Zm81.84,31.31.12.5.06.56h.3l-.12-.42-.68-1.49Zm-82.43-19.63.14.1.1.05,0-.12,0-.17-.05-.18-.65-.06-.06.06.19.06Zm-.75-1.42-.09-.31-.08.1Zm.46-1.79-.16-.17,0,.21.11.06Zm.67-2.45-.31-.07-.34.13.09.21.74-.18Zm-1.05.73-.23-.06-.24.1v.17l.15.08-.12.06-.15,0-.15,0,0,.15.59.22v.18l.16.12h.18l.06,0,.21-.34,0-.55-.28-.12Zm65.24,156.49.16.59.32.53.32.12.29-.2.13-.28.36-.54-.12-.48-.19-.08-.5-.11-.54.07Zm22.2,4.94-.14,0-.06.17-.2.06-.12.17h.05l.3-.06Zm2.34,3.6-.12-.62-.17.44-.3.23-.06.18-.1.05-.09.17.09.13.52-.55Zm11.43-17.22-.12.22-.65,2.6-.35.73-.55.44.12.05h.09l.06.06.58-.54.55-1,.39-1,.16-1,.07-.19.07-.37-.06-.22Zm1.26-10.5-.16.24-.23.21-.32.2v.28l.18.05.11.07.11.09.16.09-.43.41-.07.47.26.36.52,0,.19-.28.08-2.51h-.27Zm-17.33,25.48.15-.31-.28-.17-.3-.12-.17.21.13.19Zm-2.54,2.26-.21.06v.12l.17.18.06.25.12.06.08.14.09-.19v-.32l-.12-.17Zm-11.5-6.31.14.28.07.65.08,0,.16-.28.08-.39-.22-.57-.25-.28-.24.26-.05.35.08.05Zm26.29-4.1-1.1,1.6-.54.34-1.3.32-.26.28.14.51.33.24.3.3.09.65-.38.94-1.51,1.62-.78,2-1.84-.38-.25.79.57-.23.47.17.23.42-.15.53-.32-.16h-.14v.17l.19.33-.36.54-.45.23-.86.12.14.57-.26.54-1,1.05-.58,1-.32.23-.66.07-.22.26-.48,1.57-.47.19-.61.14-.39.24.22.5h.8l.92-.92,1.51-2,1.27-1.1.31-.46.37-1.05.27-.48.45.14.44-.26,3.32-3.27v-.28l-.18-.69.5-1.09,1.34-1.92,1.19-1.54.21-.45.08-.35.21-.52.26-.52.28-.29.17-.1.15-.13.14-.17.13-.25-.89-.36Zm-13.67,18.23-1.29,1.57.41-.16.86-.87.33-.53,0-.1,0-.16ZM334.18,372l-.24.13-.13.21.3.1,1.44.1.05-.13-.65-.11Zm2.4,1.8.37-.29-.1-.17-.71-.19-.22.07-.09.24.11.27.19.18ZM378,310.51l-.24-1.42-.54-.71V308l.63-.66v-1.22l-1.06-4.36-.27-.47-.38-.3-.91-.26-.51-.24v-.28l.48-.23.48-.06.42-.14.29-.5-.06-.54-.77-1.66-.84-2.47-1-2-.12-.66-.27-.72-1.14-.58-.27-.59-1.54-1.73-.32.05-.92.29-.35-.13-.65-.41-.29-.08-1-1.21-.24-.38.54,0,.35.18.25.26.28.22.91.48,1.63.41.47.41.36.92,0-.71-6-14.56-1.44-6.94-13.07-29-.32-1.09-1.2-2.45-.76-2.64-.37-.94-1-4.46-.16-1.9-.16-.9-1.26-2.46.31-.28v-.35l-.46-1.12-.66-4.22.8.35L347,217l1.75.65.12.81-.31.94-.35.7-.3-.29-.3.66-.16.89v.92l.17.68.58.67.73.35,2.61.44h.36l.49-.15,0-.17-.05-.66,0-.18h.27l.22.13.21.16.13.07.81-.07.55.21.36.45.26.7.3,1.83,0,1.83-1.23,5.84-.08,7.94.38,1.94,1.22,3.66,2.41,4.39.39,1.6,1.21,1.42.17.32.13.43,1,1.91,0-2-3.29-5-.85-2-.13-.74-.59-1.31-.87-4.68-.19-2.53.11-1-.31-.31.29-.59,0-4.52.13-.24.33-.16.31-.35.22-.38.09-.25.38-.08.72-.84.5-1-.61-.91-1-3-2.43-4.31-2.16-3.06L349.09,214l-5.51-8.76-.21-.88-.36-.84-.71-.53-.52-.53.23-.81-3.77-7-2.66-7.37-2.45-5.48-1.81-3.37-.26-.86-.18-1-.06-.93-.18-.88-1.24-2.19-.57-2.8-.41-.42-.26-.5-.23-2.31-.21-.68.31-.35-.41-.18-.27-.26-.07-.35.16-.45-.23-.07-.37-.19-.23-.07.24-1.48-1.38-5.41-.25-3.56-.18-.9-.88-1.62-.36-.85L322.48,145l-.05-1.94.28-2.1-.13-.44-.29-.32-.29-.25-.12-.26.14-1.52-.14-.6-.21-.44-.19-.17-.2-.11-.24-.25-.2-.37-.26-.72-.25-.38-1.11-.92,0-.19-.7-.26-.31-.67-.06-.84.1-.82,0-1.07.08-.4.36-.15.39.15.31.37.21.47.07.47,0,1.1.11.86.33.66.66.48-.16-1.36.16-4,.3-1.26.07-.81-.22-.34-.14-.11,0-.22-.07-.22-.31-.11-.31,0-.57.23-.25,0-1-.39,0-.37-.3-.07-.74-.21-1.32.4h-.39l-1.69-.38-.41-.19-.55-.34h-.29l-.42.06-.45,0-2-.59-.6-.27-.41-.25-.27-.25-.39-.28-.58-.16-.37,0-.37,0L303,121.4l-.55-.31-.31-.24-.61-.38-.36-.09h-.57l-.56,0-.32,0-.34.1-.21.18-.1.19-.07.3v.1l0,.31-.05.23-.13.22-.18.14-.36.07-.34,0-.43-.13-.2,0-.12.17-.09.5,0,.26-.13.23-.48.48-.12.18-.08.21-.06.21,0,.46.14,1.17,0,.27-.05.31-.28,1.07,0,.26,0,.56.08.37.13.44.19.41.79,1.12.18.35.06.23.05.47v.55l-.56,3.13-.82,2.94-.1.61,0,.29.08,1.36V141l-.08.37-.16.18-.22.11-1.12.31h-.17l-.21,0-.76-.24-.28,0-1.89.22-.39,0-.28-.09-.22-.15-.15-.17-.24-.4-.61-1.75-.08-.42v-.23l0-.28.11-.55.2-.69,0-.25,0-.24,0-.22-.06-.21-.2-.42-.18-.3-1-1.25-.22-.38,0-.2v-.19l.07-.18.17-.3.12-.3v-.15l-.09-.07-1.68-.1-1.5-.12-1.91-.13-2.3-.16-2.67-.17-3-.21-3.29-.23-3.56-.24-3.79-.26-4-.27-4.18-.29-4.33-.3-4.43-.3-4.52-.31-4.56-.32-4.59-.31-4.59-.31-4.54-.32-4.47-.3-4.37-.3-4.24-.29-4.07-.29-3.88-.26-3.66-.24-3.41-.24-3.12-.22-2.79-.19-2.46-.17-2.08-.14-1.68-.11-1.23-.09-.76-.05-.26,0-1.29-.08-.36,0-1.82-1.93-.61-3.11,0-2-.3-1.11-.56-1.12-.34-.35-.33-1.42-.23-.52-.25-.25-.71-.51-.18-.21,0-.59.08-.16H69.59l-.26.66.07,2.22-.06.23-.85,1.83-.15.48-.06.29,0,.29.06.37.17.39.41.64.47.59,2,1.94.22.35.84,1.56.58.81.58.46,3.28,2,.32.29.15.18,0,.47,0,.69L77,130.29l-.32,1.23-.7,1.26-.16.41,0,.2.09.76.76,2.25,0,0,.68.4.29.23.35.14.82-.09.35.09.35.46.2.65,0,.56-.37.26-1,.22-.76.59-1.19,1.44v.32l.49.36,0,.46-.31.48-.47.37-.49.12-1,0-.5.2.72.25.69.36-1.5.21-.47.14-.36.25-.26.28-.27.24-.47.2V146l.43-.2.9-.25.34.11.7-.41L80.39,144l.92-.41-.15-.86.41-.14,1-.16.35-.19.16-.46L83,140.6l.1-.45.76-.47.93-.08.78-.28.34-1.1.17.13.05.05.08.11h.25l1-1.82.16-.58-.18-.83-.76-1.19-.18-.58L86.31,132l.14-.5.59-.09.47.28.22.49.29.41.7.1-.09.22-.1.55-.08.22.89.12.35.68.14.83.27.62-.23.65-.07.78.23.54.63,0,.41-.51.28-1.62.51-1.1.88-2.56.21-.34,0-.47-.38-.83.86.5.45,1,.42.63.77-.51.23.29,0,.15,0,.21-1.39.62-.59.51-.24.68.06.46.2.22.3.08h.41l.18.2.56.92.36.2.69.07.91.24.85.42.49.56-.06.51-.59-.2-.76-.41-.54-.22-2.65,2.17-.74.14-2.23,0-2.45.67-1.53.72-.34.08-.25.21-.17.52,2-.26,4-1.14,6.34-.86,2.29,0,1.16-.2.9-.45.86.36,3.32-.36,3.17.19.48-.34,0-.72,0-.2,1,.14.51-.16.51-.68.36-.16.53,0,.53-.18.48-.24.42-.32.09-.35-.21-1.18,0-.56.35.62.4.45.39.07.28-.52.3-.24.39-.1,1,0-.93,1.26-.18.7.56.6.72.09.56-.34.51-.46.58-.23.79-.09,1.77-.48.79-.09,1.73.3.82-.06.66-.6.5,1.26.53.45.72-.16,1.06-.53,0,.78-.3.23-.2.22.23.71,1.24,1.35,0,.25.33.35-.05.65-.4.35-.72-.55-.41-.24-2-.56-1.11-.88-.58-.36-.56-.07-.52.28.1.34.49.26.63.11.19.13-.12.3-.26.32-.26.19L122.9,140l-.45-.4-.3-.53-.17-.54,0,.05,0-.07-.19,0-.23.48-.22.65-.3.55-.51.25-2.67-.62-3.28-.1-.65-.22,0,.14v.13l0,.08,1.06.7,4.9.56,7,1.93,5.18,1.59,4.73,2.48,3.49,1.73,4.91,3.6,1,.25-.31-.45-.26-.3.33-.09.52.55.31-.68-.69-.63-.74-.46-.33-.58.62-.89-.51-.51-.39-.53-.45-.42-.75-.17-.88.15-.54.24h-.46l-.63-.53-.29-.84.42-.62.74-.42.68-.19,1.29-.15.47-.34.47-.83.49,1,.53.76.37.69v.81l.49.16.28-.38.29-.51.46-.27.57-.2.6-.37.47-.06.19.63.72-.49,1-1.7.4-.37.41.23.36.56.52,1.14-1-.06-1.59,1.9-1-.39-.62.1-1.71,2.14-.87.5.33.47.28.32.34.25,1.42.7.39.31.31.55.7-.2.94.38.89.59.55.48.09-.24.11-.19.07-.21v-.32l.76.3.63-.21.64-.33.77,0v.29l-.59.5-.16.72.29.42.73-.35.16.69-.09,1.59.37.79.61.29L157,157l.49-1.06.37-.21,0,.11V156l.17.2.33,0,.66,0,.28.14.19.51-.48.24-.65.18-.33.36-.65.37-1.44-.59-1.44-1.06-.65-1-.71-.69-2.66-.82,0-.87-2.48-.44-.32.1.34.54,2,2,.54.25,5.21,4.27-.81,0-.95-.61-.85-.86-.45-.79h-.32l.1.43.11.32.15.28.21.28,1.19,1,4.68,2.19.67.55.73.76.58.86.24.87.29.67,1.3,1.7.39,1-.18,3.29,0,.54.14.19-.29.44-.47.43-.38.22-.57,0-.31-.19L160,171.71l-.45-1-.29-1.06-.11-1.07.11-3.23-.11-.46-.61,1,.12,2.4.78,3.93.37.68.68.7.8.38,1.56-.7.9,0,.95.16.88,0,4.76-1.56,1.65-.07,3.24.35.54-.31.82-1.26,1-.15.71-1.19.54-.31.63-.23.52-.44.55-.25.66.31-1.21,2-.19.38.19.82.46-.16.6-.51.55-.3.79-.17.66-.39,1-.75.62-.19,1.1-.14.51-.28,2.05-2,1.23-.87,2-.56,1.69-1.39,2.22-1.29.46.48.67-.06.76-.27.8-.15,1.69.15,1.53.51v.29l-.17.17-.39.5,1.16-.7.53-1.08-.29-1-1.27-.45-2.51-.32-.39-.24,0-.52-.14-.45-.66,0,.52-.73.61.19.79.53,1.38.41,1,.43.57.1.09-.19-.82-1-.26-.43L201,159l-.3.31-.11.19-.18-.43-.12-.24.11-.37.06-.11,0-.09-.15-.39.3-.35.16.15.1.07.27.13v-.75l.26-.38,1.46-.81.48-.1,1.29.09.06-.22.24-.49.34-.53.36-.33h.22l.2.11.13.12,0,.07h.84l.24-.11.24-.43.26-.09.24,0,.11.12.07.12.12.06.32.28.17.57.22.41.41-.17.84-.55,2.94-.25,1.31-.55.8-.08,3,2.46,3.84,2.44,1.83.79,1-.2.87,1,.5.41.71.17.5.28,1.79,1.36.38.46.35.59,1.53,1.61.35,1,.18.25.39.23.38.29.17.48.22,1.12,0,.48.25.78.61.91.74.81.66.57,1.39.64.28.22.48.47.35.26.83.34.81.13.7.22.48.59.17,1-.06,1.08-.27.94-.43.53.24.45.19.68.05.66-.2.43,1,.77.53.27.41-.06,2.07,2.45,1.12.91,1-.17.85.71.7.76,1.25,1.71.7,1.38.11.08.06,1,.09.46.15.3.38.43.65.41.74.31.62.13.58.25.38.59.27.66.3.4-.47.45,0,.42.31.31.59.12.22.26,0,.54.17.54.69.25.53,0,.28-.05.72-.27.61-.11,1.15,0,.47-.15.72.45.91.38.93,0,.81-.57.18.26.48.46.18.25.32-.22.82-.41v.94l.1.71.32.54.7.38-.87.53.46.79,1.52,1.21,0,.2v1.4l-.12.46-.2.48.23.37.48.22.48,0-.27.93.22.8,1.71,2.13.29.24.31.12.78.11.28.12.43.6.11.67-.3,2.24,0,.5.3,1.37-1-1.28-.65-.37-.57.7.11.42.81,1,.2.61.14.17h.27l.29.07.13.38V219l.09.45.12.33,0,.31-.33.46-.15.34,0,.41.12.39.15.31-.4.81-.15,4-.43,1.38-.08.54-.05,2.5-.88,1.55,0,.34v.28l-.48.55-1.47,3.89.29-.1.12-.07.16-.14.08.6-.33.65-.87,1.29-.32,1.3-.25.62-.54.6-.38-.26-.19.62-.05.9,0,.63.22,1.15.24.7.38.67-.37.4-.11.57-.06,1.22-.89,4.2-1.36,3.7-.21-.66.09-.81.3-.79.39-.6-.43.41-.45.65L263,256l-.15.85.08.89.39,1.31.08.61.57,1.08,2.49,2.45.56,1.51.13.76.32,1,.46.82.52.11,0-.58-.28-1-.6-1.57-.48-.84-2.43-2.64-.32-.65.15-.63.77.77,1.59,1.26.72.85.74,1.1.49.31.88.12.08.2-.05,1,.09.39.23.2.28.08h.75l.66-.27.46-.68.14-.83-.29-.74.51-1.42,0-.3.11-.23.56-.71.17-.45v-.55l-.22-1-.06-.54,1.3-.79.36-.28-1.74.22-1.57-.62-1.52-.88-1.56-.64.64-.77,1.89-.53.5-.58H270l-.38-.09v-.22l.24-.34,0-.2.2-.51.05-.36-.07-.33-.36-.72-.1-.4,1.65,1.61v-.63h.25l.34.49.5.43,1.14.62v.34l-.84.31v.35l1.28,0,1.07.24.73.59.26,1.17-.26,2.22.06,1.15.5.88.37.09,1.44.06.19-.46-.07-.47-.25-.65,0-1.68.17-.74.36-.54.84-.48.71.07.49.55.38,1.91.8,1.91.12,1.05-.33.7-1.33,1.48-.29.47-1.14.8-.19.31-.64,1.28-.29.19-.37.12-.32.24-.14.53-.12.36-1.13.9-.55.94-.29,1-.39.82-.88.59.17.44.1.17-.48.56.52-.22.65-.1-.25.55-.56.41-1.19.33-.64.33.59.13.5.18.44.27.42.37-.86.05-1.06-.53-1-.31-.71.79.25.28.28.21.3.05.29-.19h.25l0,.45-.08.41-.19.37-.29.32-.45-.46-1.08-.5-.42-.32-.21-.36-.63-1.51h-.28l.15.73.78,2.07.47.66.64.28,1.51.26,1.58,1.19.77.4.58.6.45,2.21.85,1.74.05,1.15h-.28l-.13-.28-.13-.13-.15-.09-.18-.15v1l.51.89.68.9.48,1h.3v-.63l.42.3.28.5.14.65v.77l-.22-.23-.14-.23-.19-.51.22,1,1,1.89.41,1.62,3.7,7.37.26.9.17.17.21.16.49.29-.19-.69-.54-1.07-.14-.72,1.11,1.21,1.19,3.89,1.22.83h.37l.29.06.58.21.32.2.39.37.28.08.24-.05.12-.11.07-.1.13,0,.2.09.38.46.13.08.26-.17.3-.33.24-.32,0-.16.34.49.15,1.29.36-.19.27-.61,0-.67-.36-2-.66-1.68-.21-.35-.25-.29-.57-1.4-.43-.51-.3.34-.45-.41-1.18-1.48-.48-.85-.12-.37.84.42.46.51.81,1.38.6.16L290,299l.41-.13-.14.78.74.87.45.39.19-.15.24-.43.51-.08.49-.16.18-.72.94.26.74-.15.7-.29,1.66-.34L298,298l.69-.22-.51,1.4-.23.33-.38.2-.9.19-2,1.22-.8.61,0,.59.82.7.56.28.3.42.1,1.11-.09,1-1,5.28,0,1,.19.7.71,1.62.21.81-.06,1.06-.21.67-.07.55.34.79.63.71h.51l.57-.35.81-.35V319l.4-.2.95-.28.33-.17.16-.24,1.23-3.52.45-.73,1.34-1.43.78-.65.67-.28.78-.11,1-.58.6-.24-.17.55-.21.41-.32.32-.4.3-.43-.24-.46.2-.36.39-.15.42-1.78,1.78-.47.58.16,1.15-.76,1.24-1.09,1.06-1.11.75-.18.21-.18.17-.31.07-.29-.13-.28-.51h-.17l-.24.41-.11.67V321l.1.44.25-.33.23.23.12,0,.55-.27,2.22,1.24h.84l.19.12.18.21.27.13.2-.13.16-.39-.15-1.13v-.67l.28.7.81,1.44.29.67.21.89.07,2.82H304v-.3h-.27l.14.74,1.22,2.23,0,.14v.31l-.25,1.55.35,3.54.73,3.24h.3l0-.49v-.48l.1-.45.17-.42.69,3.24.65,1.15,1.16.91-.35.42.11.56.39.52.44.34.39.1.92-.12.61,0-.14.53-.31.61-.4.5-.37.22-.46-.24-.45-.47-.48-.3-.57.23.26,1.32.16.35.4.47.15.1.29,0h.26l0-.31.23-.2.09-.1.15-.34.13-.25.28.39.41.22.48.09.51-.11.39-.25.31-.63.41-.33.23.53.39.37.46.17.34-.11.07.29.1.1v.14l-.17.33.33-.13.47-.4.17-.08.36.1.56.42.84.36.47.45.43.2.55-.58.42.38.53.74.47.4.5.21,1.2.21.52.22,1,.69,1,.87.78,1.2.31.35-1.07.81-.38.5.51.22.18.26.5,1.2.26.39.35.06,1.37.1.05.81.14.51.34.36v.63l.85,1.55.43,2,.16.44.48.19.92-.22.39.18.06.32-.16.35-.24.28-.76.51.46.89,1.32,1.49.58,1.73.05.43.22.93,0,.48.31.47,1.88,1.51,1.55.3.23.1.71.44,1.43.24.75.4,2.32,2.46.27.79-.41,1-.71.54-.88.24-.89,0-.72-.3V378l.23-.07.38-.19.23-.07v-.31L336.08,376l-.53-.37-.13,0-.71-1.37-.28-.36-.41-.41-.48-.33-.49-.09.25-.65-.76.6-.67,1.48-.44,1.76-.06,1.4.47,1.37.68,1.41,1.91,1.84.64.15L337,382l1.64-.16,1.33-.29,1.56,0,.76-.14.94-1,.17-.06,1.14-.74.61.57,1.21.26-.14.36V381l.36.14.19,0,.13-.13.15-.37.21.25.22.15.21.1.2.14.05-.21L348,381l.09-.12.09-.18.4.48.65.23.69,0,.49-.09.81-.78.53-.24.61.38h.25l.24-.38,0-.28-.14-.29-.08-.41.23-.15,1.5-.32-.08.19,0,0h-.07l-.12.1.64.22.37-.65.29-1,.39-.73.63-.2,1.64,0,.53-.07.15.29.05.14.05.18-.36.08-.2.1-.11.17-.15.29.28.15.22.19.19.25.13.31.7-.45.8.11.62.56.13,1h.3l-.13-.9-.49-.71-.74-.41-.89-.09.5-.57.82-.39.63,0v.68l.56.2.8,1.16.62.51v-.43l-.52-.5-.5-.67.12-.89,0-.49.7-.8.15-.4.07-.39.19-.34,1.84-2.1,1.49-1.3.06-.55-.3-.36-.53-.29-.32-.36.3-.84.33-.63-.16-.24-.29-.18-.18-.26-.13-1,.07-.83.35-.81.67-.95.26-.77,0-2.2.15-.87,1.19-1.17.84-1.92.07-1.09.15-.43.45-.4L370,355h.4l.42-.17.61-.86,0-1.88.51-1.2.26-1.62,1.47-1.92.33,0,.13.6,0,1.17-.27,2V353h.27l.65-13.25-.65-1v-.34l.68-.51.38-1.36,1-6.67-.13-1,.25-.67.07-.76,0-1.55.09-.69.4-1.37.34-6.15.64-.09.23-1.31Zm-24.58,72.3.06-.43-.17-.55,0-.09-.15.14-.06.46.16.49Zm-13.93-6.15.25-.19.27-.05-.25-.33-.23,0v.07l0,.08,0,.05-.18.22Zm.74,1.27.38.11h.07l-.05-.33.31-.16.2-.12-.09-.07,0-.17-.28-.08-.23,0,.11.14-.11.21Zm-67.5-105.74-.11.14-.21.39.76-.33-.29-.17Zm.5.24.07-.09-.13.05ZM262.1,404.67l0-.08,0-.17Zm-2-.28.18-.12-.13-.14Zm2.34.1v-.16l-.05.13Zm.59-.92v0l-.09.05,0,.06v0l.06,0,0-.09Zm-.46,1.1.07-.11-.08,0Z"/><g id="UtNVxE.tif"><path class="cls-2" d="M145.32,183.29q5-15.3,10-30.63L129.2,133.73l0-.07h32.22l10-30.66h.07l10,30.67H213.6l0,.07-6.48,4.71-6.52,4.74-6.5,4.72-6.5,4.73q5,15.35,10,30.65l-.05.05-26.1-18.94-26.07,18.94Z"/></g></svg>