<svg id="Layer_1" data-name="Layer 1" xmlns="http://www.w3.org/2000/svg" viewBox="0 0 500 500"><defs><style>.cls-1{fill:#eee;stroke:#bcbcbc;stroke-width:2px;}.cls-2{fill:#e00000;}</style></defs><title>state_GA</title><path class="cls-1" d="M364.39,358.66l-.46,1.94-2.6,2.11-.55,1.85.11.37.46,1.17.15.55.05.52-.05,1.56.51,4.7.4.2.39-.54.18-1.21-.34-1.84,0-.93.8-1.69.52-2.19.19-1.79.46-2,.13-1.5,0-1.27Zm30.42-64.84-.9-.27h-.73l-.54-.23,0-.14-.05,0-1.06-.1-1-.35-.81-.63-.34-.86-.36-.45-2.12-1-1.16-.26-3.05.26-.47-.27-1.53-1.89-.28-.23-.56-.33-.23-.28-.16-.45.05-.34.09-.25,0-.2-.94-2-.14-.4.11-.69.5-1.06.11-.37-.09-1.62.09-.69.17-.59.41-.85.11-.73-.11-1.31-.43-1.09-.64-.74-.79-.25-1.61-5.11.05-1.95-.23-1-.74-.46-.71-.25-.27-.6-.11-.72-.19-.55-.28-.23-1.17-.62-.18.05-.29-.24-.79-.92-.39-.39-.42-.33-.49-.25-1.57-.29-1.09-.55-.95-.67-.67-.67-.51-1,.06-.93.27-.94.18-1.21-.11-.42-.25-.48-.32-.42-.24-.17-.14-.28.2-.66.14-.76.33-.42,0-.85-.31-1-.53-.87-.29-.95-.07-.93-.15-1-.5-1.73-2.7-4.71-.62-.53v-1.22l.43-2.13-.19-1.07-.49-1.28-.65-1-.66-.46-1.16-.2-.79-.5-1.5-1.45-2.15-1.23-4.65-1.92-1.89-1.56-.26-.87-.29-2.52-.37-.51-1.18-.08-.95-.34-.83-.77-.81-1.43.75-.48.17-.65-.37-.74-.91-.7.72-.39v-.42L342,213l-.63-.25-.59-.08-.24.29-.21.32-.43-.39-2.25-2.69-.36-.94.75-.4-.65-1.54.14-.47.83-.14-.45-1-.26-.32L338,204l-.76-1.09-2.11-1.47-1.09-1-2.23-2.82-1.1-.92-1-.52-2.51-.75-1.14-.53-1.23-.84-1.07-1.15-.74-1.85-.45-1.4-.86-1.24-.66-2.84-1.44-1.72L317,181.52l-2.23-1.79-2-1.34-1.71-.78-1.64-1.11-1.25-1.42-.92-1.34-.84-.86h-1.06l-.84-.31-.66-.71-.4-1.66-.58-1.5-.55-1.76-.45-.7-1.23-.67-.44-.89-.57-1.77-.41-.63-.59-.72-.67-.61-1.25-.51-.87-1.19-.36-.28-.3-.89-1-5.43-.42-1.43-3-4.67-.48-.57-.72-2.06-.26-1.73-.59-1.66-2.23-1.43h-3.61l-2.49.08-1.7-1-.86-.95-.84-1.52-1.13-.72-1.11-1.49-2-1.11-.41-.79-.09-.86-.37-.09-1.25.36-1.78-.87L264,127.05l-1.67-2.35.5-2.7.9-1.14.22-.52.11-.51,0-.52.07-.48.22-.36.44-.92.7-.63.82-.51.69-.64.54-.9.76-2,.47-.92.59-.7,2.15-1.56.67-.35,1.4-.45.61-.54.45-.74.32-.74.08-.78,0-.08q-13.36.21-26.74.36c-8.66.1-17.32.25-26,.35l-11.18.15-13.33-.67-.38-.15H142.55c1.53,8.38,2.85,16.81,4.3,25.21,1.55,9,3.07,17.93,4.62,26.89q2.15,12.42,4.28,24.86c1.51,8.83,3.06,17.65,4.58,26.48q2.22,12.87,4.48,25.75l.2,1.13-.14.58,1.71,4.51-.15,1.79,0,.56.18.48.26.45.33.39,1.06,1.16.3.42-.44.59.2.62.48.63.44.72.31,2.18.53,1.28,0,.8L170,254.6l.32.6.63.41.41.5-.3.81,3.63,4.73.61,1,.22.81.25,2,.41,1,.54.89.45.92.06.83,0-.2v.46l0-.26-.09.81-.34.69-.22.6.28.71-1.15,1.24.19,1.14,1,1,2.53,1.47.5.4.33.72.23.05.23.12.11.46-.14.49-.37.35-.47.17-.45,0,.29.78-.15.61-.41.47-.47.29-.93-.41-.79.21-.19.51.84.55L177,283l-.88.4-.87.28-.72.12-.36.23-.35.57-.85,2-.09.53v1.53l-.12.81-.53,1.09-.17,1.41.39,1.38L172.3,295l-.07.23-.45.92-.22.3-1.49,2.43-1,2.37-.43,2.08-.26.81-.08.31,0,.38-.35,1.32.36,1.24,1.46,6.9.43,1,1.82,2.5.47,1.16.11.77,0,1.69.1.47.47,1.23.11.84-.31,1.47-.59,1.15-.3,1.28.52,1.76-1.11,1.48-.38,2.25-.31,4.73-.25.54-.67,1-.17.62.09.49.49,1.2.1.61-.28,2.2.08,1,.61.79,1.06.54,1.44,2,1.27,2.57.68,2.89.5.65.09.64-.18.5-.32.39-.16.26-.11.21.05.76.23.29.93.64.32.33.3.67.42,1.85.45.45.72,1.45.39,1.43.06,2.59.8,4,2.35,2.51.47-.07,1.67.11.34,0c8.79.59,17.58,1.22,26.38,1.8s17.44,1.21,26.17,1.8,17.21,1.17,25.82,1.76q13.52.94,27,1.86c8.51.56,17,1.16,25.52,1.75,2,.14,3.89.28,5.83.4l.12.09v.19l-.16.39-.22.39-.09.23V385l.06.26.28.49,1.25,1.62.23.39.25.54.08.28,0,.28,0,.31,0,.33-.26.88-.14.72,0,.36v.3l.11.54.8,2.26.3.53.2.22.28.19.37.12.5,0,2.45-.28.35.06,1,.32.27,0h.23l1.45-.41.28-.13.2-.24.11-.48,0-.38-.11-1.76,0-.37.14-.8,1.06-3.8.72-4.06,0-.7-.07-.61-.08-.3-.23-.46-1-1.44-.24-.54-.17-.57-.11-.48-.05-.72,0-.34.37-1.39.07-.39,0-.35-.17-1.52,0-.59.08-.28.1-.27.16-.23.63-.63.15-.29.08-.34.11-.65.15-.21.27-.08.54.17.44.06.48-.09.22-.19.18-.28.06-.29.06-.41v-.12l.08-.4.14-.24L336,368l.45-.12.41,0,.73,0h.74l.47.11.77.5.41.31.72.41,4.81,2,.48-.06.47,0,.76.21.51.36.34.32.53.33.78.34,2.54.76.58.07.55-.09h.37l.72.45.53.24,2.18.49h.5l1.72-.51.95.26.39.09-.07-.74.35-1.53.12-1.37-.23-.71-.62-.82-.27-.57-.08-.82,0-.77-.22-.6-.76-.31v-.42l.59,0,.56.07.53.15.48.24,0-.77-.24-.4-.26-.36-.17-.6,0-.28.25-.84.06-.34.33-.8,1.62-1.83.61-.93-.7-.29h-1.86l-1.09-.51v-.47l2.5-.47.84-.61.31-1.25-.45-1-2.12-2.21-.75-1.14,1.34.45,1.31,1.14,1.08,1.39.67,1.2h.33l1-4.27.1-1.63-1.12,1-.33.7,0,1.21-.56-.48-1.22-1.31-1.51-.67-.18-.78.46-.45,1.89,1,.24-.85-.09-1.23-.42-2.44.1-.94.54-.67,1.14-.18.39.77-.16,2.87,0,.7.46.35,1.22.1,1-.73,1.28-1.65,1.89-3.08,1,.59.74-.9.36-1.42-.11-1-.81-.77-2.27-1.71-.88-.32-2-.19-2.36-.58-2.14-.9-1.34-1.24.66-.4.48.09,1.06.71,1.15.53,5.51,1.18,2.06,0,.54-.47-.21-1.26-.64-.94-1.59-1.64-.33-1-.05-.81.14-.09.44-.38.42-.2.3.29.17.58.06.61.11.61.32.62.4.48.42.19.65-.15.14-.41,0-.56.15-.59,3.68-5.45,1-2.13-1.88.07-1.6.8-3,2.08.45-1,.55-.72.23-.6-.48-.66-.08.14-1.57-.14-.32-.13-.36-.31-.32-.4-.27-.43.86-.26.92-.44,1-.12,1,.62.93.26,1-.66,1.51-1.53-.65-.78-1.29-1.25-.62-.89,1.21.05.9.47.67.73.47.83.56,2.23.36.32.31-.23.25-.57,1.25-3.95.26-1.53-.1-1.34-.75-.82-.86.19-.42.75.61.72v.42l-3.3.42-1.06,0,2.13-2.24.14-1.13-1.55-1.23-1.62-.45-.69-.42-.22-.86.36-.42.71.13.76.45.53.49,1.28.85,1.75.29,2.77-.06.72-.32.75-.71,1.59-2.1.61-1.56.51-.85-.28,0-.84,0-1.11-1-.3-.22-2.91-.45.67-.73,2.11-.57-.07-.57-1.07-.8-.35-.6.53-.54.69,0,.45.52.33.68.31.52.89.39,2.38.46.92.63.78-.06,1.19-.86,1.81-1.84-1.36-.3-.72-1-.09-1.13.55-.53.31-.23.23-.5.36-.45.72-.08v.23l.21.55.37.58.49.32,2.6-2,1-1.28Z"/><g id="UtNVxE.tif"><path class="cls-2" d="M199.32,228.29q5-15.3,10-30.63L183.2,178.73l0-.07h32.22l10-30.66h.07l10,30.67H267.6l0,.07-6.48,4.71-6.52,4.74-6.5,4.72-6.5,4.73q5,15.35,10,30.65l-.05.05-26.1-18.94-26.07,18.94Z"/></g></svg>