<svg id="Layer_1" data-name="Layer 1" xmlns="http://www.w3.org/2000/svg" viewBox="0 0 500 500"><defs><style>.cls-1{fill:#eee;stroke:#bcbcbc;stroke-width:2px;}.cls-2{fill:#e00000;}</style></defs><title>state_HI</title><path class="cls-1" d="M11.57,96.14V96h-.79l.12.28.09.26h0l.21-.26h.4l0-.14ZM9.91,97l0,.1-.08.3.16-.14h.14l.09-.16,0-.1L10,96.82Zm290,132.23-.35-.15-.73-.53-2.93-2.75-6.57.37-1.66,1,1.19,1.92,2,1.11.57.68.19,1.27,0,1.49.14,1.39.48,1.11.89.84,2.39.25,2.43-.68L300,235l1.33-1.8.52-1.08,0-.59-.35-.68ZM115.34,159.9l-.63.28-.7.72-1.24,1.6-.62.72-.8.55-.14.72-1.77.52-2,2.91-.72,1.64-.32,1.8.42,1.39,1.37.53h.62l.51-.13.33-.4.29-1.83.41-.8,1.92-2.35.52-.28h1.07l.74-.13,1.12-.83.66-.28-.4-1.64.22-1.52.68-1.27,1-.92-.73-.87Zm200.91,86.15-.88-.84-1.12.16-1.07.53-1.73,1.39-2.11.83-.82.56-.57,1.11,1.75,1.09.77.15,1.35-.68.6-.15h2.45l1.3-.16.73-.68-.75-.56ZM159.82,151.49l-.31-.55-.25-.69-.06-.7-.35-.82-.79-.84-.95-.69-1.44-.4-.62-.42-.57-.27-.54.27-.4.28-.59.27-4.43.56-.43.14-.79-.57-.9-.4-.88-.14-.76.54-1,.28L140.6,149l-4.4,2.88-.14.14-.38.29-.1.4v.58l-.12.4-2.27,2.89-.67.56-.39.54.53,1.38.77,1.27.44.25.29,1.11.71.43.95.25,1,.71,1,.28h1.38l1.24.13.85,1.51,1.55,1.52.44.56h.41l1.31-.41,2.63.13,2.62.68,1.27,1.27,3.09-2.08,3.13-2.91-.25-.68.05-.28.35-.15.62.28.07-1.12-.07-1.23-.15-1.09-.25-.83,2-3.59.62-2.48v-.71l-.49-.27Zm92.09,49.4-.81-.81-.26-1.24,0-1.11-.2-.68-.92-.43-.88-.38.17-1.14.57-1.08.34-.44h-2.77l-.75.28,1.54,1.08-1,.44-.64.15-.31-.28h-.23l-1.32-1.39-.74-.68-.59-.84-1-2.35h.41l.18.13.23.31v-1.12l-.09-1-.35-.71-1.43-1-1-1.52-.88-1.64-.14-1-.61-1.11-.66-1-.84-.81-1-.43-.13-.25-.17-.15-.09-.16v-.4l-3.41,1.8-.86.83-.53,1.12-.43.68-.42.24-.46.16-1.69,1.11-.28.56v.53l-.2.43-.87.12-.62-.12-1.1-.12-3.14-.31-1.28.15-1,.4-.55,1.12,2.09,1.79-.18,1.12-.45,1.24.59,1.23,1,1,.66.53.62.71,1.08,2.05.79,1.11.48.28.89.4.4.28.23.43,1.15,4.12.31.12.26.31.26.13.54-.44.7-.37,2.68-.43h1.23l1.24.43.17-1.82-.74-1-1.13-.56-1.05-1h1.11l1.33.56.7-.13-.8-1.67.85.56.31.4.45-.4h.47l.41.28.26.4-.09.84-.53.24-.6.16-.37.59.27,1.23,1.15.25,1.28-.25.79-1,1.21.68.53.44.57.68-.26.56.57.55,1.66.81.82.86.37.13h1l1.3-.43,1.5-.56,1.31-.13.78,1.12.86-.81,3-2.1-.86-.81ZM347.8,238l.72-2.32-.85-2.1-3.25-1.77-.83-.31-2.56-.37-.5-.56-.32-1.39-.38-.53-2-.43-1.27-.31-.55-.8-.34-.56-.79-.8-.9-.69-.75.25-.1-.25-.17-.18h-.44l-.76-.25-.94-.28h-1l-.88.12-.9.28-1.81,1.37-.63.18-1.68.13-.83.12-.9.43-.71.37-.7.16L320,227l-1.63-3.9-.4-.68-.46-.56-2.25-2.35-.71-.4-.88-.68-.48-.16-.2.56-.2.43h-.95l-.4-.15-.08.4-.23.74-.05.53-.26-.15-.7-.13-.27-.15-.25,1.39-2.06,4.4,3.78,5.54.32.28.43.15,1.34.53,1.05.68,1.64.71h.73l.51-.16.49-.12.59-.15h1.39l.64.15.31.43.18,1.37.2.68.23.28.53.43.31,1.21.17,5,.64,2,1.45,1.24H327l1.07-.55.62-.28.28.15.29.43h.64l2.13-.43,3.18-2.23,1.11-.25,1,.13,1.1.43,1.21.13,1.07-.28,3.83-2.2,1.69-1.55Zm-40.92-26.34-1.67-.43h-1.16l-.46-.16-.33-.25-.28-.15h-.46l-.93.84-.45.15h-3.9l-1.16-.28-.76-.43L294,209.49l-1.07-.86-.12.31.08.68-.48.8h-.86l-2-.68-.88-.25-7.55-.31-.7-.55-.62-.69-.63-.4-.61.13-.54.27h-.66l-.61-.12-.35-.28-.09,1.09.17.86-.17.93-1,1.27-.54.4-.62.81-.45.86,0,1.24.65.81,1.11.43h1.24l1.1-.71.93-.28,3.53.12,4.86-.37,1.28.13,5.53,2.35,2.24.68,2.22.12,2.19-.37,2.14-1,2.14-1.11,1.76-1.8,1-2.32Zm105.05,95L409,305l-2.31-2.36-.35-.8-.46-3.07-.27-1-.69-.52-1.38-.16-2.29.41-.62-.25-.42-1.39v-4.68l-.19-1.39-.51-1-4.8-5.39-1.9-1.55-7.43-3.83-6.17-2.48-2.53-.56-2.09-1.27-1.26-.52-.59.12-.56.4-.6.16-.75-.44-.71-.67-.43-.28-1.1-.41-1.49-1.36-3.39-1.39-.35-.28-.14-.56-.06-.55-.2-.56-.31-.25-1.6-.31-3.28-1.52-1.82-.27-1.41,1.67-.84,2.2-.2,1.82.51,2.29,1,2,2.8,3.56.2.28.61,1.12,0,1.11-.52.8-1.82,1.4-.37.4-2.16,3.34-.58.68L352,289.82l-2.37.83-.82.69-.31,1.11L348,293l-1.18.83-1.2,1.12-.67,1.36.31,2.63,1.16,1.79,1.5,1.8,1.33,2.07.5,1.24.35,1.24.25,1.24.06,1.36.1.59.69,2.07.19.13.76-.13h.2l0,.4-.07.53,0,.31,1.35,4.95.77,1.4.23.68,0,.4-1.47,9.69-.05,5,.28,1.24.7.53.66.27.27.81.14.71.3.68h2.31l2.17.59,2.3.93,2,1.27,1.29,1.24,1,1.64,0,.43.69-.31,1-1.08.6-.28.79-.56,2.51-3.59.84-3.28.52-1,2.48-2.35.85-.25,2.88-1.67.83-.56,1.37-1.52.8-.55.93-.28.71-.25,1.83-1.83,1.36-1,.71-.27,1-.28,4.49.12,1-.53,3.88-.83,2-1.12,1.1-.4,1.42-.12,1-.28,5-4.58.43-.68,4.66-2.6.71-1,.62-1.24.45-1.36.16-1.24Z"/><g id="UtNVxE.tif"><path class="cls-2" d="M199.32,233.29q5-15.3,10-30.63L183.2,183.73l0-.07h32.22l10-30.66h.07l10,30.67H267.6l0,.07-6.48,4.71-6.52,4.74-6.5,4.72-6.5,4.73q5,15.35,10,30.65l-.05.05-26.1-18.94-26.07,18.94Z"/></g></svg>