<svg id="Layer_1" data-name="Layer 1" xmlns="http://www.w3.org/2000/svg" viewBox="0 0 500 500"><defs><style>.cls-1{fill:#eee;stroke:#bcbcbc;stroke-width:2px;}.cls-2{fill:#e00000;}</style></defs><title>state_IA</title><path class="cls-1" d="M421.89,250.63V249.5l-.08-.85-.36-.52-.83-.17-.5-.34L418.78,246l-.55-.54-4.56-2.78-.73-.17-.73-.38-1.13-1.69-1.76-1.06-.49-1.65-.13-4.11v.49l-.94-2.45L406.1,230l-4.6-3-1.7-1.48-.8-1-.83-.8-1.63-.91-.66-1,.7-1.58.67-1.55.13-.81-.44-1.11-1.34-2.07-.44-.82-1.05-3-.83-1.08-1.27-.42-1.24-.2-2.45-.94-9.14-1.8-2.34-1.07-1.22-.93-.66-.93-1.82-3.62-.2-1.35-.16-3.09-.32-1.3-.52-1-1.53-1.92-.58-1.23-.28-1.61L369.5,185l-.26-.82-.09-.89,0-2.68-.4-2.47-.29-5.12.6-2.54,2.84-4,1-2.25-.09-2.73-1.31-1.65L366.84,158l-.62-.51-.4-.77-.24-2-.18-.77-.26-.74-.74-1.49-.28-.81L364,150l-.05-.91.08-.93,0-.1H315.7q-11.71,0-23.44,0H103.48c-8.46,0-16.92,0-25.37.09l-.19.18.12.5.17.4.13.46,0,.53-.12.8,0,.67,0,.61.26.69.26.4,1,1.12.42.59.92,1.07.2.29.13.78,0,3.78-.17,1.8-.14.26-.2.25-.29.18-.38.07-.77-.1-.37.06-.14.34,0,.5.44.79.4.32.29.31.07.26-.16.26-.47.54-.18.32-.06.39.1.4.33.38.41.16.44,0,.84,0,1.21.22H83l.56-.07.35,0,.3.16.22.27.14.35.18.79.45,3.18.16.74.16.55.06.47v.58L85,178.78l-.21.5-.22.4-1.78,1.75-.1.33v.41l.22.41.19.27.09.22,0,.34-.12.51-.35,1-.24.37,0,.09,0,.18,0,.26.09,1.43-.21.84-.2.46-1,1.12-.06.17-.08.5-.11,2-.13.57-.11.32-.19.18-.25.27-.11.31-.1.44,0,1-.08.4-.13.28-.2.12-.84.36-.19.13-.21.2-.2.27-.17.32-.13.37-.11.4-.14.38-.16.31-.82,1.22-.46,1-.22.68-.15,1,.13.59.27.76.85,1.32.49.6.43.41,2.86,2.16.47.47.43.51.15.28.07.29-.18.32-.58.49-.06.09-.16.29,0,.18.08.21.93.56.26.19.22.25.19.3.35.67.15.42.08.43,0,.59,0,.45.26.4.3.2.37.87,0,2.56,2.37.39,1.28.46.91.71.75,3-.73,3.18-.27,3.05,1.8,2.21.06,1.16.77.64.56,1,.32,1.22.1,1.66-.26,1.4-.44,1.19-.19,1.33.49,1.75.76,1.13,1.8,1.21.94.88.59,1.23.09,1.36v1.47l.2,1.6,1.5,2.07,2.23,1.35,1.94,1.6.62,2.85-.19.7-.52,1.4-.06.84.2.65.85,1.89.24.39L106,270l.52,1.64-.19,1.39-.47,1.29-.26,1.36.07,1,.06.41-.15.32-.54.74-.35.58-.14.54,0,3,.16,1.59.4,1.29.74.54v.62l-.32,1.4.08,1.49,1.12.86.68-.07,1.06-.69.46-.17.63.23.68.48.42.48-.07.23-.27.35-.32.8-.23.91-.12.67.32.86.74.45,2.2.5.44,0,.34.18.35.73-.52,2.92v.81l-1.27,4.52.87.49,2.42.83.93.14.51.64-.79,1.39L115,309l-.58.34-.41,3,0,1.16.72.89,2.4.79.68.57-1.25.62.27,1.07.13,2.26.33,1-.74,2-.32.47v.44l.24.16.11.21.09.28.23.36.28.54-.19.37-.32.38-.11.59.27.83.45.53.94.83.37.74v.67l-.22,1.48.11.94.66,1.74.16,1.75-.3,1.34-.41,1.31-.22,1.65.13.84.52.95.12.6-1.1,1.7-.76.79-.24.39-.15.74,0,1,.26.55.32.47.14.68.59,1.16,2.81,1.2,1,.73.52,1.53,0,1.54-.19,1.16h.22l2,0,26.66-.2,26.72-.2,26.76-.21,26.8-.21,26.82-.2,26.83-.21q13.42-.09,26.84-.21c8.73-.06,17.47-.18,26.2-.18l.46,1,.22.36,1,.68.22.42,0,.91.1.68.24.52.38.5.51.33,1.15.29,1.26.86.11.27.24,1,.22.42.24.2.26.06.59,0,.33.13.14.33.1.39.15.35.48.38,1.08.48.45.33.33.48.16.49,0,.48-.14.47.45.67,1.95,2,.66.48,1.55.61.56.57,3.16-.94.49-.72-.08-1-.3-1.86,0-1.2.33-2.15,0-1.24-.49-1.15-1.44-1.34-.2-.6.11-.69.51-.74.11-.49.94-1.21,2.15-1.35,2.4-1.08,1.64-.45,2.15-.22,2.12-.74,1.86-1.35,1.37-2.05,1.05-2.83.33-1.54.18-3.09.24-1.12.56-1.09.93-1.38,5.31-6.17.94-2.54.21-3.32-.35-3.26-.92-2.88-1.53-2.16-2.7-2.12-.76-.3-1.09-.63-.61-1.5-.27-1.78V310l.44-3.06.82-3.09,1.12-2.81,1.26-2.18,2.12-1.43,15.35-1.24,2.28-.77,1.1-1,2-2.44,1.12-.48,5.33-1,2.24-.89,1-.76.41-1,.49-.46,2.36-1.36.81-.86.26-.75.11-.75,0-1.69-.11-.41-.19-.32-.09-.32.77-1.4.2-1.55.52-1.59.71-1.43.74-1.09.77-.76,2.24-1.8.86-.36.95-.64.68-1.52.76-3.21.39-4.41.93-2.51.29-3,.2-.85-1.31-3.21Z"/><g id="UtNVxE.tif"><path class="cls-2" d="M191.32,309.29q5-15.3,10-30.63L175.2,259.73l0-.07h32.22l10-30.66h.07l10,30.67H259.6l0,.07-6.48,4.71-6.52,4.74-6.5,4.72-6.5,4.73q5,15.35,10,30.65l-.05,0-26.1-18.94-26.07,18.94Z"/></g></svg>