<svg id="Layer_1" data-name="Layer 1" xmlns="http://www.w3.org/2000/svg" viewBox="0 0 500 500"><defs><style>.cls-1{fill:#eee;stroke:#bcbcbc;stroke-width:2px;}.cls-2{fill:#e00000;}</style></defs><title>state_ID</title><path class="cls-1" d="M336.42,344.52q0-12.88,0-25.77v-25l-1.24-.35-.46-.33-.8-1-.49-.83-.37-.45-.3-.25-.43-.23-.22-.16-.16-.16-.08-.17-.06-.18-.06-.21,0-.46v-.26l0-.26-.09-.28-.17-.18-.21-.15-.28-.13-.13-.16-.22-.5-1.14-1.82-.26-.67-.28-.23-1-.57-.36-.1h-.24l-.13.13-.3.56-.16.14-.21.09-.81.11-.19.07-.34.2-.27.29-.08.19,0,.2.05.18.09.16.11.15.1.16.06.18,0,.23v.23l0,.22-.12.17-.13.12-.75.29-.14.12L324,288l0,.41-.06.18-.19.45-.06.22,0,.24v.23l0,.21.09.4.05.17.06.1.09.12.12.11.17.1.65.23.15.11.09.16v.16l-.18.13-.27.07-.48.06-.26,0-.17,0-.35-.26-.87-.42-.34-.07-3.07,0-.41.06-1.26.87-.17.09-.48.11-.58.05-.24.08-.56.27h-.27l-.2-.06-.15-.13-.1-.16-.08-.17-.22-.32-.2-.16-.26-.15-.51-.19-1.18-.05-.26.05-.2.07-.15.12-.2.12-.29.09-.53.09-.45-.06-2.68.5-.27,0-.69-.28-.8-.2-.52,0-.63,0-.31,0-.22-.08-.42-.33-.41-.19H303l-.19.08-.25.27-.13.1-.21.1-.71.18-.44.19-.33.19-.15.13-.11.15-.09.2-.21.92-.49,1.31-.16.19-.24.16-.44.16-.31,0-.24,0-.17-.12L298,295l-.19-.17-.24-.16-.54-.15h-.4l-.78.11-.18,0-.24-.25-.16-.12-.18-.1-3.44-.44-1-.25h-.31l-.23,0-.49.33-.17.07-.81.21-.16.1-1.61,1.64-.12.16-.11.18-.08.19-.05.2v.22l.07.19.48.84,0,.22-.12.21-.46.24-.24,0-.18-.1-.65-1-.13-.13-.17-.11-1.25-.4-.21-.13-.14-.13-.44-.63-.17-.17-.25-.17-.46-.17-.25-.16-.12-.21,0-.45,0-.18-.26-.52,0-.16v-.11l.11-.36.26-.61,0-.21-.09-.22-.19-.2-.45-.24-.24-.18-.14-.19V291l0-.2-.08-.18-.77-.85-.09-.16,0-.19,0-.19.09-.17.13-.15.28-.25.14-.14.08-.18,0-.21,0-.19-.06-.2-.17-.35-.31-.49-.09-.18-.19-.58-.08-.19-.1-.16-.23-.29-.11-.17-.07-.17-.07-.2,0-.21-.06-.19-.08-.18-.1-.16-.41-.41-.12-.15-.38-.66-.11-.16-.53-.56-.65-.54-.74-.39-.65-.17h-.48l-.2.06-.17.08-.15.11-.56.53-.21.13-.28.1-.51,0-.27-.08-.16-.15-.07-.67-.06-.19-.24-.22-.37-.24-1.32-.63-.33-.26-.26-.35-.17-.35-.38-1.14-.18-.35-.2-.32-.25-.28-.1-.17-.06-.18,0-.19.11-.15.14-.11.54-.26.13-.13.13-.16.09-.2.07-.22.18-1,0-.24v-.05l-.12-.63-.06-.2L269,272l-.18-.36-.88-1.3-.09-.17-.17-.7-.19-.3-.21-.11-.94,0-.24-.08-.15-.16,0-.21v-.47l-.06-.2-.09-.16-.23-.33-.08-.18-.05-.21,0-.22-.09-.4-.08-.19-.18-.34-.4-.46-.45-.36-.57-.66-.49-.42-.13-.19,0-.21,0-.44-.05-.22-.14-.21-.21-.21-.63-.48-.18-.18-.09-.17-.08-.19,0-.45v-.24l.07-.48.05-1v-.48l-.11-.26-.21-.28-.79-.66-.13-.28,0-.44-.07-.19-.05-.2v-.24l0-.23.07-.22.17-.42,0-.22,0-.22-.07-.65v-.3l-.08-.28-.3-.28-.87-.39-.22-.2-.11-.23v-.25l.07-.51.13-.46.09-.2.21-.34.09-.19,0-.21-.06-.23-.11-.22-.25-.29-.21-.16-.22-.12-1.46-.51-.33-.2-.2-.21,0-.44-.06-.21-.08-.17-.73-.65-1-.73-.53-.27-.38-.13-.17,0-.1.09-.06.12,0,.19v.45l0,.19.09.28,0,.18v.2l0,.16-.07.09-.11.06-.75.26-.18.1-.15.11-.14.14-.12.17-.18.41-.07.22-.1.2-.1.18-.14.13-.5.32-.13.14-.11.18-.07.2-.06.2-.12.16-.15.11-1.12.47-.64.44-.18.08-.21,0-.48,0-.21,0-.19.08-.16.12-.12.15-.12.17-.1.18-.29.85-.12.22,0,0-.12.1-.67.35-.16.11-.23.1-.31.06-.59-.05-.31-.09-.21-.15-.11-.15-.15-.28-.95-.54-.29-.21-.18-.22-.05-.22-.08-.23-.14-.21-.93-.72-.27-.09-1.32-.26h-.56l-.39,0-.12-.15V251l.33-.51.08-.21,0-.22,0-.24-.1-.25-.17-.33-.05-.25.05-.21.11-.15.59-.5.36-.41.07-.11.06-.14.07-.18,0-.21v-.23l-.1-.42v-.2l.12-.38-.05-.26-.18-.29-.71-.73-.18-.24-.06-.2-.15-.55-.23-.39-.06-.27,0-.22.13-.14.29-.27.14-.16.09-.19.08-.21.19-.38.32-.51.15-.35.06-.1.09-.14.29-.24.18-.08.2,0,1-.05.21,0,.19-.08.15-.12.68-.69.11-.17,0-.24,0-.3-.59-1-.09-.19-.06-.19,0-.23,0-.23,0-.25L242,236l.28-.57.05-.23,0-.25-.11-.27-.2-.12-.74-.21-.67-.29-.26-.25-.08-.26.05-.22,0-.24,0-.29-.22-.4-.08-.29,0-.27.06-.23.08-.2.57-.86.1-.2.07-.21,0-.23,0-.22-.07-.21-.11-.18L239.6,228l-.13-.24,0-.21,0-.22.06-.16.06-.1.13-.11.17-.08.94-.1.2-.06.17-.1.13-.15.09-.19,0-.23v-.24l-.07-.44-.06-.69,0-.22-.05-.21-.16-.45-.13-.26-.08-.22,0-.22.05-.2.09-.17.23-.34.09-.2.06-.23,0-.48,0-.22.09-.22.58-.85.09-.2,0-.22,0-.25,0-.48v-.52l.07-.49.12-.47.65-1.41.07-.26.05-.24,0-.26,0-.23,0-.23-.11-.21-.14-.22-.4-.49-.09-.16,0-.07v0l0-.19.13-.11.16-.09.77-.3.17-.11.16-.12.13-.14.1-.17.05-.2,0-.2L244,212l-.09-.18,0-.2,0-.22.06-.2.2-.37.08-.21,0-.22,0-.22-.05-.21,0-.22,0-.23.07-.22.17-.41.1-.5v-.74l0-.26,0-.27-.11-.27-.18-.15-.21-.1-.24,0h-.23l-1.9.5-.19.08-.45.35-.36.19-.2.06-.2,0-.23,0-.46-.17-.19,0-.19,0-.64.27-.34.08-.47,0-.35-.1-.4-.18-.68-.44-.3-.26-.21-.25-.06-.2,0-.21,0-.23.08-.2.39-.5.05-.23-.06-.3-.24-.4-.19-.23-.71-.52-.19-.09-.23-.05-.22,0-.19.06-.17.1-.45.4-.63.79-.18.11-.22.05-.27-.07-.16-.15-.07-.2v-.22l.19-1,0-.26,0-.28-.1-.29-.15-.17-.19-.13-.81-.24-.46-.21-.29-.26-.41-.47-.3-.28-.86-.57-.26-.22-.17-.2-.24-.58-.13-.42-.08-.45,0-.71v-.25l.05-.25.07-.23,0-.22,0-.21-.17-.18-.71-.44-.24-.19-.17-.18-.79-1.08-.19-.2-.18-.12-.56-.14-.41-.17-.21-.17-.13-.16,0-.11,0-.07-.13-.75-.06-.21-2.51-2.81-.41-1-.76-1.1-.32-.3-.78-.55-.24-.27-.26-.37-.2-.21-.23-.17-.28-.15-.16-.17-.1-.2-.1-.43-.08-.2-.12-.2-.18-.23-.12-.22-.26-.59-.32-.49-.22-.26-.23-.17-2.54-1L212,181l-.41-.18-.23-.17-.15-.18-.28-.55-.24-.58-.46-.68-.9-1.07-.25-.25-2.11-1.43-1.11-.33-.46-.23-.19-.22-.08-.22,0-.19.08-.15.07-.08.14-.11.19-.06,1.2-.11.2-.06.18-.08.17-.11.12-.17.06-.21-.11-.27-.26-.19-.43-.21-.29-.19,0,0-.16-.85-.22-.46-.25-.26-.72-.48-.17-.22v-.21l.12-.15.16-.12.67-.44.15-.13.13-.15.12-.17.17-.42.07-.24-.06-.35-.2-.45-.76-1.21-.14-.34.07-1,0-.3-.08-.28-.18-.35-.2-.19-.82-.55-.14-.23-.09-.29-.07-.28-.17-.38-.26-.22-.75-.46-.2-.23-.12-.23-.53-2-.12-.25-.17-.34-.23-.21-.66-.41-.27-.27-.31-.41-.3-.31-.35-.29-.19-.22-.12-.2-.21-.44-.7-1-.33-.64L197,153l-.62-.61-.24-.4-.1-.26q0-13.29,0-26.59,0-7.61,0-15.22H168.24q0,13.39.1,26.78l.09,26.54.09,26.28.09,26v1.12l-.42,1.29-.11.73.2.62,1.33,1.75.94,1.59.39.86.32,2,.61,1.1v.85l-.26.83-.36.56-.83.94.16.43,1.48,1.92c.24.67.49,1.33.73,2l.24,1.24.82,2.27,1.68,1.74.26.63.28.52,2,.45.27.25.58.68,1.63,1,1.18.23.41.39.35.44.37.79.51,1.64,1,1.94.22.82,0,.85-.22.75-.39.62-.83,1-.15.28L182.5,254l-.13.84-.11.39L180.92,257l-.41,1.33-1,1.16-.37.72-.11.84-.08,1.66-.28.65-.37.68-.5,2.44-.58,1.53-3,4.58-.22.43-.09.4.06.45.14.32.14.2.06.11,0,.83-.31,1.85-.22.73-.65,1.39-1.5,2.51-.4.49-.52.47-1.7,1.12-.53.64-.29.57-.78,2-.71,1.4-.31.83-.24,1.54-.28.73-.37.67-.39.47-.31.16-.31.09-.24.2-.1.5-.13.21-.26.23-.18.28.29,1.06-.21.7-.31.78-.09.9.12.46.37.79.08.51,0,.4-.13.51,0,.41.19.72.45.51,1.09.79.28-.32.22-.34.26-.28.39-.15.36.1.21.31.17.39.23.29.58.19.49-.13.51-.23.63-.12.35.14.09.35,0,.44.06.43.21.52.15.21.62.34.48.37.56.56.14.36-.12.28-.19.23-.11.21v.44l0,.47-.11.44-.23.39-.31.14h-.38l-.38.06-.29.34V310l.76,1.33.21.82,0,.44-.1.3-.12.3-.13.42-.19,1.6-.36,1.26-.1.93-.33.87-.31.52-.62.49-.44.63.22.89v.29l.1.51q0,13,0,25.95,0,13.34,0,26.66,0,7.8,0,15.61H336.42V344.52Z"/><g id="UtNVxE.tif"><path class="cls-2" d="M190.32,333.29q5-15.3,10-30.63L174.2,283.73l0-.07h32.22l10-30.66h.07l10,30.67H258.6l0,.07-6.48,4.71-6.52,4.74-6.5,4.72-6.5,4.73q5,15.35,10,30.65l-.05,0-26.1-18.94-26.07,18.94Z"/></g></svg>