<svg id="Layer_1" data-name="Layer 1" xmlns="http://www.w3.org/2000/svg" viewBox="0 0 500 500"><defs><style>.cls-1{fill:#eee;stroke:#bcbcbc;stroke-width:2px;}.cls-2{fill:#e00000;}</style></defs><title>state_IL</title><path class="cls-1" d="M320.46,314l-.42-1.78.13-.57.52-.76.13-.54v-2l-.24-.61-1.12-1-.43-.54-.24-.82-.32-1.81-.38-.86-1.15-1.18-.56-.34-.28-.25-.22-.4.14-1.86,2.44-2.38,0-2.09-.86-1.65-.18-.84.4-1,.68-.72,2.29-1.09.14-.21c0-8.75.05-17.5.09-26.25s.06-17.27.1-25.91q.06-13.86.11-27.73,0-12.81.09-25.62c0-3.92,0-7.84,0-11.76l-2.13-3.08-.65-1.58-.9-3.71-1.13-2.6-.49-4.47-.21-.95-.33-1-.2-.39-.25-.34-1.34-.6-.2-.27-.17-.31-.36-.38-.34-.47-.17-.58-.08-.55-.2-.49L311,147.29l-.6-1.75-.37-2-.13-3.85.05-.58.14-.41.17-.26.16-.3.32-5,0-.45L284,132.46l-26.58-.25L231,132l-26.27-.25h-1.25l-.49,1.12.47.73,1.15.64.58.57.57.72,1.2,1.05,3.25,2.1,1.17,1.2.67,1.73v-.35l.09,2.91.35,1.17,1.23.75.81,1.19.51.27.52.12,3.22,2,.39.38,1,1.15.35.24.58.12.26.37.06.6v.8l.12.69.93,2.27-.15.6-.2,2.15-.66,1.77-.27,3.12-.54,2.27-.48,1.07-.67.45-.61.26-1.59,1.27-.54.54-.52.77-.5,1-.37,1.12-.15,1.1-.54,1,.06.23.14.22.08.29,0,1.2-.07.52-.19.53-.57.61-1.67,1-.34.33-.29.69-.7.54-1.59.63-3.76.68-.79.34-1.44,1.73-.77.71-1.62.54-10.85.88-1.49,1-.9,1.54-.79,2-.58,2.19-.31,2.17v1l.19,1.25.43,1.06.77.45.54.21,1.91,1.5,1.08,1.53.65,2,.25,2.31-.15,2.34-.67,1.79-3.75,4.36-.66,1-.39.76-.17.79-.13,2.19-.23,1.09-.74,2-1,1.45-1.32.95-1.5.52-1.51.16-1.16.31-1.7.77-1.52,1-.67.86-.07.34-.36.53-.08.49.14.42,1,.94.34.82,0,.87-.24,1.53v.84l.21,1.32.06.72-.35.51-2.23.66h0L172,239.9l-.87,2.21-.58,2.52-.26,2,0,2.29,1,8.14.2.74.52.8.64.79.23.34.17.36.12.38.05.45,0,1.2-.31,1.44,0,.57.17.33.5.58.25.65,1,1,.23.5.09.52.06,1.15.47,1.65.75,1.22,9.49,8.69.59.73.45.91.18,1.05.23.67.57.57,8.74,6.45.84.82.89,1.18,1,1.8.43,1,.26,1,0,.65-.07,1.35,0,.66.2.59.68,1,.15.53L201,302l-.29.57-.16.6.24.64.29.59.21.8,0,.81-.17.6,1.7,3.6,1.18,1.48,1.56.6,1.64-.77,2.38-3.15,1.92-.41.72.29,1.3.85.7.18.88.1,1.92.56,3.73,2.12,1.5,1.25.62,1.29-.28.86-.64,1.21-.71,1.08-.55.47-.49.53-.1,1.19.19,1.94,0,2-.65,1.51-1.9,3.08-1.93,5.36-1.82,3-.57,1.52-.15,1.78.34,2.21.2.75.24.58.25.49.32.45,2.08,1.81.25.44,1.06,1.1.25.43.27.72.67.57,1.4.84,1,1,.92,1.2,1,1,1.34.43,2.08,1.79.58.37,1.41,0,1.7.49,1.29,1L234,360l.89.6,2.34,1,.92.64.93,1.33,1.08,2.61.84,1,3.67,1.71,1,.89-.28.58.13.78.26.87.15.85-.1.8-.19.8-.1.87.13,1,.79,1.65,1,1.52.89,1.63.39,2-.66,1.7-1.33,1.3-1.11,1.34v1.83l.21.2.74.27.33.18.6.5-.07.62.12.79.31.77.87,1.55,1.5,2.12.55,1.35L250.6,399l.62.72,1.89,1.56,1.53.65h.45l.19-.49-.11-.72-.27-.39-.34-.28-.34-.4-.42-1.06.26-.46.69-.11h.9l.24.24.17,1.12.12.42.35.32.78.48.29.32.19.51.09.52.14.49.35.42.42.11.47-.13.45-.19.36-.08.75.33-1.31-1.51-.68-1.15-.1-1.24.82-1.45,1.3-1.47,1.29-2.38.38-.51,1.32-1.09,1.57-.69,1.76-.22,1.84.36,10.35,5,2.72,1.78,1.5.45,1.4-.24,1.12-1.11.81-1.91,0-1.51-.68-1.42-1.13-1.67-.82-1.56-.34-1.73.17-1.85.73-2,.39-.64.5-.5.63-.34.79-.1,1.7,0,.63-.18,2.22-1.26,7-1.26,1.21-.78.31-1.36-.84-2.05-1.12-1.2-.2-.26-.63-1.29-.25-.91.25-1.14.48-1.05.44-.63,2.13-1.83.58-.64.41-1.07v-.95l.16-.62-.89-.37-.72-.08-.27-.1-.14-.22v-.23l.15-.1,1.09.08.58,0,.41-.22-.25-.53-1.85-1.78-.63-.8,1.69.33h.37l.61-.32.11-.35-.11-.45-.09-.66-.22-1v-.59l.36-.25.17-.32,0-.73-.14-.78-.16-.48.46-.57-.52-1.17.46-.21.64-.12.67-.29.63-.43.53-.47L304,350l-1.18.12-.62-.3.89-.64.81-.8.37-.26.82-.2.36-.21.39-.85-.47-.55-.72-.41-.38-.46-.13-.31-.26-.3-.26-.37-.1-.53.12-.56.26-.33.32-.28.34-.43.28-.77.2-.77.35-.59.74-.19,0,.3.36.56.41.25.29-.9.25-.39.3-.35.27-.15.15.2.1.47.15.45.36.22.26-.24.1-.53.05-.62.13-.43.24-.52.34-1.1.3-.52.31-.24.74-.26.26-.16.58-.73.58-1,.2-1-.57-.57v-.36l1.14-.37,1.2-.62.32-.27.41-.48.27-.23.35,0,.22.22.2,0,.27-.53v-.56l-.63-1-.14-.75.19-.72.38-.55.49-.4.49-.3h-.23l.14-.11.14-.13.12-.19.11-.26-.18-1,.32-1,.57-.82.61-.52.39-.07h.51l.46-.09.19-.35,1.18-3.54-.49-1.9Z"/><g id="UtNVxE.tif"><path class="cls-2" d="M234.32,316.29q5-15.3,10-30.63L218.2,266.73l0-.07h32.22l10-30.66h.07l10,30.67H302.6l0,.07-6.48,4.71-6.52,4.74-6.5,4.72-6.5,4.73q5,15.35,10,30.65l0,0-26.1-18.94-26.07,18.94Z"/></g></svg>