<svg id="Layer_1" data-name="Layer 1" xmlns="http://www.w3.org/2000/svg" viewBox="0 0 500 500"><defs><style>.cls-1{fill:#eee;stroke:#bcbcbc;stroke-width:2px;}.cls-2{fill:#e00000;}</style></defs><title>state_KS</title><path class="cls-1" d="M427.79,212.06l-.77-.29-1.1-.09-.15-.11-.11-.53-.23-.17-.23,0-.47,0-.68-.07-1.43.06-1-.42-2-1.37-.93-.28-.89-.58-.19-1.26-.06-1.25-.45-.57-1.59-1.09-1-2.37-.35-2.38.4-1.09-2-.45-.22-.32-.25-.95-.18-.36-1.94-1.41-.85-.39-.36-.23-.46-.69-1-2.13-.29-.45-.79-.36-.84-.93-.53-1.2.07-1.22.34-.18,1.23-.07.52-.35L407,186l.05-.67-.06-1.29.32-1,.73-1,1.48-1.49.51-.34.4-.19.27-.38.14-1.47.13-.61.25-.49.38-.2,2.23.67,1,.08.74-.75.1-.68-.26-.42-.34-.42-.17-.74.05-.68.22-1.18,0-.61-.44-.62-2-1.23-.69-.84.4-.6,0-.83-.32-.72-.6-.31-1.09,0-.8.18-.69.38-1.4,1.23-.95.63-1.1.29-1-.48-1.24-1.44-.5-.38-.53-.22-1-.11L401,167l-.41-.37-.22-.45-.18-.5-.3-.51-.41-.19-.59-.09-.52-.16-.6-.93-2.62-2.43H84.4c0,6,0,12.09,0,18.13,0,8.94.06,17.87.09,26.81s.06,18,.08,27c0,8.63.06,17.26.08,25.88s0,17.1.07,25.65c0,8.83,0,17.65.09,26.47,0,9,0,18,.08,26.94H427.52V293.55q0-13.69,0-27.38,0-12.65,0-25.29v-27l-.21-.08-.05-.21v-.18l-.06-.09.66-.71Z"/><g id="UtNVxE.tif"><path class="cls-2" d="M342.32,269.29q5-15.3,9.95-30.63L326.2,219.73l0-.07h32.22l10-30.66h.07l10,30.67H410.6l0,.07-6.48,4.71-6.52,4.74-6.5,4.72-6.5,4.73q5,15.35,10,30.65l0,0-26.1-18.94-26.07,18.94Z"/></g></svg>