<svg id="Layer_1" data-name="Layer 1" xmlns="http://www.w3.org/2000/svg" viewBox="0 0 500 500"><defs><style>.cls-1{fill:#eee;stroke:#bcbcbc;stroke-width:2px;}.cls-2{fill:#e00000;}</style></defs><title>state_KY</title><path class="cls-1" d="M86.94,302.32l-1.59.69-.4,2.11.43.75.44.52,3.18-.07.22-.79-.63-2.4Zm366-59.2-.54-.06-1.44.35-.6-.07-3.84-1.22-.64-.37-.33-.37,0-.32v-.34l-.05-.32-.12-.28-.16-.24-.38-.46-1.5-1.36L443,238l-.26.08-.2.11-.13-.11-.9-1.31-.46-.46-.38-.27-.36-.19-1.89-.7-.42-.29-.23-.33-.21-.91-.7-2-.06-.32v-.32l-.35-.66-.6-.86-3.05-3.14-.12-.24-.12-.29-.16-.61-.22-2-.09-.4-.17-.43-.36-.63-.27-.36-.27-.27-2-1.41-.25-.33-.05-.29.09-.19.6-1,.13-.27,0-.22-.06-.33-.17-.47-.24-.36-.19-.21-2.66-2.36-.33-.43-.23-.56-.24-.89-.27-.53-3.65-5.19-.28-.54,0-.31,0-.28.06-.22.09-.14.16-.16.87-.63.36-.38.16-.26.07-.26,0-.31-.07-1,0-.34.08-.28.15-.17.24-.09.59-.11.21-.14.12-.22,0-.31v-.34l0-.33v-.64l.11-1.4.11-.76,0-.6-.15-.71-.89-1.94-.16-.48,0-.17,0-.23.18-1.6,0-.68v-.36l-.49-.75-.8-2-.5-.87-3.49-3.56-1.86-1.18-2.25-.78-2.11-1.19L410.7,177l-1.17-4.09-.15-1.2v-1.23l-.15-.9-.58-.42-1.25.2-2.95,1.51-1.23.19-1,.31-.76.75-.68.85-.68.66-1.3.49-.4.31-.25.47-.51,1.3-.39.61-.86.56-1,0-2.21-.41-1.14.1-.73.44-.59.5-1.74.41-.37-.17-.6-.67-1.16-1.9-.35-.43-.61-.44-1.39-.63-.68-.16-1.72,0-.45-.24-.8-.79-.91-.64-1-.4-1.08-.11L374.41,173l-.55.4-.23,1.16-.6,1-.84.73-1,.31-2.12-.47-1.92-1.31-3.28-3.33-.74-1-.65-1.11-.75-.9L359.7,168l-2-.93-1.15-.17-4.33.85-1.07-.12-5.41-2-1.06-.79-.46-1.08-.06-1.49-.17-1.27-.3-1.11-.46-1-.51-.6-.66-.59-.57-.69-.25-.87-.1-1.09-.28-1.14-.52-1.05-.73-.79-2-1.08-1.19-.44-.94-.18-.55-.5-.51-1.14-.69-1.15-1-.6-2.08.41-4.17,1.92-2.06-.21-2.48-2.53-.71-.41-.27-.21-.61-.92-.43-.22-.58.15-.46.37-.78.83-3.64,2.27L312.94,150l.13,2,1.35,1.43.71.94.26,1.06-.5,1.07-1.72,1.71-.43.61.59.77.77.37,2.11.13,1.05.39-.05.91-.65,1.06-.68.84-.35,1.2.66,2.05-.65.35-4-.41-1.67.23L306.82,168l-7.07,4.39-2,.43-1-.59-1.66-1.91-.84-.42-3.08-.14-5.59.53-.9.51,0,1.17.39,1.3.36.86.41,3.8,1,2.41-.22,1.15-.68.92-2.59,1.9-.66.77-.75,1.08-.74.56-2.07.2-1,.27-1.44,1.79-1.14,5.45-1.05,2.09-1.71,1.35-1,.52-1.83.58-.56,0-.24-.54-.26-.23-.57-.24-.67-.16h-.49l-.66.73-1,2.53-.49.56-.81.43-.66,1.08-.45,1.36-.22,1.27-.45,5.87-.5,1.59-.3.55-.37.48-.47.43-.56.37-2.36.42-1.13.43-.48,1-.47.47-1-.85-1.83-2-1.09-.28-2.45-.18-1-.57-.79-.61-1.92-1-.77-.67-.44-.89-.09-.95.17-2.58-.44-.72-2.51-2-.88-.42-1-.11-.52.42.58,1.14,1,.61,1,.31.4.44-.84,1-2.05.87-1.15.11-.58-.18-.26-.6-.26-.24-.55-.3-.56,0-.26.58.18.65.88,1,.27.67-.2,1.33L236,212l-1.1.35-1.05.09-.64.54-.24,1.3.15,4-.14.92-.62.59-2.6.56-.28.91v1.22l-.39,1.23-1,.66-1.16,0-.71-.58.36-1.08.56-1.23-.92-.24-2.14.41-1.7-.31-1.49-1.22-1-1.66-.4-1.61-.77-1.11-1.75.69-1.85,1.42L213.94,219l-.65.32-2.83.31-.86.38-.67.46-.57.67-.57,1-1.33,3.85-.79,1.43-1.51,1-.54-.34-.41-.38-.75-.95-.24-.65-.11-.71-.22-.55-.58-.23-.89-.05-.69-.19-.52-.26-1.71-1.16-3.27-1.31-.88-.59-.87-.76-1.09-.71-1.14-.55-1.05-.26-2,.53-2,1.11-1.89.38-1.69-1.6-.16-.6.06-1-.25-.46-.38-.17-.43.09-.37.38-.16.76.2,1.37.89,1.78.25,1.26-.51,1.67-1.24,1.37-1.46.57-1.1-.73-.12-.92.51-2-.09-.85-.64-.49-.81.06-.74.41-.46.44-.46,0-1.91.66-1,.14-1.09-.21-.9-.49-.76-.7-.71-.9-.94-.79-1-.18-.84.51-.35,1.27.19.83,1.46,3.62L164,228.39l-.25.41-.89-.24-1.73-1.1-.84-.33-1.11.16-.2.8,0,1.21-.51,1.38-.75.81L155,233.83l-.56.82-.63,1.35-.31,1.46.32,1.16.81,1.65.25.35,1.43,1.53,1.08,2.63-.39,1.74-1.56,1-8.91,1.61-2.85,1.62-.81.23-2.18,0-1,.14-.79.43-.65.64-.5.82-.93,2.56-.23,2.37.45,2.22,1,2,1.46,2.13.86,1.83,0,1.93-1,2.45-1.44,1.43-1.79.3-1.93-.57-3.47-2.29L117.47,263l-2.36-.46-2.25.27-2,.89-1.68,1.4-.49.66-1.66,3-1.66,1.88-1.06,1.87.13,1.59.87,1.46,1.68,1.94.23,1.07-.32,2.62.07,1.92-.07.58-.26.4-.47.54-.43.62-.2.71.19,1.27.73,2.11.07,1.35-.38,1.59-1.92,4.18L103,299.94l-1,1.62-1.3.69-1.52-.51-1.27-1.2-1.18-1.38-1.16-1.06-.54.3-.3.35-.47,1-.7,2.25-.13.93-.77,2.8-.26.69,25.25,0h41.71l.14-1.4,0-2.18-.08-.94-.63-3.11L158,296l-.11-.6v-.28l.09-.1.24,0,9.62.95.38.12.23.33.36.83.2.35.25.24.29-.09q12.94-.19,25.88-.31c9-.1,17.93-.23,26.89-.34l9.31-.1,1.75-.39.41,0,26,.91,28,1,25.27.88,25.91.89q13.52.48,27,1l2.35.08,1.73-.47,1.31-.63,2.15-1.84.93-.45.33,0,4.27-1.56,4.64-.47.53-.17.37-.2.63-.53,1.92-1.08,5-1.68,5-.77.43-.2.25-.21.1-.29,0-.32-.09-.56,0-.23.13-.2.57-.62.34-.52.89-2,1-1,.29-.19.31-.09h2.06l6-2.29.73-.4.2-.23.17-.26.13-.31.1-.31.07-.29.08-.92,0-.66,0-.31,0-1,.26-.49.47-.5,1.16-.9L417,274l.51-.33.19-.23.16-.28.13-.32.09-.34,0-.36-.07-1.36-.17-.95,0-.38.4-.57.89-.88,2.37-1.62q6.23-3.09,12.45-6.14l1.17-.81,18.71-15.8Z"/><g id="UtNVxE.tif"><path class="cls-2" d="M300.32,252.29q5-15.3,9.95-30.63L284.2,202.73l0-.07h32.22l10-30.66h.07l10,30.67H368.6l0,.07-6.48,4.71-6.52,4.74-6.5,4.72-6.5,4.73q5,15.35,10,30.65l0,.05-26.1-18.94-26.07,18.94Z"/></g></svg>