<svg id="Layer_1" data-name="Layer 1" xmlns="http://www.w3.org/2000/svg" viewBox="0 0 500 500"><defs><style>.cls-1{fill:#eee;stroke:#bcbcbc;stroke-width:2px;}.cls-2{fill:#e00000;}</style></defs><title>state_AL_1</title><path class="cls-1" d="M384.74,343.23l-.84-.51-.21-.24-.29-.25-.73-.45-.92.8-.21,1,.24,3,.81-.5.6-1.6.5-.32.39.29.28.64.46.65.78.32-.3-1-.18-1Zm8.84-11,.91-1.64.47-1.14h-.31l-1,1.39-.62,1.13-.33.66-.5.73-.61.71L392,334l1.11-1.06Zm-38.37,45.43-.38.25-.31.5.6.06.89-.58.1-.37-.6.07Zm35.86-36,2.81,2.47.88-2.38-.05-.47-.4.07-.61.27-.64.13-1.88-.47ZM406.42,361l1.84-2.1.23-.37-.29.09-.14.1-2.51,2.87.43-.22Zm4.49,23.1-.61-.95-.74-.48-.88-.13-1.09.15.24.71.19.27-.82-.05-.95-.27-.81-.54-.32-.8-2.53-.74v-.43l.68-.2.6-.27.46-.39.38-.61-.65-.25-.23-.59-.22-.75L403,377l-.22.16-.6.34-.18-.82-.35-.5-.4-.43-.33-.65-.23.18-.63.29.06-.81,0-.68-.13-.41-.29,0-.05-.24v-.18l-.1-.1-.28,0-.56,1.24-1,.9-1.05.43-.77-.2-.24-.52-.2-1.31-.36-.54-.67-.32-.52,0-.5.18-1.28.2-.91.32-.49.08-.68-.17-.87-.64-.52-.14-.27-.22.07-.48.38-.5.64-.22h.66l.51-.07.39-.29v-.36q-.75-.12-1.5-.27l-.63.13-.5.34h-.37l-.38-.29-.5-.05-.59.13-.18-.22-1.24-.66h-1.34l-3.62.75-.81-.05-.66-.31-.29-.71.31-.13.66-.11.59-.47.14-1.14-1,.48-.28-.5.21-1,.63-1v-.46l-1.09-.09-1.68-.95-1-.37.14-.24,0-.07.29-.22-.89-.37L374,363l-1.42-.91-1.66-.56-.59-.43-.34-.7-.36-1.54-.32-.82L367.63,356l-.34-.84.18,0,.6,0-.4-.67-.61-.33-1.47-.42,2.11-.41,5,1.36,1.18-.48-1.56-1.58-.11-.32,0-.12,0-.34-1.24-.52.58-.35.25-.09-.81-.69-1.59-.95-.54-.78,1.81.58,3,1.88,1.7.4,1.66.1,1.91.42.68.48.71.72.87.59,1.05.1v-.48l-2-1.83-.9-.54h.27l.25-.06.3,0,.42.09-.72-.85-1.23-.06-1.4.16-1.2-.19-.7-.76-.41-1.16.14-1.29,1-1.11.55-.13,1.33.19.59-.06.73-.36.33-.33.64-1.25.86-.92L382,342l.56-.9-.27-1.22.81,0,.75.27.63.41.5.5.66,1.24.43.43h.77l-.14.48-.13,1-.1.47.57-.49.58-1.34.5-.5h.44l1.42.38.62,0-.78-.49-.49-.76-.36-.84-.48-.79.34-.46.43-.49.59-.36.75-.09-.19-.29-.11-.22-.16-.22-.35-.21.39-.17,1.25-.73-1.7-.72-.4-.29-.39.47-.36.25-.92.29v-.52l1.19-.83.46-.62-.17-.74-.52-.13-.76.28-.68.51-.34.52h-.37l0-.32-.12-.05.1-.05-.42-.29-.87-1.18v-.43l1.66-1,.4,1.15,1.16-.23.71-1.06-1-1.33-.86-.23-1.72.31-.78-.08-.78-.46.16-.22.59-.25.45-.46v-.6l-.24-.53-.1-.58.34-.71.79-.47,1.69.15.83-.2.74-.63.12-.54-.39-.43-.84-.27-.46.15-1.29.91-.35.38h-.38l-.14-.27,0-.05h-.07l-.21-.16v-.52h.46v-.44l-.46-.26-1.37-.6-.66-.12-.32-.39-.34-.11-.43.25-.18.41.05.88-.11.38-.32.57-.21.5-.25.45-.45.43-.64.36-1.26.32-.59.23-.86.74-.34.86v2.51l-.27,1.5-.68,1.52-1,1.28-1,.77-1.32.32-1.41,0-1.34-.5-1.13-1.06-1.43-1.68.21-.79.88-1.16.15-.43L368,331l-2.12.95-.93.31-1.68-.06-1-.26-.64-.71-.62-1.36-.43-1.31-.09-1.11.33-1,.81-1.05,1.3-.69,1.63.06,1.56.66,1.15,1.15.66-.61,0-.63-.21-.66.18-.74.52-.36,1.79-.62.25-1.72.63-.88.82-.68.83-1.2-.65-.41L371,316.78l-.82-.32-1.66.48-.22.46.34.35.49.14h.21l0-.36.3-.18.33.11.16.43-.14.55-.31.34-.84.58-.32.11-.91-.15-.38,0,0,.25-.84,1.67-.18-.42-.25-.25-.23-.16-.16-.18.39-.66.68-1.81.63-.86-.45-.95h-.43l-.21.93-.36.9-.54.88L364,320.43l-.16.59-.16.3-.55,0-.85-.31-.95-.5-.8-.64-.32-.72-.2-1-.49-.4-1.4-.27-1.16,2.25-1.68,1.89-4.2,3-1.22.55-1.25.3-4.09.36-2.47.79-1.41-.05-3.81-1.06L334.67,324l-4.43-.41-2.47-1-2.08-1.85-1.15-2.56.27-3.19,1.44-2.17,4.48-3.9,1.56-2.08,2.24-3.29,1.39-1.48,1.41-1,2-.23,2.79.41,2.89.79,2.26.95,2.8,2.38.51.23.26.68,1.29,2.64.57.75,2.73.49.66-.09,1.13-.33.66-.07,1.33.47,2.16,1.84,1.31.13,2.1-.7,1.14.18.49,1.2-.09.67-.16.48,0,.45.29.57.45.28,1.23.38.44.31,1-.41,1,0,2,.38,1.06-.29,1-.44.84-.1.65.83-.7.34-.38.13h-.59l1,.87,1.86-.52,1.76-1.18.65-.88-.42-.48-.74-.24-.74.28-.49.71-1.39-1.61-1.78-4.27-1.16-2,.1-2.87-.28-1.18L371,300.33l-.41-1.11-.06-.6.09-1.23,0-.59-.18-.51-1-1.86-1.7-1.2-.82-2.17-1-.7-1.93-.75-.94-1-1.59-3.39.77-1.45-.49-1.22-.93-1.07-.58-1.06.08-1.25.45-1.53,1.15-2.52-.38-1.32.54-1.21,1.5-1.81,1-4.09,1.42-2.58.79-2.52.41-2.46-.2-1-18.57,0H250.23l4.75-3.94-.38-1.81-1.87-2.26-.69-2,.05-.68.64-1.22.17-.77.14-.27.27-.77.11-.78-.31-.36-.84-.52-1-1.22-.62-1.44.08-1.13.92-.48,1.43-.13,2.87.13,1.27-.29.75-.79.4-1.08.82-4.57.58-.65.12-.63.11-1.4-.11-.41-.77-1.49-.62-.8-.26-.54-.28-3.08,1.41-2.08,4.25-3.07.07-.48.3-.77.06-1.69,1.15-6.12.08-1.42.25-1.24,1.87-3.38.77-2.66.57-1.23.93-1.24,1-.66,2.56-.57,1.16-.44,1.17-.91,2.8-3.25.38-.59.6-1.47.48-.62.59-.39,1.88-.6,2.17-1.59,1.37-2.44,0-2.6-1.85-2.11,0-.49,0-.71.23-.74.55-.56,3.28.13,2.08-3.6,1.91-4.55,2.76-2.75v-.48l.48-.23.22-1-.42-1.11-1.38-.52-2.11-.32-1-.39-.42-.52-.54-2.85-1.38-1.33-1.86-.79-2-1.21-.74-1-.21-1.17.12-2.94.13-.68.26-.81.18-.86-.12-.84-.45-.56-1.47-.92-.61-.52-.7-1-.52-1.18-.32-1.36-.11-1.57.65-1,1.52-.3,1.67-.07,1.12-.31,1-1.5-.26-1.27-1.09-.86-3-.51-.75-.6-.18-1.07.47-2.84,1-3.46.59-.72.77-.41.92-1,.86-1.27.59-1.26-1.17-1.47-.77-.72-.77-.3-1-.13-1-.34-.82-.54-.33-.69.09-2.37-.84,0q-13.08,0-26.15,0c-9.23,0-18.45,0-27.67,0-8.25,0-16.5,0-24.75,0q-14.17,0-28.35,0c-8.14,0-16.27,0-24.41,0q-14.84,0-29.67,0l-12.65,0c0,8.56-.06,17.11-.06,25.66q0,13.26,0,26.5,0,10.2,0,20.38l0,.15.13.27.32.37.82.61.4.22.75.59.29.34,1.24,2.3.21.26.25.22.27.18,2,1,.54.45,1.18,1.23.83,1.08.53,1,.29.67.25.69.43.9,1.56,2.31.16.64.41,2.74.24.83.21.56.21.21.18.23.15.27,0,.36,0,.41-.28,1.13-.09.65-.11,2-.09.59-.09.39-.25.51-.25.73,0,.5,0,.54.22.68.16.42.38.64.58.83,1.63,1.8.53.43.3.2.34.18,1.47.45.36.14.28.2.2.29,0,.37-.18.38-.15.19-.07.1h0l-.65.42-.18.28,0,.34.13.58.12.3.18.33.23.19.29.14.71.2.34.15.26.21.19.43.16.59.16,1.12.18.62.2.46.61.83.93,1,.84.56.11.2,0,.23-.77,1-.18.29-.26.63-.12.41-.07.48.12.75.2.44.27.32,1.56,1.32.66.72.2.29.16.34.12.39.13.57.15.49.19.35.33.53.08.37.25,1.88.13.38.16.25.18.18.18.15.13,0,.18,0h.21l1.18-.31,1.09.27.33,1.16-.17,3.14-.14.7-.57,1-.12.78,1.63,2.62.84.75.25.52-.24.71-.48.33-1.65.51-.55.08-.9.74.52,1.6,1,1.52.44.52.47.91-.09.31-.38.73-.93.82-.53.6-.23.73.06.77.31,1.35.07.78,0,.85-.08.62-.34,1.17-2.21,4.07-.49,3.35-.58,1-2.08,1.67L128,282l-.89,3.48-.12.73-1.18.35-.93.87-.54,1.24,0,1.38.18.36.48.32.16.32.06,1.36-.06.08.76,2.09.07.56-.16,1.31-.47.95-1.47,1.83-.86,1.57-.2,1.34.24,3.09.43,1.07.91.86.88,1,.29,1.58-.18.7-.58,1.38-.1.79.14.7.59,1,.13.47.14,1.29.22,1,0,1.12-.39,1.59-.78,1.38-.1.64.46.84-3.56,4.05-1.24,2.19v0l.5,0,1,.41.29,1-.29,4.48-2.49,5-1,.24-3.84.26-.55.72.16,1.62.59,2.9,1.53,2.11,1.18.88,1.24-.36,1-.77,1.92-.91.84-.72,2-1.13,2.81-.48,5.13,0,6.15.13,1.56-.65,1.09.27,2.69-.29,1.27.54,1.27-.68,3.5-.63,3.17-.14,3.31.57L163,345l4.07,1.88,7.39,2.44,3.1,2.53L179.8,353l6.34,2.72L196.27,358l2.12-.54.62.37.61-.37,1.39.74,9.22,1.65,1.81-.05,1.75-.47,4.45-2.36,1.75-.43,3.77.36,1.67,0,.78-.84-1.23-.43.35-.68.74-.38,1.85-.41-.74-.68-1.41,0-1.47.45-.94.69h-.46l-.36-1.2-1.7-3.54.73-.27,1.79-1.21-.53-.32-.52,0-.56.18-1.45.26-.88.69-.45.16-.55-.59-.59-1.39-.47-1.59-.21-1.23,1.29.86.32.09.34-.27.5-1,.21-.19,1,.29.44.71-.14.8-.75.62.86,0,.74-.54,1.37-1.43.81-.49,5.23-1.91.6-.45.37-.93-.11-.61.11-.31,1.08-.09.68.29.63.5.7.18,1.62-1.23.78,0,2.83.42.69.44.45.69.15.94-.2,1.2-.47-.22-.53-.78-.47-.45-.66.59-.6,1.31-.21,1.31.43.59.2.5.05,1,.5.72,1.54-.31,2.26-1.3,1.06-.43,5.68-.32,1.4.16,1.45.6.45.92-.2,3-.28,1.61-.34,1.19.26.66,1.6.1.7-.18,1.34-.58.65-.15.5.33.1.74,0,.89.18.64.65,1.23.23,1.6-.25,1.4-.84.72,1.5.32,2.51-.4,2.48-.82,1.41-1,.84.63-.09.63-.46.66-.29.72.32.47.72.16,1.49.07,1.45.39,2.58,1.1,1.36.87.25-.73.74-1.34.25-.72-.15-.21-.23-.58-.1-.73.26-.66,1.74-1.44.32-1-.59-1.62,1,.05.79.34.5.63.2.93-.2,1.12-.56.66-.68.49-.63.56-.75,1.57-.27,1.84.31,1.85.91,1.63.4.26.79.24.3.25.12.45-.08,1.14.16.5.68.62,1.92,1.13,3.36,2.84.7,1.51-1.06,1.77v.43l.29.18.29.45.28.33-.55.55-.61.39-1.31.47,0-.77-.25-.56-.45-.36-.64-.19.57-.92.25-1,0-2.33-1.81.54-1.43-.82-.73-1.38.25-1.17-1.43.14-.72.77-.5,1.12-.7,1.23-.92.68-1.15.27-1.05-.3-.61-1.08.7,3.09,2.61,2.34,3.43,1.54,6.36,1.07.7.3,1.41,1.27.58.32,1,.07.8-.14.54-.54.19-1,.42-.32.95.07,1,.36.55.64-.65.15-.43.35-.21.58,0,.77,1.73-.65,1.64.4,1.54,1,2.78,2.6.63-.11.2-.26,0-.33.19-.25,1.36-.67.27-.64-.39-1.09,1.07.41,1,.68,1,.4,1.09-.5.45,1.29-.66.44-1,.3-.5.8.73.05,2.13.72.45,0,.45-1,1,0,.93.47.36.29.48-.16.25-.35.2-.33.86-.4.05-.57-.09-.63.13-.45.68-.23.68.16.33.59.37.9v-1.14l.43-2.68-.14-.12-.29-.31.52-1.6.32-.73.42-.5.57.69.46.74.47.27.59-.75-.77-1,.37-.72.67-.8.11-1.28-1.4-.21-.29-.22,0-.77.29-.38.47,0,.57.22.12-.65.35-.36.52-.07.68.13v.52l-.82.43.58.3,2.1.68.72-.34.57-.59.6-.12.8,1.05,1.41-1.61.49-.89.18-1.08.28-1,.6,0,.52.47,0,.31.34.37,1.2,2,.36.93v3.82l1.45-1.93.21-.71.1-.92.3-.62.5-.35.75-.2v.43l.09.8,2.25,2.5.57,1.22.23.33.5-.84.43-1.12.08-.52.6.1.4.66.19.87.06.73-.09.82-.27,1,0,.8-.22.74-.39.73-.25.72.23.65,1.29,1.22.39.59.18.86,0,.87-.11.69-.37.38.89.32,1.87-.79,3.12-2,1-.34,1-.84.82-1,.88-.68.34-.47,1.38-2.67.4-1.11-2,.27-1-2,.3-2.08,1.83-.06-.66-1.16.5-.59,1,.17.82,1.15,1.2-.5v-.48l-1-.52-.83-.86-.54-1.11-.14-1.29.5.16.36.3.25.43.18.52.07-1.84-.07-.56-.2-.45-.26-.36-.36-.35v-1.15l.2-.66.51-.42.93-.39L348,366.67l-1.41-.9-1.53-.5-1.73-.16-.59-.14-.62-.36-2.6-2.42-.56-.43-.36.37-.27.08-.26-.27-.32-.61h.58l.5-.11.95-.41v-.48l-.42.05-1.23-.05.38-1,.91-1.18.36-.69.91.8,1.42,2.12,1,.91.46-.52-.79-.52.19-.4.82-.16,1,.16,1.14.53,6.63,4.42,1.8.63,2.06-.88,1.88,2,1,.36.43-1.55.09-1,.27-.17.45.21,1.44.34.14.43-.27.86-.13,0-.27.25-.28.37L361,367v.45l.13.23.14.13.11.14.12.33.24.46.32.43.38.2,1.29-.72.7-.17.3.65-.18.47-.32.41-.18.48.27.81.18-.34.16-.14.2-.15.32-.32.36,1,.19.8-.07.76-.48.79-.68.57-1,.55-2.09.76,8.44.75.72-.23,1.65-1.51.87-.43.67.61,0,.65-1,1.59,1,.9.34,1.09.54.93,1.59.38,1.63.14,3.57,1.33-.59-1.45.66-.63,1.25,0,1.17.59-1.13.5-.52,0,3.35,6.09,1.28.49.46.43-.34.78,0,.52.66,1.87.62.55,1.38-.26,1.43-.83.76-1.09,0-.84-.34-1.45-.11-.83.2-.76L392,385l.41,0,.2.69-.07,1.71.12.88.4.48.52-.2.16-.79,0-.88.1-.5.9.08-.13,1.36-.55,1.59-.43.75-1.06,2.37-.56.27-1.36.28-.53.44,0,.39.1.7v.79l-.3.7-1.31,1.59-.39.68-1.1.88-.34.39-.16.63-.21,2.18,1.32-.37,1.08-.93,2.85-4.21.37-.92.15-.88.53-1.09,1.28-.43,1.4-.19,1-.4.3-.54,0-.45-.16-.48-.1-.66.12-.7h.3l.63.43.47.58,1.5,2.64.32.81.4.76L402,397.8l.64.47.83-.4-1.2-2.33.18-1.26,1.63-1.64.76-1,.33-.93.27.54.3.36.7.57,0-.81-.18-.75-.33-.68-.37-.59,1,0,.68.45.35.79,0,1,.81-.79,1.72-3.46-4-.09-.57.09.13-.84.82-1,1.09-.79.86-.23-.05.41.05.54V386h.45l.29-.71.43-.14,1.31.38-.43-.68-.25-.16-.56-.11v-.52ZM391.37,324.8l1.24-.24.05-.15.24-.32.34-.34.43-.14.19.08.18.2.25.18.47.05,0-.14.19-.34.32-.35.42-.15.45.18.25.43.17.49.18.32.87,1.14.41.17.39-.79.86.25.57-.55.28-1-.06-1.15h-.38l-.19.47-.27.36-.36.34-.45.3-.05-.32-.33-.66.18-1-1.05-.49-.84-.58.88-1.31L399,318l.79-.61.81-.45v-.48l-.93.25-.83.71-1.18,1.42L396.09,320l-.86.44-.94.33.45,1.21-.5.38h-.79l-.39.07-.29.49-.66.35-.83.24-.72.11.38.93Zm-5.64-6.54-.09-.39-.4.18-.39.65.5.21Zm-32.66,60.62-.82,1-1.52.56-1.38.73-.38,1.53h.42l.8-.9,2.1-1.09,1.24-.85-.46-.48.46-.46Zm44.23-47.07-1.63.36-1.09.43-1,.88.08.32.56-.23.65-.21,1.14-.2h.9l.31-.16-.2-.33v-.36Zm.77,33.3,1.14,0,1.23-.29,1-.63.35-1.06-.07-.21,0-.18-.08-.09-.29.06-.31,1-.89.61Zm-152.5-8-1.49-.13-1.83-.39-.07-.15-1.83-.8-1.55-1.52-1-.63-3.38-.77-.74.07-.25.23-.61.86-.34.29-1.51.48-1.17.11-1.15.36-1.42,1.22-.07,1,1,.93,6.18,2.69.62.62.63.27,3.48,2.31,2.35-.42.85,0,.44-.2.12-.5,0-.95.32-1.17.83-.69,2.2-1.24.56-1-.38-.56Zm167.2-3.31.07.08.58-.48.27-.3-.34.21Zm-119.35,39.6.12,0-.75-.29Zm.12,0,1.74.66h2.15l-1.41-.41Zm129-64-.88-1.29-.46-1.65L420.6,325l-1.32-.83.89.74.59,1.06.6,2.49.41.52-.29.79.25,1.12.86,1.91-.38.43,0,1.11,0,3.64-.35,1.19-1.79,3.6.25.4.1.41,0,.4-.07.38,1.51-2.88.51-1.55.61-5.76Zm-6.54,20.92,2.19-2.94.93-1.54L415.24,351Zm-69,14.6.27.46.24.19.23.14h.34l.31-.21.48.09.39.45.22.59.34.3.89-.12.32.05.24-.25,0-.5-.11-.18-.11.13,0-.2-.06-.38-.1-.06-.05.32-.22.1-.43.14-.55-.27-.61-.73,0-.23.63.07.21-.31-.36-.55-.59-.29-.66-.18-.49-.21-.27-.27-.46-.29-1.26-.46-.84.08-.54-.08-.54,0-.38.36,0,.65,1.06,1.25.59.32.81-.21.88-.15.32.06-.14,0Zm-14.58,26.85-.5.18-.47.27-1.7,1.42,3.8-1.42v-.52H333ZM311.25,393H311l-1-.06-.2.19-.45.29-.77.12-.52-.18-.17-.25h-.34l-1.28.54-.3.32-1.65.4.13.43h.95l4.64-1.13,1-.41.76-.5.1-.17-.39.23Zm14.24.8-.68-.39-1.45-.58-3.57-.75-.07.38,2.91,1.18,2.68.63h.42l0-.25Zm-1.79-12.9.4-.39.39-.5-.05-.65-.7.28-.45,1.55,0,1,.17-.78Z"/><g id="UtNVxE.tif"><path class="cls-2" d="M263.32,347.29q5-15.3,9.95-30.63L247.2,297.73l0-.07h32.22l10-30.66h.07l10,30.67H331.6l0,.07-6.48,4.71-6.52,4.74-6.5,4.72-6.5,4.73q5,15.35,10,30.65l0,0-26.1-18.94-26.07,18.94Z"/></g></svg>