<svg id="Layer_1" data-name="Layer 1" xmlns="http://www.w3.org/2000/svg" viewBox="0 0 500 500"><defs><style>.cls-1{fill:#eee;stroke:#bcbcbc;stroke-width:2px;}.cls-2{fill:#e00000;}</style></defs><title>state_MD</title><path class="cls-1" d="M350.2,322.61l-.56-.76-.78-.42-.68.25-.28,1.2.34.94,1.76.9.72.82-.84.27-2.09-.13-.35.44.44.75,1.78.84.54.76.68-1.44.62-1.83,0-1.66Zm60.85-21.08-2.64,6.32-1.77,3.33-.76,2.2-.29,2.47-.35.87-2,2.91-1.43,2.85,1.12-.16.37-.77,2.32-2.74,2.73-7,1.08-5,2.42-4.67.71-2.55h-.42Zm.46-14.93c-8.66,0-17.31,0-26,0H370.81l-.29-4.08c-.43-8.84-.81-17.68-1.23-26.52q-.65-13.5-1.28-27c-.4-8.75-.83-17.51-1.23-26.26s-.82-17.46-1.23-26.19c0-.12,0-.24,0-.35H114.83L114.11,221l.14.26h.28l.66-.33.87-.57,7.59-6.83.54-.17,2.81-.48.52-.24.28-.35.8-1.86.48-.75.89-.93,1.92-1.47,3.17-1.71.34-.25.3-.32.74-1.09,1.3-1,.26-.26.26-.31.19-.3.16-.31.86-2.21.22-.38.26-.37.32-.27,2.58-1.32.51-.09.63.06,1.17.45,1.08.67,1.28,1.23.73.42.52.1.57,0,.77-.34.38-.31.32-.35.66-1.09,4.07-4.17.82-1.14.69-1.18.21-.29.28-.29.27-.23.31-.19.37-.14,1.18-.26.4-.16.2-.22-.06-.25-.3-.5-.06-.37,0-.45.16-.47.22-.4,1-1.51.38-.74.29-.7.16-.32.2-.29.26-.09.32.06.48.45.2.35.62.7.76.51.12.31-.06.21-.35.12-.55.34-.16.2-.1.22-.1.34,0,.35v.23l0,.15,0,.11.38.54.16.13.22.16,2.47,1.21,1.12.79.28.29.34.27,1.66.55,5.53.95.16-.33,2.33-.75,4.87.69,2.11-1.59.31-.88-.33-.46-1.34-.45.21-1.25,1.11-.32,1.32,0,.86-.35-1.87-2.63.69-.44.6-.06,1.32.23.63-.08,1.76-.88,1.36-.32,2.73.6,1.36,0,.48-.42,1.22-1.58.78-.63,2-2.45.56-.41.62-.31.78-.24,3.51.25,3.12,2,5.18,5.3,1.28.87,1.55.56,1.44.07,1.06-.63.72-.24,1.91.54.37-.3.36-.66.83-.14.92.18.68.29,1,1.34-.35,1.35-1.23,1.07-1.69.44.4,1,1,3.28h.42l.16-.84.34-1,.53-.58.62.26.44,1-.24.65-.4.51-.06.56.86,1h1l1.12-.36,1.26-.08V196l-.93.27-.45.69,0,.95.4,1.09-1.46,1.12.88.84,3.11,1.36.58,1.47-.32,1.61-.52,1.64v1.57l1,1.7.1,0,1.32.63,3.45,0,1.24.24,2.89,1.17,3.07.75.73.69,1.31,2.22,1.28.88,1.55.44,1.34.6.74,1.36-.24,1.78-1,1.33-2.23,2-.5,1.47.38,1.34.9,1.16,1,.94,2.42,2.48,1.58.9,6,.59,2.16.63,2,1.09,1.48,1.59.42,1.2.28,1.39.47,1.14.91.48,1,.19,2.28.82,2.08.43.77.62L275,244l5.19-5.68L287.69,249l-6,7.1-.05,1.49,1.14,2.23-.31.7-.34.51-.37.39-.41.28.65,1.73-.8,1-2.68.84-1,.51-.54.42-.53.55-.4.77-.25,1.46-.59,1.4-.42,1.48-.38.51-.66.21-1.51-.1-.44.15-.51.46-.43.16-.38.24-.32.65-.2.92.08.57.38.11.7-.42.46.59-1.91.88-.65.35-1.47.51-.76,1.65-.42,1.76-.64.8-.5,1.06,0,2.41.35,2.59.37,1.67.75,1.54,1.21,1.72,1.47,1.07,1.48-.54.7-.53,1.54-.68.77-.88,1.38-2.94-.64-1.13-.28-.34-.46-.3.88-.69.92-.54.16.23,0,.08.08.09.24.19v.64l-.38.7.12.95.48.87.75.49.84-.18.88-.69L280,287.2l.38-.68.28-.72.16-.77.07-.84,1.09,1.29.95,2.15,2,6.39,1,1.64,4.62,5,1.82,1.18,1.39-.07.28-2.15-.48-2.43-.67-2.1-1.67-3.77,2.14,1.4,1.46,1.71.8,2.28.26,3.21.23.82.51,1.14,1.13,1.9,1.07,1,.89.34,6.48-.8,2.44.27,1.91,1.27.92.92.88.69.84.81.83,1.39.37,1.2.48,2.12.13.75.9.6.48-.73.43-2.22,1.47,1.71.91.6.54-1.15.34-.5.34-.68.14-.84-.08-.58-.37-1.3-.05-.78,1.52,1.42.5,2.83.24,2.77.78,1.23,1.85.69,4.93,4.61-.06-1.31-.42-.76-.54-.63-.42-.84.14-1.3.58-1.64.37-1.72-.37-1.54L327,308.43l-1.86-1.65-.46-.64-.4-1.64.38-1.31.62-1.21.34-1.5-.66-1.31-1.59,0-1.84.42-1.52.06-1.39-.88-1.18-1.46-.82-1.71-.32-1.57-.72-.56-4.37-2.12-2.31-2.1-1.76-2.38-1.1-2.95-.4-3.23-.11-.64-.4-.49.51-.64-.47-1.35-.27-1.9-.39-6.31.1-1-.08-.67.18-.59.64,2.16,2,13.15.34.69.72.52,4.53,5.91,1.17.89,2.14.48.76.34,1.12.7.47.58.11.48.09.55.31.8,1,1.34,1,.48,2.35-.06,1.56-.7.26-1.69-.48-2-.62-1.59-1.93-3-4.7-5.49-1.29-3.33-.1-1.94.57-5.46-.27-1.61-.48-1.6-.22-1.71.5-1.91-1.9-2.1-.79-1.52-.1-1.76.73-1.2,2.53-1.58.95-1.31.38-1.87h-.71l-2,1.22-.65-.64.88-2.82-.65-.69-.33-.56-.08-.26-.07-.36,1.6,0,.66.16.48.41,1.08-1.13-.68-1.07-2.24-1.37-.72-1-.51-1.29.11-1,1.12-.26,1.32.8,2.31,2.76,1.25.59.49-.93-.86-2.12-2.75-4.41L315.56,237l-.67-.61-1.43-.62-.68-.53-.46-.89,0-.9.38-.69.8-.25.68.41.68.91,1,1.7,3.87,4,.51-.21.42-.58.51-.33,1.6-.08,1.13-.39.3-.89-.92-1.56-1.23-1-3.6-1.73-1.47-.3-.48-.29-.46-.69-.16-.8.4-.6.56.16,2.26,1.68.91-.64.84.18.68.69.36,1h.51l.37-1.95-.73-1.9-1-1.84-.92-3.18-.9.06-1.49,1-.7-.5-.94-1.6-.47-.33-.19-.47-.29-1-.61-1-2.05-.69-.36-.57-.3-.77-.6-.82-.5-.1-1.19-.42-.86-.46.45-.22,1.73-.1.67-.34.66-.69.74.71,3.39,1.62.92.94.76,1,.63.65.51-.24.43.65.51-.55.61,0,.64.41.6.71,2.77-1.79v-.54l-2.33-.37-1.78-1.59-1.35-2.3-1.08-2.41,2.23.74.56.45,1.13,2,.62.85,1,.7.7-.78,0-.58-2.23-3-.5-1.07.42-.49,3.75.91.2-.35-.48-1.16.76-.59.72-.09.69-.19.6-.92h-.42l.16-1.6-1.47-.69-1.86-.45-1.08-.9,5.19-1.33.92.44,1.34,4,.51,4.07,2-2.58.52-.35.08-.48-.5-1-1-1.52.92-6.58.44-.37.44-.77.54-.65h.64l.48.61,0,.71-.46,1.67-.46,3.75.26,1.72,1.1,1.15,1.76-1.6,4.15-2.45,3.3-3.31.43-.79.16-1.13-.53-.39-2.49-.87-.72-.87,1.9-4.84.64-.67.74-.36,1-.14,4.63.05.73-.38,1.13-2.06.78-.9,1.1-.28-.81,3.42-.55,1.51-.72,1.34-1.71,2.48-.62,1.66.25,1.63,1.15-1.49,4.82-4,1.28-1.38,1.08-1.53,1.18-1.27,1.64-.61-.51,2-.82,2-1.21,1.66-1.66.95.66,1.44,1,1,2,1.2V199L360,198.7l-3.15-1.06-1.5.17-1.16.76-1.5,1.31-2.7,3-.23,1.6,1.69.56,7.73.09,1.74.54.93,1.12-1.77.08-.48-.07-3,.11-7.63-.26-5.95.73-.22.39-.54,1.9-.38.7-.64.34-1.49.29-.7.62-.24.72-.14,1.73-.28.8-3.31,6.25-1.13,3-.29.55-.42,1,0,1,1.58.76.53.77.35.9.12.68-.2,3.82.1,1.59.58.83,1.2-1.1.58-3.25,1-3.29,2.32-1.28v.6l-.92.65,1.63.57,1.46-.7,1.44-1.12,1.52-.64-.82,1.54-3,3.13-1.31,2,.51.59-.77.25-1.6.29.2.82.3.67.4.52.54.37-.26,1.78-1.16,1.1-1.54.58-1.51.16-1.9-.3-1.15-.73-1.79-1.94-.73-.49-.78-.32-.6.16-.46,2-.93,1.86-.21.64-.2,2.16-1.22,6.5.13,1.53,1.07-.06,1.37-.86.71-.94-.32-.52-.63-.79-.44-.88.2-.82.64-.54.57-.18,2.08-.16.46-.11.68-.42.06-.24.5-.74.57-.63.26.05.48-1.46,1.12.47,2.15,1.9-.33,1-.16,1.4.26,1.25.88.54.45-.47.5-2.05.22-.51.86.13.08.78-.48,1.78.44.34,2.85,1.18-1.43,1-1.9.69-1.54,1.15-.28,2.45,1,2,1.43.23,1.37-.9.93-1.37.26,1.37-.58,1.37-.94,1-.87.42-1.26-.17-1.21-.47-1.1-.76-.88-1-.52-2-.14-.33-.7-.14-.44-.36-.7-1.06-1-.56-1.06.54-1.86,1.58-.12.72-.36.88-1.33,5.06-.62,1.51-.22,1.24-.18,2.1.4.46.9-.15,1-.52.56-.65-.24-1.22.14-2,.42-2,.56-1.34,1.05-1,.08.75-.62,3.57.55.85,1.24-1.28,2.17-2.85,1.3.62-.17,1.43-1.35,2.68.86.57.6,2,.58.44.83-.42.36-1,.3-1.19.6-1,.26.87,0,.83-.24.72-.46.54.6,1.05,1.2.05,1.46-.34,1.43-.11v.59l-.93.33-1.76.91-.6.52v.55l1.32.58,1-.17.88-.52,1-.44-.36,1.74,1.27,1.51,1.91,1.08,1.61.4,1.57-.48,1-1.22,1.46-3h.38l.24.28.28.27-.7,1.32-.32,2.67-.85,1.44-.8.53-1,.35-2.12.24-6.9-2.65-1.26.28-.72-.51-.68-.66.38-.24,1-.9-1,.16-1.77.74-1,.24-1.14,0-3.05-.58.68,1.12.32.36.44.29v.6L332,276l-.52,1.21.84.54,2.11,0,.84-.24.74-.6.36-.66,0-.47.2-.28.78-.09.55,0,.43.08.37.18.28.31.2.92-1,1.12.37.91-1.33.67-1.51.48-1.27.72-.53,1.41-.29,2.16-.63,1.23-.64-.16-.3-2-.6-.79-1.24-.22-1,.66.06,1.82.38.45.61.48.59.66.46,1.9.43,1,.5.91.35.5,2,3.22,1.28,2.12.36,2.31h.42l.2-1.86-1-3.89.76-.72,1.13.8,4.05,5.14.62,1.58.46.56,1.78.49.68.73,2.21,3.85.72.61.64-.81.76-2.26v-1.19l-.12-1.11-.52-.84-.7-.43,1.24-2.19,1.92-2.36,1.75-1,.66,1.94-.5,1.3-1.86.84-.42,1.12.26.8.58.73.66.62.38.52.12.84-.1.85v.74l.36.52.48-.84,1.66-5.1.44-.68,3.49-4,.31-.83.16-1,.24-.81.45-.33.88.1.16.3-.16.48-.39,1.84-.6,1.33-2.27,3.75-.74,1.84-.3,2,.64,1.71,1.26.71,3,.21,1.08.57-2.53,1.2-2.74.78L355.77,309l-.87,3.26L355,314l.2.68.42.26.59-.29.14-.69.06-.76.36-.6,1.42-.39,3.07.35,1.58-.61.91.17,1.2-.14.95.31.23.89-.54.48-2.05.36-.7.34.42.58-.36.76-.56.68-.7.54-.7.31v.63l.3.18.06.08v.09l.16.26.82-.5,1-.16,1.66.05,1-.41.74-.89.74-.66,1,.2-.92,1.58-3.11,3-.66,1-.42.27-1.92.29-.44.64-.3.94-1.45,2.29-.52.55.18.11H359l.1.11,0,.43h.46l.31-.52.42-.36.53-.22.65-.09-.35,1.12-.57.69-.59.5-.4.62-.11.76.17.36.25.33.11.62.63.42,1.34-.86,2-1.9,1.48-1.07,1.56-.21,6.15.53,1.28.34.75.36,1.08-2.5.46-.45c5.54-.72,11.08-1.43,16.61-2.2l.17-.7,1.48-4.29-.35-.73.41-.31,1.1-1.51.59-.46.63,0,1.27.52.46,0,.5-.82.78-2.75.32-.58.66-.76,1-5.05.64-1,.9-.76,2.2-1.2-.9,1.83.22.67,2.29-.1.66-.62,1.66-3.83.8-1.1.93-1.56.67-1.63.13-1.36-.56-1-.79,0-.89.17-1-.31.3-.16.32-.28.3-.2v-.54h-.5v-.65l.66-1.2-1-.76-2.91-.92,1.25-.69,1.12.27,1.08.6,1.17.35,1.13-.2.09-.6-1.22-2.14.94.38.71,0,.37-.48-.06-.52Zm3.37,0,0,0-.09,2.64-1.15,4.88-.2,2.54,1.1-1.48.78-2.91.45-3.22c0-.83,0-1.65,0-2.48ZM350,310.73l.16-.72-.28-.78-.56-.8-1-.85-1.58.36-1.1,1.19.39,1.7.69.26,2.6.28Z"/><g id="UtNVxE.tif"><path class="cls-2" d="M286.32,273.29q5-15.3,9.95-30.63L270.2,223.73l0-.07h32.22l10-30.66h.07l10,30.67H354.6l0,.07-6.48,4.71-6.52,4.74-6.5,4.72-6.5,4.73q5,15.35,10,30.65l0,0-26.1-18.94-26.07,18.94Z"/></g></svg>