<svg id="Layer_1" data-name="Layer 1" xmlns="http://www.w3.org/2000/svg" viewBox="0 0 500 500"><defs><style>.cls-1{fill:#eee;stroke:#bcbcbc;stroke-width:2px;}.cls-2{fill:#e00000;}</style></defs><title>state_ME</title><path class="cls-1" d="M302.4,322.34l-.32-.82-.86-.65-1.17-.65-.53,0-.53.61-.22.62-.07.7.08.69.21.62-.39,0-.8.08-.38,0,.52,1.16.1.67-.17.59-.24.58.17.31,1.58.95.92-.24,1.8-1v-.4l-.92-.45-.36-.37-.26-.57.54-.25,1.14-.34.52-.29-.27-.71-.09-.84m-9.73,9.44-.95-.37-1.66-1.17h-.8l-.4,1.18,1.08.37.87.66.36.91-.42,1.08,1.6.84.88.21.38-.36.3-.58.64-.37.56-.61.08-1.28-.45-.18-2.07-.32m85.18-46.93-.56-1.6,0-.25,0-.29v-.24l-.15-.1-.67,0-.14,0-.95-1.77-.5-.63-.72-.22.8,2.79-.06,1.33-1.06.75,0-1.43-.36-1.71-.64-1.12-.88.32.26.33.23.67.15.28-.64.41.35.48-.65.18-.73-1.15-.54.08-.09.49-.1,1.95-.12.67-.67-3.32-.42-.69-.84-.86-.6-.93.33-.89.53.12,1.55,1.36.58.34.78-.26.45-.62-.06-.74-.69-.64.5-1.49.52.17.53.82.5.5,1-.39.3-.91.18-1,.57-.78-.56-.65-.9-2-.24-.43-.61-.32-.67-.78-.3-1,.5-1-.61-1.14-.68-1-.52-.56-.3-.23-.28-.1-.1-.17-.24-.86-.3-.68-.11-.43L369,263l-.33-.16-.94.07-.17-.07-.26-.75-.76-.35-1.08-.68-.57-.16-.57.17-.46.48-.09.5v.55l-.24.61-1.59,1-1.71-.79-1.58-1.77-1.71-2.84-2-1.94-.17-1,.29-1.27.45-1.09,1.13-2.08.26-2.4-2.47-4.48-.5-2.47,2.31-1.9.78-.74.19-2.32-.42-1.91-.87-.85-1.18-.14-1.42.21-2.1,0-2.56-.64-2.43-1.13-1.4-1.08-.65-.69-.27-.74-.31-.64L343,229l-.35.1-.24.47-.33.38-.64-.15-1.11-.73-.66-.57-.31-.85-.19-3.54.22-1L340,222l.65-1.09.33-.81-.15-.84-.75-1.2-.32-1.1.54-.95.83-.92.53-1-.08-.6-.35-.5-.42-.45-.29-.5-.08-.64q-.18-13.36-.35-26.73c-.11-8.93-.25-17.85-.36-26.77q-.11-9.15-.24-18.28l-.17-2.67-.21-.45-1.91-1.08-.72-.64-1.32-2.12-2-1.74-.3-.57-.18-.93-.39-.74-1.43-1.72-2.12-1.5-2.86-2.77-.65-.41-1.36-.62-.51-.36-1.3-1.79-.59-.57-2.28-1.3-2.45-.48-2.22.63-1.58,2.08-.12.8.07.6-.11.37-1.13.29-.57.29-.59.12-1.45-1-1.16-.13-1.2.19-1,.33-2.09,1.18-1,.85-.82,1-.85.66-1.13.13-2.26-.12-2,.56-5.89,3.14-.76,0-6.18-4-.8-1.38-.27-1.41-.09-.41,0-2.26.54-4v-2l-.72-.92-7-1.88-.7.06-.63.4-.76.88q-7.5,11-15,21.92-7.2,10.49-14.43,20.94L238,161.84l-.73,2.87q-.88,7.2-1.76,14.42l-.58,1.72L231.27,184l-.66.32-1,.64-.4,1.44-.11,1.43-.11.65-1,.32-.57.82-.8,2.45-1.27,2.64-.18,1.32,1,.58.65,1.35.23,1.45-.24,1.35-.69.93-1.65,1.15-.57.64.05.51.32.39.17.28.22.26.14.25.05.36-.11.24-.43.43-.12.21-.5,2.4,0,1.06.57.95,1.09.62.79.17.34.52-.3,1.7-1,2.15-1.34,1.5-3.57,2.82-.92.94-.25.42-.08.7.15.39.26.41.2.69.07,1.41-.23,1.2-.56,1-.91.72-.52.15h-1l-.54.25-1.39,1.18L211.94,231l-.78.69-4.48,5.19-2,4.25-.08,1.07.44,1.36.71.95,1.81,1.13.81.76.41,1.24-.56.85-1,.44h-1l-1-.56-1.58-1.64-.9-.51-1.07,0-.82.46-.61.85-.35,1.13-.08,1.31.15,2.91-.14,1.22-.33.57-.93.71-.36.47-.09.59.08,1.22-.18.63-.83.73-.66-.76-2.07-5.6-.75-.83-1.15-.21-1.08.31-.52.55-.42.74-.82.85-.45.22-.92.17q.66,12.83,1.33,25.64.67,13.21,1.37,26.42t1.4,26.7q.68,12.87,1.36,25.76c.13,2.53.26,5.05.41,7.58l-.22,2v1l-.12.89-.08.31,0,.4,0,.55.14.92.05,1.06-.13.7-.45,1.55-.07.38,0,.43.06.49.19.72.25.52.31.53,1.43,1.66,2.9,4.37,1.78,1.18.28.33.22.45.17.9v.56l-.06.5-.46,1.9-.07.7,0,.38.86,1.56,2.89,3.33c.19-.65.39-1.3.58-2l-.1-.36.88-.1.65.85.61,1,.7.4.54-.53,1.35-3.33.88-1.63.57-.58.78-.41-.65-.43.61-1.16.67-.95-.66-1.38.07-1.52.52-1.48.66-1.3,1.46-1.93.5-.5.5-.12,1.38-.07,1.12-.51.77-.77.7-.89.88-.81.38-.18L221,376l.28-.23.13-.29.18-.85.15-.35.89-1.17.54-.5.63-.33v-.39l-.52.07-.47.21-.9.58-.26-1.4-.11-1.21.15-1.21.5-1.36.59-.8.84-.64.7.08.1,1.36.73-.48,1-1.42.87-.27-.15.43-.2.44.66-.15,1.19-.59.69-.13.1-.41.21-2,0-.69-.6-1.62-.95-.41-1.2.06-1.34-.16v-.47l1.38,0,.64-.23.49-.66-.07-.56-.21-.89-.05-.83,1.42-1,1.2-2.66,1-.61,2.4-2.55.46-.2.51-.08.6-.21,1.14-.61.47-.39.8-1.09.49-.54.58-.37.62-.08L239,347l-.42.64-.46.48-.43.3.63.09,1.54-1.27,1-.14-.53,1.8-2.14,3.45-.83,1.71.84-.09.72-.67.48-1,.19-1,.28-1,.67-1.42.75-1.26.53-.49.19,1.32L239,355l.36,0,.29-.2.2-.36.17-1,.24-.2.33-.11.32-.25,1.9-2.61.2.89.51-.13.54-.71.32-.88,0-1.14-.27-.75-.49-.46-.56-.34.33-.45.38-.3.43-.13.47.05.56.25,0,.23-.19.37-.13.67.15.59.7.62.15.55-.07.66-.19.26-.24.18-.16.45-.13,1.46,0,1.05.27.49.47.4.12,2,.52.71.25-.75.39-.71.5-.54.59-.22.15-.28.31-1.64-.1-.61-.43-1.15-.41-2.18-.05-2.25-.6-5-.6-2.54-.89,1.12-.49.48-.51.14-.41-.23-.29-.46-.05-.61.27-.66L247,335.4l.69-.5.45-.21.53-.9.58-.2.25.34-.42.75-.93,1.09-.43,1.38-.13,1.37.17,1.33.08,1.19.25.72,0,.72,0,.75.05.82.17.69.33.85.13.68.33,3.08.11,0h.21l.23.13.1.46-.07.17-.14.17-.1.26,0,.47.39,1.79.6,0,.67-1.09,1.07-3.25.13-1-.34-.46-.48.32-.62,1.51-.48.39.62-1.75.14-.9-.11-.87-.38-.33-.57-.28-.3-.46.45-.9,4.27-6.94.63-.75.62-.4.67.08-.18.55-.51.6-.29.28-.79,2.3-.15.8.19,1,.46.36.53.27.38.75-.3-.11-.59-.13-.33-.19-.19.51-.07.37.06.35.2.47-.95,1.53,0,.42.56.66.79.77.71.39.66-.07.7-.62-.06,2.13.17.51.52-.89.24-1.1-.1-1.06-.31-1-.46-.8.26-.4.08-.49-.08-.48-.26-.41.26-.39.23-.53.11-.56-.12-.46-.07-.44.24-.54.61-1,.61-1.66.42-.85.51-.58.23,1.06L259,339.77l-.4,1.47.1.47.43.42.1.44-.05.32-.22.74-.07.42-.19.68-.23.57.05.61.71.75-.34.47.62.92V346l.1-1,.24-.91h.29l.19.94.38.8.34.93.07,1.33.86-1,.71-1.85,1.42-5.57.32-.89.48-.74.29.09.76-.17.59-.52-.33-1.55.52-.33.65-.31.33-.51.24-1h.47l.32.62-.22.85-.84,1,0,.36.81.14.22.37-.28.85-.75,1.4.75,0,1.15-.71.66-.18.5.32-.49,1.72.15.81.53-.55,2.79-3.65.87-.07-.44,1.11-1.41,2.3-.16,1.6.24.13.9-.24.53-.22,1.65-1.08-.48-.5-.1-.66.2-.74.38-.71.41.19.29-.08.2-.38.06-.65,1.31.56.52-.83.2-1.23.35-.64,1.26-.18.72-.57.49-.95.53-1.4-1.54.17-.11-.73.3-1.1-.24-.95v-.4l.47-.54.46-.9.66-1.66.8-3.06.68-1,1-3,.67-.41,1-.42.84-.61.37-.95-.32-1.08L286,312.92l-.1-.66.15-.75-.48-.51-.2-.48,1-.69,2.12-.62.6-.46,1.23-1.28.78-.44.67.16-.41,1.09.54.14,1-.47.8-.76-.65-.35-.29,0,.94-3.56.26-1.67.26-.11.77,0,1.52.44.17,1.13-1.4,3.27-.1.41-.08,1-.11.4-.26.32-.54.34-.18.19-.31.73-.32,1-.11,1,.43.72.53-.1.52-.66.84-1.39.46-.42,1.75-.94,0,.9.83,1.41-.25.36-.46-.08-.95-.6-.3,0-.52.59-.6.5.26.51.29.73,0,.67-.44.29-.37-.14-.43-.6-.44-.14-.65.47-.37,1.14-.4,2.38,1.33-.12,1.64-1.16,1.11.4,1.29,1.49.94.68.77-.24,1.54.13,4.24,3.77,1.33-.57-.53-.3-.43-.35-.34-.46-.26-.68.67.49.41-.19.11-.67-.25-.95-.39-.38-.52-.11-.46-.25-.19-.78.18-.74.66-1.73,0-.59-.39-.71-.54-1.5-.53-.67,1.16.33h1.07l1-.5.89-1.19.24.66.08.69v1.52l.19.31.44-.48.43-.77.23-.58,0-.51-.11-.22-.19-.14-.23-.25-.15-.38.06-.28.15-.28.1-.37-.11-.86-.84-2h1.31l.83.44.39,1-.15,3.47.16.77.64,0,1.22-.41-.17-.87,1.13-1.38.34-1.3.78.7.95.25,2,0-.14-.22-.12-.24-.14-.24-.23-.21.76-1.29-.53-.85-1.49-.72.26-1.2.64.08.82.48.83,0,0,1.06.23.7,1.49,1.75.13-.38,0-.89.11-1,.72-1.56.39.33.16,1.44,0,1.81.11.47.26.2.7,0,.39-.15,0-.37-.18-.43v-.36l.14-.44V306l.09-.32.41-.26.26.05,0,.33v.36l.18.18,1.28.42.16,1.06-.2,1.43.23,1.66.46,1.92.42,1.05.28-.19.72-.28-.32.94-.13.82.16.71.57.64,1.89-3.11.25-.57-.05-.32v-.2l.45-.23.28.11.08.4.14.37h.46l.27-.28.19-.48.11-.54.06-.46L332,311l-.48-1.74V309l-1.44-.86-.59-.61.6-.29.8.42h.44l.19-.61v-.66l.08-.51.23-.32.48-.11.15,4.23.06.54.18.28.25.21.3.32.46.36.12-.5-.11-1.21.1-1,.31-1.09.5-.86.68-.32-.58,1.31-.4,1.83.11,1.7.87.91.13-1.6.68-2.88-.2-1.27.55.27.63.19.51-.2.22-.94-.22-.74-.91-1.38-.12-.76.27-.18.53-.09.53-.34.41-1.71.41-.42.51,0,.48.54.33-.85.42-.72.35-.1.17,1-.29,1-.5,1.05-.19.85.48.61.18.27.13-.63-.13-.29,1.41-3.08.5-.4.19.48-.53,3.24.15,1,.39.75.56.45.64.16,1.4-3,.71-.87.42-.34L347,301l.24.3.15.58,0,.47,0,.53,0,.3,0,.19.47.27.34.07h.42l.4-.09.28-.19.35-.14.55-.14.4-.22-.06-.4-.21-.56.09-.57.17-.56.11-.51.06-2-.34-.49-1,.08,1.81-1.8.71-.14.28,1.45h.32l.42-.71.52.08.3.63-.29.93.72.29.8.11.83-.09.82-.31-.62-.65-.07-.83,0-1-.29-1.1,1,.35.36,1.28.21,1.58.6,1.24.22-.64.28-.39.75-.78.12.16.42-.07.14-.32-.68-.65.49-1.3-.27-.85-.56-.76-.29-1.06.49.5.55.34.57,0,.63-.45-.63-.41,1.33-.69.83.57.14,1.18-.74,1.15v.48l.88.48.61.66.65.53,1,.09L364.5,296v-.55l.33-.18.5,0,.11.12.73.56.39.16h1.29l-.24-.6-.1-.24.39-.39.8-.28.4-.21,2.58-2.93.43-.83.46-1.18.34.49.2-.39.37-1.16,0-.22.44-.1,1,.15.47-.05.61-.51,1.58-1.94.35-.68-.09-.22m-58.18,26.71-.14-1.25-1.35-.95-1.93.14-1.8.88-1,1.24.53.56-.15.58-.53.44-.63.18-.39.31-.41.76-.86,2.21-.24.87,0,.78.35.33.68.2.33.41-.15.45-.7.26.45,1,1.57.78.53.88.22-.13.53-.21.2-.14.3,1.07.71-.15.79-.77.57-.79v-.7l-.6-.63-.49-.89.29-1.51h.32l1.08,1,1.95-.14,1.94-.91,1-1.26-.4-1.85-2.6-3.08"/><g id="UtNVxE.tif"><path class="cls-2" d="M227.32,331.29q5-15.3,10-30.63L211.2,281.73l0-.07h32.22l10-30.66h.07l10,30.67H295.6l0,.07-6.48,4.71-6.52,4.74-6.5,4.72-6.5,4.73q5,15.35,10,30.65l0,0-26.1-18.94-26.07,18.94Z"/></g></svg>