<svg id="Layer_1" data-name="Layer 1" xmlns="http://www.w3.org/2000/svg" viewBox="0 0 500 500"><defs><style>.cls-1{fill:#eee;stroke:#bcbcbc;stroke-width:2px;}.cls-2{fill:#e00000;}</style></defs><title>state_MN</title><path class="cls-1" d="M381.66,181.72l-.73,0-1.11.26-.39-.13-.7-.38-.57-.18h-.59l-.73.17-3.27,1.36-.59-.07-2-1.11-.49-.42-.43-.55-1.74-3-.4-.51-1.55-.69-1.92,0-9.6,1.3-.24-.08-.19-.15-.22-.08-.38.1-1,.47-.34,0-.66-.25-.39-.44-.43-.34-.8.06-3,.93-1.61,0-1.19-.81-.34-.81-.2-1.48-.31-.68-.38-.37-.34-.16-.28-.26-.23-.62,0-.45.36-.58-.1-.48-1.08-.69L340,171l-2.8,1.61-.67.47-1.4.69-4.37,3.11-1.13,1.23-1.26.88-2.93.34-2.06,1-.6-.21-.61-.4-.73-.22-2.89.26-.41-.22.07-.4.18-.5-.05-.49-.28-.37-.26-.09-.7,0-2.42-.4-.79-.7.69-1.25-1.06-1.52-.55-.55-.69-.38-2.86-.42-3.46-1.6-.6-.4-.55-.56-.52-.72-.44-1.23-.28-1.27-.45-1.06-.88-.6-2.78-.16-3.43.51-.74.39-.71,1,.06,1,.3,1,0,1-.42.5-.79.48-.86.33h-.59l-.42-.48-1.11-2.44-1.08-1.52-.37-.81-.16-1.19v-2l-.23-.8-.54-1.12-1.18-.61-1.44-.06-2.85.42-.66-.17-.88-.17-.5-.72.28-1.15.64-.34,1.46-.38.64-.26-.09-.83-.6-.83-2.54-.62-5.22-1.54-2.35-1.61-.8-.27-9.15-.63-4.21.77-1,.53-1.13.34-.08.51.05.71-.25.76-1,.75-2.47.2-1.1.59-.53-.25-4.63.73-.72-.14-1-1.19-.87-3.65-1.28-.95-11.76-.79-.62-.26-.05-.25-.11-1-.09-.36-.23-.35-.3-.31-.31-.25-.28-.14-.62-.1-5.53.66-1.3-.19-2.43-1.09-3.16-2.61-.43-.56-.3-.87-.08-.81,0-.93,0-3.6q-1.32-5.31-2.66-10.6l-.38-1-.25-1,.17-2.22-.14-.94-.31-1.13-.25-2-.38-.81-.57-.47-2.3-1.37-1.86-.54-4,.11-1.89-.78q0,9,0,18l-.08.53-.22.31L200,133H132.58l-.1,1.21.26.81.34.79c.09.55.17,1.1.26,1.66l.2.46.22.42.17.44.24,1.74,1,2.68.24,1.93.27.83.76,1.7.28,2.39-.69,1.89-.87,1.79-.29,2.09.77,2.87.18,1.57.18.79,0,.55-.15.54-.4.89-.12.59.58,3.23.22.69.16.78-.49,3.42v2l.25,1.86.52,1.77L138,181l.37,1.82.54,1.66,1.14,1.37-.47,1.17.09,1.11.84,2.4v.29l-.18.36.07.22.11.09.12,0,.09.05,0,.12.12.19.78,1,.25.62.41,1.72.44,1,.44.76.34.85.2,1.72.39,1.34.53.44.15.26v.31l-.09.27-.11.24,0,.17,0,1.17-.06,1,0,.85.33.83v.71l-.53,2.45v1l.16.24.29.34.3.42.12.48-.24,6.15.11,1.09.49,2.35.12,1-.06.37-.11.41-.08.48v.57l.45,2,0,1-.23,3.16.07.64.17.43.41.75.12.64,0,.35h-.14l.18.13.38.11.34.25.38.11.21.2.12.31-.05.21-.12.21-.18.77-.46.66-.11.5,0,1.62,0,.52-.09.33-.3.8-.07.48.09.75.47,1.68.11,1.05-.12,1.07-.4,1.66.07,1,.33.66,1,1.5.22.94.19,1.77,0,1-.22,1,.18.34.54.62.21.37,0,.35v.42l.06.48.22.52,1.91,3.1,1.13,1.3.48.82.21,1-.08,3.07.08,1,.1.51.15.4.76,1.29v.3l-.07.36,0,.55.14.27.23,1.75v.6l-.23,1.32-.39,1.05v1.12l.65,3.53-.21.49-.1.18-.12.25-.09.25-.29,2.87-.22.81-.66,1.22-1,2.32-.12.22-.26.37-.32.33-.89.72L148,292.54l-.34.3-.76.87-1.24.91-.3.25-.24.29-.41,1-.14,1,.88,1.18,1.62,1.89.67,1.08,1.2,2.84.73,1.39.66.59,2.6.29,1.4.43,1,.72.36.41.78.67.32.35.9,1.76.23.47.16.15q0,9.88,0,19.77v62.7H329.25l.18-1.06.06-.57-.05-.6-.19-1.17,0-.6.14-1.42,0-.48-.24-1.2v-.42l.4-2.46V383l-.1-.89-.11-.41-.21-.35-.46-.54-.17-.32-.13-.39-.06-.39,0-.39.07-1.33,0-1.05-.16-1.1-.14-.51-.21-.45-.33-.36-.43-.28-1.42-.54-.25-.6-.76-1-.24-.64-.06-.35-.07-.3-.14-.25-.22-.23-.39-.19-1.21-.1-.28-.09-.24-.13-1.87-1.57-.18-.08h-3.19l-.41-.12-.4-.22-3.81-3.49-1.29-.59-.65-.88-2.47-4.9-1.25-2.14-5-4.65-1.76-.67-3.84-.66-.43-.22-.36-.38-.28-.51-.84-2-1-1.23-1.11-.91-1.16-.45-5.12-.86-1.43-.89-.14-.29-.16-.44-.2-.39-.58-.4-2.32-2.37-2-1.33-.88-.8,1.36-2.88.21-1.25,0-.56-.2-1.5.1-.5.46-.78.11-.3-.15-2-.3-2-.78-2.08-.22-1,.45-.44.67-.24.43-.65.19-.92,0-1-.56-1.56-.16-.24.07-.55.21-1,0-2.08.14-.86.27-.77.46-.57.52-.43.42-.54c.13-.64.27-1.28.4-1.93l1-1.6.15-.84-.16-.89-.46-.74-.61-.63-.56-.76-.25-.68-.48-1.8-.38-.72-1.26-.49-1.65,0-1.44-.34-.6-1.65.22-3.55.12-.79.3-.57,2.86-2.79.91-1.4-.15-1.37,1.33-2.55.91-1.17,1-.49.6-.16,1.77-1.13.85-.14.28-.15.15-.2.39-.65,0-.14.13-.1.18-.23.26-.22.31-.1h1.36l.49-.26.74-1.25.48-.43.58,0,.83.19.74,0,.32-.4.15-.65.37-.63.44-.53.41-.3.64-.14c0-8.86,0-17.71,0-26.57V247l.08-.16.15,0,.47.18.59.05.57,0,.47-.13.18-.12.11-.15.07-.13.09-.2.15-1.22.06-.3.12-.25.14-.19.16-.15.19-.1.54-.14.17-.13.12-.18.27-.81.27-.43.53-.4.44-.22-.1-.21.62-1.51,1.56-1.45,3-2,1.94-1.73,1.24-.44,2-1.4,1.72-2.06,1.12-.5,1.88-1.44.18-.29.34-.73.17-.27.34-.19.44-.16.39-.28.18-.57.36-.56,2.33-1.23,16.41-17.95,2.08-1,5.19-5,8.52-4.66,4.49-1.48,1.66-.21.56-.19,1.35-.85,6.66-2.14,11.25-5.84.61-.52,1.05-1.24.91-.45.56-.92.39-.21,1,.36.55.05.29-.3h-.41Z"/><g id="UtNVxE.tif"><path class="cls-2" d="M233.32,350.29q5-15.3,10-30.63L217.2,300.73l0-.07h32.22l10-30.66h.07l10,30.67H301.6l0,.07-6.48,4.71-6.52,4.74-6.5,4.72-6.5,4.73q5,15.35,10,30.65l0,0-26.1-18.94-26.07,18.94Z"/></g></svg>