<svg id="Layer_1" data-name="Layer 1" xmlns="http://www.w3.org/2000/svg" viewBox="0 0 500 500"><defs><style>.cls-1{fill:#eee;stroke:#bcbcbc;stroke-width:2px;}.cls-2{fill:#e00000;}</style></defs><title>state_MO</title><path class="cls-1" d="M384.28,353.75l-.9-.39-.42.1-.53.23-.56.15-.51-.14-.41-.49-.17-.59-.11-.62-.22-.61-.35-.38-.93-.57-.42-.38-.14-.5-.2-1.34-.29-.28h-1.06l-.83.13-.31.55.49,1.26.4.48.42.33.31.47.14.85-.23.58h-.53l-1.82-.77L372.84,350l-.74-.86.31-1.62-.65-1.6-1.8-2.53-1-1.85-.37-.93-.14-.94.08-.73-.72-.6-.39-.21-.89-.33-.24-.23v-2.18l1.33-1.59,1.58-1.56.78-2-.45-2.37-1.07-2L367.21,324l-.95-2-.15-1.14.12-1,.22-1,.12-1-.18-1-.31-1-.15-.93.33-.69-1.18-1.06-4.38-2-1-1.18-1.3-3.11-1.1-1.59-1.1-.77-2.78-1.2-1.07-.72-2.57-2.69-1.53-1.19-2-.58-1.68,0-.69-.44-2.48-2.14-1.59-.5-1.23-1.19-1.08-1.42-1.18-1.2-1.67-1-.79-.68-.33-.86-.3-.51L332,286.93l-.29-.54-2.49-2.15-.37-.53-.31-.59-.28-.69-.23-.89-.42-2.63.19-2.13.67-1.81,2.17-3.57L332.9,265l2.26-3.67.77-1.8,0-2.37-.23-2.32.12-1.42.59-.63.65-.56L338,251l.76-1.44.33-1-.73-1.53-1.79-1.49L332.07,243l-2.29-.68-1-.11-.84-.22-1.54-1-.86-.35-2.29.49-2.83,3.75-2,.92-1.87-.71-1.39-1.77-2-4.3.21-.71-.05-1-.26-1-.35-.7-.27-.76.18-.72.35-.67.19-.63-.18-.63-.81-1.26-.24-.71,0-.78.09-1.6-.06-.79-.31-1.13-.52-1.25-1.15-2.15-1.06-1.4-1-1-10.42-7.68-.68-.69-.28-.79-.21-1.25-.54-1.09-.7-.87-11.31-10.36-.89-1.45-.56-2-.08-1.38-.1-.61-.28-.6-1.24-1.17-.29-.78-.6-.69-.2-.39,0-.68.37-1.72,0-1.43-.07-.53-.14-.45-.21-.43-.26-.41-.77-.94-.61-.95-.25-.89-1.19-9.7,0-2.72.31-2.41.69-3,1-2.64,1.4-1.26h0l-.47-.47-1.31-.52-.56-.4-1.63-1.66-.39-.57.12-.39v-.41l-.13-.41-.29-.4-.38-.28-.91-.41-.4-.32-.13-.29-.08-.33-.12-.27-.28-.12-.49,0-.23-.06-.19-.16-.19-.35-.2-.83-.09-.23-1.07-.72-1-.25-.43-.28-.31-.41-.21-.45-.09-.57,0-.77-.19-.35-.83-.57-.19-.31-.39-.87c-8,0-16,.11-24.05.17l-25.95.2-25.95.2-27.94.21-24.35.19-28.18.22c-8.42.06-16.85.16-25.27.19h-.19l-.24,1.54.21,1.52.59.55.89.17,1.08.4.69.67,0,.65-.17.69,0,.81.41.88.8,1,.34,1v.35l-.07.86.06.43.18.46.73,1.11L91,160l.12.23-.23.42-.42.4-.58.43.29.78.73.11.92-.14.83,0,.79.55.47.73.37.8.55.77.66.34,1.64.13.77.3.49.65-.05.72-.75,1.47,1.27,1.55.62,1,.27.86,1.37,1.4.14.28-.17.62-.45,1.11-.2,1.3.11,1,.5.67,2.1.41.79.43,3.78,3.49.58.91.51.15.57.09.4.19.29.49.17.49.22.44.4.35.38.12,1,.11.52.21.49.37,1.2,1.41.94.46,1.07-.28.93-.62,1.35-1.19.68-.37.77-.17,1.07-.05.58.31.31.69,0,.81-.38.59.66.81,2,1.21.43.59,0,.6-.22,1.15,0,.66.16.72.34.41.25.41-.11.66-.72.73-1-.08-2.16-.65-.38.19-.23.48-.14.59-.13,1.43-.27.37-.38.18-.5.34-1.43,1.45-.72,1-.31,1,.06,1.26,0,.64-.16.49-.51.33-1.19.08-.34.17-.06,1.18L115,208l.82.89.77.36.28.44,1,2.07.44.66.36.23.83.38,1.89,1.37.17.35.24.92.21.32,2,.43-.39,1.06.34,2.32,1,2.31,1.54,1,.44.56,0,1.22.19,1.22.86.56.91.28,2,1.33,1,.41,1.4-.06.66.07.45,0,.23,0,.23.17.1.51.15.1,1.06.09.75.29.09.49-.63.68.05.1v.16l.05.21.2.07v42.7q0,13.83,0,27.64v51.62q0,13.53,0,27.08H337.48l0,.12.09.12.23.46.44,1.25.13.18.18.18.23.14.16.15.08.2,0,.26.05.89,0,.3.06.3.12.23.19.22,1.49.92.21.17.2.19.17.22.13.24.1.25.07.3v.33l0,.35-.3,1.31,0,.35.21,1.64v.3l-.05.27-.11.27-.11.24-.17.24-.19.19-.21.17-.24.12-1.14.36-.21.15-.16.2-.1.25-.17,1.1-.11.28-.13.27-.16.21-.22.18-1.4.79-1,.43-.58.16-.23.12-.45.31-.19.19-.16.24-.1.27-.08.28L334,400l-.07.31-.1.29-.12.26-.18.23-.19.16-.24.14-.26.1-.9.21-.24.11-.21.16-.17.2-.31.46-.53.59-.75,1.27-.43.56-1.59,3.09-.15.53v.25l.07.22.28.08,3-.07c8.63-.2,17.26-.47,25.89-.73h.26l.08,0,.36-1.91,1.38-2.3.19-.92.3-.53.74-.54.86-.46.72-.17.4-1L361,398.31l-2.44-3.59.81-.28,4.19-.16.56-.15.45-.35.17-.62-.45-.36-1.12-.37-.86-.81-.67-1.15-.1-1,.86-.45,1.17,0,1.06-.15.83-.55.48-1.22-.15-1.27-1-2.3.08-.87.3-1-.37-.81-.18-.23-.42-.48-.4-.7.37-2,1.48-.64,1.54.75.59,2.23c-.11.4-.23.8-.34,1.2l-.43,1.12.08.82,1.17.32.58-.3.75-.72,1-1.26.36-1,.71-2.61.13-.87.65-2.09.44-1,.28-.33.51-.28,1.07,1,1.09,1.28,1.19,1.12,1.41.48,1.21-.65.94-1.51,1.12-3.22,1.79-3.89.35-1.47-.07-1.25-.67-2-.18-1.17.19-.67.4-.58.44-.5.24-.36.06-.55-.06-1.78.29-2.44Z"/><g id="UtNVxE.tif"><path class="cls-2" d="M223.32,302.29q5-15.3,10-30.63L207.2,252.73l0-.07h32.22l10-30.66h.07l10,30.67H291.6l0,.07-6.48,4.71-6.52,4.74-6.5,4.72-6.5,4.73q5,15.35,10,30.65l0,0-26.1-18.94-26.07,18.94Z"/></g></svg>