<svg id="Layer_1" data-name="Layer 1" xmlns="http://www.w3.org/2000/svg" viewBox="0 0 500 500"><defs><style>.cls-1{fill:#eee;stroke:#bcbcbc;stroke-width:2px;}.cls-2{fill:#e00000;}</style></defs><title>state_MS</title><path class="cls-1" d="M315.56,388.68l-.09.2,1.31-.18.73-.21h-.64Zm-4.8-2.48-.6,1-1.19.33-2.57-.1v.4l1.58-.06.65.22.46.61.33-.43.37.43-.24.25-.26.33-.2.16.17.2.13.12.16.06.24,0,.81-1.7.16-.63,0-.58.13-.16.26-.16v-.29Zm27.68,2.36,1.64.3,1.74.08.35-.38-3.73-.43ZM358,115.4l-1.59-1.11-1.19-1.73-.86-2.41c-9,0-18,0-27,0q-13.11,0-26.24,0c-8.6,0-17.2,0-25.81,0s-17.06,0-25.6,0l.15.26,1.51,1.81-.06,2.53-1.66,2-2.31,1.49-5.49,2.16-.57.77.2,1,.57,1.17.25,1.11-.72.78-.45.52-1,.33L239,126l-.95-.59-.61.19-.71,1.2-.84,2.09-.42,2.53.87,4.1-.51,5v2.05l-.39,1.75L233.85,146,232,147l-1.12.42-2.06.23-.56-.05-.4-.21-.61-.47-.22.31,0,.53.16.85.44,1.12.09.74-.18.48-.68,1.1-.16.6-.22.27-.48-.11-.8-.36h-.65l-.32.1L224,153l-1.9,4.34-.63.5-.79.29-2.44,1.51-.65.63,0,1.67,3.56,1.74.12,2.28-.63,1.06-.79.46-1,.12-1.16,0-1.12.19-2.75,1.42-2.65.57-.4.42.18.82.5.41.65.26.69.39.8,1.61-.72,1.44-.93,1.33.31,2,.55.94.31,1.12-.63,1.25-.5.22-1.32.06-.57.12-.48.36-1,1-.32.22-.45.43-1.92,2.6-.9.65-.76.4-.14.54,1,1,2,1,.78.79.21,1.46-.44,1.24-.85.58-1.09.19h-1.17l-.77.45.21,1,.74,1,.8.43.94.34,1,.8,1.66,1.7.06,1.06,0,1.72-.17,1.73-.27,1.12-1.83,2.4-.54,1.26.7,1.13.52.1,1.55.58.65.54.26.71,0,2.92.56,1.95.12,1-.31,1-.64.39-1,.29-1,.41-.43.73c-.11,2.67-.23,5.35-.33,8l.26.56.67.44.83.27.77.1.63.25.62.58.95,1.19-.48,1-.7,1-.74.81-.63.34-.48.58-.79,2.8-.39,2.31.15.87.61.49,2.43.41.89.69.21,1-.78,1.21-.91.25-1.36.06-1.24.25-.52.83.09,1.26.26,1.11.42,1,.57.82.49.42,1.19.75.37.45.1.69-.15.69-.21.66-.11.55-.1,2.39.18.94.6.83,1.64,1,1.51.64,1.12,1.08.44,2.31.33.42.81.32,1.72.26,1.12.42.34.9-.18.83-.39.19v.39l-2.24,2.23L215.54,275l-1.69,2.92-2.66-.1-.45.46-.19.59v1l1.5,1.71,0,2.11-1.1,2-1.76,1.29-1.53.49-.48.31-.39.51-.48,1.19-.32.48-2.27,2.64-.95.74-.94.35-2.08.46-.85.54-.75,1-.46,1-.63,2.16-1.51,2.75-.21,1-.07,1.15-.93,5,0,1.37-.24.63-.06.39-3.44,2.48-1.15,1.69.23,2.5.2.44.51.66L191,320l.08.33-.08,1.14-.1.51-.47.52-.67,3.71-.32.88-.61.65-1,.23-2.32-.1-1.16.1-.74.39-.07.92.5,1.16.77,1,.68.43.26.29-.1.63-.21.63-.12.22-.13.62-.52,1-.05.55.57,1.6,1.51,1.84.31,1.46-3.86,3.2h82.32l12.36,0,.16.84-.34,2-.64,2.05-1.15,2.1-.77,3.31-1.22,1.47-.44,1,.31,1.07-.93,2.05-.37,1.24-.07,1,.48.85.76.88.39,1-.62,1.18,1.29,2.74.76.79,1.56.61.81.57.66,1.75,1.38,1,.82,1.51.15.41,0,.48-.07,1,.05.49.33.9,1.41,2.2.23,1-.08,2.32.94,1.66,1.44,3.46,1.13,1.31.4-.58.6-.22.6.19.34.39.11-.16h.34l.53.35.74.06.69-.28.42-.55.43.35.14.13-.26.32.34.42.62-.47.19-.42,0-.48.15-.59.83-1,.2-.6-.35-.74,4.47-2.56.48-.52.11-.67v-1.1l-.25-.18-1.16-.05-.42-.16,0-.49.49-.56.63-.48.51-.21,1.06.23,1.59,1.21.9.49-.74.39-.43.52.12.45.86.2.65-.09,3.07-.92,3.11-.87,3.51-1.16.82-.1.66-.16,1.54-.77.67-.23,3,.11,1.53-.13.82-.72-6.05-.81v-.36l.8,0,.7-.2,1.19-.55,4,1.11,5.12,3.89,1.5.23,2.42-.26,2.23-.9.9-1.39h.38l.18.65.65.51.32,1.19.47.29.59.1H337l1.33.34.91.61.85.35,1.11-.48.35-.42.21-.4.3-.3.64-.12.5-.3,0-.64,0-.66.21-.3,0,0c-.41-8.86-.86-17.72-1.27-26.58s-.84-17.56-1.27-26.33-.84-17.47-1.26-26.2l-.33-6.87c1.06-8.84,2-17.69,3-26.54s2-17.67,2.95-26.51L348,214.52l2.88-26q1.53-13.72,3-27.46,1.44-13,2.85-26c.67-6.19,1.36-12.38,2-18.57l.06-1ZM332.62,387.69l-1.08-.51-1.09-.67-1.6-.32-1.66,0-1.23.39V387l9.86,1.56.48-.2.42-.24-1.06-.38Z"/><g id="UtNVxE.tif"><path class="cls-2" d="M239.32,302.29q5-15.3,10-30.63L223.2,252.73l0-.07h32.22l10-30.66h.07l10,30.67H307.6l0,.07-6.48,4.71-6.52,4.74-6.5,4.72-6.5,4.73q5,15.35,10,30.65l0,0-26.1-18.94-26.07,18.94Z"/></g></svg>