<svg id="Layer_1" data-name="Layer 1" xmlns="http://www.w3.org/2000/svg" viewBox="0 0 500 500"><defs><style>.cls-1{fill:#eee;stroke:#bcbcbc;stroke-width:2px;}.cls-2{fill:#e00000;}</style></defs><title>state_MT</title><path class="cls-1" d="M425.16,301.34q-.07-12.24-.13-24.47c0-9-.1-17.92-.13-26.88s-.09-18.19-.13-27.28q-.07-13.35-.13-26.69-.06-12.87-.13-25.73H74.69q0,8.36,0,16.7,0,13.32,0,26.64l.11.27.24.41.65.64.85,1.08.34.67.72,1,.22.46.13.21.2.23.36.29.31.33.33.42.27.28.69.42.23.22.18.35.12.26.55,2.08.13.24.21.24.77.48.27.22.18.39.07.3.09.3.16.23.84.58.2.2.19.35.08.3,0,.3-.08,1.07.14.36.8,1.25.2.47.07.36-.07.24-.18.44-.12.18-.14.16-.16.13-.7.45-.16.13-.12.16V233l.17.23.75.5.27.27.21.47.18.89v0l.31.19.44.22.27.19.12.29-.07.21-.12.18-.18.11-.19.09-.2.06-1.25.12-.19.06-.14.11-.08.08-.08.16,0,.19.08.24.19.22.48.25,1.15.34,2.19,1.48.26.25.94,1.11.47.71.25.61.29.56.16.19.23.18.42.18,1.47.27,2.63,1.07.24.18.23.26.33.51.28.62.11.22.19.24.12.21.08.21.11.44.1.21.17.17.29.16.24.17.2.22.27.38.26.28.8.58.33.31.8,1.14.42,1,2.6,2.92.06.22.14.77,0,.08,0,.11.14.16.22.17.42.18.58.16.18.12.2.2.82,1.12.18.19.25.2.73.45.18.19,0,.22,0,.22-.07.24-.05.26,0,.26.06.74.08.46.13.44.25.6.18.21.27.22.89.59.31.3.42.48.31.28.47.22.84.24.2.13.15.18.11.3,0,.29,0,.28-.2,1v.23l.08.2.16.16.28.07.23-.05.19-.11.64-.83.48-.41.17-.1.2-.06.23,0,.23.05.2.09.74.54.19.23.25.43.06.3,0,.25-.4.52-.08.2,0,.24,0,.22.06.21.21.25.32.27.7.46.42.19.36.09.49,0,.35-.08.66-.27.2,0,.19,0,.49.18.23,0,.21,0,.21-.06.37-.2.47-.36.19-.09,2-.51h.24l.25,0,.22.1.18.16.12.28,0,.27,0,.28v.76l-.1.52-.18.43-.07.23,0,.23,0,.23,0,.22,0,.23,0,.23-.08.21-.21.38-.07.22,0,.22.05.21.09.19.07.19,0,.21-.06.21-.1.17-.14.15-.16.12-.18.11-.8.32-.17.09-.12.12-.06.19v0l0,.06.09.17.42.51.15.23.11.22,0,.23,0,.24,0,.27-.05.25-.07.27-.68,1.46-.12.49-.08.51v.53l0,.5v.26l0,.23-.1.2-.6.89-.09.22,0,.24,0,.49,0,.24-.1.21-.24.35-.09.18-.06.2,0,.23.09.23.13.27.17.46.06.23,0,.22.06.72.07.46v.24l0,.24-.1.19-.13.16-.18.1-.21.07-1,.11-.18.08-.13.11-.06.1-.06.17,0,.22,0,.22.13.25L121,294l.12.19.07.22,0,.23,0,.24-.08.22-.1.2-.59.89-.08.21-.06.24v.28l.09.31.23.41,0,.3,0,.25-.06.23.09.26.27.26.69.31.77.21.2.13.12.27,0,.26,0,.25-.29.59-.08.22,0,.26,0,.24,0,.23.06.2.09.2.61,1,.05.32,0,.25-.12.18-.7.71-.17.12-.2.09-.21.05-1,0-.21.05-.19.09-.29.24-.1.14-.06.11-.16.37-.33.53-.2.38-.08.22-.1.2-.13.17-.31.28-.13.15,0,.22.06.28.24.41.15.57.07.2.18.25.74.75.19.31,0,.27-.13.39v.21l.1.43v.25l0,.21-.07.19-.06.14-.08.12-.37.42-.61.52-.12.16,0,.21.06.26.17.35.11.25,0,.25,0,.23-.09.22-.33.52,0,.16.13.15.4.06h.58l1.36.26.29.11,1,.74.15.21.08.25,0,.22.19.23.3.22,1,.56.16.29.12.15.21.16.32.1.61,0,.32-.07.25-.1.16-.11.69-.37.13-.1,0,0,.13-.22.3-.88.1-.19.12-.18.13-.15.17-.12.19-.09.22,0,.5,0,.22,0,.18-.08.67-.46,1.15-.49.16-.11.12-.17.06-.21.08-.2.11-.19.14-.14.52-.33.14-.14.11-.18.1-.21.07-.23.19-.42.12-.18.14-.15.17-.11.18-.1.78-.27.12-.07.07-.09,0-.17v-.2l0-.19-.1-.29,0-.2v-.46l.05-.2.06-.12.11-.1.17-.05.4.13.55.28,1,.76.75.67.09.19.05.21,0,.46.2.22.34.2,1.51.53.24.12.22.17.25.29.12.24.06.24,0,.22-.09.19-.23.35-.08.21-.14.48-.08.53v.25l.12.24.23.21.91.41.3.29.08.28V320l.08.67,0,.23-.06.23-.18.43-.06.23,0,.24v.25l0,.2.07.2.06.46.12.29.82.69.22.28.11.27v.5l-.06,1-.07.5v.24l.05.47.07.2.1.18.19.18.65.5.22.21.14.22.05.23,0,.46,0,.22.13.2.51.42.59.69.46.37.42.47.19.36.08.2.09.42,0,.23,0,.21.09.19.23.33.1.18.06.2v.49l0,.22.16.16.24.09,1,0,.22.11.18.31.19.73.08.18.92,1.34.19.37.44,1.16.06.21.13.66v0l0,.24-.19,1-.08.22-.09.21-.12.18-.15.13-.55.26-.15.12-.11.15,0,.2.06.19.1.17.26.3.21.33.18.36.39,1.19.18.36.27.35.35.28,1.36.65.39.24.25.23.06.21.07.69.17.16.28.08.53,0,.28-.09.23-.14.57-.55.16-.11.18-.09.2-.06h.5l.68.18.77.41.67.55.55.59.11.17.39.68.13.16.42.42.11.17.07.18.07.21,0,.21.07.2.08.19.11.17.24.3.1.17.08.19.21.61.09.18.32.5.17.37.06.2,0,.21,0,.21-.09.19-.14.15-.3.25-.12.15-.1.19,0,.2,0,.18.1.17.79.89.08.18,0,.21v.46l.14.21.25.18.46.25.21.2.09.23,0,.22-.28.63-.11.37v.12l0,.17.27.54,0,.18,0,.47.13.21.25.17.49.18.25.17.18.18.46.66.14.13.22.13,1.29.42.18.11.14.14.67,1,.19.1.25,0,.47-.24.13-.22,0-.23-.49-.87-.07-.19v-.24l0-.21.1-.19.11-.19.12-.16,1.67-1.7.17-.11.83-.21.18-.08.51-.34.24,0h.31l1,.27,3.57.44.19.1.16.13.25.26.18,0,.81-.11h.42l.57.15.24.17.19.17.14.15.17.13.25.05.32,0,.47-.17.24-.16.17-.2.51-1.35.21-1,.1-.21.11-.16.16-.12.34-.21.46-.19.73-.19.22-.1.14-.1.25-.28.2-.09h.25l.42.19.44.35.23.09.32,0,.65,0,.54.05.84.21.71.29.27,0,2.78-.51.47.06.55-.09.3-.1.21-.13.15-.12.21-.08.27,0,1.22,0,.53.21.27.15.21.17.22.33.09.17.1.17.16.14.21.06.27,0,.59-.28.25-.08.6-.05.5-.11.17-.09,1.31-.9.42-.06,3.18,0,.36.08.9.44.36.26.18,0,.26,0,.5-.06.29-.07.18-.13v-.18l-.09-.16-.16-.12-.67-.23-.18-.1-.13-.12-.08-.12-.06-.11,0-.17-.1-.42,0-.22v-.23l0-.25L207,356l.21-.47,0-.18,0-.42.08-.19.15-.13.77-.3.14-.13.12-.17.05-.23v-.24l0-.24-.07-.18-.1-.17-.11-.15-.1-.17,0-.19,0-.21.09-.19.27-.3.35-.21.2-.07.84-.11.23-.1.16-.15.31-.57.14-.14H211l.38.1,1,.59.29.24.27.7,1.18,1.89.23.52.13.16.29.14.22.14.18.19.09.3,0,.26v.28l0,.47.06.22.07.19.09.18.16.16.22.17.45.23.31.26.39.47.5.86.84,1.06.47.35,1.28.36c0-6.84,0-13.68,0-20.52H399c8.76,0,17.52,0,26.28,0l0-.5q0-5.82,0-11.64Q425.22,314.76,425.16,301.34Z"/><g id="UtNVxE.tif"><path class="cls-2" d="M170.32,301.29q5-15.3,10-30.63L154.2,251.73l0-.07h32.22l10-30.66h.07l10,30.67H238.6l0,.07-6.48,4.71-6.52,4.74-6.5,4.72-6.5,4.73q5,15.35,10,30.65l-.05,0-26.1-18.94-26.07,18.94Z"/></g></svg>