<svg id="Layer_1" data-name="Layer 1" xmlns="http://www.w3.org/2000/svg" viewBox="0 0 500 500"><defs><style>.cls-1{fill:#eee;stroke:#bcbcbc;stroke-width:2px;}.cls-2{fill:#e00000;}</style></defs><title>state_NC</title><path class="cls-1" d="M399.81,269l-.59.46-.26.38-.24.31-1.6,1.09-3.91,4.1-4.47,7.19-.54,1.36.34.89.42-1.23,4.69-7.9,2.11-2.35.7-.49.84-.43,1.9-2.06,1-.65.79-1.27-.53.2ZM421.57,223l-.25-.22-.24-.18-.54-.24-.27-.19-.33-.14-.34-.07-.34.09-.31.26.09.23.24.22.22.24.3.53,1.11,1.24.3.72.17.89.26.76.58.32.71,0,.12-.21v-.48l.35-.86-1.31-1.68-.46-.75Zm-15.64,39.5-.21.14-.12.43-.29.32-.28.26-.13.24-.25.65-1.17,1.24-.37.51h.23l.59-.88,2.81-2,.15-.05.13,0,.13-.07.13-.16-.85-.47Zm7.08-3.81L411,260l-1,.42-.87-.26-.34,1.22-.27.55-.44.47,4.15-2.85,3.46-1.22.72-.7.61-.36.24-.22.21-.33-1.09.63Zm-3.5-64,.07.67.14.66.79.3h1.56l.38-.13v-.33l-.16-.41-.11-.45,0-1.29v0h-1.29l-.26.3h-.46l-.19-.31-1.76,0,.26.39Zm4.23,1,.28,1.6.55,1.13.12.82.53,1.15.12.63.24,3.07.26,1.28h-.07l-.12.07-.06.16.12.26.52.57,1.07,2.11.39,1.55.54,1.38.39,1.42-.16,1.16v.32l.28.78.18.85.27.75.56.49.45-.34.38.27.28.61.17.74-.9.28-.32-.08-.31-.49-.15.81.37.56.58.21.49-.3H421l2.59,3.56.56,1.23.1,1.65.23.85.84.52,0,.37V228l.1.33.26.17.74.31.3.18-1.14-2.76-.38-2-5.71-11-1.63-4.82-1.11-2.31-.16-.76-.07-1.12-.17-1-.57-1.91-1.56-7.74v0h-.54l-.51,0,0,.06,0,.26Zm3.94,39.13-.38-.85v-.34l.91-.09.94,0,.14-.32,0-1-.17-.65-.53-.85-.1-.44.17-.7.34-.63.28-.67v-.86l-.16-.32-.65-1v-.63l-1.8-2.91-1.09-1.31-1.29-.91,0,.46-.11.43-.16.38-.25.36h.46l.41.1.39.2.34.34-.76.38-.79-.16-.81-.35-.8-.2.22.58.33.63.43.5.76.35.12.32L414,225l-.32.15-.24-.07-.92-.5-.75-1.07-.56-.57-.24.16-.3.33-1.27.88-.27.41v5.73l-.19,1.58-1.38,3.68h-.23l-.18-.33-.1-.27,0-.2,0-.15-1.07.21-1,.08-.9-.39-.65-1.18h.91l1.24.47,1.14.23.65-.7-.23-.14-.39-.55-.19-.58.4-.28.21-.25-.18-.55-.36-.56-.32-.3h.27l-.56,0-.62-.15-.61-.25-.44-.32L404,229h.45l1,.35,1.11-.29.2-1.21-.46-1.35-.85-.71v-.32l.83-.16.67-.71.52-1,.34-1-.54.11-1.3.49.3-1.62.42-.44.83.47.07-.75-.73-.71-1-.52-.91-.23-3.63.29-3.38,1-.85.71.34.5.79.46.51.59-1,0-1.6-.75-.82-.16-.43.18-.32.29-.28.14-.27-.3V222l.1-.4,0-.47-.15-.47-1.25-.38-2,.41-2,.81-1.24.78h-.28l-1-.29L381,222v-.35l1.32-1.86.24-.66-.59-.12-.12-.38,0-.55-.1-.56-.29-.39-.34-.32-.29-.42-.23-1.32-.54-1.07-.12-.52,0-3.09.16-1,.35-.83.63-.88.62-.6.22-.39.08-.62-.13-.43-.68-.8-.24-.54.84.32.73.5.34.83-.35,1.29-.29.45-.56.64-.2.48-.51,2.1.2,1.23.89,2.1.53,2.56.78.81h.87l.64-1.09.35.39,1.08,1.69.46.23.7.05,1.3-.1.91-.24,1.25-.57,1.2-.8.82-.95-.4,0-.12,0v-.34l.62-.35,3.81-.61v-.34l-.7-.17L395.1,214l-1-.61-.41-.49-.19-.37-1.37-.77-.27-.34-.29-.49-.49-1.08.66.44.67.63.66.41.62-.17.64,1,1.05.68,4,1.78.92.2.94-.17v-.3l-.7-.64-1.32-1.87-.44-.4-.34-.12-.38-.33-.31-.42-.17-.41v-.64l.26,0,.58.6,1.07.85.34.15.25.24.64,1.08,1.19.73.37.16.38,0,1.2,0V213h-.25v-.35l1.37-.14.44-.15.84-.53.24-.32-.43-.15-.45-.25-.37-1.1-.93-.49L404,209l-.61-1.11-.52-.59-.76-.62-.85-.51-.85-.21-.11-.26.19-.56.33-.55.36-.26.5.14v.31l-.27.33-.34.21,2,.59.61.34.75.67.66.79.31.23.7.2.3.24.92,1.43.65.67.78.28.79.11,2.69.85v-.32l-.56-.23-.54-.39-1-1,.49-.3-.06-.72-.27-.9-.31-1.76-.36-.4-.43-.33-.33-.72.74.06.57.32,1,.9-.51.89.2.4.55.24.54.4.12.3,0,.67.08.3.22.25.85.71.46.76.22.53.09.47-.09.37-.17.38-.07.41.2.45,1,1.37.64.72.64.33.71-.28-.18-.83-.52-1-.3-.9-.16-.72-2-5.44-.14-.6-.27-.74-1.23-1.9-.33-.73.2-2.15-.08-1.26-.48,0-.31.94-.23.55-.14,0,.08.48.15.37.23.35.34.4-.79-.54-.95-1.22-.46-1.13.66-.34-.81-.53-.84-.79-.64-.93-.32-1v-.75l.22-.9v-.67L381,193.37c-8.85-.07-17.69-.18-26.54-.25s-17.69-.19-26.54-.26-17.69-.18-26.53-.26l-26.54-.26c-8.85-.07-17.69-.18-26.54-.25s-17.69-.18-26.53-.26-17.69-.19-26.53-.26h-.86l-.26-.08-.13-.13-.26-.52-1.8,3-.33,1,0,.22.55,1.14,0,.43-.61,1.72-1,2-.13.43,0,.33.07.2.41.81.51.73.1.21.07.25-.08.13-.18,0-1.17-.16-2-.67H188l-.2.08-2.93,2-1.05.85-.15.22-3.83,7.22-.3.39-.38.34-.36.18-.61.55-.38.23-.32.15h-.27l-.3,0-.58-.16-.24-.12-.22-.14-.17-.14-.14-.19-.07-.2-.06-.23,0-.23,0-.22-.08-.21-.12-.15-.16-.12-.22-.09-.22,0-.53,0-.24,0-.22-.1-.35-.28L173,212h-.15l-.2,0-.43.21L171,213l-.21.1-.81,0-.31,0-1,.47-1.34.37-.36.14-.62.33-.67.52-1.33,1.39-.39.53-.49,1.1-.17.31-.69.9-.29.31-.24.21-.17.11-.18.09-1.75,1.1-.33.16-.24,0h-.26l-.25-.07-.22-.12-.19-.14-.15-.18-.13-.18-.11-.2-.22-.61,0-.27,0-.26.06-.37.24-.57.05-.2v-.15l-.05-.13-.63-.89-.16-.15-.28-.06-.36.08-1.83.91-.91.34-2.6,1.42-.06,0-.07.14-.06.18,0,.67-.06.22-.12.2-.44.5-.19.4-.08.27-.23.34-.22.16-.25,0-.2-.06-.4-.34-.53-.38-.49-.22-.32-.07h-.4l-.59.11-.3.14-.23.19-.12.2-.1.21-.08.26,0,.25v.26l0,.25.06.22.32.76v.24l-.09.28-.44.55-.12.21-.08.48-.06.23-.21.42-.94,1.41-1,1.14-.3.2-.24.07-.55-.14-1.58-.15-.45-.12h-.2l-.22.08-2,1-1.32.39-.31.13L136,231l-.93.93-.39.24-.95.36-.29.16-.22.16-.13.17-.8.8-.79,1.07-.25.12H131l-.28-.07h-.34L130,235l-.34.18-.56.51-.41.46-.51.41-2,.87-.33.23-.25.22-.39.47-.86.82-.26.2-.24.12-2.5.51-.27,0-.26-.08-.2-.14-.18-.16-.16-.15-.28-.09-.37,0-.74.24-.42.07h-.35l-.23,0-.24-.05h-.25l-.25.06-.36.12-.14,0h-.15l-1.34-.12h-.25l-.77.19-.74.29-.9.54-.6.48-.37.2-.31.14-1.21.25-.63.23-.32.18-.24.21-.61,1.25-.19.24-.3.32-.26.16-1.59.56-.33.19-.29.22-.86.94-.12.21-.08.18,0,.18V247l.16.61,0,.24,0,.27-.07.23-.11.23-.66.95-.11.23-.16.47-.06.25,0,1.48-.18.39-.31.42-.75.74-.37.3-.26.18-.15,0h-1l-2,.23h-.55l-.26,0-.17-.1-.18-.13-.3-.3-.23-.09H96l-.59.19-.3.16-.24.18-.67.66-.45.53-.22.44-.08.2-.07.36c-.32,3.41-.62,6.82-.92,10.23,8.64-.1,17.28-.24,25.92-.35,6.91-.08,13.83-.14,20.74-.28l11.11-3.7,1.22-.26.16.39.15.16.28.1.2,0,.33-.17.42-.29.9-.48.41-.3.27-.27.16-.53.12-.26.26-.2.31,0,.46,0,.29,0,.36-.13,1.25-.66,1.95-.64.28-.05,1.37,0,.28-.07.2-.1.18-.18.29-.27.25-.1h1.37l.29-.1.2-.19.21-.68.18-.26.25-.23.56-.38.27-.09.26,0,.13.13.13.15.17.27.09.1.14.1.16.06,2.87-.26c1,.05,2.06.09,3.08.16l1,0c8.68.51,17.37.93,26.06,1.36l15.93.83.48.1.31.12.16.14.15.17.11.18.08.19.05.23v.49l-.09.24-.43.88-.06.19,0,.17v.19l0,.2.06.23.13.22.14.21.26.2.2,0,.21-.07,3.14-2.26.26-.14.17,0,.12.07.12.15,5.11,6.75.13.28,0,.3-.14,4.77v.31l.08.29.23.24.29.09,1.5,0,.43,0c8.65.15,17.28.4,25.93.58l11,.23.42,0,1.42,0,1.15.21.76.26q9.32,9.48,18.6,19,9.11,9.29,18.24,18.55l4.21,4.26,1.05-.31v.27l-.18.17-.34.49,3.35-1.25,2.39-.63.88-.55.38-1.31h.29l.21.86,0,.36-.19.34,1.28.32,3.08-.69,1,.2.49.24,2.1-.07.73.08,3.42,1,.65.07.55-.19.34-.37,1.4-2.19.72-1.68.15-.6-.05-1.57.08-.76.25-.63-.39-1.1-.41-3.27v-1.27h.24l.59,2,.73,1.78-.3,1.31.31,3.61-.55,1.34v.28l.14.35-.06.4-.31.84,1.17-1.26.69-2.46.71-5,.27-.73.86-1.69.45-1.45.61-.7,1.2-1.1,2.08-3.19,2.35-2.75,5-4.24,3-1.69,2-.57.62-.22.33-.22-.11-.14-.2-.16V287l.45-.49-.29-.5-.67-.42-.68-.15-.3-.21-.41-.48-.34-.51-.14-.37.18-.4.37-.23.35,0,.17.19.3.1.64-.15.55-.55.06-1.13-.22-.61-.38-.63-.47-.33-.48.28-.25-.76-.28-2.4.41.61.42.1.39-.1.34,0,.48.35.26.36-.11.26-.63,0v.27l.62.5,1.44,1.85.27.51-.38.86L356,284.16l-.55.66,1.36.32.2.18.14.05.77.73.69-.14.95-.65.46-.14,1.05-.6,2-2.59,1.15-.58.17-.17-.34-.82,0-.3.33-.05.24.26.21.31.25.14.42-.25.35-.49.22-.7.06-.79-.17-.22-.27-.79v-.68l.69.12v.18l.23,1.07.83,1.26-.65.49v.52l.36.28.42-.17.35-.25,5.49-1.63,1.23-.81,7.37.63-.22-.58-.83-1.31-.29.27-.32.19-.34.11-.61,0,.56-.8.82-.69.94-.49.93-.2.54.46.16,1.06.06,1.21.27.91,1,.57.4-1,.25-3.91.31.1.54.78.83.74-.64.65.18.71.66.58.81.28.84,0,.38-.11.34-.24.19-.38-.07-.33-.12-.28v-.25l.26-.37.27-.21.27-.16.26-.2,1.27-1.6.61-.55.22-.26.24-.45.1-.43,0-.79.14-.35h.23l0,.26.17.43.07.25,1.49-.67.33-.27.4-.75-.08-.38-.24-.29-.08-.47.22-.71.31-.07.44.17.61,0,.43-.27.53-.73.36-.26v-.35l-.89-.56-.51-.84-.58-.77-1.18-.35.3.7.64,1,.12.72-.37.11-.81.06-.81.28-.37.82-.34-.09-1.66.52-.61,0-.22-.12-.19-.17-.1-.27v-.38l.18-.47.25-.08.29,0,1-.53.2-.26-.22-.42-.68-1,.05-.41.19-.73,0-.45-.08-.17-.35-.57-.09-.2-.18-.09-.44.62-.45.87-.25.64v.56l0,.63,0,.67-.23.66-.52-.77L389,266l-.59-.1h-.54l-.78.28.08.65.82,1.28.2.9-.59-.22-.89-.62-.66-.37,0-.19-.21-.4-.3-.43-.36-.27-.45,0-.4.15-.73.51-.66.62-.64.74-.66.62-1,.38-.38.45-.27.09-.19-.12-.15-.22-.18-.32-1.32-.95-1.84-.58-1.72-.31-1.56-.72L371.6,265l-.87-2-.61-.86-.75-.37-.06-.48-1.62-2.67,1.37.62,1.78,2.58,1.4.59.51.29,1.7,1.91,1.05.86,1.32.75,1.19.24,1.65-.09,1.45-.53.63-1.05.83-.64,1.68-1,1.35-1-.2-.75,1.18-.44.81-.88.22-1.16-.63-1.32-.54.34v.29l.17.1.18.16.19.09-.61.34-.41-.13-.37-.31-.45-.25-1.59-.11L383,258l.43-.47.58-.29.63-.14.58,0,.29-.16.33-.35.46-.32.64-.11,1,.43.53.09.22-.39-.2-.41-.46-.32-.9-.41v-.3l1.9.43.87,0,.34-.6.13-.48.38-.8-.09-.31-.58-.67-.24-.43-.11-.49-.91-.07-3.45-1.15-3.12-.72-2.4-1.42-2.28-.57-.57-.36-1.17-.92-1.56-.93-1.56-.4-1.19.67-.32-1.45-.37-.57-.74-.23-.44-.23-.39-.57-.61-1.42,1.44,1.24.76.49,1.7.43,1.82,1,1.07.31,2,.26.76.38.79.8.86.41,2.05-.54,1.11.29.18-.29.24-.17.29-.12.35-.06-.1,1,.8.72,1.1.22.8-.41-.15-.34-.21-.26-.3-.19-.38-.15.12-.2.08-.17.1-.15.21-.12v-.28l-.25-.17-.24-.22-.54-.62.14-.24.38-1-.24-.44-.32-.4-.42-.3-.58-.16,1.58-1,.79-.33,1,.08,1.77.48.86,0,1-.2-.57,1.28-.64.32-1.91-.3-1,.21-.17.53.41.63.74.53v.3l-.57.47.53.49,1.6.64-.15.29-.11.18-.18.1-.34.07.48.77.51.45,1.35.68-.13-.33-.16-.28-.23-.21-.27-.16.29-.44.4-.19.43.06.44.28.83-1.58-.31-.88.4-.34.61.22.31.85.06,1.5.15.78.34.38v.34h-1.56l.17.49.22.09.28,0,.34.13.55.42.23.48.62-.3.18-.65-.12-.66-.28-.29,0-.34v-.65l.3-.38.86.44.32.48.52,1.21,1.16.79.44.1.19-.5.12-.5.26-.18.27.09.4.86.68.2,2.56.09.31-.25.48-.63.44-.31,1.47-.47.55,0v-.29l-.42-.68.19-1,.57-.66.72.47-.28.33.37.29.25-.06.13-.37.05-.65.18-.36.38-.32.21-.42-.28-.65,1-.33.24-.16.22-.35v-.24l-.11-.22,0-.28-.1-.3.06-.27.7-.14.18-.1,2.18-2.26.1-.45,0-.73,0-.82.3-.72.32,1.06.43.9.65.39.93-.41.09.15.07.14,0,.16,0,.19-.27.06-.5.22v.35H416l.51-.1.42-.24.07-.29-.05-.41,0-.37.35-.16.33-.07.24-.15.17-.21.54-1-.06-.47Zm-83.83,82.06-.37-.4-.58-.05-.57.34-.3.73.22.47.55.3.62.23.43.27.29-.4.78-2.74-.81,1Zm4.78-12.64-.47,1.1-.28,1.32-.39,1.16.53-.56.54-1.07.77-2.15.1,0h.1l.06-.05v-.22ZM429.4,237l-.71-2.41c-.06-.66-.13-1.32-.19-2l-.3-1.23-.5-1.11-.66-.62-.34.23.23.89.65,1.59.07.9,1,3.41.24,1.92,0,1.1-.11.5-.53,1-.13.53v.54l.19.9.06.5-.09,1-.37,1.69-.17,1.75-.46,2.28L427,251l0,1.41-1,.82-2.63,1L421,255.46l-.17,0-.06-.12,0-.17-.11-.08-.2.09-.08.21,0,.23-.06.13-.17.19-.1.22-.16.18-.37,0-.34.2-.34.33-.09.28.38.14.31-.1.52-.42.22-.08.6-.17,1.44-.67.8-.14,1.45-.66,1.2,0,.37,0,.71-.5.37-.75.94-3.53.76-7.82.72-3.61Zm-72.91,50.83-1.51.87-.68.2-.69.19-4.9,3.22-1.37,1.37-.73,1.51.62-.69,3.93-3.49.53-.23,1.24-.3,3.1-1.67,1-.85.11-.06.12,0,.07-.06,0-.24Zm31.6-6-.47-.52-.41-.31-2.61-.94h-.78v.31l.43.29,1.92.69,1.39,1.05.17.17.54-.25Zm-13.49-2.09-6,1.08-1.05.43-.67.72,10.35-2.44,1-.1,4.58.31v-.31l-2-.57Z"/><g id="UtNVxE.tif"><path class="cls-2" d="M279.32,260.29q5-15.3,9.95-30.63L263.2,210.73l0-.07h32.22l10-30.66h.07l10,30.67H347.6l0,.07-6.48,4.71-6.52,4.74-6.5,4.72-6.5,4.73q5,15.35,10,30.65l0,0-26.1-18.94-26.07,18.94Z"/></g></svg>