<svg id="Layer_1" data-name="Layer 1" xmlns="http://www.w3.org/2000/svg" viewBox="0 0 500 500"><defs><style>.cls-1{fill:#eee;stroke:#bcbcbc;stroke-width:2px;}.cls-2{fill:#e00000;}</style></defs><title>state_ND</title><path class="cls-1" d="M439.79,346.61l.54-1.46.32-1.83,0-.84-.31-2.43-.2-.38.06-.76.1-.5,0-.43-1.05-1.78-.2-.56-.15-.71-.11-1.33.11-4.28-.29-1.4-.67-1.13L436.37,325l-2.66-4.31-.29-.72-.09-.67v-.59l-.06-.49-.28-.51-.75-.87-.25-.47.31-1.34-.05-1.41-.26-2.46-.32-1.3-1.44-2.08-.46-.93-.09-1.42.55-2.32.16-1.49-.15-1.46-.64-2.34-.14-1,.11-.67L430,295l.12-.46.07-.73-.07-2.25.15-.69.65-.92.24-1.07.16-.29.08-.3-.17-.42-.29-.29-.54-.15-.46-.34-.54-.16-.24-.18h.19l0-.49-.16-.88-.57-1.05-.24-.6-.1-.88.33-4.39,0-1.34-.64-2.75v-.78l.13-.67.14-.58.08-.51-.16-1.43-.68-3.26-.15-1.52.33-8.55-.17-.67-.41-.58-.4-.48-.23-.33v-1.4l.73-3.41v-1l-.44-1.15-.05-1.19.09-1.34-.06-1.62.06-.25.14-.33.13-.38,0-.43-.2-.35-.73-.61-.56-1.87-.27-2.4-.47-1.18-.62-1-.61-1.37-.56-2.39-.36-.85-1.08-1.38-.16-.27-.05-.17-.12-.07-.17-.06-.16-.14-.09-.3.25-.5v-.4l-1.17-3.33-.12-1.54.66-1.63-1.59-1.9-.75-2.31-.51-2.54-2-5-.72-2.46-.35-2.59V201l.68-4.74-.22-1.08-.31-1-.8-4.49.16-.82.56-1.24.21-.75,0-.76-.25-1.1-.25-2.18-1.08-4,.41-2.91,1.21-2.49,1-2.63-.39-3.32-1.05-2.37L414,164l-.34-2.69-1.35-3.72-.34-2.41-.24-.62-.31-.59-.27-.63-.37-2.32-.47-1.08-.36-1.14.14-1.68v0H98.59l.09,20.32q.06,13.33.13,26.66c0,8.92.09,17.84.13,26.76s.1,17.82.14,26.73.08,17.9.12,26.85.09,17.8.14,26.69.09,17.58.13,26.37c0,8.52.09,17,.13,25.57H440.68l-.9-4.91Z"/><g id="UtNVxE.tif"><path class="cls-2" d="M222.32,320.29q5-15.3,10-30.63L206.2,270.73l0-.07h32.22l10-30.66h.07l10,30.67H290.6l0,.07-6.48,4.71-6.52,4.74-6.5,4.72-6.5,4.73q5,15.35,10,30.65l0,0-26.1-18.94-26.07,18.94Z"/></g></svg>