<svg id="Layer_1" data-name="Layer 1" xmlns="http://www.w3.org/2000/svg" viewBox="0 0 500 500"><defs><style>.cls-1{fill:#eee;stroke:#bcbcbc;stroke-width:2px;}.cls-2{fill:#e00000;}</style></defs><title>state_NH</title><path class="cls-1" d="M301.52,325.08l-1.25.35.6-1.93-3.6-4.14-1.06-1.94,0-.47.08-.88.58-2.36.07-.62,0-.69-.2-1.13-.27-.56-.36-.41-2.21-1.47-3.61-5.43-1.77-2.07-.39-.65-.31-.65-.23-.89-.07-.6V298l.09-.46.56-1.93.17-.88-.07-1.32-.17-1.14,0-.69.05-.49.1-.38.15-1.12,0-1.19.28-2.45c-.16-2.7-.3-5.41-.44-8.11-.47-9-.93-18-1.43-27q-.72-13.17-1.38-26.36c-.43-8.63-.9-17.27-1.35-25.9s-.88-17.33-1.36-26-.89-17.35-1.34-26h-.07l-.55.27-.92,1.12L278,150.78l-1.08.53-1.43-.22-1.38-.5-4.81-3.05-1-.15-1.3.44-1,.84-1.67,2.24-.79.76-2.51.64-.58.54,1.5.79.92,1-.38,1.52L260.85,159l-.25.84-.31,1.52-.3.85-2.34,3.6-.41,1.1-.11,1.28.13,1.89h0l-1,.35-.58.77-.2,2.12.43,1.88.77,1.24.5,1.26-.51,2q-2.64,3.76-5.26,7.54l-1.41,2.9-.23,2,.57,1.28.8,1.1.4,1.45.22,1.16,1.78,4.62.71,1.12.38.83,0,.78-.56.81-.69.15h-.71l-.58.39-.41,1.55.19,1.43,0,1.39-1.1,1.44-2,1.64-1,1.74-.51.71-1.48.63-5,3.18-.92.84L238,222.87l-1.08.76-1.39.24-2.79-.13-2.93.57-2.1,1.71-1.28,2.88-.43,4,0,7-.32,3-.85,2.54L222.46,250l-.33,1.26.25.66.49.5.37.45-.12.59-3.75,5.36-.85,1.65-.33,1.67-.13,1.74-.34,1.71-.47,1.55-.6,1.26-3,2.8-.72,1-1.56,1.26-.35.83-.21,2.75-.5,3.28-.46,1.56-.81,1.34-2,1.93-.59,1.12-.34,2.08-.43,13.42.22,3-.13,1.78-.69,1.49-.6.71-.44.71-.27.8-.08,1,.05.22.13.15.14.24.07.46-.12.46-.27.39-.39.43-.36,3.22v1l.36,2-.15,1.78-1,4.4-.24,3.58-.54,1.29-1.39.51-1,.56-.39,1.38-.4,3.39-.44,1.11-.41.82-.29.91,0,1.41.12,1.22.21.87.35.77.49.87,2.45,2.55,1.12,1.61.37,2.26h.12l13.93.47q13.31.42,26.62.88c8.61.3,17.22.54,25.83.86l.58-.1.45-.22.85-.64.83-.83.78-1,.44-.3.59-.26,1.12-.34.68-.31.58-.66.24-.53.53-1.46.44-.82.23-.36.53-.65.3-.27.31-.21.46-.18.57-.09,1,.05.66.13h.64l.54-.18.75-.55.42-.43.85-1,.29-.28.62-.45,5.57-2.48.52,0,.68.11,1.93.83,1.2.32,2-.52.13-1.24.51-1.62L298.7,334l3.06-4.86.49-1.28.24-.35.42-1,.24-1.06-.31-.49Z"/><g id="UtNVxE.tif"><path class="cls-2" d="M225.32,332.29q5-15.3,10-30.63L209.2,282.73l0-.07h32.22l10-30.66h.07l10,30.67H293.6l0,.07-6.48,4.71-6.52,4.74-6.5,4.72-6.5,4.73q5,15.35,10,30.65l0,0-26.1-18.94-26.07,18.94Z"/></g></svg>