<svg id="Layer_1" data-name="Layer 1" xmlns="http://www.w3.org/2000/svg" viewBox="0 0 500 500"><defs><style>.cls-1{fill:#eee;stroke:#bcbcbc;stroke-width:2px;}.cls-2{fill:#e00000;}</style></defs><title>state_NJ</title><path class="cls-1" d="M306.8,158.36,299,153.62l-7.77-4.74-7.76-4.74-7.8-4.76-7.77-4.75-7.77-4.76-7.79-4.77.05.19-1.55,1-1.77.1-.79.31-1.06,1-.84.1-.41.29-.24.43-.41,1-.16.29-4.24,4-.59,1.39-.07.74-.76,2.88-1.86,4.58-4.08,5.53-1,.85L232,150l-.8.51-.77.59-.33.5,0,1.27,0,.27-.27.12-3.23,4.07-1.46,1.2-1.74.48-1.15.49-1.89,1.26-1.76,1.63-.83,1.64.18.72.47.83.9,1.27.07.42-.07.46,0,.39.3.16h.46l.47.13.32.34.14.6.58.88,1.23,1.41,1.11,1.77.3,2-.78,1.79-1.1.76-.95,1-.39,2.5-.53,1.89-1.3,1-1.61.18-1.43-.67-.72,1.74-.53.8-.58.35-.37.4.09.85.3.74.23.05-1.06,3-.3,1.39.25,1.3.31,1-.24.77-.07,1,.31,3.26-.38,1,.14,1.09.32,1.08.61,2.86,1,.42,2.35-.45,4,1.27,1.34,2.73.58,8,.79,1.91,1.44,2.08,1.74,1.22,3.08-1.16,1,1.75,1.09,4,4.1,3.64.72,1,.26.61,2.64,3.77,2.46,3,4.2,3.63,2,2.19.83,2.22-1,2-2.27,1.42-2.6.84-2,.28-.75.4-2.73,2.46-.79.39-3,.94-1.2.78-3.09,3.47-1.07.72-2.73,1.31-1.23,1.41-3.11,5L222,269,221,270.39l-1.36-.52-.33,1.21.51,1.91,1.18,1.59-1.28.94-1.13,1.36-1.16.91-1.3-.37-.44.53h-.09l-.12.07-1.88.53-2.85,1.32-1.32.27-1.74.11-3.37.77-4.42,2-3,2.12-2.69,2.64-1.7,2.95-.11,2.92-.16.48-.88.33-.51.75-.35.73-1.06.87-.31,1.25-.18,1.39-.23,1-.49.5-1.49.89-1.74,1.81-.06.78.85,1.25,2.65,2.78.25,1.44-.86,4.61-.18,1.94-.63-.35-.44-.48-.3-.58.77,3.13,1.83,2.1,2.39,1.66,8,8.92.28.51.39.52.6.47.4-.06.49-.36.6-.3.69.1.84,1.05.6,1.61.77,1.46,1.27.65h3l.58.44.63,1.94.64.44,1.12.47,2.82,2.26.71.78.09.59-.26,1.25.17.86.6.9,1.11.72-.11.45,1.39-.07.9-.51.83-.74,1.12-.75,2.45-.6,1.65-.11,1.07.39.3.84-.05.76.09.56.72.23.74-.1,1.36-.43.59-.1,3.16.08,1.3.4,1.25.9,1.49,3.3-.56,3.95-3.92,8.36-.49,1.95-.25,2.06-.07,2.11-.36,1.23-.55.85-.12.75,1,.95.81.2.88-.2,4.55-1.83,3.06-1.9,2.59-2.43,1.55-2.78-.13-.69-.33-.92.1-.79,1.87-.53.81-.45.66-.58.67-1.59,1.83-2.1.41-.66-.13-1.12-.49-.62-.69-.1-.82.47-.11-.35,0-.2-.07-.11-.37,0,.71-.93.82-.45.85.09.82.67,3.71-7.76.88-1.26,1.76-.95,3.27-4.5,2.23-1.51v-.69l-4.29,1.44-1-.35-.9-.57-1-.46-1.41-.06,1.46-1.74,2.16-.57,5,.17v-.55l-.35-1.33,1-1.82,2.55-3.2,2.21,1.44-2.14,2.15-1,1.31-.7,1.45v.55l2.14-.76,4.59-2.93,2.43-1-.65-1.83-1-2-1.24-1.16-1.44.72.08-1.29.42-1.44.58-1.29.52-.82,1.2-.91.86.1.84.51,1.18.3,1-2.41.28-1.67-.72-.76-.95-.75-.39-1.79-.07-3.76.72.71.9.57,1,.1,1.16-.68,3,2.08.25.51.14,1,.42.8,1.07-.2.55-1.48-1-1.87-.92-2.12.9-1.46.78-1.57.86-.7,1-.45,1.09-.82.69-1,.65-1.14.72-.94,2.07-1,1-1.42,1.39-2.83.49-.59,1-1.46.45-1.49-1.12-.69-1.25-1.34.4-3,1.18-3.29,1-2.08,1.46-1.81.12-.73,0-2,.28-1.59.68-1.21,1.83-1.72-.77-.59-2.55-.87,1.62-1.62.79-2.18-.28-1.48-1.6.4.33-1.6,1-.57,1.28-.17,1.21-.44.95-1.09.6-1.38-.16-1-1.39-.05v-.63l1.34-1.26.82.73.41,1.95.11,2.38-.18,2.24-.49,1.65-1.53,3.53-1.22,16.7,1.13-2.24,1.28-10.5,1-3.33-.47-.63.59-1.66.44-4.61L306,261v-2.43l-.74-2-1.44-.82,1.54-2.73,2.71-8.52-.21-2.67,1-2.39,1.28-2.23.65-2.22-.91-13.9-.67-2.67L308.1,217l-1,.69.25,2.1.91,2.3.9,1.3-1.39.38-3.08-2-6.89-2.43-2-.26-4,.71-.69-.21-1.25-.93-2.71-.84-.79-1.52.21-1.87,1.16-1.66-.58-.64.07-3.23-.07-.41.62-.83,1.42-1.17.7-.81.83-1.89,1-4,.88-1.81.67-.65,1.44-.92.58-.53.46-.87.59-1.87.55-.78,1.6-1,.25,1-1.32,4.25,1.24.06.92-.3.75-.63,1.43-1.85,1.79-1.39,1.71-1.72.49-.65.26-.87,0-1.46.19-1.15.74-1.82.65-2.7,3.27-5.34,2.87-7.53.81-4.18.05-1.95ZM278.42,319.45l.67,1.81-1,1.07-1.16,3.05-1,.72-1.09-.54-.63-1.23-.72-.86-1.36.56,1.78,2.65,2.53.46,2.66-1.25,2.25-2.49,1-2.83.34-.12.65-.47.23-.5-3.89-.55ZM298,291.74l-1.16,2.37-.46,2.36-7.87,12.59-.78,2.45-.42.9-.11.48-.05.76,1.85-2.47,3.6-7.72,3.29-3.23,1.69-3.61,1.39-4,.61-2.7-.89.68Z"/><g id="UtNVxE.tif"><path class="cls-2" d="M224.32,269.29q5-15.3,10-30.63L208.2,219.73l0-.07h32.22l10-30.66h.07l10,30.67H292.6l0,.07-6.48,4.71-6.52,4.74-6.5,4.72-6.5,4.73q5,15.35,10,30.65l0,0-26.1-18.94-26.07,18.94Z"/></g></svg>