<svg id="Layer_1" data-name="Layer 1" xmlns="http://www.w3.org/2000/svg" viewBox="0 0 500 500"><defs><style>.cls-1{fill:#eee;stroke:#bcbcbc;stroke-width:2px;}.cls-2{fill:#e00000;}</style></defs><title>state_NM</title><path class="cls-1" d="M408,138q0-13.33,0-26.67H119.85v61.28q0,12.39,0,24.79v79.5q0,14,0,28.07v79.35q0,12.48,0,25,0,13.61,0,27.21v.25h39.65V424.57l0-.4V411.63l6.79,0c8.22,0,16.44.07,24.66.07s16.44.07,24.66.07,16.53.06,24.8.06l.54.21.63.62-2.84-3-.62-.4-.66-.12-.55-.31-.44-.49-.34-.64.36-.41-1.17-1.72-.35-1-.14-1.29-.26-1.19-1-2,0-.94,12.6,0H352l26.46,0h26.46c0-6.33.05-12.66.09-19q.07-13.7.12-27.39c0-8.34.09-16.69.12-25q0-13.65.12-27.31.07-13.47.13-26.94c0-8.37.05-16.73.1-25.1q.07-13.51.12-27,0-13.68.12-27.37.06-12.81.11-25.63c0-8.8.06-17.59.12-26.38l0-1.06,2,0Z"/><g id="UtNVxE.tif"><path class="cls-2" d="M242.32,236.29q5-15.3,10-30.63L226.2,186.73l0-.07h32.22l10-30.66h.07l10,30.67H310.6l0,.07-6.48,4.71-6.52,4.74-6.5,4.72-6.5,4.73q5,15.35,10,30.65l0,.05-26.1-18.94-26.07,18.94Z"/></g></svg>