<svg id="Layer_1" data-name="Layer 1" xmlns="http://www.w3.org/2000/svg" viewBox="0 0 500 500"><defs><style>.cls-1{fill:#eee;stroke:#bcbcbc;stroke-width:2px;}.cls-2{fill:#e00000;}</style></defs><title>state_OH</title><path class="cls-1" d="M360.67,139l-1.94.28-.92.28-.41.34-.62.78-.3.26-1.8.38-1.27.81-3.45.64-16.15,7.77-16.23,13.85-1.84.58L314,166l-1.2.13-1.61-.84-.44-.11-.56.28-1,.9-.65.19-1.27-.06-6-1.45-2.14.05L292.48,167l-3.89,2.17-2.17.63-3.46.14-.82.5-.71.68-2.24,1.45-1,.37-2.33-.13-2.09-1.05-3.5-2.87-.48-.29-.88-.41-.36-.25-.46-.61-.36-.56-.35-.42-.53-.19.65,1.44,2.1,1.86,1,1.21-2.41-1.75-1.33-.7-1.26-.28-.59.08-.78.3-.49.08-.68-.07-.38-.19-1-.69-2.08.36-2.48,1.59-2.35,1-1.69-1.48-.45.47-.57.27-.46-.17-.19-.81-.49-.13-3-.12.82-.44,1.8-.08.83-.43.68.49.36-.26.25-.6.38-.5.47-.21.51-.13,1.27-.08,2.35-.54,1.11-.07,1.17.61,1.1-.88,1.68-.42,3.42-.15-.33-1.09-.31-.64-.5-.33-1.91-.24-.52.07-.81.47-.4-.3-.31-.44-.24-.23-.56-1.12-.62-.76-.89-.35.09.36-.12.85-.23.92-.26.6-.63.59-.78.37-1.69.36-1,0-1.75-.66-.83-.16-1.48-.66-2.56-3.21-1.28-1.19h-1.33l-1.7-.44-3.12-1.33-1.32-.93-2.34-2.51-1.17-.75-.56,0-1.18.42-.84.11-.77-.1-3.88-1.23-.28-.52,0-.62-27,1-26.4,1c-4.43.17-8.87.35-13.31.51q-.09,13.44-.2,26.88-.11,13.19-.22,26.36-.1,13-.2,25.95-.09,13.28-.22,26.55t-.2,26.45q-.11,13.15-.23,26.3,0,6.07-.1,12.13l2.81-1.73.8-.87.48-.38.6-.15.45.22.63,1,.27.22.74.42L169,324.4l2.13.21,4.31-2,2.15-.43,1.08.62.71,1.19.53,1.17.56.52,1,.19,1.23.46,2.11,1.11.76.81.53,1.09.29,1.19.11,1.12.25.89.59.72.68.62.53.61.48,1.06.31,1.15.18,1.31.05,1.54.48,1.11,1.09.83,5.59,2.1,1.11.13,4.49-.88,1.18.17,2,1,2.13.6.78.94.67,1.14.77,1,3.38,3.44,2,1.36,2.19.47,1-.31.87-.76.62-1,.24-1.2.56-.41,3.53-1.15,1.12.11,1,.42.95.65.82.82.46.26,1.78,0,.71.17,1.43.65.64.45.36.45,1.2,2,.62.7.38.17,1.8-.43.61-.51.75-.46,1.18-.1,2.29.43,1.06-.05.89-.57.4-.64.53-1.34.27-.49.4-.31,1.34-.51.71-.68.7-.89.8-.77,1-.33,1.27-.19,3.05-1.55,1.3-.21.59.43.17.93v1.27l.14,1.24,1.22,4.23,1.46,2.45,2.19,1.23,2.33.81,1.92,1.22,3.61,3.68.51.9.83,2.06.51.75v.05l1.82.84,2.19-.24,4.23-1.52,3.76-.31.9-.36.72-1.1.39-1.13,1.07-5.61.56-1.38.69-.6,2.41.36,1.11-.21.77-1,0-.65-.11-.86-.21-.82-.47-1.11.08-.65.33-.91-.16-1.62-.39-1.05-.45-.88-.38-1.1.15-1.49.86-.77.95-.66.57-1.48.65-1.13.25-.59.35-2.62.78-2,1.43-2.48,1.69-2.22,1.6-1.21,1.18,0,.94.62.78.72,1.57.66.68.77.46,1,.23,1,.18.34.12.34,0,.43-.1.38-.25.17-.24.11-.12.18-.15.85-.26.37-.1.31.35.7.94.49,1.1-.57,1-1,.59-.91.38-1.54.31-.76.52-.33.62.22.88,1,.54.22,1-.29,0-.75-.46-1-.33-1.07.25-2.32-.1-1.14-.65-.49-.31-.14-.37-.35-.34-.43-.2-.39-.21-.85v-.22l.3,0,2.51-1,.4-.6.1-1.47-.13-2.39.06-.79.38-1,2.41-2.82.79-2.19,1-.3,1.25,0,1.09-.42.34.48.4-.35.29-.11.31.11.39.35.59-.8.36-2.5.4-1.15,3.77-3.64.8-.39,2.13,0,.47.51.47,1.14.67,1.2,1,.72,1.18-.16,1.75-1.64,1-.4,1-.12,1.11-.31,1-.43.75-.51,1.43-1.57.9-.75,2-.74.77-1,1.15-2.13,1.61-1.83,5.58-4.4,3.45-2,.09-.66.59-1.78,0-.31-.08-.73.05-.28.22-.27.81-.66.27-1.25-.16-.86-.53-.75-.79-.91-.3-.78.42-.54,1.09-.71.27-.67.21-1.29.18-.66.31-.75.32-.56.93-1.15.12-.54-.19-.7-.26-.75-.16-.68.23-1,.53.07.66.37.64-.08.34-.64-.06-.61-.21-.54-.07-.43.37-1.12.46-.78.38-.91.17-1.48-.06-2.7.19-1.25.55-1.59,1.08-2.28.42-1.19.36-2.32.48-1.5,1-2.57.48-.51,1.36-1.12.28-.4.49-2,.2-.38,0-.88-.33-1.46,0-.32.07-.71,0-.31-.22-.24-.34-.15-.33-.07h-.13l.09-1.53,1-2.57.25-1.48-.18-1-.44-1.17-1.13-2.19-1.65-2.26-.37-1.13.52-1.33.91-.68,1.29-.44,1.26,0,.85.49,2.24-1.6.78-.22V133.46l-13,4.37Z"/><g id="UtNVxE.tif"><path class="cls-2" d="M228.32,298.29q5-15.3,10-30.63L212.2,248.73l0-.07h32.22l10-30.66h.07l10,30.67H296.6l0,.07-6.48,4.71-6.52,4.74-6.5,4.72-6.5,4.73q5,15.35,10,30.65l0,0-26.1-18.94-26.07,18.94Z"/></g></svg>