<svg id="Layer_1" data-name="Layer 1" xmlns="http://www.w3.org/2000/svg" viewBox="0 0 500 500"><defs><style>.cls-1{fill:#eee;stroke:#bcbcbc;stroke-width:2px;}.cls-2{fill:#e00000;}</style></defs><title>state_OK</title><path class="cls-1" d="M432.16,214.27q-1.73-13.14-3.43-26.29v-.12q0-13.47,0-26.93H63.79v.12q0,13.45,0,26.91H168.72l25.61,0q0,11.73,0,23.45,0,13.59,0,27.19,0,12.57,0,25.17,0,13.35,0,26.71l.71-.07,2-.28.67.2.4.23,1,.18.42.28,7.35,7.07.85,1.29.55.59.81.26,2.63.26.8-.26.31-.24.5-.58.39-.26.38-.1,2.1.29,1.66.93.91.36,1,.1.65-.32.35-.8.26-2.61.43-.6.66,0,.81.57.2.32.12.37.19.38.38.37.37.17.44.1.83,0,.88.34.42.78.27,1,.41.84,1.34,1.19.75.92-.17.42-.16.62.12,2.84.17.85.74.6,1,.19,2-.09.88.14,1.66.49.88.13.92-.15.7-.3.69-.17,1,.22,3.27,2.15.88.32,5.46,1.18.52.29,2.91-1.21,1-.19.53,0,1.42.31.49.28.7,1.25.29.28.56.4,1.45,1.68.65.4h2.19l1.05-.19.23-.48.64-.87.53-1,.68-.75,1.11-.31,5.82.75,1.34-.17,2-.75,1.11-.16.68.6,0,1.37-.16,1.56.21,1.12.08,1.72,1.64.84,2.15.43L283,321l.43-.11.32.42.08.54-.27.6.3.57v.5l-.3,1.08-.09.54-.08.32-.1.78.43.51,1,.52,1.85.61,1.92-.33,1.71-1.05,3.74-3.76,1.53-1.23,1.71-.57,1.65.81.38.87,0,1.94.4,1,.64.39,2.81-.2,1,.18.64.37.35.67.12,1.08.27,1.21.69.44,2.83-.18.49-.17.33-.24.2-.18.46-.28.22-.24.14-.21.24-.53.09-.17.7-.47.52.15,1.16,1,.24-.33.77-1.34.15-.39.19-.24.24-.17.54-.22.27-.16.56.39.48.5.34.6.11.64-.2.85-.83,1.31-.19.89.22,1.25.59,1.39.85,1.17,1,.66,1.38,0,.81-.85.38-1.34.1-1.51.18-.57.84-.49.19-.37-.17-.53-.34-.26-.31-.35-.07-.8,1.55.41,1-.26.67-.87.68-1.43.1-1.26,0-.68.32-.4.24-.13.24-.11,1.49-.27h.37l.41.08.6.25.31.24.2.25.19.53.27,1.47.21.51.27.42.53.55.2.16.32.1.41,0,1.56-.22.36.07.45.22,1.13.86.23.12.37.08.48,0,.84-.11.45-.13.32-.15.19-.17.15-.2.14-.22.12-.24.57-1.63.27-.43.19-.19.22-.12.45,0,.59.16,1.08.43.36.38.11.31-.47,1-.08.26v.28l.07.26.12.23.17.2.54.58,1.79.55,1,.48.24.22.15.39.1.49.17.41.32.16,3-.15.8.15,1,1.25L353,335l1.3,1.24,1.2-.86.25-1.09v-.78l.27-.46,1.14-.15,1.85.2.79-.09.82-.51.42-.69.77-1.79.43-.36.47-.12.89-.48.43-.12h2.23l.62-.08,1.46-.63.81-.56.67-.37.31,0,.19-.38.47-.49.54-.33.44.14.47.47,2.47,1.57.5.13,1.22-.21.25-.36.26-.25.35-.11.23.36.25.25.29.11.48-.33-.19-1.48.3-.34,1.43.05.65-.09.45,0,.28-.33.44-.35.49-.27.44-.11,1-.55.14-.12.72.27H385l.58-1,.49-.45.57.22.57.47.55.3.49.39.34.82-.41.74.55.31h1.37v.09l.1.18.18.25.09.23.24-.09.26-.22.18-.12.42.05.33.11.28.23.29.36.47-.07,3.64.12.37-.05.29-.14.17-.13.11-.22,0-.41.13-.48.31,0,.49.29.46-.28.4-.15.33-.22.26-.41.5.28.25-.56.06-.92.26-.78.82-.67.72-.11,2.87,1,.5.32.23.31.17.37.24.3,1.36.33.76.53,1.39,1.41.7.48.66.22,1.51.05.32.09.34.24.27.29.12.25.11.79.27.32.39.17.42.3.24.33.62,1.12,1.64,1.61,2.85.5,1.11.35.52,0,.62.28.7,1.22.75.39.38.46.24.1.31-.05.5-.24.28,0,.62.13.61.19.5.31.32.44,1.14-.19.93.09-.14.19-.15.3.65.33,2.05.71v-.36l.8.4,1.11,0,.23.06.24-11.4q.29-13.12.56-26.24.3-14.13.61-28.26l.54-25.57c-.33-2.46-.65-4.93-1-7.39C434.41,231.56,433.3,222.91,432.16,214.27Z"/><g id="UtNVxE.tif"><path class="cls-2" d="M292.32,272.29q5-15.3,9.95-30.63L276.2,222.73l0-.07h32.22l10-30.66h.07l10,30.67H360.6l0,.07-6.48,4.71-6.52,4.74-6.5,4.72-6.5,4.73q5,15.35,10,30.65l0,0-26.1-18.94-26.07,18.94Z"/></g></svg>