<svg id="Layer_1" data-name="Layer 1" xmlns="http://www.w3.org/2000/svg" viewBox="0 0 500 500"><defs><style>.cls-1{fill:#eee;stroke:#bcbcbc;stroke-width:2px;}.cls-2{fill:#e00000;}</style></defs><title>state_OR</title><path class="cls-1" d="M424.75,161.39l-1.52-3-.8-2.53-.56-1.22-.54-.66-.63-.6-1.82-.36-2.51-1.58-.89-1.06-.42-.37-3.1-.7-.44-.8-.4-1-2.57-2.68-1.27-3.48-.37-1.92-.1-.28-11.75,0-27.39,0-26.54,0c-8.7,0-17.4,0-26.09,0l-1.83,2.17-2.1,1-10.72.16-6,1.16-3-.14-1.14.13-.71.4-1.25,1.58-1.81,1.47-11.74,2.1L268.45,152l-2,.35-.79.53-1.32,1.33-1.13.81-1.2.54-.67.07-1.27-.26h-.66l-.45.12-1.7,1-1,.41-.5.06-2.22-.41-.38.09-1,.53-.51,0-6.52-1.27-.45.11-1.15.76-.3.36-.16.46-2,.83-3.09.64-.31.13-1.92,1.53-.22.08-.59,0-1.85.54-1.83-.23-.63-.28-.48-.07-1.42.08-.24,0-.48-.13-.91,0-.22,0L223,162.51l-.94.12-.78-.58-.58-1.3-.34-1.08-.44-.9L219,158l-2-.73L204.07,156l-6.37,1.2-3.24-.7-1.22.24-1.8,1-3,2.51-1.73,1.1-7.73,3-3.23,1-.74.48-.84.23-3.48-1.27-3.65-.07-1.29-.75-2.21-.59-1.4-.74-.65,0-1.74.48-3.38-.69-1.07-.62-1-.81-.75-.86-.4-1-.27-1.38-.21-2.41,0-.69.19-1.18,0-.68-.18-.62-1-1.7,0-1.41.2-1.25.08-1.15-.79-2.16-.35-2.81-.26-1-.6-.79-.71-.58-.57-.69-.46-2.37-.58-1.39-.76-1.27-.8-1-1.1-.9-1.34-.83-1.41-.61L141,130l-.6-.34-1.51-1.15-.58-.58-.84-.24-2.73.52-.73.57-1.2,1.64-.59.34h-2.53l-4.59-.85-.74-.64-.26-.5-2.27-3.36-.48-.43-.53-.17-.88.13-.65.31-1.13.84-.72.23-1.39,0-.57.26.28.15.63.66-.63.33-3.91.84-.67,0-.72-.36-.81-1.28-.52-.48-.61.29-.71.51-1.65.16-.76.34.35.42.39.27.42.15.47.05.39.23.87,1.12.38.38v.39l-.55.13-.3.48-.1.72.06.83-.59-.73,0-.84,0-.92-.31-.95-.58-.31-1.48.18-.76-.5-.8-.9-1.11-1-1.22-.73-1.13-.16.09-.46.06-.18.12-.25-.82.26.23,1.36,2.09,5,.59,2.38.18,1.37.09,1.44-.05,1.44-.22,1.33-.25.8-.19.35-1,1.11-.43.21-.41.28-.36.63.9,1.2.44,1.32.13,1.48-.11,3.56-.32,1.22-1,2.24,1,.65.84,1.36.41,1.75-.07,1.92.28-.66.28-.42.36-.61.5-.16.64.45.25-.23.18-.08.19,0,.27-.11-.37.7-.49.35-.5.23-.42.36-.3.61-.92,1c-.23,1.16-.47,2.31-.72,3.47l0,.77.43.45,1,.89,1.26-.37-.19,1.35.12,1.13.52.75,1,.17v.46l-.73.58-.25.57-.26.21-.8-.52-.7-.19-.61-.79-.28-1.59-.13-1.93-.24.54-.19,2-.51,1.33,0,2.61.7,1.18,1.57.93L102,176l-.53,1-.72.65.23-1.87.09-.26-.19-.09-.14.35-.15.4-.14.66c-.08.61-.15,1.22-.22,1.83l-.36.76-.89.31v.42l.61.08.68.3.43.46.07,1.47,0,1.7,0,.33-.11.35-.19.17-.19.1-.13.18-.21,3.18.09.63.1,1.41.1.9-.25,1.51-.33,1.47-.85,1.36-.44,1.11-.07.6.48.67c-.16,1.54-.31,3.08-.44,4.62L98,204.15l.22.27.09.36,0,1-.29.41-.33.3c0,.54-.07,1.07-.11,1.61l-.51,1.21-.57,1.05-.26,1,.09,3.7.18,1.07,0,1.21-.28,2.8.1.8.31.75,0,.63V223l.45.69.51.11.47-.3.43-.09.36.74-.11,1-.84-.28-1-.6-.45.07-1.21,7.8-.05,1.48.25,1,.82.49.78-.27.69.09.51,1.56-1.58-.74-.75,0-.32.93-.11,1.18-.8,3.58-.12.3-.36.54-.12.37,0,.35.23.55,0,.36-.3,2.25L94.3,250l-.69,5.18-.29,1.93-.06.42V258l.09.76.51,1.66.05.35-.2.61-.56.35-.12.5v2.47l-.12,1c-.46,3.23-.89,6.47-1.32,9.71l-.72,2.53v1.3l.42,1,.41-.75.4-1.43.41-1.05.82-.24,1.06.44,1,.7.58.56v.37H94l-.34-.19-.08-.4,0-.41,0-.18-.63.17-.33.58-.22.8-.32.84-.47.66-1.07,1.07-.5.79-.28.87-.34,2.79L89,287.42l-.11.69-2.68,8-.75,1.48.33.44.94-1.67,1.39-1.89,1.55-1.64,1.43-.95-.5,1.28-.07.56.14.29.28.33.29.43.35,1.42,1.57,2.2-.64.25-.89-.13-.85-.4-.57-.52-.31-1v-.77l-.1-.51-.61-.19-1,.64-1,1.39-.48,1.39.57.59-.21.45-.2.29-.28.13L86,300l.23.66.08.69v1.52H86l-.65-.68-.2-3.22h-.48l-.41.39-.82.49-.41.59-.3.7-.06.42.09.87L82.71,305l-1.65,8-.31,2.61,0,1.21-.2,1.22L80,319l-.59.83-.49.88q-1.77,4.44-3.55,8.87l-.82.67.76.5.45.55.29.71.74,3.24.41.72.6-.55.42.79L78.9,338l.53.92.58.52.64.38.51.53.2,1,.09,1.84.57,2.8-.51,2.75-1,2.21-.14.85.07.66.33,1.71.12,1.95,0,.89-.1.71-.32.94-.22.46-.4.4.3.44.44.42.2.12.42,2.14.14,1.3-.09.57L82,365l.56,1.28,1,6.15.3.57.6.37,1.92,2.41L89,377.66l.6,1.26H400.85q0-12.75,0-25.49,0-13.59,0-27.19,0-12.93,0-25.87,0-13.2,0-26.4l-.14-.78v-.45l-.34-1.37.68-1,.95-.76.48-.8.5-1.34.16-1.43.55-1.94.3-2.45L404,261l.19-.45.14-.47.07-.68-.32-1.26-1.18-2v-1l.44-.53.59-.09h.6l.46-.21.35-.61.18-.68.06-.71v-.68l.17-.33.3-.35.18-.43L406,250l-.86-.86-.74-.58-.95-.52-.23-.32-.33-.8-.09-.66,0-.68-.13-.54-.55-.21-1,.19-.78.35-.75.19-.89-.28-.36-.46-.26-.59-.31-.48-.57-.15-.59.23-.4.43-.35.52-.43.5L393.84,244l-.7-.78-.29-1.12,0-.62.2-.79,0-.62-.12-.78-.57-1.22-.2-.7.14-1.39.48-1.19.33-1.09-.45-1.63.29-.42.39-.36.2-.32.15-.77.37-.31.49-.14.47-.24.59-.73.58-1,.43-1.14.37-2.36.47-1.28,1.09-2.14,1.2-3.08.46-.87.8-1,2.62-1.73.8-.72.61-.74,2.31-3.87,1-2.13.34-1.13.47-2.85.07-1.27-.09-.18L409,201l-.21-.48-.1-.69.14-.62.35-.66,4.58-7.05.89-2.36.77-3.75.57-1.05.42-1,.13-2.54.17-1.3.56-1.11,1.5-1.77.64-2.06,2.05-2.64.17-.61.2-1.29.82-2.07.24-.42,1.28-1.48.59-.95.34-1.16,0-1.3Z"/><g id="UtNVxE.tif"><path class="cls-2" d="M142.32,264.29q5-15.3,10-30.63L126.2,214.73l0-.07h32.22l10-30.66h.07l10,30.67H210.6l0,.07-6.48,4.71-6.52,4.74-6.5,4.72-6.5,4.73q5,15.35,10,30.65l-.05,0-26.1-18.94-26.07,18.94Z"/></g></svg>