<svg id="Layer_1" data-name="Layer 1" xmlns="http://www.w3.org/2000/svg" viewBox="0 0 500 500"><defs><style>.cls-1{fill:#eee;stroke:#bcbcbc;stroke-width:2px;}.cls-2{fill:#e00000;}</style></defs><title>state_PA</title><path class="cls-1" d="M435.15,202.05l-.92-1.71-.52-.78-.46-1.28-.32-.62-.44-.27-.69.19-.58.29-.64,0-.78-.7-1.15-.72-2.93.18-1.45-.3-.84-.77-.59-.89-.74-.75-2.66-.66-1-.9-.81-1.24-3-6.54-.76-.75-.18-.82.37-4.11,0-1.65-.83-3,.2-.75.81-.68.19-.76-.26-1.74-.72-.72-1.05-.38-1.24-.68,1.37-1.73.24-.74-.75-.31-.57-.34-.87-1.5-1.62-.6-1.31-1.13-.76-.25-3.3.54-1-.76-.35-1.77-.12-2-.36-1.47-1.27-.89-1.87-.89-1.43-1.1,0-1.08-26.47,0-25.49,0-27,0-27.22,0-26.05,0-25.23,0-26.9,0-27.21,0-26.26,0H132.58c0-7.2,0-14.4,0-21.59L125,133.81l-2.62,1.94-2.47.82-2.7,2.27-2.55.94-2.94,1.91-1.45.45v-.59l.37-.36.74-1.07.3-.22,1.47,0,.63-.3.57-.71-1.35-.58-1.1.65-1,1-1.5,1-.77,1.85-.64.42-.53.18-1.71,1.47-9.88,5.52-3.8.8-.9.55-.95.8-3,1V272.67c0,4.49,0,9,0,13.47,0,9.08,0,18.16,0,27.24,0,6.15,0,12.29,0,18.43h26l27.57,0H371l.11-.12c1.36-2.26,2.75-4.52,4.13-6.78l1.05-1.08,1.34-.86,1.12-.55,1.91-.57,1.34-.23,2.64-.1,2.85.41,2.19.74,1.73,1.09,1,.94,1.59-2.08.92-.42,1-.26,3.69-1.81,1.45.58,1.47-.23,2.43-1.42,3.61-1.33.84-.79-.32-1.62.36-1.75.79-1.41,1-.57,1.34-.38,2-1.77,1.37-.56,2.08-1,.82-.55,2.35-2.64.92-.6,2.26-.72.6-.29,2.08-1.87.56-.31,1.53-.21,2-.65L433,299l.75-1.52-.64-1.7-1.52-1.66-3.19-2.77-1.88-2.31-2-2.87-.2-.46-.55-.75-3.12-2.77-.83-3-.77-1.33-2.35.88-1.33-.93-1.09-1.58-.6-1.46-.45-6.09-1-2.09-3-1-1.79.34-.76-.32-.46-2.18-.24-.82-.11-.83.28-.78-.23-2.48.06-.77.17-.58-.23-.79-.19-1,.23-1.06.81-2.25-.18,0-.23-.56-.07-.65.28-.3.45-.27.4-.61.55-1.33,1.09.51,1.22-.13,1-.79.41-1.44.3-1.9.72-.76.84-.58.59-1.36-.23-1.51L413,239,412,238l-.44-.67-.11-.46-.24-.26-.36-.09-.35,0-.23-.12,0-.29.05-.35-.05-.32-.69-1-.35-.63-.14-.55.63-1.25,1.34-1.24,1.43-1,.89-.38,1.32-.36,1.11-.91,2.46-3.11.21-.08,0-.21,0-1,.25-.38.58-.45.61-.38.43-.17.78-.64,3.1-4.21,1.42-3.49.58-2.2.05-.56.45-1.06,3.23-3,.12-.22.32-.78.17-.32.32-.22.64-.08.81-.73.6-.23,1.35-.08,1.18-.78,0-.14Z"/><g id="UtNVxE.tif"><path class="cls-2" d="M273.32,305.29q5-15.3,9.95-30.63L257.2,255.73l0-.07h32.22l10-30.66h.07l10,30.67H341.6l0,.07-6.48,4.71-6.52,4.74-6.5,4.72-6.5,4.73q5,15.35,10,30.65l0,0-26.1-18.94-26.07,18.94Z"/></g></svg>