<svg id="Layer_1" data-name="Layer 1" xmlns="http://www.w3.org/2000/svg" viewBox="0 0 500 500"><defs><style>.cls-1{fill:#eee;stroke:#bcbcbc;stroke-width:2px;}.cls-2{fill:#e00000;}</style></defs><title>state_RI</title><path class="cls-1" d="M301.2,226.76l1.93-.81,2,.2,1.43.92,1.15,1.51,1.18,2,.71-2.14,2.24-4.47.5-1.91-.6-2.65-1.36-1.51-1.54-1.14-1.08-1.53-.65-3.84-.2-5.35.2-5.05.65-2.95,2.07,3.1,1.47,3,.78,3.22.26,4,1.44,3.05,3.08,2.81,3.18,2,1.59.62.75-1.8.4-4.88.54-1,1.55.47,1.09,1.18.39,1.68-2.24,4.76-1.23,3.94-.9,4-.35,3.12,1.2,2.51h2.68l3.09-1.43,3.82-3.2.65-.22.11-.78v-3l.34-2.09.24-.45-5.26-9.08L325.41,211l-1.64-.54-1.94-1.08-2.74-2.13-1.94-2.58-.89-1.72-.31-1.42,0-1.2.79-7.63-.26-2.25,0-1.09.44-1.93.13-1.38.11-1.61-.34-2.56-.6-.83-1.34-.27-3.19.2-1.33-.37-.5-1.18-.26-1.5q-.45-10.64-.89-21.28l-.2-3.07-8.74-.12-27.91.57-24.93.5-8.13.17q.1,13.07.19,26.12.1,13.82.22,27.63.09,12.45.18,24.91.1,13.52.21,27l0,5q-.67,11.55-1.43,23.1l-2.19.58-1.1,1.79-1,3-1.48,11.27-1.05,4.42,15.37-2.16L274.59,297l7.76-.35,2,.64,3.77,1.87,1.69.41,1.6-1,.73-2.09.42-2.11.63-.94,8.7-16.83.45-3.94-.19-11.75-.86-3.5-2.22-4.52.94-2.28,2.28-2.14,1.9-4.15.35-4.53-.55-4.49-1.65-3.43-3.92-2,.84-1.53Zm12.18,29.86-.2-1.87-.6-1.35-1-.86-1.54-.38-2.53,7.92-.45,3.63,1.83,2.09-.54,1-.29.82-.45.72-1.15.69.65,2.69-1,5,.34,1.47,1.05-.3,1.44-1.39,1.35-1.69.78-1.21,1-2.91.84-4.29.55-4.93Zm21.08-21.25-4.23,2.71-1.68,1.82-1,2.6-1,6.25-1,2.55-1,.79-2.49,1.48-.49.89.1,3.25-.15,1.58-.55,1.23-1.63,2.3-.6,2.35.73,2.55,2.1,2.95-1.89,1.54-5.28,2.4-1.08,1.2.53,3.15,1.41.83,1.94-1,2-2.2,3.33.53,2.94-3.49,3.54-3.15,5.25,1.53-.73-2.48.1-2.06.4-2.14.23-2.63.16-16.85,2-7.67v-4.6ZM279.37,340.31l-1.1-2.21.5-3.21-.21-2.18-.44-1.57-.89-.88-1.8-.06.44,3.18-.39,2.4-1.39,1.51-2.74.52-1.23,1.47-.6,3.22.64,3.24,2.34,1.49,4.91-.92,2.45-1L281.1,344l-.39-1.91Z"/><g id="UtNVxE.tif"><path class="cls-2" d="M267.32,256.29q5-15.3,9.95-30.63L251.2,206.73l0-.07h32.22l10-30.66h.07l10,30.67H335.6l0,.07-6.48,4.71-6.52,4.74-6.5,4.72-6.5,4.73q5,15.35,10,30.65l0,0-26.1-18.94-26.07,18.94Z"/></g></svg>