<svg id="Layer_1" data-name="Layer 1" xmlns="http://www.w3.org/2000/svg" viewBox="0 0 500 500"><defs><style>.cls-1{fill:#eee;stroke:#bcbcbc;stroke-width:2px;}.cls-2{fill:#e00000;}</style></defs><title>state_TN</title><path class="cls-1" d="M423.33,221.34l-10-.41-.36,0-.36.1-.87.77-.33.14-16.78-.09c-9,0-17.91-.08-26.86-.13l-26.07-.14-1.11.53-1.45.4c-2.29-.08-4.58-.18-6.87-.25l-27.48-.95q-12.54-.42-25.07-.87l-26.61-.93-26.87-.94-.35,0-1.46.33h-.1q-13,.18-26,.33t-26,.31l-.24.07-.21-.21-.17-.28-.3-.7-.19-.28-.32-.1-8.07-.8-.21,0-.07.08v.24l.1.5.73,2.39.53,2.61.07.79,0,1.83-.13,1.17H107.64l-.11.28-.91,1.14-.68.64-.52.28-1.06-.29-.07-.74.38-1,.12-.42-2.66.06.16.2.34.73-.27.94-.08.78.91,2.08.13,1.14-.44,1.1-.74.49-1,.14-1.06,0-.78.4.1.92.6,1,.78.73,1,.33.41.33-.16.56-.41.31-.5.14-3.78.13-.74.26,2.21,3.24,1.07,2-.36.91-.64.16-.79.41-.66.49-.27.48-.17.82-1.25,2.08-.39,2.08.75,1.27,1.07,1.11.54,1.52-.28.95-.62-.17-1.19-1-.88.11-.77.37-.6.64-.4.92,1.07.52,1.08.78.37.91L93,262.39l-6.21,2.73-.58.67,0,.89.62,1.15,1.14,1.49V270l-.74.79-.68.56-.26.46.17.59.64.92.54,1.2-.42.63-.92.26-1,.13-1,.29-.49.51-.19.83v1.28l-.21.81-.49.82-.62.72-2.17,1.8-.5.79-.18,1.15,0,2.27.17,1,.8,2.46.41,2.07,0,2-.83,1.22-.83-.05L78,295.22l-1,0-.42.85-.08,1-.27.85-.43.75-.6.64-1.5.84-1,.39-.77.15-.45.37.34.62h6.77l26.43,0c8.8,0,17.61,0,26.41,0s17.85,0,26.78,0l-.46-1.3c4.94,0,9.87.11,14.81.16,8.72.11,17.45.19,26.18.3l26.36.31q13.26.13,26.52.3c8.71.12,17.41.12,26.11.12H304.4l.29.11,10.26.52c.32-3.65.64-7.3,1-10.95L316,291l.08-.21.24-.47.48-.58.72-.7.25-.2.33-.17.63-.2h.34l.25.1.32.32.18.14.2.1.27.05h.59l2.19-.25h1l.16,0,.28-.19.4-.32.79-.79.34-.46.19-.41.06-1.58.06-.27.17-.51.12-.24.7-1,.13-.24.07-.25,0-.29,0-.25-.18-.65v-.18l0-.2.08-.18.14-.23.92-1,.3-.24.36-.2,1.7-.6.28-.17.32-.35.2-.25.65-1.34.26-.22.34-.2.68-.24,1.29-.27.34-.15.39-.22.64-.5,1-.59.8-.3.82-.21h.27l1.44.12h.15l.15,0,.39-.13.27-.06h.26l.26.05.25.06h.37l.45-.07.8-.26.39,0,.3.09.17.17.19.17.22.14.27.09.29,0,2.68-.54.25-.13.28-.22.92-.87.42-.5.26-.24.36-.25,2.2-.93.54-.44.44-.49.6-.55.36-.19.42-.07h.36l.3.07h.32l.26-.13.84-1.14.86-.86.13-.18.25-.17.31-.18,1-.38.41-.25,1-1,.26-.17.32-.14,1.41-.42,2.13-1.1.23-.09h.21l.48.13,1.7.16.58.16.26-.07.32-.22,1-1.23,1-1.5.22-.45.07-.25.08-.51.13-.22.47-.59.1-.31v-.25l-.35-.81-.06-.24-.05-.27,0-.27,0-.28.09-.27.1-.22.13-.22.25-.2.32-.15.63-.13h.43l.35.09.51.23.58.4.42.37.21.07.27,0,.24-.16.24-.38.09-.29.2-.42.48-.54.12-.21.07-.23,0-.72.06-.19.09-.15.06-.06,2.78-1.52,1-.36,2-1,.38-.09.3.06.17.17.68,1,.06.14v.16l-.06.21-.26.61-.06.39,0,.29,0,.29.22.65.12.21.15.19.15.19.21.15.24.13.26.07h.28l.25-.05.36-.17,1.87-1.17.19-.1.18-.12.27-.22.3-.33.74-1,.18-.32.53-1.18.42-.57,1.42-1.49.72-.56.66-.34.38-.16,1.44-.4,1-.5.34,0,.86,0,.23-.1,1.26-.91.46-.22.21,0h.16l.21.07.39.29.23.11.26.05.56,0,.24.05.23.09.17.13.13.16.08.23,0,.24,0,.24.06.25.07.21.16.2.18.15.23.15.26.13.61.17.33.05.29,0,.34-.15.4-.25.66-.59.38-.19.41-.37.32-.42,4.1-7.72.16-.24,1.12-.9L417,234l.21-.08h.2l2.15.72,1.26.17.19,0,.09-.14-.07-.27-.12-.23-.54-.77-.44-.87-.07-.22,0-.35.14-.46,1.05-2.12.66-1.84,0-.46-.58-1.22-.07-.24.36-1Z"/><g id="UtNVxE.tif"><path class="cls-2" d="M186.32,283.29q5-15.3,10-30.63L170.2,233.73l0-.07h32.22l10-30.66h.07l10,30.67H254.6l0,.07-6.48,4.71-6.52,4.74-6.5,4.72-6.5,4.73q5,15.35,10,30.65l-.05,0-26.1-18.94-26.07,18.94Z"/></g></svg>