<svg id="Layer_1" data-name="Layer 1" xmlns="http://www.w3.org/2000/svg" viewBox="0 0 500 500"><defs><style>.cls-1{fill:#eee;stroke:#bcbcbc;stroke-width:2px;}.cls-2{fill:#e00000;}</style></defs><title>state_TX</title><path class="cls-1" d="M323.22,393.51l.34,1.3.23.64.3.5.12.29.33,1.69.25.64.64,1.17.22.68.3,2.31.25.78.47.78.2.5.53,6.16.21.53.24.17.22-.53,0-.52-.28-1.61-.4-.91-.06-.61,0-1.29-.11-.68-.38-1.22-.23-1.79-.17-.67-.24-.38,0-.36-2.82-9.36-.9-5.28-.21-7.75.18-.6-.39.45L322,380l-.22.63.22.54,0,.57-.2,1.14.06.6.25,1.11.22,2.83-.06,1.06-.26,1,.81,1.19.11.24,0,.13.14.24,0,.16-.06.11-.27.07-.05.12,0,.24.06.22.11.19.18.18-.2.22Zm7.65-34.64-.21.8-.18.32L329.35,361l-.74.91-1.48,3.24H327l-.2-.33-.3-.22-.64-.26.12.48.15.35,0,.28-.41.32.09.6-.49.8-.61.81-.3.61-.06.35-.49,1-.13.41-.22,1.25-.84,2-.45,3.34-.21.5.25.15.19-.09.3-.47.44-1,.56-2.51,1.6-4.28,2.51-4.88,3.42-5,.3-.32-.23-.27Zm5.76-8.84-.35-.15-.34.17-.2.33-.14.31-.2.22L335,351l-1.58,2.71v.16l.52.14v.19l-.17.34-.13.19-.8.86-1,1.46-.36.92.23.56.16-.6.38-.59,1-1.13,1.11-1.67,2.39-2.69.08-.29,0-.68.08-.31-.08-.25Zm12.11-8.12-.13,0-.18.07-.24.06-.1.13,0,.65V343l-.33.56-.33.17-1-.11-.59.08-.35.2-.56.58-1.25.57-.21.16-.26.31-1.14.61-.26.54-.23.18-1,.63-.32.13-.44.07-.88.28-.55.07-.45.23-.12.53.09.58.2.34v.2l-.32.31-.3.49-.22.57-.09.54h.2l.21-.53.32-.45.75-.71,1.45-1.07.68-.74,2.54-1.34,1.49-1.28.85-.56.89-.22,2-1,0-.12.23-.36.07-.24,0-.25,0-.81Zm2.55-1.91-1.53,1.35v.23l.53-.05.44-.31.69-.7.67-.18.2-.29.58-.43.21-.13,0-.07.09-.08.11,0,.21,0v-.21l-1.15.33Zm40.23-27.54,0-.18-.1,0,0,0,0,.19v-.21l0,.09v.09l0,.05-.14,0v.21l.47.08.08.39-.18.41-.27.19-.05,0-.6.17-.13.16-.22.47-1.14.91-.1.14-.41,0-.32.09-.2.22-.07.42-.32.45-2,1.25-1.11,1-.51.57-.33.67h.18l.47-.6,3.9-2.79,1.22-.46,4.07-3.35-1.67-.61Zm35.4-52.84-.37-.33-.73-1.17.06-.35.25-.42.07-.32.07-1.4-.14-.51-.49-.12-.53.13h-.17l-.06,0-.08-.06-.08-.08-.07-.11-.06-.17-.11-.84,0-.17-.15-.23-.08-.16-.07-.22-.05-.25-.06-.18-.07-.15-.09-.13-.3-.32-.69-.59-.12-.14-.09-.19-.05-.34,0-.21.05-.19.12-.28.08-.13.34-.43v-.11l0-.09-.38-.25-.41-.45-.27-.37-.09-.21-.08-.27-.07-.5-.08-.27-.08-.19-.12-.09-.15-.07-.32-.09-.12-.06-.11-.08-.08-.15-.05-.14-.06-.25,0-.15.07-.13.29-.19h0l0,0,.07-.08.07-.17v-.17l-.09-.13-.13-.08-.16-.07-.65-.2-.15-.08-.14-.09-.23-.19-.73-.8-.26-.37-.17-.29-.07-.18-.1-.31v-.46l.11-.33.12-.22,0-.18,0-.26,0-.89,0-.29.13-.5v-.18l0-.16-.06-.12-.08-.11-.1-.09-.09-.25-.1-.37-.19-1.22-.07-.29-.69-1-.2-.4-.11-.31-.13-.3-.24-.42-.37-.48-.52-.55-.24-.2-.89-.45-.12-.08-.11-.09-.1-.12-.55-1-.13-.15-.33-.26-.18-.1L413,230l-.15-.17-.05-.11,0-.07V197.29l0-3.85,0-3.84,0-3.84,0-3.86,0-2.09v0l-.25-.11-.41-.2-.78-.58-.5.25-.56,0-.53-.14-.92-.54-.41.15-.35.32-.37.16-1.31-.67-.45,0-.28.38-.19.52-.28.28-.55-.3-.57.28-.5-.1-.19-.31.34-.33v-.21l-.68.11-.66-.19-.49-.47-.2-.67-.27-.59-.46-.11-.14,0-.69,0-.5-.24v.22l-1.28-.44-.39-.21.08-.18.09-.12-.57-.06-.72.12-.2-.27-.31-.19-.37-.12-.39-.08-.17,0-.31.15-.2,0-.15-.07-.23-.28-.47-.24-.43-.76-.39-.18-.32,0-.69-.22-1.77-.31-1-1-.39-.7-.15-.2-.26-.19-.24-.11-.17-.2-.07-.49-.07-.16-.17-.17-.21-.15-.2-.06-.94,0-.41-.14-.44-.29-.86-.88-.47-.33-.85-.21-.15-.18-.1-.23-.15-.19-.31-.2-1.78-.61-.45.07-.51.42-.16.49,0,.56-.15.35-.31-.17-.16.25-.21.14-.25.09-.29.18-.3-.18h-.19l-.08.3,0,.25-.06.14-.11.08-.18.08-.23,0-2.26-.07-.3,0-.17-.22-.18-.14-.21-.07-.25,0-.12.07-.16.14-.15.05-.05-.14-.11-.15-.07-.11v-.06h-.86l-.34-.2.26-.46-.21-.51-.3-.24-.35-.19L371,167l-.36-.14-.3.28-.36.62h-.21l-.45-.17-.09.07-.64.34-.27.07-.3.17-.27.22-.18.21-.28,0-.41.06-.88,0-.19.2.12.92-.3.21-.18-.07-.16-.15-.14-.23-.22.07-.15.16-.16.22-.76.13-.32-.08-1.53-1-.29-.3-.28-.08-.33.2-.29.3-.12.24h-.19l-.42.22-.5.35-.91.39-.39.05h-1.38l-.27.07-.55.31-.3.07-.26.22-.48,1.12-.26.42-.51.32-.49.06-1.15-.13-.71.1-.17.29v.48l-.15.68-.75.53-.81-.77-.76-1.21-.63-.77-.5-.1-1.84.1-.2-.1-.1-.26-.06-.3-.09-.24-.16-.14-.59-.3-1.11-.34-.33-.37-.11-.12-.08-.14,0-.16v-.18l.05-.15.3-.61-.08-.19-.22-.23-.67-.28-.37-.1-.28,0-.13.07-.12.12-.17.27-.35,1-.08.15-.08.13-.1.13-.12.11-.2.09-.28.08-.52.07h-.29l-.23-.05-.15-.08-.7-.53-.28-.14-.23,0-1,.13-.26,0-.2-.06-.13-.1-.32-.34-.17-.26-.13-.33-.17-.91-.11-.33-.14-.15-.18-.15-.37-.16-.26,0h-.23l-.93.17-.15.07-.15.08-.19.25,0,.43-.06.78-.43.88-.41.55-.6.16-1-.26,0,.5.19.22.22.16.1.33-.12.23-.52.31-.11.35-.06.94-.24.83-.51.53-.85,0-.64-.41-.53-.73-.37-.86-.13-.78.12-.55.51-.82.12-.53-.07-.39-.2-.37-.31-.31-.34-.25-.17.1-.33.14-.16.1-.12.15-.09.24-.47.83-.16.21-.71-.65-.33-.09-.44.29-.05.11-.15.33-.09.13-.13.15-.29.17-.12.11-.21.16-.3.1-1.76.11-.43-.27-.17-.75-.07-.67-.22-.42-.4-.23-.61-.11-1.74.12-.4-.24-.25-.61,0-1.21-.24-.54-1-.5-1.07.35-1,.77L311,169l-1.06.65-1.19.2-1.15-.37-.61-.33-.27-.32.07-.48.05-.2,0-.34.19-.67v-.31l-.19-.35.17-.38-.05-.33-.2-.27-.27.08-1-.34-1.34-.27-1-.52-.05-1.07-.13-.7.1-1,0-.86-.43-.37-.68.1-1.27.46-.83.11-3.62-.46-.69.19-.43.47-.32.59-.4.54-.15.3-.65.12h-1.36l-.41-.24-.9-1-.35-.25-.18-.17-.43-.78-.3-.17-.89-.2h-.33l-.61.12-1.81.75-.32-.18-3.4-.73-.54-.2-2-1.33-.61-.14-.43.1-.43.19-.57.09-.55-.08-1-.31-.55-.08-1.26.06-.61-.12-.46-.38-.11-.52-.07-1.77.1-.39.11-.26-.47-.57-.83-.74-.26-.52-.17-.59-.26-.49-.55-.21-.51,0-.27-.06-.24-.11-.23-.23-.12-.24-.07-.22-.13-.2-.5-.36-.41,0-.27.38-.16,1.62-.22.49-.4.21-.64-.07-.57-.22-1-.58-1.31-.18-.23.06-.24.16-.31.36-.2.15-.49.16-1.64-.16-.5-.16-.35-.36-.53-.81-4.56-4.39-.27-.17-.6-.11-.25-.15-.41-.13-1.22.18-.44,0V82.82H170.28l-1.14,0,0,.6v1l0,4.66,0,4.64,0,4.64,0,4.63,0,4.62,0,4.61,0,4.6,0,4.6,0,4.59,0,4.58,0,4.57,0,4.57,0,4.56,0,4.55,0,4.54,0,4.53,0,4.53,0,4.52,0,4.51,0,4.5v4.5l0,4.49v4.48l0,4.48v4.47l0,4.46v4.45l0,4.45v4.43l0,4.44v4.43l0,4.42H71.15l0,.53.56,1.14.15.67.08.74.2.55.66,1-.2.23.19.37.25.27.31.18.38.07.35.23,1.61,1.67.53.13,1.2-.11,1,.4.9.89.74,1.13.51,1.06.7,2.17.32.55,1.13,1.35.27.48.11.32,0,.19,0,.15.16.21,1,.54.28.39.62.27,1.14.33.91.56.52.2.68.08.44.17,1.18.81.34.31.18.28.21.53.17.29.52.29.32.24v.12l.46.16.49.39,2.09,2.43.19.58.26.4,2,1.34.46.18.2.12.66.76.54.42.48.27.41.33.33.61.35,1.11.26.45.68.33.93,1.11,2.19,1.7,1.07,1.35.33.28.8.21,1.55.76.17.16.14.18.16.18.29.13h.14l.11-.07.18-.24.11,0,.29.11.17,0,.19.11.27.45.27.11h.28l.21.09.12.2,0,.34.09-.05.12.08.35.4.19-.23,1.26,1.5.51.22.5.12.59.27.52.42.35.48.07.32,0,.35.06.34.18.27.27.08.86.13.18.1.16.35.82.94.32.55.06.32,0,.65.07.31.45.28.1.16v.18l-.15.36,0,.21.06.34.27.42,0,.31,0,.46,0,.2,0,.16.23.36.2.21.36.22.16.21.06.26,0,.36.05.31.15.13.51.33.39.76.34.85.33.62.2.14.47.24.26.26.53,1.11.38.48.08.7,0,1.13-.12.72-.37,1.11-.08.62.07.75.5,1.71v.27l-.06.49,0,.3.11.17.35.43.08.14.11.32.51.62.38,1.45.11.26.49.57.49.38.36.47.23,1.3.48.9.18.44,0,.45v.31l.12.31.39.41,1.28.9.38.38.08.19.1.29.13.26.16.12.2.09,2.2,1.39.29.43.49-.26.75,0,.69.2.43.55.65.48.23.1.18.16.48,1.1.88,1,.6.5.93.46,1.29,1.44,1.05.57,2.46.85,1.73.36,1.89.12.29.09.25.22.14.31-.23.69.19.16.31.1.26.12,1.27,1.08.8.45,2.38.57.74-.05.2.05.24.18.09.2.07.23.16.25,1.39,1.38,1.16.64.32.11.24.17.76.72.39.15.31-.18h0l.23-.29h0l.24-.06.33.53.16-.09.4-.13-.17.65.39.24,1.63,0,1.47.41,1.06.16.69-.36.36-.82.12-1.06.26-.08.1.08.16-.55.13-.3.22-.19,1.08-.58.23-.18.23-.33.74-1.55.32-.3.19-.18.6.33.14-.26,1.23-.92.73-.14.3-.13-.25-.35-.65-.44-.21-.29,0-.37.37-1.2v-.57l0-.32.17-.22.32-.27.15,0h.16l.2,0,.23-.14h0v-.13l-.21-.44,0-.18.25-.41v-.37l-.11-.35-.06-.35.06-.42.13-.29.19-.28.86-2.29.24-.19.15-.24-.14-.41h0l.26-.13.06-.11-.15-.39.33-.16.17-.18.26-.53v-.07l.44-.84.11,0,.13-.43.79-1.4.07-.34,0-.27.06-.23h0l.21-.21.2,0,1,0,.48-.12,1-.54.5-.19.11,0,.13.32.14.07.18,0,.08-.07h0l0-.07h0l.28-.23.22-.38.21-.07,3,.22h0l0-.1.65-.95.09-.32.06-.83.1-.29.21-.21.33-.07.3-.12.26-.57h0l.25-.15.51.14.35.36.36.26.48-.12.13.56.37.19,1,.1,1.27.67.31.27,1,.42,2.57-.28.72.19.42-.41.42.14.38.32.36.18h.26l.24-.06.23-.1.18-.16.22-.13.28.05.53.18h.91l.31-.22h.18l.08.32.23.18,4.39.62,1.41-.18.42-.15.29-.32.12-.59.08-.14.2.07.2.21.09.3-.06.16-.24.54-.09.25.57.15.44-.24.42-.37.52-.18.23.08.18.41.26.15.3,0,.29,0,.28-.08.24-.13-.11.39.07.4.2.38.43.68.19.56.32.74.19.29.23.23.34.17H216l.23.15,0,.49-.23.66,0,.45.3.12.47-.42.68-.39.67-.08.4.39,0,.8-.23.93.1.43.27.28.3,0,.28.08.24.17.51.65.78.42,1.81.57.81.29.23.53.09.88.11.44.16.32.22.29.27.25.29.19,2,.9.63.57.53.69.21.17,1.29.62.55.41.35.45.57,1.06-.22.65.21.43,1.43,1.17.07.17.14.2.3.08.34.05.25.1.22.42.23,1.78.53,1.22.1.64-.24.66.19.2.11.25.05.32,0,.41.14.21.33.24.32.32.15.5.08.11.4.2.14.11.08.24-.16.38.08.21.19.1h.39l.18.1.11.17.14.32.11.15.16.31.68,3,.35.68,1,1.3,0,.53.31.22.63.31.27.21.12.3-.05.73,0,.34.37.63.55.37,1.12.45h0l-.78.42h0l-.14.23,0,.34.2.24.22.18.1.17.13,1.12.25,1.08.77,1,.42.69v.5l-.17.56.25.59.47.51.46.33.76.14.18.07.08.25.05.43.1.41.23.18.44.09,2.65,1.33.5.52.2.66,0,.42.08.21.36.42.38.33.2.06v.16l-.08.21v.19l.17.52.2.4.25.38.39.47.4.16.57.12.34.23-.31.45.27.45.42.55.47.46.43.2.06.15-.11.31-.23.47.09.34.21.17.25.15.21.27,0,.28-.08.67,0,.29.14,0,.36.3.32.34v.17l.67.14.35.32.23.4.33.39.25.15.48.15.2.11.11.26.06.36.09.31.21.13.46.73.15.13h1l.17.16.27.52.11.13h.3l.57-.32.33-.09.26.14.33.58.17.14.46.14.55.27.53.49.22.46v1.22l-.08.7,0,.32.15.13.42,0,.22.12.1.24.1.44,0,.13,0,1.13-.08.37-.24.69-.08.6-.15.4,0,.32-.1.29-.43.49,0,0-.18.32.76.3.19.11,0,.09,0,.24.08.11.3.16.08,0,.38.47.3.49.19.55.06.58-.11.58-.39,1.31-.06.61.06.14.12.17.12.22.05.28-.07.26-.53,1,.49.68.1.17.41.34.24.09h.23l.22.05.17.25.07.33v.62l.13.33.24.26,1.08.87.3.4.87,1.06.39.51.45.47.4.51.38,1.31.34,1.44,1.09,3.2.08.48.19,1.5.17.71.65.27.7.18.33.4.31.85.06.38-.12.35-.23.38-.18.38.06.34.57.46.52.08.5-.06.54,0,.13.09.18.27.16.05.18,0,.46-.19h.66l.23.17.24.47.41-.41,1,.72.62-.12.26.17.26.08.23-.06.17-.19h0l.31.17.2-.06.19-.12h.25l.14.12.41.49.93.59.28.36-.1.51.37,0,.35,0,.32.12.27.27-.34.4.05.16.24,0,.22.06.55.54.3.19.36.07,1.59-.61.78.42.85.21.77.32.56.68.35-.44.08-.1.74.25.87.5.75.21-.22.61v.3l.31.11h.72l.17.21.63.95.25.3,2.11,1.08,1,.3,1,.05,1.28-.34.53.12.23.73.25.13.58-.19.84-.45.38,0,1.56.23,1.72-.2H311l.53.15.05.46.37.11,2.36.15.53.12.5.24.51.41.26.39.22.48.29.4.79.35,1.21,1.25.49.33.43.18.46.08.57,0,.18.21.16.48.28.43.57.1.12-.1h0v-.17l.05-.15h.21l.18.15.09.22.11.19.27.08.54-.24,0-.59-.19-.67-.08-.56.11-.16.62-.45.47.33.63-.19.15-.14.34-.33.08-.49.36-.09,1.31.09,1.8-.15,0-.26-.09-1.34-.06-.85-.23-.82-.35,0-.29.18-.11.44-.06.54-.09.48-.2.32-.25.18-.67.31-.15.15,0,.14-.08,0-.28-.14-.14-.12-.1-.18-.13-.5v-.4l.32-.72,0-.53.38.18.29-.07.17-.28.1-.45-.32-.13-.34-.07-.74,0-.33-.05-.26-.14-.19-.14-.16-.05-.33-.35-.13-.81,0-.9.14-.63-.38-.61-.13-.27,0-.35.09-.24.18-.21.08-.23-.16-.34-.21-.17-.18,0-.19.09-.25.06-.23-.29v-.63l.16-.64.25-.29.16-.12-.12-.23-.2-.13-.11.16-.06.1-.13.14-.19.11-.19,0-.05-.19.24-.6v-.25l-.17-.06-.58-.05-.2-.08-.15-.37,0-.41-.14-.32-.49-.13-.35,0-.07-.11.07-.28.08-.85.15-.45,0-.27-.93-.31.72-.22.25-.21.14-.39.08.15.18.27.09.21-.16-1-.61-2-.28-2-.65-1.94-.18-1.32-.13-.5-.22-.45-.34-.32-.43-.14H318l-.3-.09-.2-.38v-.41l.07-.61.13-.56.18-.29.3.13,1.2,1.12.32-.58-.36-.39-1.07-.49-.31-.36-.24-.43-.15-.54-.08-1.3.05-.33.29-.13,1.51-.11.38-.28v-.5l-.33-.77.31-.31-.18-.42-.27-.38,0-.15.42-.05.42-.16.34-.24.2-.37-.07-.39-.19-.47-.08-.41.25-.17.11-.24.05-.53v-.56l-.06-.32.32-.13.18-.33,0-.41L321,376l-1.8.57-.51.36-.52.23-.67,0-1.34-.31-.59-.24-.41-.27-.44-.23-.68-.09-1.33.1-.61-.17-.37-.57.66,0,.64.15.64.06.65-.23.3-.39-.13-.32-.4-.12-.54.24-.06-.12,0-.09,0-.21.55-.28-.33-.62-1-1H313l-.27-.62-.93-.93-.1-.72.85.57.68.67,2.17,3.13.08.28v.26l.1.19.36.07.3-.05.15-.15,0-.2-.09-.19.5-.74.25-.11.17.43.43-.38.21-.13.3-.12-.2-.41.34-.2.62-.62.52-.23-.12.57,0,.58.1.36.22.1.19,0,0-.11.19.16.13,0V374l-.21.27-.19.1-.29,0-.54,0,.1.12.05.1.07.1.15.1-.33.3-1,.52.51.36.39-.12.58-.66,1.75-.72.29-.21.08-.68,1.12-3.13.38-.46.09-.31.09-.6.47-1.34.82-1.55.1-.24.07-.68.08-.33.14-.25.32-.41.27-.48.08-.48-.21-.39-2.4-1-.42-.41-.7-.87.18-.22-.09-.32.23-.86-.14-.48-.2.27-.31.13h-.34l-.26-.18-.87.2-.63-.1-.48-.42-.44-.73.45-.18.11,0,.23.07.08.14,0,.12,0,.07.15.05.22.11.2.05.15,0,.07-.28.15-.09.75-.07,1.52.06.71-.19-.09.21,0,.12-.06.11-.19.17.67-.05,1.1-.47.63-.09.46.15.39.33.35.45.3.51h-.55v.23l.7.09.61-.45,2.12-3.06,1-1.8,0,.09v.09l0,0H331l.45-.91.18-.25.29-.29.06-.14,0-.2,0-.42.17-1.18-.09-.35-.28-.24-.19.09-.11.06,0,0,0,.09.1.15-.44.52-1.31.54-.28.51-.05.39-.14.41-.18.34-.21.22-.31.13v-.14l.12-.3v-.31l-.26-.44-.39-.34-.5-.21-.59-.07-.24-.3.51-.68,1.12-1.12-.43-.14-.12-.3.12-.33.23-.26.32-.06.39.12.21.23-.19.32.75-.19,1-.44,1-.6.43-.65h.17l.18.44-.15.93.17.32-.09.15-.08.11-.09.09-.11.06,1,.32.3-.12.38-.61.29-.63.14-.52-.07-.43-.36-.32.64-1,.37-.45h.32l0,.45-.28.51-.16.55.4.58-.39.49-.25.5-.31,1.11.46-.21.88-.23.42-.3.95-1.3.45-.48,1-.6.28-.4-.52-1.15.12-.54.26-.53.17-.54-.39-.75-.8-1-.52-.85.43-.4.37.21.56.41.52.24.22-.31-.08-.48-.21-.34-.65-.55-.25.11-.07-.19.08-.3.24-.23.22-.14.23.23.49.75.12.11.3.17.13.12.05.2,0,.29.06.25.14.11.49.05.25.17.09.35,0,1.12.15.49.29.26.44-.14.48.38,2.95-1.65.42-.13.92-.58.53-.12,1.94-1-.08-.73-.77-.69-1-.38-.81.23-.3.25-.46.25H345l-.2-.51.24-.05,1.43-.7-.22-.57-.15-.24-.19-.22-.18-.15-.56-.27-.79-.54-.32-.1-.27.28-.21,0-.24-.31v-.23l.16-.73V335l-.07-.31-.11-.22-.76-1-.23-.48-.11-.54,0-.77.31.18.13.1.11.16.35-.2.37-.05.36.11.33.25.22.28.08.2,0,.23.11.42.05.24v.21l0,.19.13.22.13,0h.37l.16.08.29.09.33-.09.27,0,.12.25.23.74,1-.71.24.58-.17.6-.41.12-.49.06-.41.39.83-.14.94-.37,1.57-1-.91-.28-.37-.24.09-.43.09-.27-.07-.23-.09-.21,0-.24.1-.13.18-.12.17-.18.07-.29-.08-.24-.21.09-.23.2-.2.06-.18-.25-.2-.46-.15-.55,0-.45h.17l.09.26.49.79.1-.12.26-.15.16-.14.39.4.15.47-.06.45-.27.36.13.28.79.78.16.3v.21l.11.06.47-.13.56-.35.72-.88.56-.27-.16.41.6-.38.37-.16.42-.07.55,0,.18.11-.11.31-.62,1-.14.34.14.23.55.08.37-.06.35-.12.39-.08.46.05v.21h-.17l-.43.36-1.23.13-.48.25-.11.47.58,0,1.28-.38,1.6-.75.55-.1.37-.15,1-.6.54-.09.51.28.17.5-.1.47-.29.22-.58.12-3.89,2-.91.67-.66.8.83-.38,1.74-1.08,1.56-.51,1.66-1.32,2.78-.65,1.76-.88,3.19-2.12-1,.1-1,.4-3.72,2.12-.08.08-.17.06-.19,0-.13,0-.11-.19,0-.11.07-.12,0-.51.11-.29,0-.31-.16-.37,3.64-1.35,1-.1,1.25.07,1.22-.09,1.19-.29,1.16-.56,3.1-2,1.85-1.31.47-.18.61-.07.31-.2,1.45-1.27,1.47-1.64.76-.43,2-1.55.21-.39.05-.41,0-.53-.21-1.29,0-.66.24-.69-.34-.8-.21-.25.47.24.43.06.35.17.23.58.74-.43.63-.48,1.79-2.06v-.09l0-.24,0-.09.07,0,.24,0,.08,0,.55-.41.24-.26.13-.39h.18l.43.35.42-.25.31-.59.12-.67.21-.61.51-.15.56.15.41.3.08-.13.08,0,.09,0,.11,0-1.21-.55-.35-.07-.29-.21-.75-1.28,0,.06v.1H389V310l.12.11v.23l-.7,0-.11-.41,0-.51-.46-.34v-.21l.39-.13.39-.19.32-.3.2-.43-2-.62-.89-.57.22-.83.29-.3.41-.54.15-.52-.9-.47-.15-.52.16-.57.5-.37-.12-.29-.17-.11-.24,0H386l-.28-.07-.24-.18-.41-.5.13-.15,1.63.05.85.52.82.74.82.39.87-.59.43-1.05.29-1,.2-.29.48-.27,1-.4.62-.35.23-.06.21.14.12.58.23.13.5.13.12.33v.48l.2.56-.23.68-.34,1.48-.37,1.12-.49,1-.35.47-.28.13-.38.06-.3.1-.05.26.2.27.28.12.33,0,1.4-.21,4-1.16.49,0,.43.19.43.4.53.21.4-.31.25-.23,0,.44-.18.55-.34.26-.47.06-1.36-.08-.24.08-.31.19-.82.86-.2.14-.28.12-.3.1-.64.11-.7.37-2.19,2.15-.23.42.11.29.63.12.56-.25,1.4-1.67,1-.72,8.63-3.91,3.23-1.22,2.28-1.28.8-.36,1.14-.35.6-.07,3.28.07.8.23.31,0,.43-.54-.44-1-1.47-1.71-.64-1.15.21-1.11,2.13-3.06.26-.57.11-.57.31-.14.71,0,.53.06h0l.55-1,1.59-1.81-.2-.37,0-.29.35-.62.18-.71,0-.5-.1-.44-.06-.58-.06-.2-.26-.46-.06-.31,0-.35.26-.62.08-.31-.13-.71-.39-.44-.41-.38-.19-.48-.1-1.38.08-.6.39-.7.65-.82.21-.42.07-.58,0-.25-.34-.94,0,0,0-.61-.07-.14-.21-.14-.08-.16v-.62l.24-.55.41-.39.53-.15.05-.33.4-1.55.22-.49.93-.74.26-.45.22-1.5,1-1.81.15-.52,0-.28v-.37l0-.35-.14-.6,0-.35.1-.33.24-.26.42-.37.17-.33,0-.13-.2-.41-.2-.23-.43-.68-.24-.71.4-.33.25,0,.74-.23.21-.14.11-.32Z"/><g id="UtNVxE.tif"><path class="cls-2" d="M292.32,333.29q5-15.3,9.95-30.63L276.2,283.73l0-.07h32.22l10-30.66h.07l10,30.67H360.6l0,.07-6.48,4.71-6.52,4.74-6.5,4.72-6.5,4.73q5,15.35,10,30.65l0,0-26.1-18.94-26.07,18.94Z"/></g></svg>