<svg id="Layer_1" data-name="Layer 1" xmlns="http://www.w3.org/2000/svg" viewBox="0 0 500 500"><defs><style>.cls-1{fill:#eee;stroke:#bcbcbc;stroke-width:2px;}.cls-2{fill:#e00000;}</style></defs><title>state_UT</title><path class="cls-1" d="M220.41,148l-.27-.34-.07-.38-.47-.4-.58-.69-.28-.15h-.44l-.92.22-.33.2-.2.24,0,.18.2.12.76,0,.41.26.47.56.57.28,1,1.12.16.05.1-.23-.07-.75Zm7.28,11.81-.3-.73-.76-1.14-.23-.63-.08-.66.13-.25V156l-.13-.53-.43-.87-.23-.24-.76-.37-.59-.57-.19,0-.44.12-.23.16.19.52-.09.31-.24.12-.66.1-.12.2.28.8.78.08.23.11.29.42.12.52-.11.38-.46.62,0,.3.09.55-.14.79.09,1,.2.49,2.12,3.45.54,1.17.62.8.2-.11,0-.32-.13-.63.38-1.17,0-.6-.12-.93.35-1.52Zm-17.49-3.18-.13-.43-.14-.28h-.21l-.65.29-.38.11,0,.76.05.53.16.23.21.26.19.48.15.28.35-1,.62-.53V157Zm72,1.63v0h0V119.5q0-13.09,0-26.2H216.21q-13.17,0-26.35,0H136.05q0,11.55,0,23.08,0,13.85,0,27.67,0,13.29,0,26.58,0,12.55,0,25.1,0,14.07,0,28.14,0,13.07,0,26.13v25.3q0,13.68,0,27.37t0,27.33q0,12.69,0,25.38t0,25.68q0,13.69,0,27.41h7.6c8.57,0,17.14,0,25.72,0l27.24,0,25,0q13.82,0,27.61,0,12.42,0,24.82,0l27.54,0,25.18,0q13.51,0,27,0,13,0,26.09,0V316.46q0-12.75,0-25.5V158.25Zm-59.24-32.88.64-.49.36-.53.18-.38.09,0,.14.14.5.33.52.64.49.38.36.36.29.45.11.42v.44l-.05.54-.13.35-.33,0-1.29-.41h-.65l-.32.16-.14.19-.11,0-.18-.2-.54-.85ZM239,161l-.25.31-.3.28L234.59,164l-.27.12-1,.06-.74.17-.55.32-.89.79-.35.25-.92.46-.42.52-.21.73-.09.85v1.47l0,.3-.11.16-.59.56-1.66,2-2.56,1.72L222.75,176l-3.6,2.26-.61.13-.67-.11-1.38-.61-.3-.26,0-.23.33-.45.07-.2,0-.26-.43-1.05-.08-.29.05-.83,0-.73-.08-.39-.12-.25-1.49-1.59-.29-.52-.1-.46.1-2.25,0-.37-.32-1.23-.1-.71-.75-1.7-.34-1.39-.35-.73-.3.09-.51,1.05-.24.33-.51.52-.22.34-.15.48-.4,2.72-.12.34-.43.68-.23.57-.32.37-.42-.15-.38-.42-1-2.35-.22-.36-.37-.33-1.24-.8-.29-.42-.16-.47,0-.42.32-.83.07-.38-.08-.23h-.24l-.74.19-.41-.09-.29-.23-.12-.2-.08-.23-.18-.3-.56-.72-.39-.33-1.13-.6-1.38-1.08-.39-.52,0-.51.65-1,.09-.33-.29-.11-1.2-.13-.47-.26-.11-.32.17-.26.35,0,.32,0,.17-.13.05-.21-.12-.49,0-.28,0-.76-.09-.43-.44-.7,0-.39.11-.36,0-.31-.07-.32-.41-.9-.11-.34-.05-.36,0-1.14,0-.5.12-.47.2-.52.06-.5-.21-.48-.37-.44-1.66-1.52-.25-.42-.67-1.85-.31-.47-2.49-1.95-.48-.62-.59-1.06-.35,0-2.39,1.55-.1.35.09.49.21.71,0,.54-.39.11-1.49-.36-.26-.19-.16-.26,0-.33.08-.42.65-1.67.26-.45.39-.26.51-.06,1.13.23.36-.1.2-.16.06-.08-.49-3.14L188,130.47l-.89-1.63-1.21-3.7-.1-.74.29-.16.78.25.11-.13,0-.35,0-.36.24-.12.39,0,.31-.2.14-.3-.24-.68.07-.27.11-.26v-.28l-.16-.29-.29-.29-.41-.26-1-.43-.28-.31-.13-.39,0-.45.2-.41.5-.26.61-.1,1,0,1.46-.79.49-.16.34,0,.75.18h.63l2.16-.5.37-.22.53-.85.37-.22.31-.13.08-.23v-.3l0-.31.21-.25.39-.18,1.5-.21.27-.09.7.19.4.22,1.15.85,0,.06.07.22.13.28.14.17.9.84.11.24-.09,1.08,0,0,0,0-.25,1.09,0,.72,0,.47-.15.27-.78.87-.6.37-.2.36-.09.43v.36l.09.32.53.88.13.32.13.51.19.48.26.19.29.11.29.19.28.39.87,1.54.28.39,1.43,1.2.5.33,1.31.59.65.12.43-.15.24-.29.07-.33.08-.19h.2l.51.11.7,0,.49.16.57.36.45.38.23.26.12.3.28,1.6.07,1.81.18,1,.34.48.75.35.23.28.13.35,0,.4-.08.41-.25.65-.09.28,0,.36v.92l.07.48.33.83.05.32,0,.83.18.49.4.45,1,.83.47.28.47.07.39-.11.24-.24.21-.28.28-.2,2.48-.89V141l-.73-.49-.6-1.65-.45-2-.16-.32-.49-.45-.17-.36.07-.4.22-.39.31-.3.19-.25,0-.28-.05-.37,0-.47-.06-.44-.27-.28-.34-.23-.3-.26-.15-.3,0-.38.31-2.09.17-.43.29-.21,1.47-.33.25,0,.12.24.2.34.39.25.43.09.31-.12.33-.44.17-.15.16,0h.19l.19.07,1,.67.3.35.39.67.08.59-.43.15-.53,0-.27.09.08.26.39.77.14.57.23.47.39.17.42,0,.5-.21h.28l.32.1.35.23.42.09,1.08-.41,1,0,.41-.33.8-.94.54-.25,3.76.17.48,1.07.22.83-.15.59L231,136.49l-1.4-.32-.29-.74h-.2l-.67,1.44-.19.17-.34,0-.58-.21-1.48-.92-2.42-.15-1.88,1.84-1.64,3.14,1.27.4h2.06l.19,1.37.1.42.21.34,2.17,2,.41.57.19.68.25,1.48.29.64.45.49,1,.63.42.37.32.58.22.73.13.81.21.69.68.93.21.46.33.4,1.85.4,2.43,1,.58.41.61.53.92,1.06.48,1,.32.52.87.7.07.32Z"/><g id="UtNVxE.tif"><path class="cls-2" d="M190.32,214.29q5-15.3,10-30.63L174.2,164.73l0-.07h32.22l10-30.66h.07l10,30.67H258.6l0,.07-6.48,4.71-6.52,4.74-6.5,4.72-6.5,4.73q5,15.35,10,30.65l-.05.05-26.1-18.94-26.07,18.94Z"/></g></svg>