<svg id="Layer_1" data-name="Layer 1" xmlns="http://www.w3.org/2000/svg" viewBox="0 0 500 500"><defs><style>.cls-1{fill:#eee;stroke:#bcbcbc;stroke-width:2px;}.cls-2{fill:#e00000;}</style></defs><title>state_VA</title><path class="cls-1" d="M413.75,266.93l-1.32,2.87-.05.28,0,.42h.29l1.06-1.79.5-1.13.25-1.27h-.33Zm13.59-31.51c-3.59.49-7.18,1-10.77,1.43l-.31.28c-.23.55-.46,1.09-.7,1.63l.43.2-.55.59-.72.26-1.43.3-1.09.66-1,.86V242l1.12-.17,1.23.29.82.64.13.8-.28.43v.5l.21.52.37.48-.46.1-1-.18-.33.08-.26.57v.64l.21.6.4.46-2.6.36-.48-.25-.5-.42-.49-.07-.49.74.88.88,0,.75-.59.7-.92.72v.41l.95,0,.07.32-1.54,1.7-.05.5.27.85-1,0-.84.17-.65.45-.47.89.66.84-.51.33-.95.21-.76.52.55.4-.08.47-.44.49-.6.52,1.81.75-1,.57-.91.85-.62,1.18-.15,1.59.93-.45.41.35-.06.58-1.22.63-.52.77-.32,1-.13.94h.33l.1-.35.17-.07.25,0,.06,0,0,.54-.29.69-.51.66-.71.37.22.7-.26,1-.87,2,.4-.16.25-.06.58.22-.77.7-.66,1.22-.09,1.31.92,1v.33l-.2.76,1.1,1.71.33,1.12.24,1.24.58.38.69-.29.54-.78.12-.5.21-2,.19-.56.43-.56.41-.27.2.24-.18,2.35.31.65,1-.5-.22-.61-.17-1.22-.2-.45.42-1,.27-1.3.38-5,.16-.63.23-.61.94-1.31.36-.68.08-.4-.08-.47-.06-.89.19-.66.85-1.18.19-.43.54-.38,3.4-.56-.34-.6-.55-.24-.64-.11-.6-.21.42-.79.71-.86.69-.35.31.69.17,1,.41.63.48.54.41.69.87-.87.89-1.15.78-1.27.49-1.25-.69-.44.19-1.47.63-1.67.84-1.63.53-2,3.62-7.23,1.67-1.85.33-.88-.46-1.11.8-.31.11-.28-.18-.4-.14-.67,0-1.38.07-.86.22-.64.63-.53.71-.29.56-.51Zm-25.56,67.1L400.9,298l-.83-1.42-1-.1-1.22.39h-1.42l-1.76-.71-2.23-.21-4.18-1.6h-1.53l-.89,1,.09.85.47.31.22.33-.62.94-.11.6.34.71.81,1.14-.73-.14-.73-.45-.45-.63.1-.63-.93-.59-1.18-.35-1.24-.07-1.16.21-.94.57-.86.68-.95.56-1.18.1v-.41l1.26-.91.61-.61.26-.52-.24-.74-.42-.64-.09-.56.75-.51v-.37l-2.71-1.49-.6-.55-.3-.21-.37-.13-.58-.06-.26-.21.06-.33.12-.12.43-.31v-.34l-2.65-.74-.69-.41-.29-.76,0-3.38-.6-3.2-.3-.59-.61.23-1.22,1.54-.87.12-.81-.59L365.16,281l-.63-.35h-4l-.87-.35L358,279.08l-1-.26-.38-.51-.19-1.1-.41-1-1-.4-.35.17-1.33,1.15-.52.26-.38-.37-.31-.56-.28-.28h-3.77L345.27,275l-.49.13-.19-.17-.44-.1-.42-.29-.16-.71,1.21-1.13.69.87.65.3,1.85,0,.24.1.77.5.47.11.44,0,1.51-.57.41,0,.37.18.44.44.11.34.32.73.32.54.16-.26.27-.36,1.38-1.12.48-.24.57.15.38.44,1.28,2.13.4,1,.55.58,1-.11.83-.64.48-.55.22-.52v-1.48l.17-.56.41-.42.19,1,0,1.26.07,1.08.56.44.61.18L365,279l.76.18.34.19.21.49.16.55.21.46.44.31.22-.32.15-.55.24-.37.83-.23,1.83-.17.64-.36.91.71.74,1.2.28,1.46-.4,1.55.31.37.53.77.89,1,1,.73.77,0,3.88,3.44.56.79.48,2.17.61.21.7-.32,1.24-1.11.63-.35.76-.13,1.08,0,.84-.33.58-.79.37-1.09.21-1.18,0-1.55-.49-.35-1.78.44-.73-.31.57-.68,1-.65.51-.24-.29-.78-.84-.84-1.28-.87-.21.63-.46-.13-.51-.52-.29-.52,0-.51.07-.7.12-.58.11-.12-.54-.69-.76-.07-1.87.34-.92-.2-1-.5-1.79-1.17-2.9-2.54L371,272l-.95-1.73-.64-.89-1.38-.9-1.87-3.3-.4-.23-.48-.17-.42-.22-.17-.33,0-.62.1-.56.22-.39.41-.16,2.26,2.28,1.31,2.48.84,1.21,1,.52.69.5,2.66,4.33.34.29.54.12.43.18.42.78,1.29.46L378.9,277l.86.29,3.49-.78.21-.32-.22-.73-.41-.77-.35-.44-.37-.11-1.43.11v-.34l1.26-.47.22-.12-.09-.54-.22-.22-.32-.11-1.19-.9-.2-.44.21-.59.42-.33.47,0,.48.14.44.23L382,270l-.22-.48-.33-.4L381,269l.57-1.35.83.72,1.33,2.47.8.26.63-.27.53-.08.12.85,1.78,2.28.38.73h.27l.13-1.65,1-3,.06-1.72-.35-1-.5-.21h-.52l-.44-.36v-.59l.42-.59.59-.47.49-.26v-.35l-1.26-1.26-.61-.11-.26,1.17-.43.59-.94-.42-1.49-1.13-.92-.2-.69-.44v-.49l1.18-.39,2-.21.77-.27.78-.65-1.81-.61-1.85-.2-1.62-.56L381,257.61l-.66.3h-.9l-2.7-.56-.7-.41-.56-.65-.65-1.24-.39-1-.08-.42-.05-.14-.24-1.59-.32-.4-1.2-1.24-.46-.26-2-.38,0-.21.06-.73,0-.19-.2-.07-.19,0h-.18l-.46-.37-1-.35-.19-.25-.4-.73-.21-.14-.38-.43-1.05-1.88-.21-.56-.1-1.07-.32-.5-1.38-.53-.55-.35-.71-.59L362,240l-.44-1.23-.43-.29-.5-.26-.42-.33-.42-.57-.09-.32-.39-3.14-.18-.34-.83-.87-.18-.3-.52-.55-3.12-.79-.42-.41-.29-.43-.15-.55,0-.73-.16-.43H353l-.55.27-1.48-.22-.77-.36-.31-.59.34-.56.84.05,2,.51.66.35.49.81.43.91.41.66.45-.06,2,.4.69.41.53.55.86,1.33,1.23,3,.39.37,1.74,1.36.61,1.75,2.68,1.43.61,1.76,1.67,2.67.52.56.58.3.6-.08.54-.57,0,.82.21.53.36.32.41.23.52-.51.28.25.18.55.22.44,1.3,1,.2.34.34,1.11,1.57,2,.49.9,0,.64.31,1,.52.66.67-.07.5-2,.43-.76.56.9.1.49.32.71.34.44.16.06.22-.28.48.38.46.55.18.29,2.44.93,1.24.22.72-.76-.58,0-.14-.38-.63-.83-.15-.55.21-.38.38-.21.25-.33-.23-.76.41.17.52.12.51,0,.35-.26-.05-.65-1.39-1.18-.35-.66.12-.22.28,0,.3.08.19-.08.3-.75.17-.56,0-.51-.19-.85-.88-1.82-.3-1.11.42-.49.7.37L388,246.5l.79.1.45-.75.17-1.3,0-2.38-.32-.62-.75-.58-.9-.5-4-1.53-1.63-1.16-2.15-.79-.45-.3.32-.08.32-.21.25-.09-.36-.4-.43-.35-.48-.28-.54-.14-1.56.34-.23-.14-.06-.76-.05-.2.54-.57.13-.76-.59-.71-1.5-1-1-1-.18-.28,0-1.18-.12-.4-.37-.15-.52.07-.9.3h-.54l-.33-.17-.3-.27-.36-.25-.5-.1-.44.34-1,.62-1.06.28-.49-.64-.26-.7-.67-.41-.88-.18-.9,0-1.76-.32-2.16-.81-1.7-1-.61-1.37.1-.33.14-.33,0-.43-.33-.45-.4-.27-.42-.2-.36-.24-2-2.12-.2-.13-.41-.34-.25-.35.26-.16.8.05.4-.05.32-.17.4-.82v-.94l-.24-.89-.33-.61-1-.61-1,.48-1.18.84-2.14.68-1.46,1.07-.81.24-2.88.38-1.84-.58-2.1-.21v-.38l.49-.12,1.47.12.48-.21-.12-.45-.51-.66-.32-.61-1.55-1.58-.5-.7.7-.37.54.36.86,1.17-.39-2.09.51-2.43.66-2.08.12-1.06v-.41l.36-.16.82-.57-.22-.28-.17-.36-.22-.17.58-.56.5-.86.35-1,.13-.87.29-.84.61-.46h.61l.29.51.07.95.22.42.45,0,.73-.37.56-.4.44-.54,0-.56-.7-.42-.31-.58v-.68l.45-.53.75-.16-.12.73.23.41h.32l.31-1.07.34-.07.44,0,.44-.19.88-.62.72-.23.48-.5.16-1.38,0-5.78-.05-.27-.23-.65-.16-.33-.81-1.24h0l-.41-.53-1.67-1.4-.23-.29-.51-.69-.5-.39-1.35-.29-1.48-.52-.62-.13-.6-.31-.3-.74-.19-.9-.27-.78-1-1-1.28-.71-1.41-.4-3.89-.39-1-.58-1.58-1.61-.66-.61-.58-.75-.25-.87.33-1,1.44-1.3.66-.86.16-1.16-.49-.88-.87-.39-1-.28-.83-.57-.85-1.44-.48-.45-2-.49-1.87-.75-.81-.16h-2.24l-.86-.41c-1.46,3.54-3,7-4.44,10.58l-.38-.33q-10.14-8.31-20.38-16.51l-.65-.53-.61.33-.63,1-.23.56-.09.46v.57l.26,1.71,0,.58-.07.66-.08.34-.2.58-.62,1.09L294,165l-.14.25-.11.26,0,.28v.49l0,.24.05.61,0,.32-.06.33-.28.9-.08.34-.07.34,0,.3.05.29.18.82,0,.26,0,.28-.08.22-.2.31-1.44,1.77L290.09,175l-1.74,2.09-.72,1.21-.1.21,0,.21,0,.21,0,.22v.22l-.25.46-1.13,1.47-.28.24-.38.23-.72.25-.45.09-.38.15-.23.22-.27.46-.47,1-.3.47-.26.25-.34.25-1,.45-.35.09h-.27l-.23,0-.17-.16-.15-.18-.11-.23-.14-.2-.14-.14h-.24l-.23.16c-1.75,2.57-3.5,5.13-5.24,7.71l-.24.28-.26.17-.31-.09c-1.58-1.11-3.16-2.2-4.73-3.31l-.25,0-.23.2L266,192.14l-.32.51-.19.46-.07.29-.13.33-.19.39-.78,1.09-.19.44L264,196l-.47,3.17-.06.21-.21.25-.33.28-.66.4-.47.36-.43.46-.4.63-.2.41-.12.35-.4,1.85-.08.15v.1c0,.12-.08.25-.11.37l-.64,1.93-.26.56-.28.5-3.42,4.75-.19.19-.24.14-.33,0-9.11-3-.12-.06-.06,0,.06-.21.18-.44,0-.2,0-.17,0-.11-.1-.24-1.71-3.11-.14-.19-.14-.13-.1-.08-3.68-1.37h-.27l-.29.24-.25.44-.27.95-.09.55,0,.45,0,.29,0,.31-.08.32-.2.41-.82,1.17,0,.14-.12.8,0,2.35-.11.31-.2.35-.71.95-.25.49-.44,1.67-.19.29-.45.29-.87.32-.17.2-.15.3-.17.5-.25.47-.44.59-.22.39-.09.52.05.34.2.54.05.24,0,.29-.11.36-.21.34-.74.78-1,.67-.43.38-.95,1.22-2.06,1.89-.16.26-.08.3v.43l.11.57-.07.35-1,3.14c-.82,1.62-1.64,3.23-2.48,4.84L214.63,247l-.06.17-.37,1.28-.15.39-2.85,5.34-.2.57,0,.2,0,.13.1.12.55.53.49.32,1.25.66.2.2.13.3.05.49-.1.34-.16.28-.41.36-.92.59-.73.35-.28.18-.32.26-.46.48-.21.38-.1.34v.26l0,.26.12.23.17.18.5.34.17.24v.59l-.16.32-.2.24-5.36,3-1.33,1.18-.27.18-.23.07-.23,0-.25-.05-.17-.1-.18-.18-.12-.22-.07-.26,0-.28v-.49l0-.2-.07-.21-.15-.22-.43-.1-.32,0-1,.1-1,.35-4,1.87-3.95,2.39-.21.09L191,271h-.16l-.12-.09-.14-.15-.09-.2-.1-.2-.18-.14-.23-.11-.76-.15-.2-.13-.08-.19,0-.43-.07-.16-.15-.12-.14-.05-1.23-.27-.38,0-.44.05-.6.23-.34.23-.24.25-.17.25c-.06.2-.13.4-.19.6l0,.32,0,.31.08.26.65,1.18,0,.32-.05.38-.29.57-.25.33-.24.23L182,275.8l-.31.06-.25-.05-.61-.53-.34-.06-.43,0-1.21.62-.39.12-4.56.59-3.56,1.86-.49.13-.12-.07-.11-.09-.1-.15-.16-.4-.12-.2-.17-.18-.35-.3-2.3-1.47-.21-.17-.26-.29-.86-1.25-.18-.2-.28-.17-.36-.08-.56,0-.37.22-.21.23-.12.24-.31.91-.18.39-.27.43-.53.61-.35.29-.32.17-1.76.19-.66.19-.37.19-.28.19-2.29,2.46-.34.23-.29.13-1,.08-2.68-.25-.54-.15-1.09-.8-1.57-.8-.2-.18-.39-.39-.58-.91-.15-.2-.2-.19-.23-.17-.25-.13-.39-.13-1-.11-.61,0-.55-.07-.17,0-.51-.31-.39-.39-.16-.21-.11-.22-.41-1-.12-.23-.16-.21-.42-.35-2.1-1.48-.18-.2-.14-.23-.09-.26,0-.3v-.32l.15-1.33,0-.31,0-.29,0-.29-.09-.26-.11-.23-.14-.19-.16-.17-1.57-1-.18-.19-.08-.23v-.25l.1-.26.14-.19,1.07-.83a.8.8,0,0,1,.08-.16l.06-.24,0-.28v-.31l-.06-.29-.12-.26-.13-.19-.38-.41-17,14.36-1.06.73c-3.78,1.85-7.54,3.71-11.31,5.58l-2.16,1.48-.8.79-.37.52,0,.35.16.86.07,1.23,0,.33-.07.32-.12.28-.15.26-.17.21-.46.29-3.9,1.92-1.05.82-.43.45-.23.44,0,.9,0,.28,0,.6-.08.84-.07.27-.09.27-.11.29-.16.23-.18.21-.67.36-5.42,2.08H89.47l-.28.08-.26.17-.89.94-.81,1.76-.3.47-.52.57-.12.19,0,.2.09.51,0,.29-.09.26-.24.19-.38.19-4.51.69-4.51,1.53-1.75,1-.57.49-.33.18-.48.15-4.22.43-3.88,1.42-.3,0-.85.41-1.94,1.67,26.75.14,25.68.14,23.06.11.35-.15,1-.83.39-.11.39,0c3.62.16,7.23.3,10.85.44l.3.6.16.16.3.09c8.6.12,17.2.17,25.8.25,9.29.1,18.58.17,27.87.27l25,.25,27.79.26,25.41.25q13.63.14,27.26.26L337,316l26.3.26,27.27.26,7.93.07-.15-.52-.22-.42-.18-.46,0-.75,1.38,2.15,2,0-.06-.11-.33-3,.57-5.62.23-.55.48.05.52.34.31.33.25.59.95,3.89.22.4.52.68.16.44v.63l-.16.59-.08.62.22.73.59,0h.63l-.47-2.28Zm1,13-.74.49.31.61-.05,0h1.5l-.23-1.44Zm30.29-80.84-.29,0-.17.32-1,1.31-.86,1.25-.31.63-.59,1.85-.31.43-.23.57-.37.35-.5.17-.55,0-.14.21.26.47.63.86-.4.2-.46.13-.46.06-.49,0V244l1.44-.1,1.24-1.11,1-1.66,3-6.48Zm-24.44,41.66-.23,1.18-.39,1.06-.81.58h-.32v.34l1.46-.12.73-.8.22-1.38,0-1.83h-.3Z"/><g id="UtNVxE.tif"><path class="cls-2" d="M279.32,305.29q5-15.3,9.95-30.63L263.2,255.73l0-.07h32.22l10-30.66h.07l10,30.67H347.6l0,.07-6.48,4.71-6.52,4.74-6.5,4.72-6.5,4.73q5,15.35,10,30.65l0,0-26.1-18.94-26.07,18.94Z"/></g></svg>