<svg id="Layer_1" data-name="Layer 1" xmlns="http://www.w3.org/2000/svg" viewBox="0 0 500 500"><defs><style>.cls-1{fill:#eee;stroke:#bcbcbc;stroke-width:2px;}.cls-2{fill:#e00000;}</style></defs><title>state_WA</title><path class="cls-1" d="M159.26,228.1l.37.41.66-.14.78.18,1.09,1.62,1.13.21.51-.76.43-.42-.43-.2-.23-.35-.09-.55-.1-.42-.19-.35,0-.57-.54-.63.39-.18.27-.27.41-.58-.49-.56-.32-1.1-.26-2.46-.3-.49-.5-.52-.57-.41-.51-.17-.51.24-.06.59.05.77-.2.77L159.2,223l-.08.48.07,1.08.23.82.36.62-.1.87Zm-12.73-62,.74-.76.36-1.13-.12-1.24-.64-1.1-.78,1-.66-.12-.47-.86-.17-1.27.14-2.45-.09-1.4-.82-2-.52.17-1.18,1.28-.11.4-.23.62,0,.76.3.79-.75.48-.61,1.07-.28,1.34.25,1.34.82.56,1.16.24.78.49-.33,1.32Zm5.67,28.16-.2-.5-.14-1.62-.32-.52-.49,0-.1.63.21,1.41.3,1,.68,1.48.88,1.15,1,0,.42-1.25-.2-1.89-.49-1.87-.74-1.85-.41-.35h-.49l-.53.41.88,1,.53,1.47v1.15Zm-1-41.43-.08,1,.72,2.22.43.48h.58l.45-.12.31-.27.11-.77.34-.58.24-.32-.2-.33-.78-1-.13-.49-.33-.63-.65-.43-.58.35Zm-14.83-3.55v.77l.23.62.64,1,.64.63.37-.57.18-1.13,0-1,.27-.43.6.31.87.86.28.72.22.88.41.76.83.31,1.52-.1.66-.29.64-.62-2.47-4.29.24-.65,0-.38-.13-.46-.08-.85.22-.72.49-.18.49.27.22.63.13.84.71,2.11,1.25,2.21.53.63.51.28.62-.17.18-.43,0-.53.21-.45,2.2-1.57.32-.36.26-.74-5.7-3.41-2-.27-1.08,0-.58.23-2.47,3.13-.56.27-.43.29-1.21,1.39Zm13.79,31.17.6,1.82.4.47.65.53.67.43.53.17.34.35,1.26,2.26,1.23-.83,1.09-.15.8.74.36,1.79-.75,4.2.26,1.1.9,1.4-.06,1.27.67,1.55.93,1.34.71.56.45.59.45.36.65.09.54-.35.94-1.09.63-.13.8.69.55,1.4.32,1.7.11,1.63.3.38.67-.15,1.11-.51.24.2.05.47.09.4H169l.24-.22.18-.52.24-.34.94-1.73.3-.3.14-.35-.2-.79-.45-1.19-.31-1.75-.79-1.22-4-2.87-.86-.89-.82-1.09-1.07-.85-.51.86.06,1.7.65,1.66L162.1,197l-.68.47-.57-.85-.41-3.72-.2-4.2-.63-3.43-.49-1.69-.76-1.29-1.09-.51-.59-.17-1.19-.74-.68-.18-1.58.48-.71-.11-.69-.94,2.94-.63.74-.6.15-1,.09-1.39L156,176l.7,1.58.36-1.12.58-1.31.77-.68.92.79.7.87.8.37.79-.19.68-.78.08-2.13-3.14-2.65-.07-1.57L159,169l-.08-.24-.1-.57-.47-.84-.5.26-.57.68-.72.38-1.31,0-.61,1.69-4.22,8.62ZM165.66,245l-.72.31-.38.77,0,1,.27,1,1-.85,1.62-1.73,2.21-.94.38,0-1-.79-1-.47-.83-.63-.65-1.28-.15-.76,0-1.53-.11-.78-.38-.65-.46-.36-.22-.5.33-1.06-.79.38-.91,1-.76,1.15-.32.87-.38,5.66-.18.46-.33.59-.2.71.22.8.45.67.4.4.36,0,.35-.36.22-.59.11-.72,0-1.51.22-.44.52-.35,1-.49-.38-.51.85-.21.33.58-.12.77ZM133.24,123.41l2.2-.94.52-.65h-2.83l.07.37ZM448.51,343.57l-2.69-3.49-.28-.78,1.49-1.71.66-1,.47-1.5v-1.53l-1.1-2-.58-3.59-.71-1.56-1.7-2.89-2.41-3.17-.38-1.13.2-1.32.78-2.33v-2.12l-.05-11.71,0-11.74,0-11.78,0-11.81,0-11.84,0-11.88L442,230.74l0-12,0-12,0-12,0-12.07,0-12.09,0-12.14,0-12.18,0-12.21-.05-12.27H150.32l.61,1.24.49,1.36-2.34-.42-1.2.19-.63.82.27,1.33,2.52-.11.66,1.41-.21.39-.47.52-.47.65-.21.84.21,1,.55.76,2.21,2,.53.83.16,1.18-.22,1.87.46-1,1,.56.95,1.24.44,1.06-.17.41-.71.78-.17.41.15.85.36.71.5.35.55-.33,1.52-2.79.83-1.2,1-.49,1,.24,1.26.68,1.09,1,.5,1.25-1.14,2.34-.21,1.3,1.16.57,0,.4.3,2,.23.8.44.66.45.27.44.19.45.41.69,1.54.2,1.74-.38,1.42-1,.59-.88-.41-2-1.79-1.09-.43-1,.26.56.68,2,1.45.63,1.08.47,1.1.3,1.25.16,2.05.12.74.14.48,0,.47-.41.71-.6.34-.69-.21-.66-.55-1.21-1.62-.89-.61-.63.38v2l-.83-1.25-.82-2-1-1.22-1.36,1-.64.3-.85-.07-.68.14-.13.91.41.37.72.17.69.49.3,1.37-.27.74-.51.49-.24.67.5,1.26.6.56.78.19.82-.11.76-.36.39-.47.82-1.38.37-.28.52.05.78.23.35.48-.76.8v.57l.69.66,1,2,.56.43.84.07.75.23.66.4,1.19,1.32,1.52.94,1.71,1.56.3.46.21.53.12.83.21.4-.78,1.57-.16.77.24.79-.6.34-.45-.47-.44-.77-.59-.58-.82-.14-1,.08-1.71.54-1.07,1-.59,1.52-.1,1.81.37,1.92.8,1.78,1.05,1.3,4.29,3.25.47.47,1,1.62.59.48.91,0-1.07-2.4-.77-1.2-.8-.51-.75-.32-.89-.76-.82-.9-.49-.72-.41-1.17-.19-1.37.15-1.15,1-.77-.14-1.57.24-.73.42-.17.39.19.33.32.25.18,2.11.94.5,1.73-.1,2.35.28,2.83,1.12,2.47L173,193l3.55,3,.84-.9.72,0,.3.29.42.22.09.34-.24.28-.23.28-.33.36-.09,1.11-.19,1-1,.64-.45.42-1.81.41-.43.35-.36.41-1,.78-.4.38-.21.6v.75l-.49,1.05-.15,1.18-.13,1.67-.66,1.26-1.51,1.3-.5.87-.38,1-.25,1.23-.09,1.49.39,1.14.56.8.18,1.18.15,1.25-.19.84-.8,1.28-.32.66-.13.67-.22.52-.59.21-.18.33.27.7.5.71.48.32,2.28,1,.73.89.26,1,0,1.21-.24,1.56-.52-.69-.55-1.08-.57-.79-.64.19-.68.88-.27.53.08.67,1,3.4.36.8.57,1,.18.88v3.25l.3.91,1.39,1.94.43,1,.09,1.38-.25,1.16-.56.8-1.66.48-1,.48-.92.65-.65.68-.38.83.09.62.52.55.87.61-.92.87-.75.34-.78-.26L164,251.48l-1.78-1.13-.88-.79,0,2.8-.67,2.71-1.09,2.47-4.12,6.07-1.71,1.77-1.86,1.12-.2-.82-.48-.83-.63-.64-1.25-.58-.48-.74-.4-.85-.42-.64-1-.6-.28.42.06,1.16,0,.19-.5.39-.75.38-.72.11.36-.56.23-.62,0-.69-.28-.73-2,1.72-.45.88v.92l.24,1,0,.91-.62.75.4.82.37,1.06,0,.75-.75-.08-.52-.59-.38-1.64-.49-.83.31-.73.1-.8-.1-.79-.31-.73-.54,1.72-.95,1.29-1.17.66-1.17-.11.91-.62.69-.8,2.26-4.36.23-1.08-.61-.27-1.15,2-.21.25-.29.09-4.3,3.27-1,.48.54-1.21,1-.43,1-.25.58-.65-.19-1.06-1,0-1.17.53-.76.51.53-1.17,1.28-.64,2.68-.79,1.31-1.21.77-1.57,1.5-5.67.36-.55.81-.19.6-.26.8-.59,1.22-1.25.48-1.38.84-3.67.74-1.09-.28,1.05.23.55.43.38.34.53.28,1,.08.57,0,2.07-.13,1.42-.46,1.17-1,.47v1.75l.82,3.44,1.33,2.38,1.51-1.4,0-.45-.14-.53-.17-.43-.08-.16.17-.32.28-.39.23-.17v.37l.3-.63.33-.34.05-.44-1.24-2.16-.27-1,.23-1.06.79-1.29.2-.6.06-.75.1-.63.34-.27.45-.2.38-.45.35-.54.4-.44,1.77-.92.66-.7.38-1.4.27,1.85-.55,1.26-.76,1-.38,1.24-.43,1-.71.68-.15.68,1.29,1,3.95,1.77h.76l.59-1.53-.19-1.25L158.85,248l.88-.29.68-.48.52-.74.38-1.05-.95-1.61.23-1.66.68-1.76.4-1.92.4-1.41.67-1.59.09-1.31-1.34-.54-.38-1-.09-1.94-.5-1.25-1.67,1.07-1.08,1-1.18.83L154,233.67l.28-.76,1-1.06.49-.79.43-.95v-.17h-.39l-1.78-1-.43-.46-.29-1-.06-1,.12-.83.27-.71.4-.62,1.92,4.21,1.37,1.64,1.26-.65-.38-.56.38-.52-1.85-7.23-.24-.49-.45-.55-.46-.35-.36-.5-.15-.94.48-.15,2.84,3.05.83-.46.76-1.08.45-1.23-.11-.88.86-.19,2.46.58.51-.14.16-.36.32-.47.26-.64-.05-.89-.3-.59-.48-.45-.53-.31L163,214l.72-1.19-.2-.76-.53-.65-.3-.76-.32-2.56-.06-1.11-.53-1.86L160.5,204l-3-1.9.11.75,1,1.84.2.55.86,3.6.25,1.71-.23,1.1-1.08-.24-.25-.58.15-.68-.08-.57-.89-.23-.54.24-.57.56-5,7.35-.46,1.18-.72,3.37-.33,1-.61.63-1.16.68-3.83,1.56L141,228l-.69.43L136.59,234l-2.07,5-.48.83-1.36,1.92-.57,1.13-.15,1.05,1.1,1.77,2,0,3.87-1.8,3.53-2.47,2-.93,1.45.32-1.65,1.66-1.71,1.12L134,247.41l-2.86.29-1.59-1.21.15-1.14,1.28-3,.71-2.8.92-1.19,1.06-1,.79-1.09,1.64-4.26.6-1.19,4-5.21.58-.53.63-.22.41-.39.31-1.75.88-1.12.53-1.66.73-1.76,1.16-1L145,215l-.42-1.37,0-1.19.54-1.27.49.44.33,1.36.06,1.53.9-.78.15-1.4.06-1.46.6-1,.34,2.77,0,2.24-.93,4.84-.57,1.43,0,.83.84.37.59-.12.56-.35.43-.57.16-.79.13-1.23.33-1.45.94-2.76.71-1.5,2.26-2.89.41-.8.39-1.43.43-.66.5-.13,1.52-.08.42-.31-.31-.91-2.65-3.49-.23-.64-.16-1.61-.13-.6-.36-.43-1-.64-.41-.48-2.15-3.87-.32-1.11-.23-.48-.46-.57-.38-.75,0-1.06.36-.46,1.25-.71.49-.38-1-1.82H148.2l-1.48.77-1.65.49-.61.41-.48,1-.2,1.14.23.92,2.05,2.26.61,1.11-.84,2.26-.66.78-1,.12v-.57l1-.7-.2-1.46-.78-1.54-.74-1-.64-.27h-.57l-.41-.3-.15-1.22-.29-.68-.69-.22-.81,0-2.15.44-.34,1,.46,3h-.57l-1.11-.51-.79-1.1.38-1.77-1.21-2-1.41-1.48-1.68-.9-2-.31v-.57l.72-.21.7-.36.51-.59.19-.92-1.82,1.18-3.47,3.18-1.7.84-8.43-.51-1-.53,0-.33.44-.19.44-.19.49-.28-3.66.52-1-.14-2.39-.9-3,.5-1.3.58-.83-.46L103,186.4l-1.78-.42-3.69.33-7.65-.53-7-2-1-.48L80.27,181l-1-.84-4-1.89L74,178l-2.27.29-.88-.29-1.27-1.16-.46-.31-3.7-1-2-1.74-8.28-4.19-2.49-.74-2.8-.26-.09,1.15.39.94,1.47,1.62,1.22,1,.21.29-.18.8-.76,1.16-.17.69v2.84l-.12.37-.44.57-.1.39.06.35.27.51v.42l-.29,2.57-.44,1.15-.85.49-.13.62,1.71,3.79.06,2.78.26,2.72.57,2.82.81,2.79,1,2.57,1.74,3.29.41.33,1.35.2.61.25.56.42,3.15,3.63.69,1.35.71,2.52.46.86.58.44.64.2.53.37.46,2.61,1.84,4.34.29,1.26.55,6.13.68,3,1.26,11.28.42.4,1.12.25.55.42-.23.58,0,.84.18.77.45.33.69.16.36.43,1.12,2.44,1,3.14L77,259.2l.6,6,.71,3.29.18,1.63-.37,5.26-.15.84-.18.37,0,.85.11.87.28.45.34-.28,1.66-2.13.31-.19.17-.24-.2-.51-.41-.67L80,274.4,79.81,273l-.47-1.15-.11-.54.49-1.1,1.19-.6,1.39-.19,1.13.11,1,.55.89,1,.62,1.3.23,1.54.59.95,1.37.12,2.56-.33v.5l-.12.16-.19.35,3.08-.24,1.59.13,1.21.67-3.84,1.15-3.78,1.9-1.5,1.06-.75.34-1.09.12-.83.56-.34,1.1.19.78.8-.41.52.77.34.65,0,.64-.38.75-.36-.12-.69-.43-.82-.35-.73.12-.25-1.18-1-1.42.23-.9-.72-1.62-1,1-.18.93.84,2.74.65,3,.66,5,.39,1,.77.43,1.82.15.82-.07.46.08.57.38.46.45.48.18.64-.46L88,294v-.45l2.64.59.68-.37.51-.71.41-.35h.51l.81.33L95,294.16,96,295.62l1.15,1.16,1.62.27-.64.83-.94.47-.86-.13L96,297.3,95.62,296l-.86-.31L93,296l-1.71.74-.59,1.79.34,2.18,1.06,1.9-.82-.2-1.4-1.07-.91-.24.6,1.28,1.24,1.86.82,1.85.22.33.18.5.07,1-.07.75-.22.59-.37.36-1.19.39-.2.62.11.8.24.8.21.33.33.33.37.25.29.1.16.15.08.78.11.37.88.61,1.22.51.82.79-.3,1.41-.86-.83-2.19-1.58-.43-.65h-.38l-.15,1.77-.65,1.61-1,1-1.28.06-.77-.95-.61-1.76-.74-3.79-.08-2,.43-5.63-.4-1.64-.64-1.24-.3-1.19.64-1.48-1.35.69-.23,2.84.78,12.28-.08,3.14-.54,2.31.34.86,0,.77-.36,1.38-.55,1.49-.41.89-.4.59.53.44.49,0,1-.46.28.05.18.24.23.09.38-.38-.13-.12-.16-.43-.09-.54,0-.38.84-.84.91-.14.92.35.85.63,2.59,2.94,1.2.53,1.33-.12,1-.72.87-.92,1.06-.7.61-.06,1.67.52.48-.15.72-.62,1.54-.53.45-.7.39-.29.78.82.27.64.14.64.23.49,3,.74,6.34-1.16,1.49.2,1.24.72.52,1.45.33,1.32.81,1,4,3.23,1,.53,1.42.2,1.17-.28,2.25-1.13,1.3-.09,3.21-.62,1,.29.68.68,1.79,1.36.7.4,1.56.28,1.67.72,1.59,1,1.29,1.05.94,1.13.9,1.51.68,1.62.55,2.8.68.81.82.7.71.93.31,1.2.41,3.31.94,2.55-.1,1.35-.23,1.48,0,1.66,1.16,2,.21.73-.05.8-.22,1.4-.05.8.25,2.85.32,1.63.47,1.21.88,1,1.21,1,1.27.72,4,.81,2.06-.56.76,0,1.65.86,2.61.7L167,377l4.31.09,4.1,1.5,1-.27.87-.57,3.81-1.17,9.12-3.51,2-1.29,3.49-3,2.12-1.21,1.44-.29,3.82.83,7.51-1.41,15.21,1.5,2.42.86,1,.87.51,1.07.4,1.28.69,1.52.92.69,1.12-.14,4.53-2.09.26,0,1.08.06.56.15.28,0,1.68-.1.57.08.73.34,2.17.27,2.18-.64.69-.05.26-.08,2.26-1.81.38-.15,3.63-.76,2.4-1,.19-.53.35-.43,1.36-.9.53-.14,7.68,1.51.6-.06,1.24-.62.44-.1,2.62.49.59-.08,1.16-.48,2-1.21.53-.14h.78l1.5.31.79-.08,1.41-.64,1.34-1,1.56-1.57.92-.62,2.39-.41L294,358.8l13.85-2.47L310,354.6l1.47-1.87.84-.47,1.35-.15,3.53.16,2.58-.49,4.47-.88,12.63-.19,2.49-1.14,2.15-2.57H449.7Zm-304-90.45.08-.74.72-.53.28-.95-.57.42-.36.21-.87.43-.43.42h-.72l-.36.64-.15,1.06-.36,1.37v.65l.51.73.72.74.36.64.14.53.29.95.15.64.29.31.72-.74.58-1.16v-2l-.51-.85-.58-.85.07-.95Zm-57,59.27.67.64,1.41,2.38.26-.76.1-.79v-1.75l-.19-.63-.91-.83-.29-.87-.07-.32-.25-.64-.38.44-.34.52.24.65.08.66-.09.65Zm65.26-52.81-.65.11-.29.64-.28.73-.44.32-.43.32.22.74.21.1.72.75.43.32.44.31H153l.57-.42.66-.74.21-1.17.07-.73-.21-.86-.51-.31Zm1.73-115.52-1.38-2.3-.85-.34-.26,1.09.19.76.68.56,1.21,1.51.88,1.38.36.42,1.1,1,.66.44.38-.19-.11-.79-.31-.75-.36-.66-.34-.48-.62-.58-.77-.53ZM129.67,151l-1,1.21.17,1.56v.39l.38,2.3.62,2.33.27.57.5.75.49.47.67.43.71.3.56.11,1.08-.1.26.12.59.46.43.48.35.52.43.43.69.19.75-.13.58-.21.56,0,.73.38V163l-.91-.41-.43-.31-.4-.37-.9-1.85-.17-.2.18-.93.31,0,.42.19.51-.33.63-.9.12-.47-1.36-.62-1-1.8-1.69-.77-1-.86-.87-1-.42-.89-1.38-.85Zm12.21-11.3-.15,0,.19.45.23.21-.11.07.18.13.36.18.1-.15-.15-.19h.13l.27.28.62.11-.64-.82-.21.11-.45-.35.41-.29h.46l.63.15-.52-.46-.73-.16-.66.2,0,.28.18.1v.12Zm-6.48,3.79-.65.53-.33.41,1,.41.16.12.08,1.14.23.13,1.24-.82.23-.37v-.38l-.07-1.48-.25-.39-1.36.36Zm-4.8,5.72,1.65.3,0-.08-.14-.15-.15-.07-.37-.25-.57-.17-.74-.24-.28-.13-.56-.13,0,.3.7.31Zm-2.49-1.67.29-.21-.15-.4-.44-.21-.11-.18.39,0,.54.3H129l.17-.35-.1-.33-.17-.23-.21,0-.45.41-.34,0-.65-.37-.09-.23-.35-.37-.82-.16-.4.3.18.51Zm26.29,2.55-1,.11-.37.17.92.8.94.4,0-.68-.17-.52Zm2.3-6.22-.23-.2-.63.09-.42-.1.46.45,1.23,1,.44-.3.07-1.15-.22-.43-.38-.29.06.19.12.64-.13.12ZM156,157.53l1,0,1.1-.5.43,0,.46.36.3-.06,0-.57-.16-.66-2.29-1.7-.78-1.16-.37-.15-.21.58,0,.67.15.33-.21,1.83Zm-7.5,1.73.11-.28-.13,0-.23-.24.1-.48.12-.22-1.64-.07-.48.41-.29.38V159l.44.43.19.31.2.16.12.39-.17,1,.17.07.07-.06.12-.34.69-.63Zm-9.92-3.67,1.71.58.32-.27,0-.46.08-.26.18-.19.25-.07.32,0,.2,0,.16-.09.26-.24.26-.72-.17-.55-.43,0-.33.07-.18.21v.33L141,154l-.21-.32,0-.4-.06-.15-1-.21-.5-.38-1.66.63-.6,0-.07.29.24.25.6.11.21.14.57.82,0,.24-.21.12Z"/><g id="UtNVxE.tif"><path class="cls-2" d="M142.32,312.29q5-15.3,10-30.63L126.2,262.73l0-.07h32.22l10-30.66h.07l10,30.67H210.6l0,.07-6.48,4.71-6.52,4.74-6.5,4.72-6.5,4.73q5,15.35,10,30.65l-.05,0-26.1-18.94-26.07,18.94Z"/></g></svg>