<svg id="Layer_1" data-name="Layer 1" xmlns="http://www.w3.org/2000/svg" viewBox="0 0 500 500"><defs><style>.cls-1{fill:#eee;stroke:#bcbcbc;stroke-width:2px;}.cls-2{fill:#e00000;}</style></defs><title>state_WI</title><path class="cls-1" d="M240.72,103.3l.77.09.71.29.63.57-.2-.93.2-.68.43-.51.47-.44v-.94l-.68-.12-1.67.59-2.13.51-.54.34-.67,1.06.34.36ZM233.2,111l-.86,1.31,0,1,.63.36,1.89-1.41,2.38-.64.58-1-.77-.12.43-.76,1-.85,1.05-.41,1.14-.11.65-.38.07-.67-.68-1-.89.16-2.43,1.24-.51.53-.5.77Zm167.35,85.17-.8-.07-.84.34-.75.09-.55-.78-.45-.51-.37.46-.25.95-.1,1,.18,1.55-.15.55-.61.61.42.27.53,0,1.07-.24,2.67.41-.2-.59-.11-.24.42-.94.35-1.06,0-1Zm-21.68,36-.81-.86-1.23-2.06-1.33-1.13-1,.6-.87.74-1-.66L371,230.64l-.65.49.23-1-1.07-.08-1.2.7-1.08,1-.74.85L365,235,363.6,238l.38.91-.46,1-.71.92-.38.69L362,242l-3,1.34L357,244.75l-.92,1-.39,1-.39,1.41-.94.63-1.15.07-1-.25-.74-.5-.87-.83-.46-.77.44-.35.39-1.78.17-1.32.22-.53.29-.42.41-.77.29-.23.13-.27-.26-.92v-.35l.29-1.42.25-.56.46-.68.95-.84.46-.56.22-.65.07-.67.22-.77.27-.72.31-.58,2.35-2.76.76-1.64-.49-1.72,1.24-1.63,2-.83,3.83-.87.92-.41.75-.54.52-.83.17-1.28,0-1.3,0-.67.15-.51,1.14-1.76.13-.39-2.32-.95-.72-.59-.09-.28-.24-.43-.43-.59-1-1-.65-.83-.3-.58-.05-.42.19-1.93.16-.76.83-2.45,1.08-2.45.35-.5.64-.73.21-.38,0-.32-.06-.3-.28-.54-.35-.56-.27-.33-.25-.19-.3,0-.27.08-3.14,1.69-.31.07-.32,0-.37,0-1-.3h-.33l-.29.08-.5.3-.34.07-.41-.09-.65-.44-.26-.37-.12-.39.06-.37.5-1.3.09-.4,0-.5-.11-.74,0-.51.11-.36.19-.23,1.42-1.07.2-.22.18-.26L360,192l.24-.61.09-.32,0-.2v-.41l-.35-1.89-.39-1.24,0-.55.2-.24.29-.1.26-.13.22-.19.16-.37.1-.49,0-.8-.09-.46-.14-.36L360,182.4l-.31-.64,0-.45.1-.33.45-.4.19-.2.11-.35,0-.18-.08-.18-.25-.36-.59-.64-.53-.71-.43-.4-1-.73-.21-.21-.5-.76-.18-.23-.24-.18-.28-.18-.33-.09L354,175l-.71-.21-.27-.16-.23-.19-.19-.21-.52-.7-.11-.09-.19-.09h-.24l-.88.28-.69.08-.35,0-.72-.18-.63-.27-.65-.38-.32-.31-.42-.57-.11-.44v-.41l.11-.33.17-.3.93-1.26.16-.3.16-.34,0-.55-.17-.46-1.1-2.47-.34-.43-.39-.26-.67-.25-.28-.16-1.11-.91L344,163h-.35l-.64.1-.35,0-.37-.06-.7-.27-.76-.44-.34-.13-.36-.06-1.49,0-.73-.13-.25-.1-1.09-.89-.39-.23-.37-.07-.89.27h-.36l-.41-.08-1.47-.82-.33-.13-.31,0-.27.09h-.36l-.42-.12-.71-.55-.45-.27-.45-.16-.34-.05-.33,0-.28.09-.53.3-.3.08-.33,0-.32-.08-.32,0-.27.08-.94.74-.36,0-.5-.12-1.45-.77-1-.31-.66-.35-.44-.15-.39-.05-.33.05-.9.34-.35,0-.43-.09-.32-.3-.3-.13h-.29l-.63.12-.33,0-.55-.07q-6-3.44-12.07-6.93c-8.42-2.3-16.83-4.66-25.25-7-5.83-1.62-11.67-3.23-17.49-4.87l-.24-.28-.13-.32-.34-1.24c-1-2.38-2-4.77-3-7.15l-.53-.76-.56-.65-.41-.3-.43-.13-.42-.05-.5-.17-.36-.27-.4-.42-.39-.16-.84-.17-.24-.28-.42-.9-.31-.17-.29,0-.74.48-.33.12-.36,0-.48-.08-.29-.19-.17-.25-.19-.64-.22-1.17.14-.3-1.11.78-.82,0-1.83-1.07-3.11-.78-3.94-2.33-3.18-3.14-.87-.58.29.25.84,1-.46,0-.47.07-.43.18-.38.26v.39h1.48l-.8,1.19-1.12.86-5.11,2.17-1.25.27-1.12-.6.5-1.22.73-1.22,2.74-3.36.24-.73-.2-.62-.33-.6-.18-.62.09-1.07.27-1.33.5-1.13.78-.48.74-.62,1.07-2.82.71-.86-.21-.62-.12-.23,1-.53-.12-.5-.55-.47-.33-.42-.16-1.2-.45-.4-1.28.1-.23-.18-.09-.41,0-.43-.09-.26-.39-.22-.35-.15-.87-.09-.31.19-.17.45-.13.46-.14.26-.4.18-.46.13-.9.07-.36-.06-.65-.26-.28-.06-.42.11-.27.26-.17.27-.18.17-1.84.89-.49.39-.2.38-.06.44-.12.35-.36.15-.84,0-.38.11-.38.24-.67,1.4-.56.46-.84-.55.07-.37v-.14l-.05-.12v-.26l-.85.91-1,.39-.57-.37.32-1.35-1.23.29-2.13,1.93-3.35,2.19-2.07,2-.58-.52-3.23,1.37-3.4.52-9.55,3.62-6.26,1-1-.06-2.7-1.43-.67-.22-.72-.43-1-1-.92-1.15-.29-.62-.57.29-.69.52-.34.57-.36,1-.15.24-.22.16-.7.19-.25.12-.22.19-.17.26-.15.32-.08.38-.2,1.59-.11.27-.1.17-.15.18-.22.16-.62.17-.73.05-.77-.06-.62-.24-.19,0-.1.21q0,13,0,26.07,0,4.77,0,9.54l-.83.17-.53.4-.59.68-.47.83-.2.84-.41.52-1,0-1.08-.24-.75-.05-.64.55-.95,1.62-.63.34h-1.77l-.41.14-.34.28-.24.29-.16.13,0,.19-.51.84-.2.27-.35.19-1.12.18L152.9,165l-.79.2-1.33.64-1.19,1.52-1.72,3.31.19,1.79-1.19,1.81-3.71,3.63-.39.74-.15,1-.29,4.61.78,2.14,1.87.45,2.14-.06,1.65.65.49.93.62,2.33.33.89.73,1,.78.83.61,1,.2,1.16-.19,1.09-1.24,2.08-.51,2.51-.56.7-.67.56-.59.74-.36,1-.18,1.13,0,2.69-.27,1.27-.09.71.21.31.73,2,.06,1.36-.25,1.19-.56.84-.87.32-.58.57.28,1.34,1,2.7.39,2.56.19,2.58-.14.39-.59,1-.14.66.26,1.94,0,.72-.28,1.63-1.77,3.75,1.15,1,2.65,1.74,3,3.08.76.51.26.51.2.57.19.37,1.86,1.17,6.65,1.12,1.51.58,1.45,1.18,1.24,1.6,1.1,2.57.36.66.46.51.57.28,5,.86,2.29.87,6.53,6,1.61,2.78,3.22,6.37.85,1.14,1.67.78,5,4.53.53.29.53.15h4.14l.24.11,2.42,2,.32.18.36.11,1.57.13.52.26.28.28.17.34.11.39.07.45.32.83,1,1.27.33.78,1.83.7.57.37.43.47.28.58.17.67.21,1.43,0,1.36-.1,1.73,0,.51.08.5.17.5.23.42.59.71.27.45.14.53.13,1.16v1.12l-.52,3.2,0,.54.31,1.56,0,.63-.18,1.84,0,.79.25,1.52.06.77-.07.74c-.09.49-.17,1-.26,1.46l-.06.75,0,.73.13.68.21.65.59,1.19.22.58.14.63.19,1.61.32.61.5.41,3.69,1.53,1,1.32.08,2.18-.8,1.81L217,328.47l-.48,2,.23,4.09.33,2,0,2.14.08.71.2.66.05,2.67.21,1.29.47,1,1.23,1.53.41.82.25,1,.13,2.47.16,1.08,1.46,2.89.53.75,1,.74,1.87.86,7.31,1.44,2,.75,1,.16,1,.33.67.87.83,2.35.35.66,1.08,1.66.35.89-.1.65L239,368.2c8.8,0,17.61.17,26.42.25l26.82.26,26.45.25,26.63.25,15,.15-.25-4.44.1-.57.16-.63.08-.63-.34-1-.07-.74v-.78l.07-.56.38-1.08.9-1.86.44-3.91-.05-1.06-.5-1.28-1.78-2.38-.42-.82-.16-.6-.13-4.73-.35-1.35-.7-1.28-1.17-.34-.32-.77.21-1,.88-2.07.1-.47,0-.72-.19-.33-.82-.71-.19-.57.18-1.32.31-.92.14-.93-.34-1.41-.38-1-.18-.67-.05-2.09,1.23-4.44.29-1.79,2.73-5.43.63-2.35-.45-1.89.22-1.4.47-1.15L363.7,301l1.09-2.76-.31-.41.24-.61-.05-.18-.19-.44.36-.61.14-.55,0-.58-.15-.68-1-1.71-.08-.27-.32-.67,0-1.52.37-4.53.15-.59.76-1.29.11-.55.13-1.47.32-1.23,2.24-5.23.66-1,.63-.54,2.45-1.3.82-.81.76-1,.54-1.17.22-1.27-.27-.95-1.75-2.49-.32-2.07.1-.68.39-1.17.23-.93.61-1.26.14-.62.08-1.37,1.23-6.71.82-2.62,1.1-2.21,2.06-2.64.41-1.18.61-1,.14-.32.05-.67.15-.72,1.34-3.94.05-1.32-.86-.57Zm-153.1-132,.61-.81.34-.84-.62-.85-.49.61-1.23,1,0,.59.69.64Zm9.43,3.51.85-.47.41-.43-.06-.62-.6-1-.29-.23-.77-.38-.4-.28-.18.52-.18.43-.23.39-.29.4,1.32,1.11Zm159.91,101.7V205l.16-.52.22-.8-.3-.2-1.09.21-1.3,0-.51-.25-.58-.6-.3.41-.16.43-.08.47v.57L391,205l-.37.12-.39.06-.26.13-.73,2.69-.11.84-.33.56-1.44.56-.33.55-.3.64-.68,0-.79-.3-.57-.08-.58.56-.45,1-.31,1.17-.19,2L383,216l-.58.93,0,.24.07.74,0,.22-.19.05-.49-.11-.19.06L379,221.31l-1.05,2.15-.56,2.56.3,2.38,1.08,2.27,1.56,1.48h1.76l.68-.59,2.1-2.87.3-.59.22-1.16.2-.5.4-.39.93-.45.42-.43-1-1.1.56-1.89,1.94-3.18.39-1.28.29-.56.48-.22.31.11.39.22.34.1.14-.21-.05-1.12.07-.24.27-.55.24-.19.33,0,.33-.12.3-.5L391,212.72l-.42-.78.58-.25.55.09,1.21.57-.13-.57-.38-.86-.09-.59.08-.62.52-1.9-.18-.38-.34-.35-.08-.3.6-.21.42.13,1.65,1.11.55-1.24-.28-.57Zm-146.23-109-.19-2.1.13-.23.1-.17.07-.18v-.31h-1.33l-.9,1.11-.51,1.81-.16,2,1.83-.84Z"/><g id="UtNVxE.tif"><path class="cls-2" d="M257.32,340.29q5-15.3,9.95-30.63L241.2,290.73l0-.07h32.22l10-30.66h.07l10,30.67H325.6l0,.07-6.48,4.71-6.52,4.74-6.5,4.72-6.5,4.73q5,15.35,10,30.65l0,0-26.1-18.94-26.07,18.94Z"/></g></svg>