<svg id="Layer_1" data-name="Layer 1" xmlns="http://www.w3.org/2000/svg" viewBox="0 0 500 500"><defs><style>.cls-1{fill:#eee;stroke:#bcbcbc;stroke-width:2px;}.cls-2{fill:#e00000;}</style></defs><title>state_WV</title><path class="cls-1" d="M403.29,205.63V204.5l.37-1.18.24-1.17-.42-1.06-2.25-1-.64-.61,1.06-.81-.29-.79v-.68l.32-.5.67-.19v-.43l-.91.06-.81.26h-.72l-.62-.74,0-.41.29-.37.18-.47-.32-.71-.45-.19-.38.41-.25.7-.11.6H398l-.72-2.37-.29-.69,1.22-.32.89-.77.25-1-.71-1-.49-.21-.67-.13-.59.1-.26.48-.28.22-1.37-.39-.52.17-.77.45-1,0-1.11-.41-.93-.63-3.74-3.83-2.25-1.46-2.53-.19-.57.18-.45.22-.4.3-1.47,1.77-.56.46-.88,1.13-.35.31-1,0-2-.44-1,.23-1.27.64-.45.05-1-.16-.43,0-.49.32,1.34,1.9-.61.25-1,0-.8.23-.15.9,1,.33.25.33-.23.64-1.52,1.14-3.52-.49-1.68.53-.11.24-4-.68-1.2-.4-.24-.19-.21-.21-.81-.57-1.78-.88-.15-.11-.12-.1-.28-.39,0-.07,0-.11v-.17l0-.26.07-.23.07-.17.12-.14.39-.24.26-.09,0-.15-.08-.23-.55-.37-.45-.5-.15-.25-.34-.33-.23,0-.19.06-.15.21-.11.23-.21.51-.27.53-.71,1.1-.16.28-.11.34,0,.32,0,.27.22.37,0,.17-.14.17-.29.11-.86.19-.26.09-.23.14-.19.17-.2.21-.16.21-.49.85-.59.82-2.94,3-.48.79-.23.25-.27.23-.56.24-.42,0-.37-.08-.52-.3-.93-.89-.78-.48-.84-.32-.46,0-.37.07-1.86.95-.24.19-.18.27-.16.28-.62,1.59-.12.23-.13.21-.19.23-.19.18-.94.73-.53.79-.22.23-.25.18L331,204.64l-1.39,1.06-.64.67-.34.54-.58,1.34-.21.26-.37.17-2,.35-.39.12-5.49,4.93-.62.41-.47.24h-.21l-.1-.18.52-32.38H267.6v-7.59q0-12.79,0-25.59,0-13,0-26l-.77.21-2.19,1.56-.83-.47-1.24,0-1.25.43-.9.67-.51,1.29.36,1.11,1.63,2.21,1.1,2.15.43,1.14.17.93-.24,1.45-1,2.51-.09,1.5h.13l.32.07.33.15.22.23,0,.3-.07.69,0,.32.32,1.43.06.86-.2.37-.48,2-.28.38-1.33,1.1-.46.5-1,2.52-.46,1.46-.35,2.28-.42,1.16-1.06,2.22-.53,1.57-.19,1.22.06,2.64-.16,1.45-.38.88-.45.77-.36,1.09.07.42.21.53.06.6-.34.63-.62.08-.65-.36-.52-.07-.22,1,.15.66.26.73.18.69-.11.53-.92,1.13-.31.54-.3.73-.18.65-.2,1.26-.26.66-1.07.7-.41.53.29.76.77.88.52.74.16.84-.26,1.22-.8.65-.22.26,0,.28.07.71,0,.31-.57,1.73-.09.65L246.78,190l-5.45,4.3-1.58,1.79-1.12,2.09-.76,1-1.94.72-.88.74-1.39,1.53-.74.5-1,.42-1.09.31-1,.11-1,.39-1.71,1.61-1.16.15-1-.7-.66-1.18-.46-1.11-.46-.5-2.08,0-.79.38-3.69,3.56-.39,1.13-.34,2.44-.58.78-.38-.34-.31-.11-.28.11-.4.34-.33-.47-1.07.42-1.21,0-1,.29-.76,2.14-2.36,2.76-.38,1-.06.77.13,2.34-.1,1.44-.39.58-2.46,1-.29,0V223l.21.83.19.38.33.42.36.34.31.14.64.48.1,1.12-.25,2.26.32,1.05.45,1,0,.73-1,.28-.54-.21-.85-.93-.61-.22-.51.32-.3.75-.37,1.5-.59.89-1,1-1.07.56-.93-.48-.34-.69.1-.3.26-.36.14-.83.12-.18.23-.11.24-.17.11-.36-.05-.42-.11-.33-.18-.34-.23-1-.44-1-.67-.75-1.54-.64-.76-.71-.91-.6-1.16,0-1.57,1.19-1.65,2.17-1.4,2.42-.77,1.94-.33,2.56-.25.59-.63,1.1-.57,1.44-.92.65-.84.75-.15,1.47.37,1.08.45.85.37,1,.16,1.58-.32.89-.08.64.46,1.09.2.8.11.84,0,.63-.75,1-1.09.21-2.36-.35-.67.58-.55,1.35-1.05,5.49-.37,1.1-.71,1.09-.88.35-3.68.3-4.14,1.49-2.14.23-1.78-.82v0l0,.36v.69l-.19,1.63,0,.22,0,.18.16.48.9,2,.16.72,0,.59-.12.78-.11,1.41v.65l0,.33,0,.35,0,.31-.12.22-.22.15-.59.11-.24.09-.15.17-.09.28,0,.35.07,1,0,.32-.07.26-.16.26-.36.38-.88.64-.16.16-.09.15-.06.21,0,.29,0,.31.28.55,3.69,5.25.28.53.24.9.23.57.33.43,2.7,2.39.19.22.24.36.18.48.05.33,0,.22-.13.27-.6,1-.09.19,0,.29.26.33,2,1.43.27.28.27.36.37.64.17.43.09.4.23,2,.16.62.11.29.13.24,3.09,3.18.6.87.35.66v.33l.07.32.7,2,.22.93.23.33.42.29,1.91.71.38.2.37.26.47.48.91,1.32.13.11.2-.11.26-.09.38.09,1.52,1.37.39.47.16.24.11.29.06.32V316l0,.31.33.38.65.38,3.88,1.23.61.07,1.46-.35.54.06.91.51.41.45.15.21.13.29.07.32v.35l-.06.31-.07.26-.06.12,0,.06-1.19.93-.16.21-.11.29v.28l.09.26.2.2,1.75,1.13.17.19.16.21.12.26.1.29.05.32,0,.32v.35l-.17,1.48,0,.35,0,.34.1.29.16.26.2.22,2.35,1.65.46.39.17.23.15.26.45,1.16.13.24.17.24.43.43.57.35.19,0,.62.07h.68l1.07.11.43.15.28.14.26.19.22.22.17.22.65,1,.42.43.23.21,1.75.89,1.22.89.59.17,3,.28,1.15-.09.34-.14.37-.27,2.55-2.74.32-.21.4-.2.74-.22,2-.21.36-.19.38-.32.6-.68.29-.48.2-.44.35-1,.13-.26.24-.26.41-.24.62-.05.41.09.31.19.19.22,1,1.4.29.32.23.18,2.56,1.64.39.34.19.2.15.21.17.45.12.17.11.1.13.08.55-.15,4-2.07,5.08-.65.43-.14,1.34-.68.49-.05.37.06.68.59.28.06.35-.07,3.22-1.91.26-.26.28-.36.31-.64.06-.42,0-.36-.73-1.32-.09-.28,0-.35,0-.35L250,327l.11-.32.18-.29.27-.27.37-.26.67-.25.49-.06.44,0,1.36.31.16.06.15.12.09.18v.48l.11.21.21.15.86.17.25.12.2.16.11.21.11.23.14.17.15.09.17,0,.39-.09.23-.1,4.4-2.66,4.43-2.08,1.14-.39,1.16-.12.36,0,.48.11.17.24.08.24,0,.22v.55l0,.3.07.29.15.25.19.2.2.12.27.05.25,0,.26-.07.31-.2,1.47-1.31,6-3.4.22-.25.17-.36,0-.66-.19-.27-.57-.38-.19-.2L278,318l0-.29v-.29l.11-.39.24-.42.5-.53.37-.29.31-.2.81-.39,1-.66.45-.4.17-.31.12-.37L282,313l-.14-.33-.22-.24-1.4-.72-.54-.36-.62-.6-.1-.12,0-.15-.05-.22.23-.63,3.17-5.95.18-.44.4-1.42.07-.2Q288,295.8,293.07,290c.92-1.79,1.85-3.59,2.76-5.39l1.1-3.49.07-.39-.12-.64v-.48l.09-.33.18-.29,2.29-2.11,1.06-1.36.48-.42,1.11-.74.82-.87.23-.39.12-.39,0-.32-.06-.27-.21-.61-.07-.38.1-.57.25-.44.49-.65L304,269l.19-.56.17-.34.19-.22,1-.36.49-.32.21-.32.5-1.86.27-.55.8-1.06L308,263l.12-.35.06-2.61.13-.9,0-.15.92-1.3.21-.46.11-.35v-.35l0-.33,0-.5.1-.61L310,254l.28-.49.32-.26h.3l4.1,1.53.11.08.16.14.14.22,1.91,3.46.12.27,0,.12v.19l-.05.22-.2.49-.06.23.06.05.15.07,10.14,3.37.36,0,.26-.16.22-.22,3.81-5.28.32-.56.28-.62.71-2.15,0-.18.07-.23v-.11l.09-.17.45-2.07.14-.38.22-.46.43-.7.5-.51.52-.4.74-.45.36-.31.23-.28.07-.24.52-3.52.12-.4.22-.49.86-1.22.22-.43.14-.37.08-.32.22-.51.34-.58,2.07-2.8.25-.23.28,0,5.26,3.68.35.1.29-.19.27-.31,5.83-8.58.26-.17h.27l.16.16.14.22.13.25.16.21.2.17.25.06h.3l.39-.1,1.13-.5.38-.28.29-.27.33-.53.52-1.11.3-.52.26-.24.42-.17.51-.1.79-.28.43-.25.31-.27,1.26-1.64.28-.51V226l0-.24-.05-.24,0-.22.11-.25.8-1.33,1.94-2.34,2-1.54,1.59-2,.23-.35.09-.25,0-.3,0-.29-.2-.92-.06-.32v-.34l.07-.38.09-.38.32-1,.05-.37,0-.36L371,212l-.05-.27,0-.28v-.27l0-.31.12-.29.17-.28,1.51-2.16.7-1.21.21-.65.09-.38.09-.74,0-.64-.29-1.9v-.64l.1-.51.26-.62.69-1.1.68-.37c1.07.85,2.13,1.72,3.2,2.58,6.73,5.47,13.53,10.87,20.22,16.39l.43.37.31-.76c1.55-3.67,3.12-7.34,4.64-11l-.07,0Z"/><g id="UtNVxE.tif"><path class="cls-2" d="M204.32,297.29q5-15.3,10-30.63L188.2,247.73l0-.07h32.22l10-30.66h.07l10,30.67H272.6l0,.07-6.48,4.71-6.52,4.74-6.5,4.72-6.5,4.73q5,15.35,10,30.65l0,0-26.1-18.94-26.07,18.94Z"/></g></svg>