<svg id="Layer_1" data-name="Layer 1" xmlns="http://www.w3.org/2000/svg" viewBox="0 0 500 500"><defs><style>.cls-1{fill:#eee;stroke:#bcbcbc;stroke-width:2px;}.cls-2{fill:#e00000;}</style></defs><title>state_WY</title><path class="cls-1" d="M392.88,350.43c0-8.61,0-17.22-.06-25.82s0-17.23-.07-25.84q-.06-13.44-.07-26.88l0-9.91q0-13.1-.07-26.19,0-13.77-.09-27.55c0-8.48-.06-17-.08-25.43q0-13.4-.08-26.77H99.07q0,8.77,0,17.54,0,13.13,0,26.26t0,26.26q0,13.06,0,26.15t0,26.42q0,13.17,0,26.34v26.91q0,12.84,0,25.67,0,13.22,0,26.43h0v0H393c0-2.3,0-4.59,0-6.88Q392.95,363.8,392.88,350.43Z"/><g id="UtNVxE.tif"><path class="cls-2" d="M294.32,368.29q5-15.3,9.95-30.63L278.2,318.73l0-.07h32.22l10-30.66h.07l10,30.67H362.6l0,.07-6.48,4.71-6.52,4.74-6.5,4.72-6.5,4.73q5,15.35,10,30.65l0,0-26.1-18.94-26.07,18.94Z"/></g></svg>