<svg id="Layer_1" data-name="Layer 1" xmlns="http://www.w3.org/2000/svg" viewBox="0 0 500 500"><defs><style>.cls-1{fill:#eee;stroke:#bcbcbc;stroke-width:2px;}.cls-2{fill:#e00000;}</style></defs><title>state_CO</title><path id="CO" class="cls-1" d="M409.72,346.38q0-13-.08-25.94,0-13.49-.08-27-.07-13.18-.09-26.37t-.08-26.4c0-8.77-.06-17.54-.07-26.32s-.07-17.85-.07-26.78q0-14.21,0-28.42,0-10.77,0-21.54H109.73V256.73c0,4.5,0,9,0,13.51q0,10,0,19.94v66.19h300q0-5,0-10"/><g id="UtNVxE.tif"><path class="cls-2" d="M258.32,257.29q5-15.3,9.95-30.63L242.2,207.73l0-.07h32.22l10-30.66h.07l10,30.67H326.6l0,.07-6.48,4.71-6.52,4.74-6.5,4.72-6.5,4.73q5,15.35,10,30.65l0,0-26.1-18.94-26.07,18.94Z"/></g></svg>