<svg id="Layer_1" data-name="Layer 1" xmlns="http://www.w3.org/2000/svg" viewBox="0 0 500 500"><defs><style>.cls-1{fill:#eee;stroke:#bcbcbc;stroke-width:2px;}.cls-2{fill:#e00000;}</style></defs><title>state_CT</title><path class="cls-1" d="M407.78,232.07q-.11-12.72-.19-25.45-.1-13.73-.22-27.45t-.2-27.62l0-3.41-.09-2.24c-8.41-.06-16.82-.11-25.23-.28l-28.36-.56-28.14-.55L298.7,144l-9.1-.17-2.79,1.46-1.33.06-2-.34-3.62-1.13-21.33-.33-.87,4.77L251,149l-.19-5.44-8.39-.77q-12.45-.49-24.89-1l-29.74-1.15-23.34-.89-18.15-.7q-.9,13.65-1.73,27.29c-.53,8.46-1.09,16.91-1.62,25.37s-1,17-1.58,25.48c-.63,9.18-1.2,18.37-1.76,27.55s-1.19,18.23-1.75,27.34c-.49,8.12-1,16.23-1.55,24.34,2.37,4.16,4.71,8.32,7.11,12.45l2.34,3.4-2.48,1.88q-11.47,7.08-22.89,14.22l-9.59,6-2.19,1.47.87,1.46q3.75,6,7.57,12l.5.61.68.5.38.33.51.67.77,1.77.56,1.68,3.57-2,1.93-1,.55-.27.5-.79,3.21,2.59,3-.22,2.85-2,2.67-2.89,1.42,1.75,2.92-5,2.53,1,1.65-.19L152.9,342l2.16-1,6.83-4.62,1.23-.36,1.16-2.23,2.75-1.54,3-.9,2.06-.3,1.28-.46,1.75-2,1.28-.47,1.28.34,2.2,1.27,1.34-.07,1.09-.85,2-2.67.61-.55.5-.37.51-1.78.63-.79.33.22.51.6.58.54.7,0,5.23-4,1-.22,1.8,1.21.78,1.38,1.06.79,2.79-.57,2.06-.85.79-.73.53-1.17,1.47-2.25,1.38-1.16L211,315l1.56-1.44,1.64-1,4.46-.3,1.93-.74L222,310l4-5.66,5.79-5.62.4-1,1.29-2,1.42-1.34.65.94.41,4.81,1.18,2.34,2,.72,9.12-.26,1.62.83,1.13.38,2.53-2,1.61-.57,5.91-.41,2.1.41,1.52.89,1.38,1.09,1.51.8,2,0,1.23-.82,1.2-1.45,1.42-1.33,8.85-2,3.57,1,6.42,3.12,1.71-1.33h1.14l.41,1.06.41.43.55.38.84.94,2-2.84,3.17-2.21,3.48-1.42,3-.43,6.6,2.51,3.25.25,2.93-2.76-.58-.3-1.52-1.23,1.6-4.9-1.46-3.23-2.58-2.71-1.78-3.36,2.94.32,2.29,1.41,1.5,2,.79,2.06-.09,1.89-.61,1.58-.4,1.43.5,1.5,1,.82,2.15,1,1.11,1,5,2.2,9.45-5.69,4.17,2.72.92-5.44,4.09.28,5.05,2.15,3.85.19,1.46-2.34,1-4.86,1.8-1.24,7.33,7.05,9.86-5.31,1.47-.34,10.13-.26,2,.4,2.05,1.11,1.52,1.37,0,1.15-2.48.46v1.42l5.13-.72,1-4.08,1.38-10.4.91-2.78,1-1.64,2-.54q.69-10.65,1.33-21.3-.07-9.09-.14-18.16"/><g id="UtNVxE.tif"><path class="cls-2" d="M255.32,245.29q5-15.3,9.95-30.63L239.2,195.73l0-.07h32.22l10-30.66h.07l10,30.67H323.6l0,.07-6.48,4.71-6.52,4.74-6.5,4.72-6.5,4.73q5,15.35,10,30.65l0,.05-26.1-18.94-26.07,18.94Z"/></g></svg>