<svg id="Layer_1" data-name="Layer 1" xmlns="http://www.w3.org/2000/svg" viewBox="0 0 500 500"><defs><style>.cls-1{fill:#eee;stroke:#bcbcbc;stroke-width:2px;}.cls-2{fill:#e00000;}</style></defs><title>state_IN</title><path class="cls-1" d="M330.65,308.45l-.8-.39-.61-.8.45-.63,1.78-1.77.52-1.12-.26-1.1-.75-1-1.39-1.48-.14-2.07L331,296.4l1-.61q.1-13.17.22-26.34l.21-26.49q.12-13.32.22-26.62c.07-8.82.16-17.63.21-26.45s.14-17.52.21-26.28.12-17.49.2-26.24c.06-5.62.11-11.24.09-16.86H306.48l-25.1,0q-13.23,0-26.45,0H230.31l-9.37,5.27-8.66,3.11-4.55.46-4.72-.81-1.11-.41-.76-.52-.36-.87.16-1.41-1.6.63-1.76-1.31-1.38-2c0,9.06-.06,18.11-.09,27.16q0,12.63-.09,25.26,0,13.06-.11,26.13-.06,13.89-.11,27.79-.06,13.41-.09,26.81c0,7.66-.09,15.31-.09,23l-.19.28-3.05,1.45-.9,1-.52,1.31.23,1.13,1.15,2.18-.05,2.78L189,292l-.18,2.47.3.54.37.32.74.47,1.53,1.56.51,1.15.43,2.4.31,1.09.58.72,1.49,1.31.31.82v2.63l-.16.71-.71,1-.16.75.55,2.38L196,314.8l.65,2.52L195.12,322l-.26.47-.6.12h-.69l-.52.09-.81.7-.76,1.08-.42,1.28.24,1.28-.15.34-.16.26-.18.18-.2.14h.32l-.66.4-.65.53-.5.73-.26,1,.18,1,.84,1.34,0,.76-.35.7-.27,0-.3-.29-.46,0-.37.31-.54.64-.43.36-1.59.83-1.52.49v.47l.76.76-.26,1.29-.78,1.35-.77,1-.35.21-1,.35-.41.32-.4.69-.45,1.46-.32.7-.17.58-.07.81-.13.72-.35.31-.47-.28-.21-.61-.13-.63-.19-.26-.37.19-.39.47-.33.52-.4,1.21-.54-.35-.48-.73-.05-.41-1,.25-.47.79-.27,1-.36,1-.45.57-.43.37-.34.44-.17.76.14.7.34.49.35.4.17.42.5.61,1,.54.63.73-.53,1.14-.48.27-1.09.27-.49.35L171.76,359l-1.18.85.82.4,1.58-.16.75.68-.71.63-.84.56-.89.39-.85.16-.62.28.69,1.56-.6.76.2.64.2,1,0,1-.24.43-.48.33v.78l.3,1.29.11.88.15.61-.15.46-.8.42h-.5l-2.24-.44.83,1.07,2.46,2.37.33.71-.54.28-.77.06-1.45-.1-.2.13v.3l.18.3.35.13,1,.1,1.18.49,1.15-.16.88.34,1.79,1.15.93.25.25-.43,2.34-2.6-1.52-3.76-.2-.87.36-1.32.88-.53,1.07.19,1,.82.75.94.79.72.93.51,1.13.22,1-.14,2-.69.47,0,.48-.46.77-.42.85-.07.65.51.09.88-.52,2.07.12,1,1.14.76,1.52-.6,1.29-1.42.52-1.74-.26-1.31-.92-1.84-.2-1.43.16-.79.39-.39.44-.09.39.18.27.47-.07,1.07.17.63,1.76,1.66,1.95-.4,2.07-1.15,2.12-.55,1.09.27,1.19.57,1.13.74.9.78.91.62,3.4,1.36,1.79,1.21.53.26.71.2.93,0,.6.25.23.57.12.73.24.67.78,1,.43.39.56.36,1.56-1.07.82-1.49,1.38-4,.6-1,.59-.7.7-.47.89-.4,2.95-.32.66-.34,1.16-1.13,1.93-1.47,1.82-.71.8,1.14.42,1.68,1.08,1.72,1.55,1.27,1.76.32,2.23-.43,1,.25-.58,1.28-.37,1.12.73.6,1.21,0,1-.69.4-1.27v-1.27l.3-.95,2.7-.58.63-.61.16-1-.17-4.19.25-1.35.68-.57,1.08-.09,1.14-.37.87-.78.2-1.38-.28-.69-.91-1-.19-.68.27-.6.58.05.57.31.27.24.27.62.61.19,1.19-.12,2.13-.9.87-1-.41-.46-1.05-.33-1-.62-.6-1.19.54-.43,1.07.11.93.44,2.6,2.06.46.75-.19,2.68.1,1,.46.92.79.7,2,1.08.82.63,1,.58,2.54.19,1.13.3,1.9,2,1.09.88.49-.49.49-1.07,1.17-.44,2.46-.43.57-.39.49-.44.39-.51.31-.57.52-1.65.46-6.09.24-1.32.46-1.41.68-1.13.85-.44.5-.58,1.09-2.64.69-.75h.5l.69.16.6.26.27.23.25.57h.58l1.9-.59,1-.55,1.78-1.4,1.09-2.17,1.19-5.66,1.5-1.85,1-.28,2.16-.22.76-.57.78-1.12.68-.8,2.69-2,.72-1,.21-1.19-1.05-2.5-.43-4-.37-.9-.4-1.34v-1.22l.94-.53,5.81-.55,3.19.15.88.43,1.72,2,1,.61,2-.45,7.35-4.55,3.2-1.33,1.74-.25,4.12.44.66-.36-.68-2.13.36-1.26.71-.87.67-1.09.06-1-1.1-.4Z"/><g id="UtNVxE.tif"><path class="cls-2" d="M240.32,262.29q5-15.3,10-30.63L224.2,212.73l0-.07h32.22l10-30.66h.07l10,30.67H308.6l0,.07-6.48,4.71-6.52,4.74-6.5,4.72-6.5,4.73q5,15.35,10,30.65l0,0-26.1-18.94-26.07,18.94Z"/></g></svg>