<svg id="Layer_1" data-name="Layer 1" xmlns="http://www.w3.org/2000/svg" viewBox="0 0 500 500"><defs><style>.cls-1{fill:#eee;stroke:#bcbcbc;stroke-width:2px;}.cls-2{fill:#e00000;}</style></defs><title>state_MA</title><path class="cls-1" d="M354.9,325.57l-1.26,1-1.35,2-1.13,1,.47,1.24,1.12,1.41,1.33,1,1,.14.51-.94.15-1.6-.07-3.49Zm-7.8,1.67-1.17-.46-1.09-1,1.65-1,.86-.86,0-1.07-.86-1.64-1.21-.58-.76.9-.76,1.29-1.23.66.88-2.59-1-.26-4.55,1.94-2.48,2.59-1.09.59-1.05.81L331,330.52l-1,1.37-1.52.67h-5.35v.82l1,.76,1.59,2.11.87.9,1.52.94.86,0,1.6-1.57,2-1.32,2.32-1,2.5-.61,11.75-.23,1.45-.39-.82-5.62Zm45.27,7.93-1.32-4.8-.37-.87-.47-.55-.62-.21-.83.12,1,3-.59,2.42-2.63,4.4,1.31-.61,2.33-2.52,1.52-.57-.51,1.53-.94,1.46-1.2,1.1-2.12.66-.88,1-.67.28-.66,0-.76-.54-.79-.24-2.53-.09-7.17.91v.69l9,3.14,4.64.8,4.57-.17,4-2.2-.76-3.6ZM396,301.49l-.3-.49-.66-.25-.66,2.88-3.37,8.54,1.59-.35,2.17-6.48,1.4-2.26,0-.9ZM397.93,278l-3.71-13.13-2-3.15-4.55-5.29L386,255.17l-3.56-1.8-1.28-1.09-1.38-.63-3.56.48-1.36-.61-.66-.09-.84.64-.73,1-.3,1.06.23.52.49.39.56.33.42.36,1.89,2.81,1.2.74,1.46-.51V258l-.42,0-1.28,0,1.7-2.81,2.9,0,2.7,2.08,1.2,3.45.25,1.27,1.52,5.24.13,1.67-.13,5.25.94-1.22.47-3.45,1.15-.72.82.41.78.88,1.06.8,1.6.18v.83l-1.35.59-.73.19h-.8l1.62,2.79.64,3.64-.49,3.66-1.77,2.83-1.25.57-3,.51-2.39,1.7-7.55,2.1-4.34,2.54-2.59,1-3.37-.05-1.67-.41-.37-.71,1.08-.63,3.08,0,1.25-.52-10.52-1-3.17-1.24-5.43-3.76-2.38-2.92.12-2.85.64-3-.49-4.24-1.28-3.8-1.73-1.65-3.26.31-1.55-.28L339.42,266l-4.8-5,.74-.46.61-.15.67.15.81.46.78-5.3.62-.8.79.7.81,1.63,1,3.07-.52.09-.76.44-.42.17.84.56.86.26.88-.16.84-.66.49-.76-.13-.3-.44-.34-2.5-4-.69-1.82.42-1.91L338.45,250l-2.08-3.92-1.48-2.22-1-.93-.4,0,0-.34v-3.32l-.23-.76-2.11-2.67-1.65-1.51-1.84-1.17-4-1.12-2-1.61L318,226.57l0,1.33.59,1.78,1,1.56,1.09.68,0,.66-.67,1.16-1,.44-.93-1.49-.94.74-1.35.77-1.2.48-.54-.05-.22.42-.5-.05-.51-.33-.37-.38v-.48l.88-.89.25-.61-.86-1.46-1.72.07-1.28-.46.45-3.06-2,1.22-.79,0-.93-.83-.72-1.53.4-1.15,1-.69,1.28-.11-.47-1-.64-.64-.81-.39-.93-.27,1-1.45,1.18.66,1.4,1.05,1.55-.26-.86-.47-.69-.8-.1-.76.84-.33,1.13.45,1.36,1.78,1.22.13-.66-1.07-.23-1-.24-2.47-.69-1.8.08-1,.85-1.48,1.63-1,2.26,2.75,2.06-.66-1-.68-1.11-.94-.64-1.19.28-1.38.54-.43,1.34.14.64-.13.55-.4,1.67-1.57.36-.51.45-.42.71-.17.71-.29-.17-.64-.81-1-.35-1.12-.83.6-1.13,1.17-1.16.57.2-1.06.35-.86.51-.69.71-.53-.64-.77,1.41-1.05,4.25-1.79L335,197l.64-.76.47-1,.76-1,1-.65.47.08.27.57,1.55.22.39-.23.89-.68.71-.88.39-.94.59-.65h1.21v-.69l-.44-.92.24-1,.12-.82-.83-.34-1.11-.08-.71-.38-.32-.91.15-1.64-2.26,1.17-1,.81-.69,1,.17,3-.4,1-1.47-.94-.1-1.43-4.65-.45-1.49-2,.81.05.68-.12,1.28-.7-4.71-2.29-1.77-1.89-.33-3.52.92.87,2.48,3.75.64-.84-2.43-7.23-.91-1.38-.43-1-.27-.37-.29-.09-.64.11-.22,0-1.77-.86-.79-.55-.83-1,3.78.26.76-.26.16-1-.67-4,.07-.79-3,.75-1.74-.45-2.81-1.21-1-.17-.76,0-8.09,3.59-.91.67-.41.39-1.24,1.52-.61.63-1.08.79-.79.27h-.93l-1-.19-1.42-.08-.84.14-.66.25-.45.32-.44.39-.77.94-.34.51-.64,1.21-.76,2.11-.35.76-.85,1-1,.46-1.63.49-.86.37-.64.43L288,180.94l-1.21,1.21-1.23.94-.66.32-.85.13c-8.58-.29-17.17-.55-25.76-.85-9-.31-17.91-.59-26.87-.89q-13-.45-26.08-.86-8.86-.28-17.73-.6h-.16c-8.77-.32-17.54-.67-26.3-1q-13.4-.51-26.79-1L122,177.86l-1.37,1.8c-2.37,8.74-4.67,17.48-7,26.22q-3.39,12.59-6.75,25.17c-2,7.45-4.1,14.87-6,22.33l2.23,2.74,26.92,1,24.6,1,4.5.42.1,2.91,3.59-.36.46-2.55,11.44.17,1.93.61,1.09.18.71,0,1.5-.78c9.21.16,18.42.36,27.63.53l25.74.52c3.19.06,6.38,0,9.57.07l.06,1.2,26.47-.54,3.66-.07,4.32.06.1,1.52c.14,3.5.29,7,.44,10.51l.13.74.24.58.66.19,1.58-.1.66.14.3.4.17,1.27-.05.8-.07.68-.22.95,0,.54.12,1.11-.39,3.77,0,.6.15.7.44.85,1,1.27L284,288l1,.54.81.27,1.53,1.25,2.6,4.49.67-1.28.16-.53.48-.64,1.1.26,1.84.79.79-.51.57-.75,2.6-5.18,1-1.39,1.27-.53-2.05,4.63-4.56,7.77-1.4,4.37-.22,2.23-.06,2.66.28,4.89.94,4.13,0,.81-.47,1.2.23,1.16,1.12,2.59,5.31-4.89,2.07-1.16-.38-.54-.76-1.73,3.08.58,1-.58,0-2.26,1.08,1.37.46,1.67-.49,1.46-1.66.73,2.45,1.11,2.07-.57,3.71-2.82-.13.29-.09.47,1.15,0,1-.58,1.9-1.58-.54-3.28.88-2,1.13-1.83.17-2.8,2,1.35.57.55.34.8L321,307l.51.62,1-.09.1-1.27-.49-2.85.79.07,1.62-.67,1.35-.84-.08-.41V301l.68-.87,1-.18,1,1.58,1.53-1.86.58-1.86.81-1.15,2.22.25-.77-1.53-.11-1.34.29-3.62.79-.2,1.72.93,2.62,2h.57l.27-1.36.66-.74.79.08.59,1.19-.37.16-.81.67.49,1.22-.66,1-1,.92-.52,1.06.11,1.54.41,1.81-.05,8.46-.76,3.06-2,2.17,2.66-.22,4.79-2.24,2.52-.56,2.76-.12,2.36-.5,2-1.13,1.72-2,2.56-4.47.85-.91,1,.29,1.21,2,.88-.42,1.26-1.08,1.15-.27,2.76.28,1.32-.23,2.26-1.06,1.23-.22-.83,2.8-.15,1.15.73-.61,1.31-2.17.71-.84.84-.33,1-.22,2.68-1.37h4l13.2-2.36,3.27.85.53-7.43-.14-5.78-.64-1.49-1.23-.15-1.91,1.18.32-1.49.31-3.18.45-1.47,1.1,1.28,1.21,1,.37,0,.29-.1.27-.2.27-.36Z"/><g id="UtNVxE.tif"><path class="cls-2" d="M276.32,266.29q5-15.3,9.95-30.63L260.2,216.73l0-.07h32.22l10-30.66h.07l10,30.67H344.6l0,.07-6.48,4.71-6.52,4.74-6.5,4.72-6.5,4.73q5,15.35,10,30.65l0,0-26.1-18.94-26.07,18.94Z"/></g></svg>