<svg id="Layer_1" data-name="Layer 1" xmlns="http://www.w3.org/2000/svg" viewBox="0 0 500 500"><defs><style>.cls-1{fill:#eee;stroke:#bcbcbc;stroke-width:2px;}.cls-2{fill:#e00000;}</style></defs><title>state_MI</title><path class="cls-1" d="M179.82,144.29l-1.43.9-.58.62-.28.82-.12,1.15,0,2.18.42.62,3,.21.33.29.56.85.22.17,1.48-.33.43-.47,0-.9-.42-.55-.85.6.33-.78.59-.88.65-.7.5-.27-.19.77-.14,1.72-.14.81-.33.87-.31.42-1,.68-.5.54-.2.51.11.56,1.84,3,.48-.25.42-.6.69-1.28,1-2.64.28-.44,1.25-.64.29-.56.16-.73.42-.34.58-.09H190v-.33l-.37-.63.13-.91.42-.89.47-.57.44-.14.43,0,.43,0,.39-.34,1.37-1.65.31-.26.82-.33.35-.23.55-1.14.22-.18.7-.17.71-.43,2-1.73-.54-.62-1.15-.5-1-.25.41-.59.67-.11,1.42.07,1.8-.59.68-.08.73.11,1.33.46.74.1.66-.18,1.18-.75.75-.06v-.34l-.43-.43-.65-1.06-.49-.49-1.23-.74-.64-.21H196l-2.79.53-2.38,1-.46.36-.5.59-.36.21-.37-.12-.38-.2-.36-.06-.24.17-.89.83-2.65,1.35-1.09.79-3.14,4.33Zm138.1,62.19-.3-.36-.39-.17-.47.07.19-.62-.2-.31-.9-.36-.46.48-.22.16v.33l.26.05.14.08.1.09.18.1-.45.35.75.41.59.19,1.37.05Zm-81.26,7.94.41-.29.31-.33.25-.43.18-.56-.31-1,.42-.47.74-.14h.6l1.2.89.81.34L242,212l.45-.65.49-.48.54-.37.65-.28.69-.18.41.09.31.38.38.67-1.07,3.11.07.46.12.09,0,.23,0,.22-.12.1-.24,0-.44-.22-.22,0h-.8l-.34,0,0,.14,0,.2-.17.42-.12.59-.06.2-.1.08-.19,0-.19.06-.17.17-.34,1.35-.23.42-1.07,1-.12.52.39.86.35.5,1,.78.56.56.34.27.33.11.35-.23v-.48l-.14-.5-.09-.23,0-.24-.17-.42,0-.29.1-.36.21-.06.24,0,.16-.08.65-1.68.49-.65,1.06-.39.16-.33.08-.47v-.53l.16-.31.39-.11.8,0,1.35-.64.19-.22.27-.54.23-.23.5-.16,1.23-.16.52-.33.25-.29-.25-.32.88-2.66,1.09-2.05,1.52-1.32,5.66-.9,1.25.14,2.09.73,2,1.2-.13-1.1.24-.7.61-.38,3.53-.52,4.23.1.56-.32.45-.73.67-1.5,2.13-2.8.68-.43,2.62.26,1-.58.31-.07.36.25.4.4.39.29.32-.12.7-.53.7.26,1.19,1.1.69.26,2.24.06.73.21,1.73,1.09,3.19,1,.56.5,1.18,1.43.4.3.31.31.71,1.34.34.31.65.09.78.3.65.54.27.84.63.89,1.43.83,1.53.26.92-.85-.58-.34-.26-.91.11-1,.51-.65-.36-.32-.19-.45,0-.55.31-.64.45-.36.34,0,.24-.2.34-2.49.7-.59,1,.17,1,.65.66-.41.66.26.5.69.2.89,0,.62.11.21.3,0,.16-.08.5-.45.24-.11.92,1,.21-1,.21-.35,1.84.23.81.63.54.17,0-.1.21-.22.29-.22.27-.1.41.1.68.44.35.1,2.16-.08,6.61,1.38.26.17.36.1.29-.18.31-.25.39-.14,1.77-.27.5.27,0-.53.11-.47.3-.93-.57-.17-.43-.37-.39-.43-.43-.32-.67-.19-.53-.06-.5-.19-.52-.56-1.19-1.58-.18-.39,0-.71.23-.5.34-.46.3-.59H328l-.37-.16-.74-.46-.22,0-.48.08-.22,0-.14-.2-.31-.8-.61-.2-1-.15L323,196l-.4.46-.37.29-.75-.79-.63-1.05,0-.53.76-.25,1.05-1,.78-.06-.34-.87-.84-1.25-.16-1-.16-1.84,1.54.16,0,.19.78.1.4.15.67.53.18-.32v-.42l.33,0,0-.08-.77-1.3-.61-1.18-.37-1.59,1.59-4.44-1.22-.71-1.64-.23-1.46.94-2.09,1.19-1.56-1-1.22.12-1.1.41-.82,1-.57.55-.43.56-.39.4,0,.56-1.31.8-1.33.3-1.11-.65.3-1L309,182l-1.26-.84-1.07.31-.85.8-1.14.57-1.21.34-1.09.11-.52-.11-1.39-.9-1.23-.29-.23-.14-.47-.68-.32-.22-.44.07-1.08.53-.53.08-.62-.22-.42-.42-.28-.58-.24-.73.91-1.1.33-.82-.43-1.61.58-5.61.17-.71.46-.59.57-.38.51-.46.29-.83-.78.1-1.37.46-.7.1-2.77-.35-2.54.21-3.05,1-6,3.11-1.53.28-11.15-1.2-1,.21-.24-.32-.9.56-5.42,1.14-.9-.16-.9-.56-4.52,3.29-3.74,1.7-1.31,1.13-1.19.21-.52.22L246,180l-.43.51L244,182.9l-1,1-1.1.32.07-.21.09-.53.07-.21-.94,0-.71-.15-.59-.43-.6-.88-.7-.61-.67.26-1,1.18-.66.39-.9.25-.79-.12-.34-.7-.17-.41-.36-.08h-.42l-.31-.17-1-1.48-.16-.45,0-.3-.11-.25-.38-.33-.41-.22-.46-.08-.45.11-.37.37-.3.2-.43.05-.84-.08-.19.19-.54.85-.29.27-.78.07-1.58-.31-1.4.72-4-.69-.84-.47-.46-1-.16-2.4-.14-.34-.34-.22-1.72-.79-.33-.46.06-.69-.6-.44L214,173l-.54-.82-.22-.82-.33-.45-1.51-1.68-.43-.64-.53-2.1-.51-.92-.65.22-.37.19-.24-.44-.29-1.06-.24-.06-.81.27-.4-.06-.33-.33-.32-.88L206,163l-.31-.11-.37,0-.31,0-.13-.36-.45-.43-3.5-1-5.3-.48-1.81.17-2.62.77-.55.6-.3,1-.73,1-.88.8-.78.26V165l.67-1,.58-1.32.65-1.17,1.83-1,1-1,.33-.84-1-.06-.5.23L190,160l-1.44,1.46-1,.46-1,1.1-.52.26-1.11.14-.38.31.47.56-1.8,2.59-1.11,1.29-.46-.31.13-.31.3-.19.32-.15.25-.17.07-.28-.09-.28-.67-1.41-.11-.47.12-.48.21-.45.11-.45,0-.45-.2-.45.42-.83.37-1.1.26-1.18.1-1-.19-.93-.47-.92-.6-.77-.56-.52-.22,0-.21.2-.23.08-.24-.3v-.22l.2-.5L181,153l.05-.57-.16-.52-.75-.64-1.71-.22-.84-.28-.73-.75-.07-.81.22-1,.16-1.26-.33-1.08-.75-.05-.84.47-5.53,4.8-.91.46-.22.19-.66,1.4-.13.22-.19.43-1.17,2-.56.6-.33.13-1,.16-1.32.58-.37.08-1.61-.38-.67.05-.76.66-2.4,2.7-2.68,2.05-3,1.42-13.06,1.62-1.32.7-6,5.66-1.39.8-5.83,1.92-1.74,1.11-.4.11-1.09.07-.88.23-.83.4-.74.53-.1.23.16.91.15.48.14.2.22.15.37.06.27,0,.25-.1.58-.37.22,0,.23.13.33.69.19.22.64.13.3.12.31.32.27.21.39.14.32,0,.33.11.32.23.43.5.41.58.33.79.56,1.35.87,2.06.54,1.3.27,1,.09.24.19.22.92.26.35.09,1,.28,1.53.42,2,.55,2.33.64,2.6.72,2.78.78,2.88.8,2.87.79L150,195l2.6.72,2.34.64,2,.55,1.51.42,1,.27.34.09,1.18.33.68.39,1.95,1.12,2,1.12,1.94,1.12,1.95,1.12.8.45.43.06h.25l.49-.1h.22l.23.1.25.23.32.07h.28l.69-.26.25,0,.3,0,.34.12.51.27.75.24,1.11.59.38.09.28,0,.72-.57.22-.06.24,0,.24.06.26,0,.23-.06.41-.23.22-.07.25,0,.26,0,.35.13.34.2.55.43.32.09h.28l.2-.08h.25l.25.09,1.13.63.32.06h.27l.69-.2.28.05.3.18.84.68.19.08.57.1,1.14,0,.28.05.26.1.58.34.55.21.28,0h.27l.49-.08h.27l.24.1.86.7.21.13.51.19.3.19.27.33.84,1.91.13.35,0,.42-.12.27-.12.23-.72,1-.13.23-.09.25v.32l.08.33.32.44.25.24.5.29.49.21.55.14.27,0,.53-.07.68-.21h.18l.15.07.09.07.39.54.15.16.18.15.21.12.54.16,1.44.13.25.08.22.13.18.14.15.17.38.59.16.16.79.57.33.3.41.55.45.49.2.27.06.15V220l-.09.27-.15.16-.35.3-.08.26,0,.34.24.5.56.94.11.28.07.35V224l-.08.38-.13.28-.16.15-.21.1-.22.07-.15.19,0,.42.31,1,.27,1.45v.32l0,.15-.07.25-.18.47-.25.43-.14.2-.16.17-1.09.82-.14.18-.09.28,0,.38.09.58,0,.38-.07.31-.39,1,0,.29.09.29.2.29.5.34.32.07.26-.05.38-.23.22-.07h.26l.75.23.28,0,.25,0,.24-.05,2.41-1.31.21-.06.23,0,.2.15.2.25.27.43.22.42,0,.23v.25l-.16.29-.5.56-.27.39-.82,1.88-.64,1.89-.13.58-.15,1.49,0,.32.24.44.49.65.77.79.33.46.19.32.06.22.55.45,1.79.74,0-.14-.29-2.07.11-1,1.42-.81,7.1-10.81.17-.51.22-1.14.17-.44.64-.72.28-.4.58-2.25.37-.71,1.15-1.8.76-.82,1.3-2.75.6-.51,1.43-.49.57-.47.47-1.5.09-.1.21-2.09.48-1.86.45-1,.54-.4.28-.53.61-2.41.38-.66h.56l.2.5,0,.66-.09.48-.27.63-.66,1.08-.2.54v.84l.21.67.27.56.19.53.06.79-.26,2.26.13.74.32.56.31.15.13-.49.28-.3,1.25-.44.85-.14.57-.23.47-.35.2-.45.23-.73.87-1.35ZM158.49,113.84l-.31.31-.46,1.17,0,.41.11,0,.14,0,.17.12.63.84.71.26.78-.13,5.62-2.71,1.73-.29v-.33h-2.92l.42-.57,1.24-.79.14-.34,8.58-3.65,1.7-1.09,1.33-1.22.13-.22-.05-.38-.17-.9,0-.25.76-1,2.4-1.49.88-.86.43-.52.16-.26.11-.26-.37.5-.46.26-1,.28.14-.41.26-.35.69-.58-2.45,1.4-.69.61-.55-.24-1.06.48-.42-.24-2.48,2.06v-.71l-1.06,1.07L171.81,105l-1.49.81-.87,0-.61.65-.83.52-.83.28-.65-.11-1.15.86-4.62,2.54-3,2.32.35.56.55,0,1.14-.52v.33Zm175,92,.13,0,.15-.56.33.15.34.44.19.31.23.26.8.56.19.52v.09l.22,0,.35-.25.14-.05h1.22l.33.15.37.29.37.19.29-.13.75-.72h.71L342,208l.77.29,1,.11.91-.13.6-.44,1.15-2.56.11-.52-.64-.55-.83-.18-.72-.42-.31-1.27-.23-.93-.58-.66-1.46-.83-2.1-.13-.91.21,0,.71.4.3.49.1.35.26v.81l-.21.44-.35.25-.79.31-.8.44-.39.15-.51,0-.24.21-.5.88-.38.2-.61-.4-.7-.7-.69-.24-.61,1-.08.69.17.32Zm-92.77-25.33.2.34.22.47.14.62,0,.33,0,.18.33.2.21,0,.09-.51.17-.12.17.1.17.22.11.22,0,.11.74.07.42-.16.21-.56-.14-.58-.42-.07-.49.09-.32-.12v-.39l.21-.44.49-.8-.34-1-.22-.36-.34-.27-.78-.25-.61.23-.37.62-.06,1,.1.48ZM357.34,379.14l-.53,2.49-.09,1.33.4.43.42-.67.09-1.3,0-2.56ZM324.71,189.77l-.52-.59h-.87l-.25.38,0,.66-.2.87.63.88.58,1.12.68.65.93-.53.19-1-.45-1.29Zm-64.29,59.72-.26-.19-.25-.27-.61.21-.46.61-.22.77.15.66.72.44.58-.52.5-.89.47-.67-.33,0Zm3.89-3.35.1-.6-.25-.55-.41-.37-.48-.31-.44-.39-.51,0-.36.34-.48.89,1.11,2.43.84.74,1-.63-.46-.44.09-.55Zm51.89-31.75-.15-.62-.48-.61-.16.25-.05.59-.19.42-.34,0-.78-.5-2.17-.55-.9,0-.77.47.46.54,1.56,1.42,1.1,1.32.48.32.58.17.69.06.68-.06.54-.17.4-.44.61-1.33.35-.51-1.05-.34Zm65.29,127.82-.24-.3-.25-.68-.88-2-.33-.41-.24-.44-1.66-7.85-.68-7.86-1.07-3.5-1.88-12.85-1.18-2.65-.17-.64-.11-.94-.27-.75-1.75-2.74-1.06-1.12-1.22-.92-3.68-2-.82-.12-.65.11-1.65.55-.5.27L360,296.76l-.57.38-1.1.14-.42.14-.75.64-.42.15-2.37.07-.32.1-.28.18-.28.3-1,1.39-.15.32-.47.34-2.93.44.63.22.66,0,.6.12.38.57-1.14,1.28-.61.85-.27.84-.23,1-1.59,2.23-.71,2-.53.81-.66-.13-.14-.37-.15-.51L345,310l-.4.25-2.19,3.42-1.16,1.25-1.28.71-1.34-.26-1.37-.9-1.68-.49-.67-.55-1.63-.63-.74-.52-.7-.89-.59-1.19-.2-1.28.46-1.16.11-.45-.09-1.51.11-.69.36-.51.36-.39.06-.41-.58-.55,1.18-3.53.87-1.43,1.36-.66.39,0,.73.25.44,0,.32-.12.55-.41.37-.09.34,0,.65.22.36,0,.2-.24.23-1.2.15-.43.61-.37,1.62-.08.59-.35.09-.47-.06-.56,0-.47.37-.2.23-.22.08-.53.18-3.22.34-2,.71-1.61,1.28-.9.33,0,1,0-.11.27-.22.71L347,286l.46-.44,1.49-1.95.32-.59.19-.15.94,0,.31-.12.52-.74.16-.39.14-.61.24-1.86.22-9.95.14-1,.62-1.67.13-1-.08-1-.32-1.88-.13-2.19-.18-.94-.27-.84-.37-.76-.09-.28,0-.45-.1-.23-.21-.2-.55-.3-.6-.68-.92-.65-.41-.41-.35-.44L348,254l-.1-.46,0-.81-.11-.32-.23-.21-.25-.14-.12-.14,0-.43.16-.17.2-.14.08-.35.07-1.18.3-.85.66-.51,1.13-.17.3.2.73,1,.43.39.53.22.56.1,1.18,0-.31-.81-1.24-.64-.26-1.09.09,0,.24,0,.23-.11.11-.22,0-.31-.07-.2-.08-.14,0-.13,0-.46-.26-1.19-.15-.4-.33-.19-.45-.1-.4-.15-.17-.35-.93-1.46-.58-1.3-.09-.45.07-.54.18-.32.66-.6-1.27-1.51L347,236l-1.48-.93-1.47-.4-1.14.08-.46-.08-1.32-.58-.48-.08-.54-.25-.84-1.23-.63-.44-.37-.07-1.21.07-.46-.1-.92-.43-1.15-.35-.63-.61-1.12-1.38-1.5-.8-5-.16-.65-.34-.51-.71-.32-.86-.12-.82-.17-.73-.43-.75-1-1.28-1-1-1.48-.88-1.62-.6-1.5-.12-3.12.27L313,220l-2.54-2.31-4.29-2.27-1.06-1-.53-.22-.66.22-.35.43-.24.5-.34.45-.66.25-4.39-.2-1.24-.44v.32l.46.4,1.14,1.24.1.26-.41.27-1.29,2-2,1.51-.94.93-.7,1.43-.23,1.73.21,1.72.5,1.53.64,1.1,1,1.14.56.36,3,.47.63.29-.82,1.25-1.65.62-1.84.16-2.91-.2-1.46.3-5.26,2.86-1.1,1-.78,1.33-.25,1.75.7,5.88-.49,4.22-1,3.71-1.47,3.32-2.17,3.88-.29.33-.39.1-.35-.18-.14-.35.09-.43.47-.83.1-.48,0-1,.12-.33.78-.81.4-.85.28-1,.17-1,.05-1.08.08-.53.31-.57.07-.48-.14-.59-.35-.35-.46-.09-.41.22-.18.44L279,253l-.13,1.24-.12.54-.29.43-.71.79.26,0,.63.3-.28.43-.72.56-.13.39-.16,1.36-.18.7-.45.67-.1.71-.2.45-.6-.39-.26-.44-.57-1.34-.21-.93.47-1.42,1.27-3,.14-.67,0-.63-.21-.49-.28-.12-.88.33.26-.83.48-1.07.59-.93.61-.4.25-.38-.21-.87-.61-1.61V245.1l.49-.48.57-.15.28-.37.25-.76.41-.83.08-.64-.74-.14-.9.92-.48.07-.44,0-.38.07-.4.4-1.69,3.31-.51.64-1.44,1.39-.3.4-.17.81-1.73,3.71-.4.5-.51.22-.57-.2-1-.89-.49-.21-.25,0-.41-.2-.25,0-.34.09-.09.23,0,.3-.1.29-1.15,1.9-.4.35h-.27l-.24-.11-.21-.14-.18-.08h-1l-.56.26-.13.63.13,1.47-.43,4.13.2.78-.29.55-.35.28-.43.1-.52,0-.32,0-.55-.26-.26,0-.22.12-.54.44-1.21.4-.93.8-.5,1.15.36,1.37.56,1.12.26,1.12V271l-.6,3.05-.21.51-.17.57v1.46l-.15.64.48,1.49-.44,2-.8,1.81-1.5,2.72L251,288.73l-1,1.66-2.5,2.25-1,1.34-.12,1.74.34.74,1,1.37.38,1,.33.42.23.45-.3,1,0,.52.22.72.55,3.92-.18,1.67-.82,1.55-1.81,2.36-.58,1.46-.11,1.78.24,1,.73,1.61.29,1.39,4.88,12.71.62.65.42-.49,2.28-.74-.19.61-.5.62-.64.46-.56.19-.47.28.1.71,1.7,4.66.28,1.78.36,1.1.45,1,.39.57,0,.18,0,.12-.06,0h.07l-.11,0h-.08l0,.05v.19l.39,1.16.11,11.4-1.78,10.58-1,3.33-2.52,6.29-3.74,5.55-3.63,8.36L242,392.94l-2.13,2.27-2,1.14-.31.49-.37.45-1.38.78h67.37v2.55l2.74-.1,2.74-.1,2.74-.11,5.48-.2,2.74-.11,2.74-.11,2.74-.1,2.74-.1,5.48-.21,2.74-.1,5.48-.21,2.74-.11L347,399l0-.34.13-.59.3-.35.37-.08.33.25h.24l0-1.17.11-.89.26-.76,1.38-2.19.56-.53.59.1.32-1.22.55-.9.73-.36.89.41.21-.55,0-.58-.14-.55-.32-.46,1-.12.51-.4.73-1.92.16.33.15.23.38.38-.13-.32-.05-.26-.05-.63-.09-.3-.31-.45-.06-.18.07-.62.19-.39.11-.32-.13-.45.14-.2.31-.71,1.06-4.73.68-1.57,1.43-1.8.66-.81.64-.6,2.07-.83,1-.17.32-.13.46-.36.6-.6.52-.69.21-.64.07-.56.3-.86.08-.54,0-.45-.3-.63-.1-.46.07-.86.25-1,.34-.84.36-.35,1.45-.61.44-.1.33,0,.23-.18.15-.6-.8-.49-.54-.94,0-.91.78-.4L370,358l.62-.47.63-.6.76-.57.41.31,1.39.61h.64v.55l-.27.64-.16.64.18.31.32.32.13.46-.38.73.67.75.24.16-.92.49-.25.3v.15l1.17-.15,1.07-.47.88-.86.75-1.29.5-1.19.91-3.24.21-1.88.19-.82,0-.48-.09-.34-.39-.91.1-.75.47-1.29.11-.88.39-1.58.74-1.44.52-1.44ZM267.84,230.33l-.16-.11-.14,0-.19.24,1.43,2.48.26.26.2-.81-.26-.77-.48-.67Zm12.22-14,.36-.28-.53-.23-1.16-.17-.53-.24,0,.87-.07.6-.15.5-.23.6-.28.49-.31.43-.24.49-.37,2-.47.94-.16.76.69.84,1,.26,1.21-.32,1.05-.75.54-1v-.7l-.33-1.31-.1-.73.06-.52.1-.51,0-.5-.18-.51-.17-.39,0-.34Zm1.16-1.56.19-.07.18-.17.15-.21.07-.19-.05-.34-.18,0-.26.07-.22-.06-.5-.49-.61-.47-.12-.06-.11,0-.11-.06-.1-.18-.13,1,.4.72.69.44Z"/><g id="UtNVxE.tif"><path class="cls-2" d="M283.32,380.29q5-15.3,9.95-30.63L267.2,330.73l0-.07h32.22l10-30.66h.07l10,30.67H351.6l0,.07-6.48,4.71-6.52,4.74-6.5,4.72-6.5,4.73q5,15.35,10,30.65l0,0-26.1-18.94-26.07,18.94Z"/></g></svg>