<svg id="Layer_1" data-name="Layer 1" xmlns="http://www.w3.org/2000/svg" viewBox="0 0 500 500"><defs><style>.cls-1{fill:#eee;stroke:#bcbcbc;stroke-width:2px;}.cls-2{fill:#e00000;}</style></defs><title>state_SC</title><path class="cls-1" d="M346.86,302.59l-.94.64-.63,1.06-.3,1.33,0,1.41h.47l1.19-2.9.07-1.1.23-.11.1-.11,0-.1Zm46.64-58.78-.47-.3-.58-.1v-.5l1.66-.5q-9.25-9.39-18.5-18.77-9.08-9.19-18.09-18.42-9.58-9.75-19.14-19.54c-3.68-3.75-7.35-7.52-11-11.27l-1.23-.43-1.88-.34-2.31,0-.68,0q-13-.25-26.05-.57c-8.92-.2-17.83-.46-26.74-.62l-7.34-.14-.7,0-2.44-.05-.47-.14-.39-.39-.12-.47,0-.51.24-7.75,0-.49L257,162q-4.15-5.47-8.3-11l-.2-.24-.2-.11-.28,0-.42.24-5.1,3.67-.35.11-.32,0-.43-.34-.21-.34-.22-.36-.09-.37-.06-.32,0-.31.06-.28.08-.31.71-1.44.14-.38,0-.41,0-.39-.09-.37-.13-.31-.18-.29-.24-.27-.25-.24-.51-.2-.79-.15q-12.95-.69-25.89-1.35-13.59-.68-27.19-1.41c-5.62-.29-11.25-.64-16.88-.87-1.68-.11-3.35-.18-5-.27L160,144l-.25-.09-.24-.16-.15-.18-.27-.44-.2-.24-.22-.21-.42,0-.44.16-.91.61-.4.38-.31.42-.33,1.11-.33.31-.47.17h-2.23l-.4.16-.47.43-.29.3-.33.17-.46.11-2.23,0-.45.07-3.17,1-2.05,1.07-.58.22-.47.07-.74-.05-.51,0-.42.33-.19.41-.26.86-.44.44-.67.49-1.46.79-.68.48-.55.27-.32.06-.45-.16-.24-.27-.26-.63-2,.43-18.07,6-1.14,0,0,.09-.09.91-.37.87-.52.86-.71.64-1.64.53-.79.4-2.51,1.82-.7.82-.55,1.08-.89,2.38-.62,1.05-.82.75-1,.6-.82.73-.51,1.08-.26.41-.09.57,0,.6-.12.61-.26.6-1.06,1.33-.58,3.16,2,2.75,5.64,3.67,2.08,1,1.46-.42.44.1.1,1,.48.93,2.29,1.29,1.3,1.75,1.31.84,1,1.78,1,1.1,2,1.12,2.92-.09h4.21l2.61,1.66.69,2,.31,2,.84,2.41.57.66,3.52,5.47.49,1.68L137,220l.35,1,.42.33,1,1.39,1.46.6.79.71.69.84.48.75.67,2.06.52,1,1.43.78.53.82.64,2.07.68,1.75.47,1.94.76.83,1,.37h1.24l1,1,1.07,1.58,1.46,1.66,1.92,1.29,2,.91,2.37,1.57,2.61,2.1,3,2.77,1.68,2,.76,3.32,1,1.46.53,1.64.87,2.15,1.25,1.35,1.44,1,1.33.63,2.93.87,1.22.6,1.3,1.08,2.59,3.3,1.28,1.19,2.48,1.71.88,1.28-.44,1.59.31.38.52,1.13-1,.16-.16.55.76,1.81-.87.46.42,1.1,2.62,3.15.51.45.24-.37.29-.34.69.09.74.29.41.24v.49l-.83.45,1.05.83.44.86-.2.76-.87.56.94,1.67,1,.9,1.11.41,1.39.09.42.6.35,2.94.31,1,2.2,1.82,5.44,2.25,2.51,1.43,1.76,1.7.93.59,1.35.23.76.54.77,1.23.58,1.49.22,1.25-.51,2.5v1.42l.73.62,3.15,5.51.59,2,.18,1.14.08,1.09.34,1.11.62,1,.36,1.17,0,1-.38.49-.17.89-.23.77.16.33.29.2.37.49.29.57.12.48-.2,1.41-.32,1.11L219.1,335l.59,1.18.79.79,1.11.78,1.28.64,1.84.35.57.29.49.38.46.46.92,1.08.33.27.22-.05,1.37.72.33.28.22.64.12.84.32.7.84.3.86.53.27,1.22-.06,2.28,1.88,6,.93.3.75.86L236,357l.13,1.53-.13.85-.48,1-.2.7-.1.8.1,1.9-.12.43-.59,1.24-.12.81.16.47,1.1,2.32,0,.23-.11.3-.06.4.19.53.27.32.66.39.32.27,1.8,2.21.54.31,3.57-.3,1.35.3,2.49,1.19.42.52.39,1,.95.73,1.13.41,1.24.11.06,0-.37-1,.1-.89.43-.77,2.81-3.37.62-1.33.22-1.79.31-.49,1.4-1.5.44-.77.15-1,0-1,.17-.84.49-.66.17,2.72-2.12,4.56-.57,2.64,5.16-3.19,2-2.79,1.66-1.75,0-.78-.86-1.41-.56-.71-.73-.62-.93-.2-1.12.51-1.9-3.41-.47-.56-1-.47,0-1,.69-1.75-.58-1.82-1.16-2.67-.81-2.62.49-1.66v-.49l-.47-.78-.89-2.1-.75-.66v-.45l1.17,0,.52.63.32,1,.52.93,1,.53.77.11.16.35-.86,1.28.06,1.53.71,2.7,1.55,4.05,4.17,3.72.84.49.66-.2.28-1.32-.15-.76-.6-1.15-.15-.57,0-5,.26-1,.61-.86-.37-.22-.06-.24-.4.09-.18.1-.11-.15-.16-.57,1.64.12.36,1.25-1.15,5.24.33.4,2.2-1-.81,4.55,0,1.9.37,1.92.66.31,2.39-1.19h.45l1,.14.68-.13,5.09-3.19.67-1.05-1.13-.72.2-.09.18,0,.12-.1,0-.37h.38l.81.32.65-1.16.46-1.75.23-1.43h-.45l-.28.62-.47.53-.95.88-.75.76-1.53.91-1.64.73-1.17.13,0-.73,1.08-1.18,1.45-1.12,2.67-1.13.32-1.37-.71-1.39-1.59-.63-5.68-.46,1.47-.62,1.77-.38,1.84-.1,1.66.12v-.55l-.83-.37-1.5-.89-.83-.17-.71.06-1.13.31-.73.06-5.46-1-1.12.61v-.56l0-.45.49-.69.61-.35h1.92l4.39.69,1.55-.2-.36-.64-.34-.73-.2-.8,0-.86h.46l.44.93.47.57,2.3,2,.75.2.82,0,1.16.27,1,.59.55.66.59.52,1,.22.9-.43.54-1.08.2-1.31-.18-1.21.84.48.25.74.1.85.32.74.83.62.49-.14.47-.44.75-.25,4.45-3.25.66-.34.58-.38.42-.62.23-.63-.06-.17-.35-.11-2.86-2.59-.75-.93.91-.18,1.17.78,1.94,2.12,1.46,1.25.89-.25.85-.8,1.44-.48,1.33-.21,2.87-1,3.26-.55.58-.54-.45-.75-1.41-1v-.46l.57-.36.66.06,1.51.3,1.57,0,.64-.3,3.61-2.53,1-1.48.2-2.18h-.42l-.07.44-.18.05-.88-.57-.36-.65-.53-.53-2.19-.52-.9-.71-.61-1-.26-1,.87.77.85.49.6-.09.25-1-.14-1.14-.57-1.84-.14-1,.36-.2,2.17,1.45-.11-.26.08-.51.27-.49.42-.24,1.07,1-1.4,1.83-.53,1.16.44.51,1.07.4.68.86.53.88.69.4,1.37-.29,1.86-.77,3.34-1.93,1-1.31,1-1.68,1.19-1.45,1.64-.6.31-.24.2-.52.28-.51.53-.24.45-.13,3-1.71.46-.55.45-1.11-.67.18-.59.31-.47.44-.33.58-.75-1.17-.31-.85.09-.84,1.61-3.32.75-1,.91-.4,1.95-1.26,1.15-.35.51.88.17.55.81,1.46.28.77.87-.64,1.21-.49,1.38-.32,1.41-.11,1.57-.34.46-.92.06-1.22.44-1.29,1.22-1.1,2.72-1.2.93-1,.17-1.57-1.1-.55-1.36-.37-.66-1,1.28.15,1.38.34,1.11.73.44,1.24.38-.12.33-.21.28-.27.29-.4-.69-.68-.44-.83.05-.7L352,295l.5.23.49,1.27.52.54.48-1.15.78-.73.9-.54.76-.63-.86-.3-.34-.37-.46-1.33-.13-.86.06-.84-.16-.61-2.12-.57-1.46-.82-1.21-1.2-.49-1.41.19-1.55.5-1.57.7-1.46,2.76-3.91,1.25-1.2,1.39-.63v.45l-.71.64-2.23,2.63-1.6,3.41-.55,1.69.22.77,2.57,0,.82.4.64,1,.29,1.37.07,2.64.48,1.06h.38l.06-1.72,1.62-8.57.48-.8-.48-.51,1.42-3.09q6.08-8.25,12.06-16.55l4.36-4.62,6.44-5.49,6.57-3.94,2.58-1,2.6-.16-.26-.69Z"/><g id="UtNVxE.tif"><path class="cls-2" d="M239.32,306.29q5-15.3,10-30.63L223.2,256.73l0-.07h32.22l10-30.66h.07l10,30.67H307.6l0,.07-6.48,4.71-6.52,4.74-6.5,4.72-6.5,4.73q5,15.35,10,30.65l0,0-26.1-18.94-26.07,18.94Z"/></g></svg>