<svg id="Layer_1" data-name="Layer 1" xmlns="http://www.w3.org/2000/svg" viewBox="0 0 500 500"><defs><style>.cls-1{fill:#eee;stroke:#bcbcbc;stroke-width:2px;}.cls-2{fill:#e00000;}</style></defs><title>state_SD</title><path class="cls-1" d="M414.42,196.26l-.29-.62-1.2-2.33-.42-.46-1-.89-.47-.55-1.28-.94-1.85-.58-3.44-.37-.88-.79-1-1.83L401,183.14l-.89-1.43L398,179.2l-1.15-1.56.18-1.31.53-1.31.33-.38.4-.33,1.64-1.2,1-1.15.44-.4,3.17-1.86,1.17-.95.42-.44.34-.5.16-.28,1.31-3.07.88-1.61.29-1.08.39-3.8.11-.32.16-.34.14-.24.27-.64h-88q-12.37,0-24.77,0H85.65c0,1.84,0,3.68,0,5.52q.06,13.13.13,26.25c0,8.59.09,17.17.12,25.76l0,.76H84.51q0,7.63,0,15.25,0,12.9.07,25.79,0,13.61.08,27.21,0,12.82.08,25.65,0,13.37.09,26.72H326.21l.14.11.87,1.09.33.31,4.58,3,.26.06.51,0,.25.06,1.81,1.24,1.8,1.63,6,2.61.45.49.18.7.52.34,3.11,1.09,1.18.1,1.17-.1.47-.26.9-.78.28-.17.17-.29.56-1.57.14-.79.37-.49.49-.32.51-.25,1.08-.26,3,.7,1.79-.44.55.11.89.54.5.19,1-.06,1.72-.92,1-.23,3.15.78,1.18,0,8.67-1.62,1.1.17.9.47.74.71,1.32,1.72,1.57,1.5.93.69,1,.51,1,.25,2.26.08.43.12,1,.53,1.18.24.41.32.31.4.45.41.8.28,3.92.3.77.46.59.65.49.72.28.58.14.42.23.32.53.3.55.12,1.81-.12.45.06.61.19.52.3.22.46-.13.54-.27.41-.21.49,0,.77.52.7,1.79,1.39.39.94.17,1.14.47.8.75.49,5.6.94,0-2.08-.31-.71-.24-.16-.21-.33,0-.36,0-.48-.06-.35-.13-.34-.29-.55-.15-.24-.18-.21-.21-.16-.75-.45-.07-.16v-.16l.13-.23.06-.08.47-.39.14-.26-.05-.24-.13-.23-.35-.41-.38-.38-2.33-1.76-.35-.34-.4-.48-.69-1.08-.22-.62-.1-.48.11-.81.19-.56.37-.83.67-1,.13-.26.11-.31.09-.33.11-.3.14-.26.16-.22.17-.16.16-.1.68-.3.16-.09.11-.23L410,344l0-.78.07-.35.1-.26.2-.22.16-.14.09-.27.1-.46.09-1.61.06-.41.06-.13.8-.92.17-.37.17-.69-.07-1.16,0-.21,0-.15,0-.07.19-.3.28-.81.11-.42-.05-.27-.07-.18-.16-.22-.18-.34v-.32l.08-.28,1.46-1.42.17-.32.17-.42.47-2.38v-.48l0-.38-.13-.45-.13-.6-.37-2.58-.14-.65-.12-.28-.18-.23-.25-.13-.28,0-.45.06h-.29l-1-.18-.69,0-.36,0-.33-.13-.27-.31-.08-.33.06-.31.14-.26.38-.44.13-.21-.05-.22-.25-.25-.31-.26-.37-.65,0-.4.11-.28.3,0,.63.08.3-.06.24-.15.16-.2.12-.21.14-1.46V313l-.1-.64-.17-.23-.74-.87-.35-.49-.79-.9-.21-.34-.22-.56,0-.49,0-.54.1-.66,0-.43-.11-.38-.14-.32-.1-.4.15-.15,6.17-.07V224.2q0-13.87,0-27.74Z"/><g id="UtNVxE.tif"><path class="cls-2" d="M234.32,292.29q5-15.3,10-30.63L218.2,242.73l0-.07h32.22l10-30.66h.07l10,30.67H302.6l0,.07-6.48,4.71-6.52,4.74-6.5,4.72-6.5,4.73q5,15.35,10,30.65l0,0-26.1-18.94-26.07,18.94Z"/></g></svg>