<svg id="Layer_1" data-name="Layer 1" xmlns="http://www.w3.org/2000/svg" viewBox="0 0 500 500"><defs><style>.cls-1{fill:#eee;stroke:#bcbcbc;stroke-width:2px;}.cls-2{fill:#e00000;}</style></defs><title>state_VT</title><path class="cls-1" d="M334.34,142.44l1.11-.41-16.77.12q-13.28.09-26.54.18t-26.52.18l-26.54.19q-13.22.08-26.42.18l.25,1.12.34,2.17.35,1.36.06.64,0,.74-.24,1.23-.25.78-.27.6-1.13,1.86-.23.54-.38,1.17-.11.56-.1,1.08,0,.58.12.63.31.8.3.54.31.43,1.24,1.4.22.43.13.41.08.47,0,.63-.06.79-.23,1.33-.2.87-.63,1.9-.22,1.13-.09,2.1-.14,1.09L211,175.82l-.1.56-.07.54.09,2.05.51,3.36.2.8.92,2,2.83,4.82.67,1.47.37,1.36.07.55,0,.88,0,.87-.19,1.36L216,198l-.43,1.11-1.26,2.44-.2.52-.19.55,0,.66,0,.75.93,4.15.11.94,0,1.81-.21,2-.25,1-.36.66-.71.54-.78.46-.72.56-.67.67-.28.43-.24.45-.13.53-.2,2-.26,1.25-2.29,7.42L207,230.2l-.16.57v.64l.29.81.3.51.86,1.15.19.41.17.61.09.79-.08,2.51.06,1.41.63,4,.3,1.15.27.79.51.77.2.38.13.45.06.57,0,.72-.17,1.21-.39,1.43,0,.56,0,.55,1.22,2.22.17.44.13.72,0,1-.13,1.93-.19,1-3.49,9.08-.18.82-.14,1,0,2,.1,1.12.37,1,.47.92.14.21.14,0,.25-.07.73-.33.74-.54.3-.37.29-.41.2-.5.3-1.6.21-.47.26-.42.35-.29.39-.21.46-.12.46,0,.5,0,1.06.23.48.23.38.4.29.51,1,3.29.54.79.34.24.62.6.5.74,0,2v.68c-.06,2.48-.1,5-.15,7.44q-.3,13.39-.57,26.79-.26,12.82-.52,25.65l-.2,1.48-.72,3.19c.6,1.83,1.19,3.67,1.79,5.5q13.06.51,26.15,1c8.71.32,17.43.67,26.15,1v0l-.44-2.61-1.29-1.87-2.85-3-.56-1-.41-.89-.25-1-.14-1.41,0-1.64.34-1.06.47-1,.51-1.29.47-3.93.45-1.59,1.14-.65,1.61-.59.63-1.51.28-4.15,1.15-5.1.18-2.08-.41-2.35V312.3l.41-3.73.45-.51.31-.45.15-.53-.09-.54-.15-.27-.16-.18-.06-.26.1-1.17.31-.94.51-.82.69-.82.81-1.73.15-2.07-.25-3.44.49-15.58.39-2.41.69-1.31,2.29-2.23.94-1.56.54-1.8.59-3.81.23-3.2.42-.95,1.8-1.47.84-1.2,3.52-3.25.7-1.46.55-1.8.39-2,.14-2,.4-1.93,1-1.91,4.36-6.24.14-.67-.44-.53-.56-.58-.3-.76.39-1.46,2.83-5.15,1-2.94.37-3.55,0-8.13.5-4.7,1.48-3.33,2.44-2,3.4-.67,3.24.15,1.61-.27,1.26-.88,2.19-2.85,1.07-1,5.81-3.7,1.72-.72.59-.82,1.16-2,2.28-1.9,1.27-1.67.06-1.62-.22-1.67.48-1.79.67-.46H331l.81-.16.65-.94,0-.91-.45-1-.82-1.29-2.07-5.37-.25-1.34-.47-1.68-.93-1.28-.66-1.49.27-2.33,1.63-3.37q3-4.38,6.11-8.75l.59-2.3-.58-1.47-.9-1.43-.49-2.18.24-2.46Z"/><g id="UtNVxE.tif"><path class="cls-2" d="M234.32,245.29q5-15.3,10-30.63L218.2,195.73l0-.07h32.22l10-30.66h.07l10,30.67H302.6l0,.07-6.48,4.71-6.52,4.74-6.5,4.72-6.5,4.73q5,15.35,10,30.65l0,.05-26.1-18.94-26.07,18.94Z"/></g></svg>